<svg width="630" height="555" viewBox="0 0 630 555" fill="none" xmlns="http://www.w3.org/2000/svg">
<mask id="path-1-outside-1" maskUnits="userSpaceOnUse" x="360" y="37" width="271" height="518" fill="black">
<rect fill="white" x="360" y="37" width="271" height="518"/>
<path d="M370 47C432.638 47 492.993 70.5134 539.123 112.887C585.252 155.261 613.794 213.407 619.101 275.82C624.408 338.232 606.092 400.363 567.779 449.916C529.466 499.47 473.947 532.836 412.208 543.411L370 297V47Z"/>
</mask>
<path d="M370 47C432.638 47 492.993 70.5134 539.123 112.887C585.252 155.261 613.794 213.407 619.101 275.82C624.408 338.232 606.092 400.363 567.779 449.916C529.466 499.47 473.947 532.836 412.208 543.411L370 297V47Z" stroke="#39998E" stroke-width="20" mask="url(#path-1-outside-1)"/>
<circle cx="370" cy="297" r="250" fill="#F1F3F2"/>
<path d="M155.668 30.52H152.464V37H149.98V30.52H139.612V28.828L149.656 14.032H152.464V28.432H155.668V30.52ZM149.98 28.432V21.304C149.98 20.392 150.04 18.952 150.16 16.984H150.016C149.536 17.848 149.164 18.484 148.9 18.892L148.144 20.152L142.42 28.432H149.98ZM163.199 37C163.391 32.584 163.991 28.828 164.999 25.732C166.007 22.612 167.639 19.468 169.895 16.3H158.303V14.032H172.919V15.616C171.143 17.92 169.763 20.128 168.779 22.24C167.819 24.352 167.135 26.536 166.727 28.792C166.319 31.048 166.043 33.784 165.899 37H163.199ZM178.794 37.432C178.242 37.432 177.774 37.24 177.39 36.856C177.006 36.448 176.813 35.944 176.813 35.344C176.813 34.72 177.006 34.216 177.39 33.832C177.774 33.424 178.242 33.22 178.794 33.22C179.346 33.22 179.814 33.424 180.198 33.832C180.582 34.216 180.774 34.72 180.774 35.344C180.774 35.944 180.582 36.448 180.198 36.856C179.814 37.24 179.346 37.432 178.794 37.432ZM191.616 37.432C188.592 37.432 186.096 36.352 184.128 34.192L185.46 32.464C186.3 33.328 187.188 34.012 188.124 34.516C189.084 34.996 190.2 35.236 191.472 35.236C192.936 35.236 194.124 34.84 195.036 34.048C195.948 33.232 196.404 32.152 196.404 30.808C196.404 27.64 193.896 26.056 188.88 26.056V24.004C191.232 24.004 192.936 23.596 193.992 22.78C195.048 21.964 195.576 20.884 195.576 19.54C195.576 18.388 195.204 17.476 194.46 16.804C193.716 16.108 192.708 15.76 191.436 15.76C189.612 15.76 187.944 16.552 186.432 18.136L184.992 16.444C187.008 14.548 189.18 13.6 191.508 13.6C193.5 13.6 195.12 14.116 196.368 15.148C197.616 16.156 198.24 17.56 198.24 19.36C198.24 20.704 197.856 21.844 197.088 22.78C196.344 23.692 195.312 24.388 193.992 24.868V25.012C195.48 25.348 196.692 26.032 197.628 27.064C198.588 28.096 199.068 29.368 199.068 30.88C199.068 32.2 198.732 33.364 198.06 34.372C197.412 35.356 196.524 36.112 195.396 36.64C194.268 37.168 193.008 37.432 191.616 37.432ZM207.463 27.604C205.831 27.604 204.535 26.944 203.575 25.624C202.639 24.304 202.171 22.468 202.171 20.116C202.171 17.788 202.639 15.976 203.575 14.68C204.535 13.36 205.831 12.7 207.463 12.7C209.095 12.7 210.379 13.36 211.315 14.68C212.275 15.976 212.755 17.788 212.755 20.116C212.755 22.468 212.275 24.304 211.315 25.624C210.379 26.944 209.095 27.604 207.463 27.604ZM221.143 12.916H222.979L209.911 37.432H208.075L221.143 12.916ZM207.463 25.948C208.471 25.948 209.263 25.444 209.839 24.436C210.439 23.428 210.739 21.988 210.739 20.116C210.739 18.244 210.439 16.816 209.839 15.832C209.263 14.848 208.471 14.356 207.463 14.356C206.455 14.356 205.651 14.848 205.051 15.832C204.475 16.816 204.187 18.244 204.187 20.116C204.187 21.988 204.475 23.428 205.051 24.436C205.651 25.444 206.455 25.948 207.463 25.948ZM223.699 37.432C222.067 37.432 220.771 36.772 219.811 35.452C218.875 34.132 218.407 32.296 218.407 29.944C218.407 27.616 218.875 25.804 219.811 24.508C220.771 23.188 222.067 22.528 223.699 22.528C225.331 22.528 226.615 23.188 227.551 24.508C228.511 25.804 228.991 27.616 228.991 29.944C228.991 32.296 228.511 34.132 227.551 35.452C226.615 36.772 225.331 37.432 223.699 37.432ZM223.699 35.776C224.683 35.776 225.463 35.272 226.039 34.264C226.639 33.256 226.939 31.816 226.939 29.944C226.939 28.072 226.651 26.644 226.075 25.66C225.499 24.676 224.707 24.184 223.699 24.184C222.691 24.184 221.887 24.676 221.287 25.66C220.711 26.644 220.423 28.072 220.423 29.944C220.423 31.816 220.711 33.256 221.287 34.264C221.887 35.272 222.691 35.776 223.699 35.776ZM244.528 37.432C243.04 37.432 241.816 37 240.856 36.136C239.896 35.272 239.416 34.06 239.416 32.5C239.416 30.604 240.28 29.152 242.008 28.144C243.736 27.112 246.496 26.392 250.288 25.984C250.288 24.616 250 23.5 249.424 22.636C248.872 21.748 247.912 21.304 246.544 21.304C244.888 21.304 243.124 21.94 241.252 23.212L240.208 21.412C242.512 19.876 244.768 19.108 246.976 19.108C248.992 19.108 250.48 19.744 251.44 21.016C252.4 22.264 252.88 23.992 252.88 26.2V37H250.72L250.504 34.876H250.396C248.332 36.58 246.376 37.432 244.528 37.432ZM245.212 35.308C246.052 35.308 246.868 35.116 247.66 34.732C248.476 34.324 249.352 33.7 250.288 32.86V27.748C247.288 28.108 245.152 28.66 243.88 29.404C242.632 30.148 242.008 31.132 242.008 32.356C242.008 33.34 242.308 34.084 242.908 34.588C243.508 35.068 244.276 35.308 245.212 35.308ZM261.447 37.432C260.463 37.432 259.743 37.132 259.287 36.532C258.831 35.908 258.603 34.996 258.603 33.796V11.296H261.195V34.012C261.195 34.42 261.267 34.732 261.411 34.948C261.579 35.14 261.783 35.236 262.023 35.236C262.215 35.236 262.431 35.212 262.671 35.164L263.031 37.18C262.575 37.348 262.047 37.432 261.447 37.432ZM265.407 19.54H268.107L270.843 29.944L271.167 31.492C271.503 32.932 271.743 34.024 271.887 34.768H272.031C272.487 32.896 272.895 31.288 273.255 29.944L276.063 19.54H278.691L281.535 29.944L282.759 34.768H282.903L284.055 29.944L286.719 19.54H289.239L284.487 37H281.247L278.583 27.244L277.899 24.4C277.851 24.208 277.683 23.488 277.395 22.24H277.251C276.723 24.616 276.303 26.308 275.991 27.316L273.399 37H270.339L265.407 19.54ZM296.77 37.432C295.282 37.432 294.058 37 293.098 36.136C292.138 35.272 291.658 34.06 291.658 32.5C291.658 30.604 292.522 29.152 294.25 28.144C295.978 27.112 298.738 26.392 302.53 25.984C302.53 24.616 302.242 23.5 301.666 22.636C301.114 21.748 300.154 21.304 298.786 21.304C297.13 21.304 295.366 21.94 293.494 23.212L292.45 21.412C294.754 19.876 297.01 19.108 299.218 19.108C301.234 19.108 302.722 19.744 303.682 21.016C304.642 22.264 305.122 23.992 305.122 26.2V37H302.962L302.746 34.876H302.638C300.574 36.58 298.618 37.432 296.77 37.432ZM297.454 35.308C298.294 35.308 299.11 35.116 299.902 34.732C300.718 34.324 301.594 33.7 302.53 32.86V27.748C299.53 28.108 297.394 28.66 296.122 29.404C294.874 30.148 294.25 31.132 294.25 32.356C294.25 33.34 294.55 34.084 295.15 34.588C295.75 35.068 296.518 35.308 297.454 35.308ZM310.881 44.632C310.161 44.632 309.501 44.512 308.901 44.272L309.405 42.148C309.885 42.34 310.341 42.436 310.773 42.436C311.733 42.436 312.549 42.076 313.221 41.356C313.893 40.636 314.433 39.664 314.841 38.44L315.273 37.108L308.217 19.54H310.917L314.661 29.548L316.389 34.444H316.533C316.869 33.436 317.217 32.332 317.577 31.132L318.045 29.548L321.321 19.54H323.877L317.253 38.62C316.581 40.492 315.741 41.956 314.733 43.012C313.749 44.092 312.465 44.632 310.881 44.632ZM331.833 37.432C330.633 37.432 329.469 37.216 328.341 36.784C327.213 36.328 326.217 35.74 325.353 35.02L326.685 33.256C327.549 33.952 328.389 34.48 329.205 34.84C330.021 35.2 330.933 35.38 331.941 35.38C333.093 35.38 333.981 35.104 334.605 34.552C335.229 34 335.541 33.304 335.541 32.464C335.541 31.624 335.181 30.952 334.461 30.448C333.765 29.944 332.769 29.464 331.473 29.008C329.817 28.408 328.521 27.76 327.585 27.064C326.649 26.344 326.181 25.324 326.181 24.004C326.181 22.588 326.709 21.424 327.765 20.512C328.845 19.576 330.297 19.108 332.121 19.108C333.105 19.108 334.053 19.288 334.965 19.648C335.877 20.008 336.693 20.476 337.413 21.052L336.153 22.744C335.457 22.24 334.797 21.856 334.173 21.592C333.549 21.328 332.865 21.196 332.121 21.196C331.017 21.196 330.177 21.46 329.601 21.988C329.025 22.492 328.737 23.116 328.737 23.86C328.737 24.388 328.905 24.844 329.241 25.228C329.601 25.612 330.033 25.924 330.537 26.164C331.041 26.38 331.749 26.668 332.661 27.028C333.885 27.484 334.845 27.892 335.541 28.252C336.237 28.612 336.837 29.128 337.341 29.8C337.845 30.448 338.097 31.288 338.097 32.32C338.097 33.256 337.845 34.12 337.341 34.912C336.861 35.68 336.141 36.292 335.181 36.748C334.245 37.204 333.129 37.432 331.833 37.432Z" fill="black"/>
<mask id="path-4-outside-2" maskUnits="userSpaceOnUse" x="362" y="75" width="220" height="387" fill="black">
<rect fill="white" x="362" y="75" width="220" height="387"/>
<path d="M372 85C414.343 85 455.594 98.439 489.811 123.381C524.028 148.324 549.446 183.483 562.405 223.794C575.363 264.106 575.192 307.49 561.918 347.699C548.644 387.908 522.95 422.866 488.538 447.539L372 285V85Z"/>
</mask>
<path d="M372 85C414.343 85 455.594 98.439 489.811 123.381C524.028 148.324 549.446 183.483 562.405 223.794C575.363 264.106 575.192 307.49 561.918 347.699C548.644 387.908 522.95 422.866 488.538 447.539L372 285V85Z" stroke="#39998E" stroke-width="20" mask="url(#path-4-outside-2)"/>
<circle cx="372" cy="285" r="200" fill="#F1F3F2"/>
<path d="M16.668 79.52H13.464V86H10.98V79.52H0.612V77.828L10.656 63.032H13.464V77.432H16.668V79.52ZM10.98 77.432V70.304C10.98 69.392 11.04 67.952 11.16 65.984H11.016C10.536 66.848 10.164 67.484 9.9 67.892L9.144 69.152L3.42 77.432H10.98ZM26.5748 86.432C24.2948 86.432 22.5188 85.388 21.2468 83.3C19.9748 81.212 19.3388 78.26 19.3388 74.444C19.3388 70.628 19.9748 67.7 21.2468 65.66C22.5188 63.62 24.2948 62.6 26.5748 62.6C28.8548 62.6 30.6308 63.62 31.9028 65.66C33.1748 67.7 33.8108 70.628 33.8108 74.444C33.8108 78.26 33.1748 81.212 31.9028 83.3C30.6308 85.388 28.8548 86.432 26.5748 86.432ZM26.5748 84.308C28.0388 84.308 29.1788 83.492 29.9948 81.86C30.8348 80.204 31.2548 77.732 31.2548 74.444C31.2548 71.156 30.8348 68.72 29.9948 67.136C29.1788 65.528 28.0388 64.724 26.5748 64.724C25.1108 64.724 23.9588 65.528 23.1188 67.136C22.3028 68.72 21.8948 71.156 21.8948 74.444C21.8948 77.732 22.3028 80.204 23.1188 81.86C23.9588 83.492 25.1108 84.308 26.5748 84.308ZM39.7935 86.432C39.2415 86.432 38.7735 86.24 38.3895 85.856C38.0055 85.448 37.8135 84.944 37.8135 84.344C37.8135 83.72 38.0055 83.216 38.3895 82.832C38.7735 82.424 39.2415 82.22 39.7935 82.22C40.3455 82.22 40.8135 82.424 41.1975 82.832C41.5815 83.216 41.7735 83.72 41.7735 84.344C41.7735 84.944 41.5815 85.448 41.1975 85.856C40.8135 86.24 40.3455 86.432 39.7935 86.432ZM45.9203 83.804H51.2123V66.344H47.0363V64.652C48.9803 64.316 50.5763 63.776 51.8243 63.032H53.8403V83.804H58.6283V86H45.9203V83.804ZM66.9864 76.604C65.3544 76.604 64.0584 75.944 63.0984 74.624C62.1624 73.304 61.6944 71.468 61.6944 69.116C61.6944 66.788 62.1624 64.976 63.0984 63.68C64.0584 62.36 65.3544 61.7 66.9864 61.7C68.6184 61.7 69.9024 62.36 70.8384 63.68C71.7984 64.976 72.2784 66.788 72.2784 69.116C72.2784 71.468 71.7984 73.304 70.8384 74.624C69.9024 75.944 68.6184 76.604 66.9864 76.604ZM80.6664 61.916H82.5024L69.4344 86.432H67.5984L80.6664 61.916ZM66.9864 74.948C67.9944 74.948 68.7864 74.444 69.3624 73.436C69.9624 72.428 70.2624 70.988 70.2624 69.116C70.2624 67.244 69.9624 65.816 69.3624 64.832C68.7864 63.848 67.9944 63.356 66.9864 63.356C65.9784 63.356 65.1744 63.848 64.5744 64.832C63.9984 65.816 63.7104 67.244 63.7104 69.116C63.7104 70.988 63.9984 72.428 64.5744 73.436C65.1744 74.444 65.9784 74.948 66.9864 74.948ZM83.2224 86.432C81.5904 86.432 80.2944 85.772 79.3344 84.452C78.3984 83.132 77.9304 81.296 77.9304 78.944C77.9304 76.616 78.3984 74.804 79.3344 73.508C80.2944 72.188 81.5904 71.528 83.2224 71.528C84.8544 71.528 86.1384 72.188 87.0744 73.508C88.0344 74.804 88.5144 76.616 88.5144 78.944C88.5144 81.296 88.0344 83.132 87.0744 84.452C86.1384 85.772 84.8544 86.432 83.2224 86.432ZM83.2224 84.776C84.2064 84.776 84.9864 84.272 85.5624 83.264C86.1624 82.256 86.4624 80.816 86.4624 78.944C86.4624 77.072 86.1744 75.644 85.5984 74.66C85.0224 73.676 84.2304 73.184 83.2224 73.184C82.2144 73.184 81.4104 73.676 80.8104 74.66C80.2344 75.644 79.9464 77.072 79.9464 78.944C79.9464 80.816 80.2344 82.256 80.8104 83.264C81.4104 84.272 82.2144 84.776 83.2224 84.776ZM100.091 68.54H102.251L102.467 71.132H102.575C104.423 69.116 106.235 68.108 108.011 68.108C110.483 68.108 112.091 69.236 112.835 71.492C113.843 70.388 114.815 69.548 115.751 68.972C116.687 68.396 117.647 68.108 118.631 68.108C122.159 68.108 123.923 70.376 123.923 74.912V86H121.295V75.236C121.295 73.556 121.019 72.332 120.467 71.564C119.915 70.796 119.051 70.412 117.875 70.412C116.507 70.412 114.983 71.348 113.303 73.22V86H110.675V75.236C110.675 73.58 110.399 72.368 109.847 71.6C109.295 70.808 108.443 70.412 107.291 70.412C105.923 70.412 104.387 71.348 102.683 73.22V86H100.091V68.54ZM136.458 86.432C135.018 86.432 133.686 86.072 132.462 85.352C131.238 84.608 130.254 83.552 129.51 82.184C128.79 80.792 128.43 79.16 128.43 77.288C128.43 75.416 128.79 73.784 129.51 72.392C130.254 71 131.238 69.944 132.462 69.224C133.686 68.48 135.018 68.108 136.458 68.108C137.898 68.108 139.23 68.48 140.454 69.224C141.678 69.944 142.65 71 143.37 72.392C144.114 73.784 144.486 75.416 144.486 77.288C144.486 79.16 144.114 80.792 143.37 82.184C142.65 83.552 141.678 84.608 140.454 85.352C139.23 86.072 137.898 86.432 136.458 86.432ZM136.458 84.236C137.49 84.236 138.402 83.948 139.194 83.372C140.01 82.796 140.646 81.98 141.102 80.924C141.558 79.868 141.786 78.656 141.786 77.288C141.786 75.92 141.558 74.708 141.102 73.652C140.646 72.596 140.01 71.78 139.194 71.204C138.402 70.604 137.49 70.304 136.458 70.304C135.426 70.304 134.502 70.604 133.686 71.204C132.894 71.78 132.27 72.596 131.814 73.652C131.382 74.708 131.166 75.92 131.166 77.288C131.166 79.376 131.658 81.056 132.642 82.328C133.626 83.6 134.898 84.236 136.458 84.236ZM153.633 86.432C152.433 86.432 151.269 86.216 150.141 85.784C149.013 85.328 148.017 84.74 147.153 84.02L148.485 82.256C149.349 82.952 150.189 83.48 151.005 83.84C151.821 84.2 152.733 84.38 153.741 84.38C154.893 84.38 155.781 84.104 156.405 83.552C157.029 83 157.341 82.304 157.341 81.464C157.341 80.624 156.981 79.952 156.261 79.448C155.565 78.944 154.569 78.464 153.273 78.008C151.617 77.408 150.321 76.76 149.385 76.064C148.449 75.344 147.981 74.324 147.981 73.004C147.981 71.588 148.509 70.424 149.565 69.512C150.645 68.576 152.097 68.108 153.921 68.108C154.905 68.108 155.853 68.288 156.765 68.648C157.677 69.008 158.493 69.476 159.213 70.052L157.953 71.744C157.257 71.24 156.597 70.856 155.973 70.592C155.349 70.328 154.665 70.196 153.921 70.196C152.817 70.196 151.977 70.46 151.401 70.988C150.825 71.492 150.537 72.116 150.537 72.86C150.537 73.388 150.705 73.844 151.041 74.228C151.401 74.612 151.833 74.924 152.337 75.164C152.841 75.38 153.549 75.668 154.461 76.028C155.685 76.484 156.645 76.892 157.341 77.252C158.037 77.612 158.637 78.128 159.141 78.8C159.645 79.448 159.897 80.288 159.897 81.32C159.897 82.256 159.645 83.12 159.141 83.912C158.661 84.68 157.941 85.292 156.981 85.748C156.045 86.204 154.929 86.432 153.633 86.432ZM169.086 86.432C167.358 86.432 166.122 85.94 165.378 84.956C164.634 83.972 164.262 82.568 164.262 80.744V70.7H161.634V68.72L164.37 68.54L164.694 63.608H166.89V68.54H171.678V70.7H166.89V80.816C166.89 81.968 167.094 82.832 167.502 83.408C167.934 83.984 168.654 84.272 169.662 84.272C170.166 84.272 170.838 84.116 171.678 83.804L172.218 85.784C170.922 86.216 169.878 86.432 169.086 86.432ZM189.579 86.432C188.139 86.432 186.807 86.072 185.583 85.352C184.359 84.608 183.375 83.552 182.631 82.184C181.911 80.792 181.551 79.16 181.551 77.288C181.551 75.416 181.911 73.784 182.631 72.392C183.375 71 184.359 69.944 185.583 69.224C186.807 68.48 188.139 68.108 189.579 68.108C191.019 68.108 192.351 68.48 193.575 69.224C194.799 69.944 195.771 71 196.491 72.392C197.235 73.784 197.607 75.416 197.607 77.288C197.607 79.16 197.235 80.792 196.491 82.184C195.771 83.552 194.799 84.608 193.575 85.352C192.351 86.072 191.019 86.432 189.579 86.432ZM189.579 84.236C190.611 84.236 191.523 83.948 192.315 83.372C193.131 82.796 193.767 81.98 194.223 80.924C194.679 79.868 194.907 78.656 194.907 77.288C194.907 75.92 194.679 74.708 194.223 73.652C193.767 72.596 193.131 71.78 192.315 71.204C191.523 70.604 190.611 70.304 189.579 70.304C188.547 70.304 187.623 70.604 186.807 71.204C186.015 71.78 185.391 72.596 184.935 73.652C184.503 74.708 184.287 75.92 184.287 77.288C184.287 79.376 184.779 81.056 185.763 82.328C186.747 83.6 188.019 84.236 189.579 84.236ZM207.834 62.024C206.154 62.024 205.314 63.2 205.314 65.552V68.54H209.094V70.7H205.314V86H202.686V70.7H200.31V68.72L202.686 68.54V65.516C202.686 63.716 203.094 62.324 203.91 61.34C204.75 60.356 205.986 59.864 207.618 59.864C208.554 59.864 209.49 60.056 210.426 60.44L209.85 62.456C209.178 62.168 208.506 62.024 207.834 62.024ZM225.02 86.432C223.292 86.432 222.056 85.94 221.312 84.956C220.568 83.972 220.196 82.568 220.196 80.744V70.7H217.568V68.72L220.304 68.54L220.628 63.608H222.824V68.54H227.612V70.7H222.824V80.816C222.824 81.968 223.028 82.832 223.436 83.408C223.868 83.984 224.588 84.272 225.596 84.272C226.1 84.272 226.772 84.116 227.612 83.804L228.152 85.784C226.856 86.216 225.812 86.432 225.02 86.432ZM231.646 60.296H234.238V67.424L234.166 71.096C235.126 70.136 236.062 69.404 236.974 68.9C237.886 68.372 238.894 68.108 239.998 68.108C241.822 68.108 243.166 68.684 244.03 69.836C244.894 70.964 245.326 72.656 245.326 74.912V86H242.698V75.236C242.698 73.556 242.422 72.332 241.87 71.564C241.342 70.796 240.466 70.412 239.242 70.412C238.378 70.412 237.574 70.64 236.83 71.096C236.086 71.528 235.222 72.236 234.238 73.22V86H231.646V60.296ZM264.407 76.28C264.407 76.904 264.371 77.432 264.299 77.864H252.239C252.359 79.904 252.983 81.488 254.111 82.616C255.263 83.744 256.667 84.308 258.323 84.308C259.859 84.308 261.335 83.84 262.751 82.904L263.723 84.632C262.859 85.184 261.971 85.628 261.059 85.964C260.147 86.276 259.127 86.432 257.999 86.432C256.463 86.432 255.059 86.072 253.787 85.352C252.539 84.608 251.543 83.54 250.799 82.148C250.079 80.756 249.719 79.136 249.719 77.288C249.719 75.464 250.079 73.856 250.799 72.464C251.543 71.072 252.515 70.004 253.715 69.26C254.915 68.492 256.187 68.108 257.531 68.108C259.691 68.108 261.371 68.84 262.571 70.304C263.795 71.744 264.407 73.736 264.407 76.28ZM262.067 75.956C262.067 74.108 261.671 72.692 260.879 71.708C260.087 70.724 258.983 70.232 257.567 70.232C256.271 70.232 255.119 70.724 254.111 71.708C253.103 72.692 252.503 74.108 252.311 75.956H262.067ZM281.305 86.432C279.577 86.432 278.341 85.94 277.597 84.956C276.853 83.972 276.481 82.568 276.481 80.744V70.7H273.853V68.72L276.589 68.54L276.913 63.608H279.109V68.54H283.897V70.7H279.109V80.816C279.109 81.968 279.313 82.832 279.721 83.408C280.153 83.984 280.873 84.272 281.881 84.272C282.385 84.272 283.057 84.116 283.897 83.804L284.437 85.784C283.141 86.216 282.097 86.432 281.305 86.432ZM287.931 68.54H290.523V86H287.931V68.54ZM289.263 64.796C288.735 64.796 288.303 64.628 287.967 64.292C287.631 63.956 287.463 63.512 287.463 62.96C287.463 62.432 287.631 62.012 287.967 61.7C288.303 61.364 288.735 61.196 289.263 61.196C289.791 61.196 290.223 61.364 290.559 61.7C290.895 62.012 291.063 62.432 291.063 62.96C291.063 63.512 290.895 63.956 290.559 64.292C290.223 64.628 289.791 64.796 289.263 64.796ZM296.65 68.54H298.81L299.026 71.132H299.134C300.982 69.116 302.794 68.108 304.57 68.108C307.042 68.108 308.65 69.236 309.394 71.492C310.402 70.388 311.374 69.548 312.31 68.972C313.246 68.396 314.206 68.108 315.19 68.108C318.718 68.108 320.482 70.376 320.482 74.912V86H317.854V75.236C317.854 73.556 317.578 72.332 317.026 71.564C316.474 70.796 315.61 70.412 314.434 70.412C313.066 70.412 311.542 71.348 309.862 73.22V86H307.234V75.236C307.234 73.58 306.958 72.368 306.406 71.6C305.854 70.808 305.002 70.412 303.85 70.412C302.482 70.412 300.946 71.348 299.242 73.22V86H296.65V68.54ZM339.677 76.28C339.677 76.904 339.641 77.432 339.569 77.864H327.509C327.629 79.904 328.253 81.488 329.381 82.616C330.533 83.744 331.937 84.308 333.593 84.308C335.129 84.308 336.605 83.84 338.021 82.904L338.993 84.632C338.129 85.184 337.241 85.628 336.329 85.964C335.417 86.276 334.397 86.432 333.269 86.432C331.733 86.432 330.329 86.072 329.057 85.352C327.809 84.608 326.813 83.54 326.069 82.148C325.349 80.756 324.989 79.136 324.989 77.288C324.989 75.464 325.349 73.856 326.069 72.464C326.813 71.072 327.785 70.004 328.985 69.26C330.185 68.492 331.457 68.108 332.801 68.108C334.961 68.108 336.641 68.84 337.841 70.304C339.065 71.744 339.677 73.736 339.677 76.28ZM337.337 75.956C337.337 74.108 336.941 72.692 336.149 71.708C335.357 70.724 334.253 70.232 332.837 70.232C331.541 70.232 330.389 70.724 329.381 71.708C328.373 72.692 327.773 74.108 327.581 75.956H337.337Z" fill="black"/>
<mask id="path-7-outside-3" maskUnits="userSpaceOnUse" x="362" y="117" width="111" height="192" fill="black">
<rect fill="white" x="362" y="117" width="111" height="192"/>
<path d="M372 127C403.033 127 433.302 136.625 458.636 154.549L372 277V127Z"/>
</mask>
<path d="M372 127C403.033 127 433.302 136.625 458.636 154.549L372 277V127Z" stroke="#39998E" stroke-width="20" mask="url(#path-7-outside-3)"/>
<circle cx="372" cy="277" r="150" fill="#F1F3F2"/>
<path d="M102.1 109.6C103.636 109.6 104.992 110.02 106.168 110.86C107.368 111.676 108.292 112.912 108.94 114.568C109.612 116.2 109.948 118.204 109.948 120.58C109.948 123.556 109.552 126.004 108.76 127.924C107.968 129.844 106.924 131.248 105.628 132.136C104.332 133 102.88 133.432 101.272 133.432C99.112 133.432 97.324 132.64 95.908 131.056L97.384 129.4C97.864 129.976 98.428 130.432 99.076 130.768C99.748 131.08 100.444 131.236 101.164 131.236C102.988 131.236 104.476 130.432 105.628 128.824C106.78 127.216 107.38 124.624 107.428 121.048C106.684 121.984 105.82 122.716 104.836 123.244C103.876 123.772 102.916 124.036 101.956 124.036C99.916 124.036 98.32 123.436 97.168 122.236C96.016 121.012 95.44 119.236 95.44 116.908C95.44 115.516 95.74 114.268 96.34 113.164C96.94 112.036 97.744 111.16 98.752 110.536C99.784 109.912 100.9 109.6 102.1 109.6ZM102.388 122.02C103.18 122.02 104.008 121.768 104.872 121.264C105.76 120.76 106.588 119.968 107.356 118.888C107.188 116.584 106.66 114.808 105.772 113.56C104.884 112.312 103.66 111.688 102.1 111.688C100.924 111.688 99.94 112.18 99.148 113.164C98.356 114.124 97.96 115.372 97.96 116.908C97.96 118.516 98.332 119.776 99.076 120.688C99.82 121.576 100.924 122.02 102.388 122.02ZM116.075 133.432C115.523 133.432 115.055 133.24 114.671 132.856C114.287 132.448 114.095 131.944 114.095 131.344C114.095 130.72 114.287 130.216 114.671 129.832C115.055 129.424 115.523 129.22 116.075 129.22C116.627 129.22 117.095 129.424 117.479 129.832C117.863 130.216 118.055 130.72 118.055 131.344C118.055 131.944 117.863 132.448 117.479 132.856C117.095 133.24 116.627 133.432 116.075 133.432ZM129.366 133.432C127.95 133.432 126.678 133.168 125.55 132.64C124.422 132.088 123.534 131.332 122.886 130.372C122.238 129.412 121.914 128.332 121.914 127.132C121.914 125.74 122.334 124.516 123.174 123.46C124.014 122.404 125.058 121.54 126.306 120.868V120.724C124.146 119.212 123.066 117.448 123.066 115.432C123.066 114.28 123.342 113.272 123.894 112.408C124.446 111.52 125.202 110.836 126.162 110.356C127.146 109.852 128.238 109.6 129.438 109.6C131.406 109.6 132.966 110.164 134.118 111.292C135.294 112.42 135.882 113.884 135.882 115.684C135.882 116.788 135.558 117.844 134.91 118.852C134.262 119.836 133.518 120.652 132.678 121.3V121.444C133.926 122.188 134.898 123.004 135.594 123.892C136.314 124.78 136.674 125.92 136.674 127.312C136.674 128.44 136.362 129.472 135.738 130.408C135.138 131.344 134.286 132.088 133.182 132.64C132.078 133.168 130.806 133.432 129.366 133.432ZM130.986 120.616C132.714 119.104 133.578 117.496 133.578 115.792C133.578 114.568 133.206 113.56 132.462 112.768C131.718 111.976 130.698 111.58 129.402 111.58C128.274 111.58 127.338 111.94 126.594 112.66C125.874 113.356 125.514 114.28 125.514 115.432C125.514 116.704 125.982 117.712 126.918 118.456C127.854 119.2 129.21 119.92 130.986 120.616ZM129.438 131.452C130.83 131.452 131.958 131.068 132.822 130.3C133.71 129.508 134.154 128.5 134.154 127.276C134.154 126.292 133.866 125.476 133.29 124.828C132.738 124.156 132.054 123.616 131.238 123.208C130.422 122.8 129.246 122.296 127.71 121.696C126.678 122.344 125.85 123.112 125.226 124C124.602 124.888 124.29 125.86 124.29 126.916C124.29 128.212 124.782 129.292 125.766 130.156C126.75 131.02 127.974 131.452 129.438 131.452ZM144.744 123.604C143.112 123.604 141.816 122.944 140.856 121.624C139.92 120.304 139.452 118.468 139.452 116.116C139.452 113.788 139.92 111.976 140.856 110.68C141.816 109.36 143.112 108.7 144.744 108.7C146.376 108.7 147.66 109.36 148.596 110.68C149.556 111.976 150.036 113.788 150.036 116.116C150.036 118.468 149.556 120.304 148.596 121.624C147.66 122.944 146.376 123.604 144.744 123.604ZM158.424 108.916H160.26L147.192 133.432H145.356L158.424 108.916ZM144.744 121.948C145.752 121.948 146.544 121.444 147.12 120.436C147.72 119.428 148.02 117.988 148.02 116.116C148.02 114.244 147.72 112.816 147.12 111.832C146.544 110.848 145.752 110.356 144.744 110.356C143.736 110.356 142.932 110.848 142.332 111.832C141.756 112.816 141.468 114.244 141.468 116.116C141.468 117.988 141.756 119.428 142.332 120.436C142.932 121.444 143.736 121.948 144.744 121.948ZM160.98 133.432C159.348 133.432 158.052 132.772 157.092 131.452C156.156 130.132 155.688 128.296 155.688 125.944C155.688 123.616 156.156 121.804 157.092 120.508C158.052 119.188 159.348 118.528 160.98 118.528C162.612 118.528 163.896 119.188 164.832 120.508C165.792 121.804 166.272 123.616 166.272 125.944C166.272 128.296 165.792 130.132 164.832 131.452C163.896 132.772 162.612 133.432 160.98 133.432ZM160.98 131.776C161.964 131.776 162.744 131.272 163.32 130.264C163.92 129.256 164.22 127.816 164.22 125.944C164.22 124.072 163.932 122.644 163.356 121.66C162.78 120.676 161.988 120.184 160.98 120.184C159.972 120.184 159.168 120.676 158.568 121.66C157.992 122.644 157.704 124.072 157.704 125.944C157.704 127.816 157.992 129.256 158.568 130.264C159.168 131.272 159.972 131.776 160.98 131.776ZM182.313 133.432C181.113 133.432 179.949 133.216 178.821 132.784C177.693 132.328 176.697 131.74 175.833 131.02L177.165 129.256C178.029 129.952 178.869 130.48 179.685 130.84C180.501 131.2 181.413 131.38 182.421 131.38C183.573 131.38 184.461 131.104 185.085 130.552C185.709 130 186.021 129.304 186.021 128.464C186.021 127.624 185.661 126.952 184.941 126.448C184.245 125.944 183.249 125.464 181.953 125.008C180.297 124.408 179.001 123.76 178.065 123.064C177.129 122.344 176.661 121.324 176.661 120.004C176.661 118.588 177.189 117.424 178.245 116.512C179.325 115.576 180.777 115.108 182.601 115.108C183.585 115.108 184.533 115.288 185.445 115.648C186.357 116.008 187.173 116.476 187.893 117.052L186.633 118.744C185.937 118.24 185.277 117.856 184.653 117.592C184.029 117.328 183.345 117.196 182.601 117.196C181.497 117.196 180.657 117.46 180.081 117.988C179.505 118.492 179.217 119.116 179.217 119.86C179.217 120.388 179.385 120.844 179.721 121.228C180.081 121.612 180.513 121.924 181.017 122.164C181.521 122.38 182.229 122.668 183.141 123.028C184.365 123.484 185.325 123.892 186.021 124.252C186.717 124.612 187.317 125.128 187.821 125.8C188.325 126.448 188.577 127.288 188.577 128.32C188.577 129.256 188.325 130.12 187.821 130.912C187.341 131.68 186.621 132.292 185.661 132.748C184.725 133.204 183.609 133.432 182.313 133.432ZM199.486 133.432C198.046 133.432 196.714 133.072 195.49 132.352C194.266 131.608 193.282 130.552 192.538 129.184C191.818 127.792 191.458 126.16 191.458 124.288C191.458 122.416 191.818 120.784 192.538 119.392C193.282 118 194.266 116.944 195.49 116.224C196.714 115.48 198.046 115.108 199.486 115.108C200.926 115.108 202.258 115.48 203.482 116.224C204.706 116.944 205.678 118 206.398 119.392C207.142 120.784 207.514 122.416 207.514 124.288C207.514 126.16 207.142 127.792 206.398 129.184C205.678 130.552 204.706 131.608 203.482 132.352C202.258 133.072 200.926 133.432 199.486 133.432ZM199.486 131.236C200.518 131.236 201.43 130.948 202.222 130.372C203.038 129.796 203.674 128.98 204.13 127.924C204.586 126.868 204.814 125.656 204.814 124.288C204.814 122.92 204.586 121.708 204.13 120.652C203.674 119.596 203.038 118.78 202.222 118.204C201.43 117.604 200.518 117.304 199.486 117.304C198.454 117.304 197.53 117.604 196.714 118.204C195.922 118.78 195.298 119.596 194.842 120.652C194.41 121.708 194.194 122.92 194.194 124.288C194.194 126.376 194.686 128.056 195.67 129.328C196.654 130.6 197.926 131.236 199.486 131.236ZM212.267 115.54H214.427L214.643 118.132H214.751C216.599 116.116 218.411 115.108 220.187 115.108C222.659 115.108 224.267 116.236 225.011 118.492C226.019 117.388 226.991 116.548 227.927 115.972C228.863 115.396 229.823 115.108 230.807 115.108C234.335 115.108 236.099 117.376 236.099 121.912V133H233.471V122.236C233.471 120.556 233.195 119.332 232.643 118.564C232.091 117.796 231.227 117.412 230.051 117.412C228.683 117.412 227.159 118.348 225.479 120.22V133H222.851V122.236C222.851 120.58 222.575 119.368 222.023 118.6C221.471 117.808 220.619 117.412 219.467 117.412C218.099 117.412 216.563 118.348 214.859 120.22V133H212.267V115.54ZM255.294 123.28C255.294 123.904 255.258 124.432 255.186 124.864H243.126C243.246 126.904 243.87 128.488 244.998 129.616C246.15 130.744 247.554 131.308 249.21 131.308C250.746 131.308 252.222 130.84 253.638 129.904L254.61 131.632C253.746 132.184 252.858 132.628 251.946 132.964C251.034 133.276 250.014 133.432 248.886 133.432C247.35 133.432 245.946 133.072 244.674 132.352C243.426 131.608 242.43 130.54 241.686 129.148C240.966 127.756 240.606 126.136 240.606 124.288C240.606 122.464 240.966 120.856 241.686 119.464C242.43 118.072 243.402 117.004 244.602 116.26C245.802 115.492 247.074 115.108 248.418 115.108C250.578 115.108 252.258 115.84 253.458 117.304C254.682 118.744 255.294 120.736 255.294 123.28ZM252.954 122.956C252.954 121.108 252.558 119.692 251.766 118.708C250.974 117.724 249.87 117.232 248.454 117.232C247.158 117.232 246.006 117.724 244.998 118.708C243.99 119.692 243.39 121.108 243.198 122.956H252.954ZM264.633 133.432C262.905 133.432 261.669 132.94 260.925 131.956C260.181 130.972 259.809 129.568 259.809 127.744V117.7H257.181V115.72L259.917 115.54L260.241 110.608H262.437V115.54H267.225V117.7H262.437V127.816C262.437 128.968 262.641 129.832 263.049 130.408C263.481 130.984 264.201 131.272 265.209 131.272C265.713 131.272 266.385 131.116 267.225 130.804L267.765 132.784C266.469 133.216 265.425 133.432 264.633 133.432ZM271.259 115.54H273.851V133H271.259V115.54ZM272.591 111.796C272.063 111.796 271.631 111.628 271.295 111.292C270.959 110.956 270.791 110.512 270.791 109.96C270.791 109.432 270.959 109.012 271.295 108.7C271.631 108.364 272.063 108.196 272.591 108.196C273.119 108.196 273.551 108.364 273.887 108.7C274.223 109.012 274.391 109.432 274.391 109.96C274.391 110.512 274.223 110.956 273.887 111.292C273.551 111.628 273.119 111.796 272.591 111.796ZM279.978 115.54H282.138L282.354 118.132H282.462C284.31 116.116 286.122 115.108 287.898 115.108C290.37 115.108 291.978 116.236 292.722 118.492C293.73 117.388 294.702 116.548 295.638 115.972C296.574 115.396 297.534 115.108 298.518 115.108C302.046 115.108 303.81 117.376 303.81 121.912V133H301.182V122.236C301.182 120.556 300.906 119.332 300.354 118.564C299.802 117.796 298.938 117.412 297.762 117.412C296.394 117.412 294.87 118.348 293.19 120.22V133H290.562V122.236C290.562 120.58 290.286 119.368 289.734 118.6C289.182 117.808 288.33 117.412 287.178 117.412C285.81 117.412 284.274 118.348 282.57 120.22V133H279.978V115.54ZM323.005 123.28C323.005 123.904 322.969 124.432 322.897 124.864H310.837C310.957 126.904 311.581 128.488 312.709 129.616C313.861 130.744 315.265 131.308 316.921 131.308C318.457 131.308 319.933 130.84 321.349 129.904L322.321 131.632C321.457 132.184 320.569 132.628 319.657 132.964C318.745 133.276 317.725 133.432 316.597 133.432C315.061 133.432 313.657 133.072 312.385 132.352C311.137 131.608 310.141 130.54 309.397 129.148C308.677 127.756 308.317 126.136 308.317 124.288C308.317 122.464 308.677 120.856 309.397 119.464C310.141 118.072 311.113 117.004 312.313 116.26C313.513 115.492 314.785 115.108 316.129 115.108C318.289 115.108 319.969 115.84 321.169 117.304C322.393 118.744 323.005 120.736 323.005 123.28ZM320.665 122.956C320.665 121.108 320.269 119.692 319.477 118.708C318.685 117.724 317.581 117.232 316.165 117.232C314.869 117.232 313.717 117.724 312.709 118.708C311.701 119.692 311.101 121.108 310.909 122.956H320.665ZM331.868 133.432C330.668 133.432 329.504 133.216 328.376 132.784C327.248 132.328 326.252 131.74 325.388 131.02L326.72 129.256C327.584 129.952 328.424 130.48 329.24 130.84C330.056 131.2 330.968 131.38 331.976 131.38C333.128 131.38 334.016 131.104 334.64 130.552C335.264 130 335.576 129.304 335.576 128.464C335.576 127.624 335.216 126.952 334.496 126.448C333.8 125.944 332.804 125.464 331.508 125.008C329.852 124.408 328.556 123.76 327.62 123.064C326.684 122.344 326.216 121.324 326.216 120.004C326.216 118.588 326.744 117.424 327.8 116.512C328.88 115.576 330.332 115.108 332.156 115.108C333.14 115.108 334.088 115.288 335 115.648C335.912 116.008 336.728 116.476 337.448 117.052L336.188 118.744C335.492 118.24 334.832 117.856 334.208 117.592C333.584 117.328 332.9 117.196 332.156 117.196C331.052 117.196 330.212 117.46 329.636 117.988C329.06 118.492 328.772 119.116 328.772 119.86C328.772 120.388 328.94 120.844 329.276 121.228C329.636 121.612 330.068 121.924 330.572 122.164C331.076 122.38 331.784 122.668 332.696 123.028C333.92 123.484 334.88 123.892 335.576 124.252C336.272 124.612 336.872 125.128 337.376 125.8C337.88 126.448 338.132 127.288 338.132 128.32C338.132 129.256 337.88 130.12 337.376 130.912C336.896 131.68 336.176 132.292 335.216 132.748C334.28 133.204 333.164 133.432 331.868 133.432Z" fill="black"/>
<mask id="path-10-outside-4" maskUnits="userSpaceOnUse" x="363" y="158" width="38" height="112" fill="black">
<rect fill="white" x="363" y="158" width="38" height="112"/>
<path d="M373 168C378.448 168 383.888 168.445 389.264 169.331L373 268V168Z"/>
</mask>
<path d="M373 168C378.448 168 383.888 168.445 389.264 169.331L373 268V168Z" stroke="#39998E" stroke-width="20" mask="url(#path-10-outside-4)"/>
<circle cx="373" cy="268" r="100" fill="#F1F3F2"/>
<path d="M175.44 179.452C178.152 176.716 180.252 174.52 181.74 172.864C183.228 171.208 184.368 169.684 185.16 168.292C185.976 166.9 186.384 165.592 186.384 164.368C186.384 162.976 186 161.86 185.232 161.02C184.464 160.18 183.336 159.76 181.848 159.76C180.936 159.76 180.048 160.012 179.184 160.516C178.344 161.02 177.564 161.704 176.844 162.568L175.296 161.056C176.304 159.952 177.36 159.1 178.464 158.5C179.568 157.9 180.804 157.6 182.172 157.6C184.26 157.6 185.916 158.212 187.14 159.436C188.364 160.636 188.976 162.244 188.976 164.26C188.976 165.652 188.58 167.08 187.788 168.544C187.02 170.008 186 171.484 184.728 172.972C183.456 174.46 181.644 176.44 179.292 178.912L180.156 178.876C181.5 178.78 182.496 178.732 183.144 178.732H190.092V181H175.44V179.452ZM196.075 181.432C195.523 181.432 195.055 181.24 194.671 180.856C194.287 180.448 194.095 179.944 194.095 179.344C194.095 178.72 194.287 178.216 194.671 177.832C195.055 177.424 195.523 177.22 196.075 177.22C196.627 177.22 197.095 177.424 197.479 177.832C197.863 178.216 198.055 178.72 198.055 179.344C198.055 179.944 197.863 180.448 197.479 180.856C197.095 181.24 196.627 181.432 196.075 181.432ZM210.194 166.996C212.21 166.996 213.794 167.608 214.946 168.832C216.098 170.056 216.674 171.82 216.674 174.124C216.674 175.54 216.374 176.8 215.774 177.904C215.174 179.008 214.358 179.872 213.326 180.496C212.318 181.12 211.214 181.432 210.014 181.432C208.478 181.432 207.122 181.024 205.946 180.208C204.77 179.368 203.846 178.12 203.174 176.464C202.526 174.808 202.202 172.804 202.202 170.452C202.202 167.476 202.598 165.028 203.39 163.108C204.182 161.188 205.226 159.796 206.522 158.932C207.818 158.044 209.27 157.6 210.878 157.6C212.99 157.6 214.778 158.392 216.242 159.976L214.766 161.632C214.286 161.056 213.71 160.612 213.038 160.3C212.39 159.964 211.694 159.796 210.95 159.796C209.126 159.796 207.638 160.612 206.486 162.244C205.334 163.852 204.734 166.444 204.686 170.02C205.43 169.084 206.294 168.352 207.278 167.824C208.262 167.272 209.234 166.996 210.194 166.996ZM210.05 179.344C211.226 179.344 212.21 178.852 213.002 177.868C213.794 176.884 214.19 175.636 214.19 174.124C214.19 172.516 213.818 171.268 213.074 170.38C212.33 169.468 211.226 169.012 209.762 169.012C208.946 169.012 208.094 169.276 207.206 169.804C206.342 170.308 205.526 171.1 204.758 172.18C204.95 174.484 205.49 176.26 206.378 177.508C207.266 178.732 208.49 179.344 210.05 179.344ZM224.744 171.604C223.112 171.604 221.816 170.944 220.856 169.624C219.92 168.304 219.452 166.468 219.452 164.116C219.452 161.788 219.92 159.976 220.856 158.68C221.816 157.36 223.112 156.7 224.744 156.7C226.376 156.7 227.66 157.36 228.596 158.68C229.556 159.976 230.036 161.788 230.036 164.116C230.036 166.468 229.556 168.304 228.596 169.624C227.66 170.944 226.376 171.604 224.744 171.604ZM238.424 156.916H240.26L227.192 181.432H225.356L238.424 156.916ZM224.744 169.948C225.752 169.948 226.544 169.444 227.12 168.436C227.72 167.428 228.02 165.988 228.02 164.116C228.02 162.244 227.72 160.816 227.12 159.832C226.544 158.848 225.752 158.356 224.744 158.356C223.736 158.356 222.932 158.848 222.332 159.832C221.756 160.816 221.468 162.244 221.468 164.116C221.468 165.988 221.756 167.428 222.332 168.436C222.932 169.444 223.736 169.948 224.744 169.948ZM240.98 181.432C239.348 181.432 238.052 180.772 237.092 179.452C236.156 178.132 235.688 176.296 235.688 173.944C235.688 171.616 236.156 169.804 237.092 168.508C238.052 167.188 239.348 166.528 240.98 166.528C242.612 166.528 243.896 167.188 244.832 168.508C245.792 169.804 246.272 171.616 246.272 173.944C246.272 176.296 245.792 178.132 244.832 179.452C243.896 180.772 242.612 181.432 240.98 181.432ZM240.98 179.776C241.964 179.776 242.744 179.272 243.32 178.264C243.92 177.256 244.22 175.816 244.22 173.944C244.22 172.072 243.932 170.644 243.356 169.66C242.78 168.676 241.988 168.184 240.98 168.184C239.972 168.184 239.168 168.676 238.568 169.66C237.992 170.644 237.704 172.072 237.704 173.944C237.704 175.816 237.992 177.256 238.568 178.264C239.168 179.272 239.972 179.776 240.98 179.776ZM257.849 163.54H260.009L260.225 166.744H260.333C260.933 165.616 261.665 164.728 262.529 164.08C263.393 163.432 264.317 163.108 265.301 163.108C265.997 163.108 266.597 163.228 267.101 163.468L266.597 165.772C265.973 165.58 265.421 165.484 264.941 165.484C264.125 165.484 263.309 165.82 262.493 166.492C261.701 167.164 261.017 168.208 260.441 169.624V181H257.849V163.54ZM273.2 181.432C271.712 181.432 270.488 181 269.528 180.136C268.568 179.272 268.088 178.06 268.088 176.5C268.088 174.604 268.952 173.152 270.68 172.144C272.408 171.112 275.168 170.392 278.96 169.984C278.96 168.616 278.672 167.5 278.096 166.636C277.544 165.748 276.584 165.304 275.216 165.304C273.56 165.304 271.796 165.94 269.924 167.212L268.88 165.412C271.184 163.876 273.44 163.108 275.648 163.108C277.664 163.108 279.152 163.744 280.112 165.016C281.072 166.264 281.552 167.992 281.552 170.2V181H279.392L279.176 178.876H279.068C277.004 180.58 275.048 181.432 273.2 181.432ZM273.884 179.308C274.724 179.308 275.54 179.116 276.332 178.732C277.148 178.324 278.024 177.7 278.96 176.86V171.748C275.96 172.108 273.824 172.66 272.552 173.404C271.304 174.148 270.68 175.132 270.68 176.356C270.68 177.34 270.98 178.084 271.58 178.588C272.18 179.068 272.948 179.308 273.884 179.308ZM287.275 163.54H289.435L289.651 166.744H289.759C290.359 165.616 291.091 164.728 291.955 164.08C292.819 163.432 293.743 163.108 294.727 163.108C295.423 163.108 296.023 163.228 296.527 163.468L296.023 165.772C295.399 165.58 294.847 165.484 294.367 165.484C293.551 165.484 292.735 165.82 291.919 166.492C291.127 167.164 290.443 168.208 289.867 169.624V181H287.275V163.54ZM312.478 171.28C312.478 171.904 312.442 172.432 312.37 172.864H300.31C300.43 174.904 301.054 176.488 302.182 177.616C303.334 178.744 304.738 179.308 306.394 179.308C307.93 179.308 309.406 178.84 310.822 177.904L311.794 179.632C310.93 180.184 310.042 180.628 309.13 180.964C308.218 181.276 307.198 181.432 306.07 181.432C304.534 181.432 303.13 181.072 301.858 180.352C300.61 179.608 299.614 178.54 298.87 177.148C298.15 175.756 297.79 174.136 297.79 172.288C297.79 170.464 298.15 168.856 298.87 167.464C299.614 166.072 300.586 165.004 301.786 164.26C302.986 163.492 304.258 163.108 305.602 163.108C307.762 163.108 309.442 163.84 310.642 165.304C311.866 166.744 312.478 168.736 312.478 171.28ZM310.138 170.956C310.138 169.108 309.742 167.692 308.95 166.708C308.158 165.724 307.054 165.232 305.638 165.232C304.342 165.232 303.19 165.724 302.182 166.708C301.174 167.692 300.574 169.108 300.382 170.956H310.138ZM319.72 181.432C318.736 181.432 318.016 181.132 317.56 180.532C317.104 179.908 316.876 178.996 316.876 177.796V155.296H319.468V178.012C319.468 178.42 319.54 178.732 319.684 178.948C319.852 179.14 320.056 179.236 320.296 179.236C320.488 179.236 320.704 179.212 320.944 179.164L321.304 181.18C320.848 181.348 320.32 181.432 319.72 181.432ZM325.912 188.632C325.192 188.632 324.532 188.512 323.932 188.272L324.436 186.148C324.916 186.34 325.372 186.436 325.804 186.436C326.764 186.436 327.58 186.076 328.252 185.356C328.924 184.636 329.464 183.664 329.872 182.44L330.304 181.108L323.248 163.54H325.948L329.692 173.548L331.42 178.444H331.564C331.9 177.436 332.248 176.332 332.608 175.132L333.076 173.548L336.352 163.54H338.908L332.284 182.62C331.612 184.492 330.772 185.956 329.764 187.012C328.78 188.092 327.496 188.632 325.912 188.632Z" fill="black"/>
</svg>
