<svg width="630" height="553" viewBox="0 0 630 553" fill="none" xmlns="http://www.w3.org/2000/svg">
<mask id="path-1-outside-1" maskUnits="userSpaceOnUse" x="275" y="33" width="356" height="521" fill="black">
<rect fill="white" x="275" y="33" width="356" height="521"/>
<path d="M370 43C406.337 43 442.237 50.921 475.2 66.2115C508.163 81.5019 537.396 103.794 560.865 131.536C584.333 159.277 601.472 191.801 611.087 226.842C620.703 261.884 622.565 298.6 616.543 334.434C610.52 370.268 596.759 404.359 576.217 434.332C555.675 464.305 528.846 489.439 497.598 507.985C466.351 526.531 431.436 538.043 395.286 541.718C359.135 545.393 322.618 541.144 288.278 529.266L370 293V43Z"/>
</mask>
<path d="M370 43C406.337 43 442.237 50.921 475.2 66.2115C508.163 81.5019 537.396 103.794 560.865 131.536C584.333 159.277 601.472 191.801 611.087 226.842C620.703 261.884 622.565 298.6 616.543 334.434C610.52 370.268 596.759 404.359 576.217 434.332C555.675 464.305 528.846 489.439 497.598 507.985C466.351 526.531 431.436 538.043 395.286 541.718C359.135 545.393 322.618 541.144 288.278 529.266L370 293V43Z" stroke="#FFAA67" stroke-width="20" mask="url(#path-1-outside-1)"/>
<circle cx="370" cy="293" r="250" fill="#F1F3F2"/>
<path d="M147.352 37.432C145.696 37.432 144.268 37.144 143.068 36.568C141.892 35.992 140.836 35.236 139.9 34.3L141.232 32.572C142.048 33.388 142.912 34.036 143.824 34.516C144.76 34.996 145.864 35.236 147.136 35.236C148.096 35.236 148.972 35.008 149.764 34.552C150.556 34.096 151.18 33.46 151.636 32.644C152.092 31.804 152.32 30.844 152.32 29.764C152.32 28.132 151.864 26.848 150.952 25.912C150.04 24.976 148.816 24.508 147.28 24.508C146.512 24.508 145.828 24.616 145.228 24.832C144.652 25.048 143.992 25.408 143.248 25.912L141.808 25.012L142.564 14.032H153.832V16.3H144.868L144.22 23.464C144.82 23.128 145.408 22.876 145.984 22.708C146.56 22.54 147.196 22.456 147.892 22.456C149.98 22.456 151.684 23.068 153.004 24.292C154.324 25.492 154.984 27.28 154.984 29.656C154.984 31.24 154.624 32.62 153.904 33.796C153.208 34.972 152.272 35.872 151.096 36.496C149.944 37.12 148.696 37.432 147.352 37.432ZM165.071 37.432C163.415 37.432 161.987 37.144 160.787 36.568C159.611 35.992 158.555 35.236 157.619 34.3L158.951 32.572C159.767 33.388 160.631 34.036 161.543 34.516C162.479 34.996 163.583 35.236 164.855 35.236C165.815 35.236 166.691 35.008 167.483 34.552C168.275 34.096 168.899 33.46 169.355 32.644C169.811 31.804 170.039 30.844 170.039 29.764C170.039 28.132 169.583 26.848 168.671 25.912C167.759 24.976 166.535 24.508 164.999 24.508C164.231 24.508 163.547 24.616 162.947 24.832C162.371 25.048 161.711 25.408 160.967 25.912L159.527 25.012L160.283 14.032H171.551V16.3H162.587L161.939 23.464C162.539 23.128 163.127 22.876 163.703 22.708C164.279 22.54 164.915 22.456 165.611 22.456C167.699 22.456 169.403 23.068 170.723 24.292C172.043 25.492 172.703 27.28 172.703 29.656C172.703 31.24 172.343 32.62 171.623 33.796C170.927 34.972 169.991 35.872 168.815 36.496C167.663 37.12 166.415 37.432 165.071 37.432ZM178.794 37.432C178.242 37.432 177.774 37.24 177.39 36.856C177.006 36.448 176.813 35.944 176.813 35.344C176.813 34.72 177.006 34.216 177.39 33.832C177.774 33.424 178.242 33.22 178.794 33.22C179.346 33.22 179.814 33.424 180.198 33.832C180.582 34.216 180.774 34.72 180.774 35.344C180.774 35.944 180.582 36.448 180.198 36.856C179.814 37.24 179.346 37.432 178.794 37.432ZM191.616 37.432C188.592 37.432 186.096 36.352 184.128 34.192L185.46 32.464C186.3 33.328 187.188 34.012 188.124 34.516C189.084 34.996 190.2 35.236 191.472 35.236C192.936 35.236 194.124 34.84 195.036 34.048C195.948 33.232 196.404 32.152 196.404 30.808C196.404 27.64 193.896 26.056 188.88 26.056V24.004C191.232 24.004 192.936 23.596 193.992 22.78C195.048 21.964 195.576 20.884 195.576 19.54C195.576 18.388 195.204 17.476 194.46 16.804C193.716 16.108 192.708 15.76 191.436 15.76C189.612 15.76 187.944 16.552 186.432 18.136L184.992 16.444C187.008 14.548 189.18 13.6 191.508 13.6C193.5 13.6 195.12 14.116 196.368 15.148C197.616 16.156 198.24 17.56 198.24 19.36C198.24 20.704 197.856 21.844 197.088 22.78C196.344 23.692 195.312 24.388 193.992 24.868V25.012C195.48 25.348 196.692 26.032 197.628 27.064C198.588 28.096 199.068 29.368 199.068 30.88C199.068 32.2 198.732 33.364 198.06 34.372C197.412 35.356 196.524 36.112 195.396 36.64C194.268 37.168 193.008 37.432 191.616 37.432ZM207.463 27.604C205.831 27.604 204.535 26.944 203.575 25.624C202.639 24.304 202.171 22.468 202.171 20.116C202.171 17.788 202.639 15.976 203.575 14.68C204.535 13.36 205.831 12.7 207.463 12.7C209.095 12.7 210.379 13.36 211.315 14.68C212.275 15.976 212.755 17.788 212.755 20.116C212.755 22.468 212.275 24.304 211.315 25.624C210.379 26.944 209.095 27.604 207.463 27.604ZM221.143 12.916H222.979L209.911 37.432H208.075L221.143 12.916ZM207.463 25.948C208.471 25.948 209.263 25.444 209.839 24.436C210.439 23.428 210.739 21.988 210.739 20.116C210.739 18.244 210.439 16.816 209.839 15.832C209.263 14.848 208.471 14.356 207.463 14.356C206.455 14.356 205.651 14.848 205.051 15.832C204.475 16.816 204.187 18.244 204.187 20.116C204.187 21.988 204.475 23.428 205.051 24.436C205.651 25.444 206.455 25.948 207.463 25.948ZM223.699 37.432C222.067 37.432 220.771 36.772 219.811 35.452C218.875 34.132 218.407 32.296 218.407 29.944C218.407 27.616 218.875 25.804 219.811 24.508C220.771 23.188 222.067 22.528 223.699 22.528C225.331 22.528 226.615 23.188 227.551 24.508C228.511 25.804 228.991 27.616 228.991 29.944C228.991 32.296 228.511 34.132 227.551 35.452C226.615 36.772 225.331 37.432 223.699 37.432ZM223.699 35.776C224.683 35.776 225.463 35.272 226.039 34.264C226.639 33.256 226.939 31.816 226.939 29.944C226.939 28.072 226.651 26.644 226.075 25.66C225.499 24.676 224.707 24.184 223.699 24.184C222.691 24.184 221.887 24.676 221.287 25.66C220.711 26.644 220.423 28.072 220.423 29.944C220.423 31.816 220.711 33.256 221.287 34.264C221.887 35.272 222.691 35.776 223.699 35.776ZM244.528 37.432C243.04 37.432 241.816 37 240.856 36.136C239.896 35.272 239.416 34.06 239.416 32.5C239.416 30.604 240.28 29.152 242.008 28.144C243.736 27.112 246.496 26.392 250.288 25.984C250.288 24.616 250 23.5 249.424 22.636C248.872 21.748 247.912 21.304 246.544 21.304C244.888 21.304 243.124 21.94 241.252 23.212L240.208 21.412C242.512 19.876 244.768 19.108 246.976 19.108C248.992 19.108 250.48 19.744 251.44 21.016C252.4 22.264 252.88 23.992 252.88 26.2V37H250.72L250.504 34.876H250.396C248.332 36.58 246.376 37.432 244.528 37.432ZM245.212 35.308C246.052 35.308 246.868 35.116 247.66 34.732C248.476 34.324 249.352 33.7 250.288 32.86V27.748C247.288 28.108 245.152 28.66 243.88 29.404C242.632 30.148 242.008 31.132 242.008 32.356C242.008 33.34 242.308 34.084 242.908 34.588C243.508 35.068 244.276 35.308 245.212 35.308ZM261.447 37.432C260.463 37.432 259.743 37.132 259.287 36.532C258.831 35.908 258.603 34.996 258.603 33.796V11.296H261.195V34.012C261.195 34.42 261.267 34.732 261.411 34.948C261.579 35.14 261.783 35.236 262.023 35.236C262.215 35.236 262.431 35.212 262.671 35.164L263.031 37.18C262.575 37.348 262.047 37.432 261.447 37.432ZM265.407 19.54H268.107L270.843 29.944L271.167 31.492C271.503 32.932 271.743 34.024 271.887 34.768H272.031C272.487 32.896 272.895 31.288 273.255 29.944L276.063 19.54H278.691L281.535 29.944L282.759 34.768H282.903L284.055 29.944L286.719 19.54H289.239L284.487 37H281.247L278.583 27.244L277.899 24.4C277.851 24.208 277.683 23.488 277.395 22.24H277.251C276.723 24.616 276.303 26.308 275.991 27.316L273.399 37H270.339L265.407 19.54ZM296.77 37.432C295.282 37.432 294.058 37 293.098 36.136C292.138 35.272 291.658 34.06 291.658 32.5C291.658 30.604 292.522 29.152 294.25 28.144C295.978 27.112 298.738 26.392 302.53 25.984C302.53 24.616 302.242 23.5 301.666 22.636C301.114 21.748 300.154 21.304 298.786 21.304C297.13 21.304 295.366 21.94 293.494 23.212L292.45 21.412C294.754 19.876 297.01 19.108 299.218 19.108C301.234 19.108 302.722 19.744 303.682 21.016C304.642 22.264 305.122 23.992 305.122 26.2V37H302.962L302.746 34.876H302.638C300.574 36.58 298.618 37.432 296.77 37.432ZM297.454 35.308C298.294 35.308 299.11 35.116 299.902 34.732C300.718 34.324 301.594 33.7 302.53 32.86V27.748C299.53 28.108 297.394 28.66 296.122 29.404C294.874 30.148 294.25 31.132 294.25 32.356C294.25 33.34 294.55 34.084 295.15 34.588C295.75 35.068 296.518 35.308 297.454 35.308ZM310.881 44.632C310.161 44.632 309.501 44.512 308.901 44.272L309.405 42.148C309.885 42.34 310.341 42.436 310.773 42.436C311.733 42.436 312.549 42.076 313.221 41.356C313.893 40.636 314.433 39.664 314.841 38.44L315.273 37.108L308.217 19.54H310.917L314.661 29.548L316.389 34.444H316.533C316.869 33.436 317.217 32.332 317.577 31.132L318.045 29.548L321.321 19.54H323.877L317.253 38.62C316.581 40.492 315.741 41.956 314.733 43.012C313.749 44.092 312.465 44.632 310.881 44.632ZM331.833 37.432C330.633 37.432 329.469 37.216 328.341 36.784C327.213 36.328 326.217 35.74 325.353 35.02L326.685 33.256C327.549 33.952 328.389 34.48 329.205 34.84C330.021 35.2 330.933 35.38 331.941 35.38C333.093 35.38 333.981 35.104 334.605 34.552C335.229 34 335.541 33.304 335.541 32.464C335.541 31.624 335.181 30.952 334.461 30.448C333.765 29.944 332.769 29.464 331.473 29.008C329.817 28.408 328.521 27.76 327.585 27.064C326.649 26.344 326.181 25.324 326.181 24.004C326.181 22.588 326.709 21.424 327.765 20.512C328.845 19.576 330.297 19.108 332.121 19.108C333.105 19.108 334.053 19.288 334.965 19.648C335.877 20.008 336.693 20.476 337.413 21.052L336.153 22.744C335.457 22.24 334.797 21.856 334.173 21.592C333.549 21.328 332.865 21.196 332.121 21.196C331.017 21.196 330.177 21.46 329.601 21.988C329.025 22.492 328.737 23.116 328.737 23.86C328.737 24.388 328.905 24.844 329.241 25.228C329.601 25.612 330.033 25.924 330.537 26.164C331.041 26.38 331.749 26.668 332.661 27.028C333.885 27.484 334.845 27.892 335.541 28.252C336.237 28.612 336.837 29.128 337.341 29.8C337.845 30.448 338.097 31.288 338.097 32.32C338.097 33.256 337.845 34.12 337.341 34.912C336.861 35.68 336.141 36.292 335.181 36.748C334.245 37.204 333.129 37.432 331.833 37.432Z" fill="black"/>
<mask id="path-4-outside-2" maskUnits="userSpaceOnUse" x="362" y="71" width="221" height="310" fill="black">
<rect fill="white" x="362" y="71" width="221" height="310"/>
<path d="M372 81C405.794 81 439.037 89.5632 468.626 105.89C498.214 122.217 523.183 145.776 541.201 174.366C559.22 202.956 569.699 235.645 571.662 269.383C573.625 303.12 567.008 336.804 552.427 367.291L372 281V81Z"/>
</mask>
<path d="M372 81C405.794 81 439.037 89.5632 468.626 105.89C498.214 122.217 523.183 145.776 541.201 174.366C559.22 202.956 569.699 235.645 571.662 269.383C573.625 303.12 567.008 336.804 552.427 367.291L372 281V81Z" stroke="#FFAA67" stroke-width="20" mask="url(#path-4-outside-2)"/>
<circle cx="372" cy="281" r="200" fill="#F1F3F2"/>
<path d="M8.46 80.432C5.436 80.432 2.94 79.352 0.972 77.192L2.304 75.464C3.144 76.328 4.032 77.012 4.968 77.516C5.928 77.996 7.044 78.236 8.316 78.236C9.78 78.236 10.968 77.84 11.88 77.048C12.792 76.232 13.248 75.152 13.248 73.808C13.248 70.64 10.74 69.056 5.724 69.056V67.004C8.076 67.004 9.78 66.596 10.836 65.78C11.892 64.964 12.42 63.884 12.42 62.54C12.42 61.388 12.048 60.476 11.304 59.804C10.56 59.108 9.552 58.76 8.28 58.76C6.456 58.76 4.788 59.552 3.276 61.136L1.836 59.444C3.852 57.548 6.024 56.6 8.352 56.6C10.344 56.6 11.964 57.116 13.212 58.148C14.46 59.156 15.084 60.56 15.084 62.36C15.084 63.704 14.7 64.844 13.932 65.78C13.188 66.692 12.156 67.388 10.836 67.868V68.012C12.324 68.348 13.536 69.032 14.472 70.064C15.432 71.096 15.912 72.368 15.912 73.88C15.912 75.2 15.576 76.364 14.904 77.372C14.256 78.356 13.368 79.112 12.24 79.64C11.112 80.168 9.852 80.432 8.46 80.432ZM19.1588 78.452C21.8708 75.716 23.9708 73.52 25.4588 71.864C26.9468 70.208 28.0868 68.684 28.8788 67.292C29.6948 65.9 30.1028 64.592 30.1028 63.368C30.1028 61.976 29.7188 60.86 28.9508 60.02C28.1828 59.18 27.0548 58.76 25.5668 58.76C24.6548 58.76 23.7668 59.012 22.9028 59.516C22.0628 60.02 21.2828 60.704 20.5628 61.568L19.0148 60.056C20.0228 58.952 21.0788 58.1 22.1828 57.5C23.2868 56.9 24.5228 56.6 25.8908 56.6C27.9788 56.6 29.6348 57.212 30.8588 58.436C32.0828 59.636 32.6948 61.244 32.6948 63.26C32.6948 64.652 32.2988 66.08 31.5068 67.544C30.7388 69.008 29.7188 70.484 28.4468 71.972C27.1748 73.46 25.3628 75.44 23.0107 77.912L23.8748 77.876C25.2188 77.78 26.2148 77.732 26.8628 77.732H33.8108V80H19.1588V78.452ZM39.7935 80.432C39.2415 80.432 38.7735 80.24 38.3895 79.856C38.0055 79.448 37.8135 78.944 37.8135 78.344C37.8135 77.72 38.0055 77.216 38.3895 76.832C38.7735 76.424 39.2415 76.22 39.7935 76.22C40.3455 76.22 40.8135 76.424 41.1975 76.832C41.5815 77.216 41.7735 77.72 41.7735 78.344C41.7735 78.944 41.5815 79.448 41.1975 79.856C40.8135 80.24 40.3455 80.432 39.7935 80.432ZM45.9203 77.804H51.2123V60.344H47.0363V58.652C48.9803 58.316 50.5763 57.776 51.8243 57.032H53.8403V77.804H58.6283V80H45.9203V77.804ZM66.9864 70.604C65.3544 70.604 64.0584 69.944 63.0984 68.624C62.1624 67.304 61.6944 65.468 61.6944 63.116C61.6944 60.788 62.1624 58.976 63.0984 57.68C64.0584 56.36 65.3544 55.7 66.9864 55.7C68.6184 55.7 69.9024 56.36 70.8384 57.68C71.7984 58.976 72.2784 60.788 72.2784 63.116C72.2784 65.468 71.7984 67.304 70.8384 68.624C69.9024 69.944 68.6184 70.604 66.9864 70.604ZM80.6664 55.916H82.5024L69.4344 80.432H67.5984L80.6664 55.916ZM66.9864 68.948C67.9944 68.948 68.7864 68.444 69.3624 67.436C69.9624 66.428 70.2624 64.988 70.2624 63.116C70.2624 61.244 69.9624 59.816 69.3624 58.832C68.7864 57.848 67.9944 57.356 66.9864 57.356C65.9784 57.356 65.1744 57.848 64.5744 58.832C63.9984 59.816 63.7104 61.244 63.7104 63.116C63.7104 64.988 63.9984 66.428 64.5744 67.436C65.1744 68.444 65.9784 68.948 66.9864 68.948ZM83.2224 80.432C81.5904 80.432 80.2944 79.772 79.3344 78.452C78.3984 77.132 77.9304 75.296 77.9304 72.944C77.9304 70.616 78.3984 68.804 79.3344 67.508C80.2944 66.188 81.5904 65.528 83.2224 65.528C84.8544 65.528 86.1384 66.188 87.0744 67.508C88.0344 68.804 88.5144 70.616 88.5144 72.944C88.5144 75.296 88.0344 77.132 87.0744 78.452C86.1384 79.772 84.8544 80.432 83.2224 80.432ZM83.2224 78.776C84.2064 78.776 84.9864 78.272 85.5624 77.264C86.1624 76.256 86.4624 74.816 86.4624 72.944C86.4624 71.072 86.1744 69.644 85.5984 68.66C85.0224 67.676 84.2304 67.184 83.2224 67.184C82.2144 67.184 81.4104 67.676 80.8104 68.66C80.2344 69.644 79.9464 71.072 79.9464 72.944C79.9464 74.816 80.2344 76.256 80.8104 77.264C81.4104 78.272 82.2144 78.776 83.2224 78.776ZM100.091 62.54H102.251L102.467 65.132H102.575C104.423 63.116 106.235 62.108 108.011 62.108C110.483 62.108 112.091 63.236 112.835 65.492C113.843 64.388 114.815 63.548 115.751 62.972C116.687 62.396 117.647 62.108 118.631 62.108C122.159 62.108 123.923 64.376 123.923 68.912V80H121.295V69.236C121.295 67.556 121.019 66.332 120.467 65.564C119.915 64.796 119.051 64.412 117.875 64.412C116.507 64.412 114.983 65.348 113.303 67.22V80H110.675V69.236C110.675 67.58 110.399 66.368 109.847 65.6C109.295 64.808 108.443 64.412 107.291 64.412C105.923 64.412 104.387 65.348 102.683 67.22V80H100.091V62.54ZM136.458 80.432C135.018 80.432 133.686 80.072 132.462 79.352C131.238 78.608 130.254 77.552 129.51 76.184C128.79 74.792 128.43 73.16 128.43 71.288C128.43 69.416 128.79 67.784 129.51 66.392C130.254 65 131.238 63.944 132.462 63.224C133.686 62.48 135.018 62.108 136.458 62.108C137.898 62.108 139.23 62.48 140.454 63.224C141.678 63.944 142.65 65 143.37 66.392C144.114 67.784 144.486 69.416 144.486 71.288C144.486 73.16 144.114 74.792 143.37 76.184C142.65 77.552 141.678 78.608 140.454 79.352C139.23 80.072 137.898 80.432 136.458 80.432ZM136.458 78.236C137.49 78.236 138.402 77.948 139.194 77.372C140.01 76.796 140.646 75.98 141.102 74.924C141.558 73.868 141.786 72.656 141.786 71.288C141.786 69.92 141.558 68.708 141.102 67.652C140.646 66.596 140.01 65.78 139.194 65.204C138.402 64.604 137.49 64.304 136.458 64.304C135.426 64.304 134.502 64.604 133.686 65.204C132.894 65.78 132.27 66.596 131.814 67.652C131.382 68.708 131.166 69.92 131.166 71.288C131.166 73.376 131.658 75.056 132.642 76.328C133.626 77.6 134.898 78.236 136.458 78.236ZM153.633 80.432C152.433 80.432 151.269 80.216 150.141 79.784C149.013 79.328 148.017 78.74 147.153 78.02L148.485 76.256C149.349 76.952 150.189 77.48 151.005 77.84C151.821 78.2 152.733 78.38 153.741 78.38C154.893 78.38 155.781 78.104 156.405 77.552C157.029 77 157.341 76.304 157.341 75.464C157.341 74.624 156.981 73.952 156.261 73.448C155.565 72.944 154.569 72.464 153.273 72.008C151.617 71.408 150.321 70.76 149.385 70.064C148.449 69.344 147.981 68.324 147.981 67.004C147.981 65.588 148.509 64.424 149.565 63.512C150.645 62.576 152.097 62.108 153.921 62.108C154.905 62.108 155.853 62.288 156.765 62.648C157.677 63.008 158.493 63.476 159.213 64.052L157.953 65.744C157.257 65.24 156.597 64.856 155.973 64.592C155.349 64.328 154.665 64.196 153.921 64.196C152.817 64.196 151.977 64.46 151.401 64.988C150.825 65.492 150.537 66.116 150.537 66.86C150.537 67.388 150.705 67.844 151.041 68.228C151.401 68.612 151.833 68.924 152.337 69.164C152.841 69.38 153.549 69.668 154.461 70.028C155.685 70.484 156.645 70.892 157.341 71.252C158.037 71.612 158.637 72.128 159.141 72.8C159.645 73.448 159.897 74.288 159.897 75.32C159.897 76.256 159.645 77.12 159.141 77.912C158.661 78.68 157.941 79.292 156.981 79.748C156.045 80.204 154.929 80.432 153.633 80.432ZM169.086 80.432C167.358 80.432 166.122 79.94 165.378 78.956C164.634 77.972 164.262 76.568 164.262 74.744V64.7H161.634V62.72L164.37 62.54L164.694 57.608H166.89V62.54H171.678V64.7H166.89V74.816C166.89 75.968 167.094 76.832 167.502 77.408C167.934 77.984 168.654 78.272 169.662 78.272C170.166 78.272 170.838 78.116 171.678 77.804L172.218 79.784C170.922 80.216 169.878 80.432 169.086 80.432ZM189.579 80.432C188.139 80.432 186.807 80.072 185.583 79.352C184.359 78.608 183.375 77.552 182.631 76.184C181.911 74.792 181.551 73.16 181.551 71.288C181.551 69.416 181.911 67.784 182.631 66.392C183.375 65 184.359 63.944 185.583 63.224C186.807 62.48 188.139 62.108 189.579 62.108C191.019 62.108 192.351 62.48 193.575 63.224C194.799 63.944 195.771 65 196.491 66.392C197.235 67.784 197.607 69.416 197.607 71.288C197.607 73.16 197.235 74.792 196.491 76.184C195.771 77.552 194.799 78.608 193.575 79.352C192.351 80.072 191.019 80.432 189.579 80.432ZM189.579 78.236C190.611 78.236 191.523 77.948 192.315 77.372C193.131 76.796 193.767 75.98 194.223 74.924C194.679 73.868 194.907 72.656 194.907 71.288C194.907 69.92 194.679 68.708 194.223 67.652C193.767 66.596 193.131 65.78 192.315 65.204C191.523 64.604 190.611 64.304 189.579 64.304C188.547 64.304 187.623 64.604 186.807 65.204C186.015 65.78 185.391 66.596 184.935 67.652C184.503 68.708 184.287 69.92 184.287 71.288C184.287 73.376 184.779 75.056 185.763 76.328C186.747 77.6 188.019 78.236 189.579 78.236ZM207.834 56.024C206.154 56.024 205.314 57.2 205.314 59.552V62.54H209.094V64.7H205.314V80H202.686V64.7H200.31V62.72L202.686 62.54V59.516C202.686 57.716 203.094 56.324 203.91 55.34C204.75 54.356 205.986 53.864 207.618 53.864C208.554 53.864 209.49 54.056 210.426 54.44L209.85 56.456C209.178 56.168 208.506 56.024 207.834 56.024ZM225.02 80.432C223.292 80.432 222.056 79.94 221.312 78.956C220.568 77.972 220.196 76.568 220.196 74.744V64.7H217.568V62.72L220.304 62.54L220.628 57.608H222.824V62.54H227.612V64.7H222.824V74.816C222.824 75.968 223.028 76.832 223.436 77.408C223.868 77.984 224.588 78.272 225.596 78.272C226.1 78.272 226.772 78.116 227.612 77.804L228.152 79.784C226.856 80.216 225.812 80.432 225.02 80.432ZM231.646 54.296H234.238V61.424L234.166 65.096C235.126 64.136 236.062 63.404 236.974 62.9C237.886 62.372 238.894 62.108 239.998 62.108C241.822 62.108 243.166 62.684 244.03 63.836C244.894 64.964 245.326 66.656 245.326 68.912V80H242.698V69.236C242.698 67.556 242.422 66.332 241.87 65.564C241.342 64.796 240.466 64.412 239.242 64.412C238.378 64.412 237.574 64.64 236.83 65.096C236.086 65.528 235.222 66.236 234.238 67.22V80H231.646V54.296ZM264.407 70.28C264.407 70.904 264.371 71.432 264.299 71.864H252.239C252.359 73.904 252.983 75.488 254.111 76.616C255.263 77.744 256.667 78.308 258.323 78.308C259.859 78.308 261.335 77.84 262.751 76.904L263.723 78.632C262.859 79.184 261.971 79.628 261.059 79.964C260.147 80.276 259.127 80.432 257.999 80.432C256.463 80.432 255.059 80.072 253.787 79.352C252.539 78.608 251.543 77.54 250.799 76.148C250.079 74.756 249.719 73.136 249.719 71.288C249.719 69.464 250.079 67.856 250.799 66.464C251.543 65.072 252.515 64.004 253.715 63.26C254.915 62.492 256.187 62.108 257.531 62.108C259.691 62.108 261.371 62.84 262.571 64.304C263.795 65.744 264.407 67.736 264.407 70.28ZM262.067 69.956C262.067 68.108 261.671 66.692 260.879 65.708C260.087 64.724 258.983 64.232 257.567 64.232C256.271 64.232 255.119 64.724 254.111 65.708C253.103 66.692 252.503 68.108 252.311 69.956H262.067ZM281.305 80.432C279.577 80.432 278.341 79.94 277.597 78.956C276.853 77.972 276.481 76.568 276.481 74.744V64.7H273.853V62.72L276.589 62.54L276.913 57.608H279.109V62.54H283.897V64.7H279.109V74.816C279.109 75.968 279.313 76.832 279.721 77.408C280.153 77.984 280.873 78.272 281.881 78.272C282.385 78.272 283.057 78.116 283.897 77.804L284.437 79.784C283.141 80.216 282.097 80.432 281.305 80.432ZM287.931 62.54H290.523V80H287.931V62.54ZM289.263 58.796C288.735 58.796 288.303 58.628 287.967 58.292C287.631 57.956 287.463 57.512 287.463 56.96C287.463 56.432 287.631 56.012 287.967 55.7C288.303 55.364 288.735 55.196 289.263 55.196C289.791 55.196 290.223 55.364 290.559 55.7C290.895 56.012 291.063 56.432 291.063 56.96C291.063 57.512 290.895 57.956 290.559 58.292C290.223 58.628 289.791 58.796 289.263 58.796ZM296.65 62.54H298.81L299.026 65.132H299.134C300.982 63.116 302.794 62.108 304.57 62.108C307.042 62.108 308.65 63.236 309.394 65.492C310.402 64.388 311.374 63.548 312.31 62.972C313.246 62.396 314.206 62.108 315.19 62.108C318.718 62.108 320.482 64.376 320.482 68.912V80H317.854V69.236C317.854 67.556 317.578 66.332 317.026 65.564C316.474 64.796 315.61 64.412 314.434 64.412C313.066 64.412 311.542 65.348 309.862 67.22V80H307.234V69.236C307.234 67.58 306.958 66.368 306.406 65.6C305.854 64.808 305.002 64.412 303.85 64.412C302.482 64.412 300.946 65.348 299.242 67.22V80H296.65V62.54ZM339.677 70.28C339.677 70.904 339.641 71.432 339.569 71.864H327.509C327.629 73.904 328.253 75.488 329.381 76.616C330.533 77.744 331.937 78.308 333.593 78.308C335.129 78.308 336.605 77.84 338.021 76.904L338.993 78.632C338.129 79.184 337.241 79.628 336.329 79.964C335.417 80.276 334.397 80.432 333.269 80.432C331.733 80.432 330.329 80.072 329.057 79.352C327.809 78.608 326.813 77.54 326.069 76.148C325.349 74.756 324.989 73.136 324.989 71.288C324.989 69.464 325.349 67.856 326.069 66.464C326.813 65.072 327.785 64.004 328.985 63.26C330.185 62.492 331.457 62.108 332.801 62.108C334.961 62.108 336.641 62.84 337.841 64.304C339.065 65.744 339.677 67.736 339.677 70.28ZM337.337 69.956C337.337 68.108 336.941 66.692 336.149 65.708C335.357 64.724 334.253 64.232 332.837 64.232C331.541 64.232 330.389 64.724 329.381 65.708C328.373 66.692 327.773 68.108 327.581 69.956H337.337Z" fill="black"/>
<mask id="path-7-outside-3" maskUnits="userSpaceOnUse" x="362" y="113" width="88" height="165" fill="black">
<rect fill="white" x="362" y="113" width="88" height="165"/>
<path d="M372 123C394.08 123 415.888 127.875 435.867 137.276L372 273V123Z"/>
</mask>
<path d="M372 123C394.08 123 415.888 127.875 435.867 137.276L372 273V123Z" stroke="#FFAA67" stroke-width="20" mask="url(#path-7-outside-3)"/>
<circle cx="372" cy="273" r="150" fill="#F1F3F2"/>
<path d="M102.352 170.432C100.696 170.432 99.268 170.144 98.068 169.568C96.892 168.992 95.836 168.236 94.9 167.3L96.232 165.572C97.048 166.388 97.912 167.036 98.824 167.516C99.76 167.996 100.864 168.236 102.136 168.236C103.096 168.236 103.972 168.008 104.764 167.552C105.556 167.096 106.18 166.46 106.636 165.644C107.092 164.804 107.32 163.844 107.32 162.764C107.32 161.132 106.864 159.848 105.952 158.912C105.04 157.976 103.816 157.508 102.28 157.508C101.512 157.508 100.828 157.616 100.228 157.832C99.652 158.048 98.992 158.408 98.248 158.912L96.808 158.012L97.564 147.032H108.832V149.3H99.868L99.22 156.464C99.82 156.128 100.408 155.876 100.984 155.708C101.56 155.54 102.196 155.456 102.892 155.456C104.98 155.456 106.684 156.068 108.004 157.292C109.324 158.492 109.984 160.28 109.984 162.656C109.984 164.24 109.624 165.62 108.904 166.796C108.208 167.972 107.272 168.872 106.096 169.496C104.944 170.12 103.696 170.432 102.352 170.432ZM116.075 170.432C115.523 170.432 115.055 170.24 114.671 169.856C114.287 169.448 114.095 168.944 114.095 168.344C114.095 167.72 114.287 167.216 114.671 166.832C115.055 166.424 115.523 166.22 116.075 166.22C116.627 166.22 117.095 166.424 117.479 166.832C117.863 167.216 118.055 167.72 118.055 168.344C118.055 168.944 117.863 169.448 117.479 169.856C117.095 170.24 116.627 170.432 116.075 170.432ZM128.898 170.432C125.874 170.432 123.378 169.352 121.41 167.192L122.742 165.464C123.582 166.328 124.47 167.012 125.406 167.516C126.366 167.996 127.482 168.236 128.754 168.236C130.218 168.236 131.406 167.84 132.318 167.048C133.23 166.232 133.686 165.152 133.686 163.808C133.686 160.64 131.178 159.056 126.162 159.056V157.004C128.514 157.004 130.218 156.596 131.274 155.78C132.33 154.964 132.858 153.884 132.858 152.54C132.858 151.388 132.486 150.476 131.742 149.804C130.998 149.108 129.99 148.76 128.718 148.76C126.894 148.76 125.226 149.552 123.714 151.136L122.274 149.444C124.29 147.548 126.462 146.6 128.79 146.6C130.782 146.6 132.402 147.116 133.65 148.148C134.898 149.156 135.522 150.56 135.522 152.36C135.522 153.704 135.138 154.844 134.37 155.78C133.626 156.692 132.594 157.388 131.274 157.868V158.012C132.762 158.348 133.974 159.032 134.91 160.064C135.87 161.096 136.35 162.368 136.35 163.88C136.35 165.2 136.014 166.364 135.342 167.372C134.694 168.356 133.806 169.112 132.678 169.64C131.55 170.168 130.29 170.432 128.898 170.432ZM144.744 160.604C143.112 160.604 141.816 159.944 140.856 158.624C139.92 157.304 139.452 155.468 139.452 153.116C139.452 150.788 139.92 148.976 140.856 147.68C141.816 146.36 143.112 145.7 144.744 145.7C146.376 145.7 147.66 146.36 148.596 147.68C149.556 148.976 150.036 150.788 150.036 153.116C150.036 155.468 149.556 157.304 148.596 158.624C147.66 159.944 146.376 160.604 144.744 160.604ZM158.424 145.916H160.26L147.192 170.432H145.356L158.424 145.916ZM144.744 158.948C145.752 158.948 146.544 158.444 147.12 157.436C147.72 156.428 148.02 154.988 148.02 153.116C148.02 151.244 147.72 149.816 147.12 148.832C146.544 147.848 145.752 147.356 144.744 147.356C143.736 147.356 142.932 147.848 142.332 148.832C141.756 149.816 141.468 151.244 141.468 153.116C141.468 154.988 141.756 156.428 142.332 157.436C142.932 158.444 143.736 158.948 144.744 158.948ZM160.98 170.432C159.348 170.432 158.052 169.772 157.092 168.452C156.156 167.132 155.688 165.296 155.688 162.944C155.688 160.616 156.156 158.804 157.092 157.508C158.052 156.188 159.348 155.528 160.98 155.528C162.612 155.528 163.896 156.188 164.832 157.508C165.792 158.804 166.272 160.616 166.272 162.944C166.272 165.296 165.792 167.132 164.832 168.452C163.896 169.772 162.612 170.432 160.98 170.432ZM160.98 168.776C161.964 168.776 162.744 168.272 163.32 167.264C163.92 166.256 164.22 164.816 164.22 162.944C164.22 161.072 163.932 159.644 163.356 158.66C162.78 157.676 161.988 157.184 160.98 157.184C159.972 157.184 159.168 157.676 158.568 158.66C157.992 159.644 157.704 161.072 157.704 162.944C157.704 164.816 157.992 166.256 158.568 167.264C159.168 168.272 159.972 168.776 160.98 168.776ZM182.313 170.432C181.113 170.432 179.949 170.216 178.821 169.784C177.693 169.328 176.697 168.74 175.833 168.02L177.165 166.256C178.029 166.952 178.869 167.48 179.685 167.84C180.501 168.2 181.413 168.38 182.421 168.38C183.573 168.38 184.461 168.104 185.085 167.552C185.709 167 186.021 166.304 186.021 165.464C186.021 164.624 185.661 163.952 184.941 163.448C184.245 162.944 183.249 162.464 181.953 162.008C180.297 161.408 179.001 160.76 178.065 160.064C177.129 159.344 176.661 158.324 176.661 157.004C176.661 155.588 177.189 154.424 178.245 153.512C179.325 152.576 180.777 152.108 182.601 152.108C183.585 152.108 184.533 152.288 185.445 152.648C186.357 153.008 187.173 153.476 187.893 154.052L186.633 155.744C185.937 155.24 185.277 154.856 184.653 154.592C184.029 154.328 183.345 154.196 182.601 154.196C181.497 154.196 180.657 154.46 180.081 154.988C179.505 155.492 179.217 156.116 179.217 156.86C179.217 157.388 179.385 157.844 179.721 158.228C180.081 158.612 180.513 158.924 181.017 159.164C181.521 159.38 182.229 159.668 183.141 160.028C184.365 160.484 185.325 160.892 186.021 161.252C186.717 161.612 187.317 162.128 187.821 162.8C188.325 163.448 188.577 164.288 188.577 165.32C188.577 166.256 188.325 167.12 187.821 167.912C187.341 168.68 186.621 169.292 185.661 169.748C184.725 170.204 183.609 170.432 182.313 170.432ZM199.486 170.432C198.046 170.432 196.714 170.072 195.49 169.352C194.266 168.608 193.282 167.552 192.538 166.184C191.818 164.792 191.458 163.16 191.458 161.288C191.458 159.416 191.818 157.784 192.538 156.392C193.282 155 194.266 153.944 195.49 153.224C196.714 152.48 198.046 152.108 199.486 152.108C200.926 152.108 202.258 152.48 203.482 153.224C204.706 153.944 205.678 155 206.398 156.392C207.142 157.784 207.514 159.416 207.514 161.288C207.514 163.16 207.142 164.792 206.398 166.184C205.678 167.552 204.706 168.608 203.482 169.352C202.258 170.072 200.926 170.432 199.486 170.432ZM199.486 168.236C200.518 168.236 201.43 167.948 202.222 167.372C203.038 166.796 203.674 165.98 204.13 164.924C204.586 163.868 204.814 162.656 204.814 161.288C204.814 159.92 204.586 158.708 204.13 157.652C203.674 156.596 203.038 155.78 202.222 155.204C201.43 154.604 200.518 154.304 199.486 154.304C198.454 154.304 197.53 154.604 196.714 155.204C195.922 155.78 195.298 156.596 194.842 157.652C194.41 158.708 194.194 159.92 194.194 161.288C194.194 163.376 194.686 165.056 195.67 166.328C196.654 167.6 197.926 168.236 199.486 168.236ZM212.267 152.54H214.427L214.643 155.132H214.751C216.599 153.116 218.411 152.108 220.187 152.108C222.659 152.108 224.267 153.236 225.011 155.492C226.019 154.388 226.991 153.548 227.927 152.972C228.863 152.396 229.823 152.108 230.807 152.108C234.335 152.108 236.099 154.376 236.099 158.912V170H233.471V159.236C233.471 157.556 233.195 156.332 232.643 155.564C232.091 154.796 231.227 154.412 230.051 154.412C228.683 154.412 227.159 155.348 225.479 157.22V170H222.851V159.236C222.851 157.58 222.575 156.368 222.023 155.6C221.471 154.808 220.619 154.412 219.467 154.412C218.099 154.412 216.563 155.348 214.859 157.22V170H212.267V152.54ZM255.294 160.28C255.294 160.904 255.258 161.432 255.186 161.864H243.126C243.246 163.904 243.87 165.488 244.998 166.616C246.15 167.744 247.554 168.308 249.21 168.308C250.746 168.308 252.222 167.84 253.638 166.904L254.61 168.632C253.746 169.184 252.858 169.628 251.946 169.964C251.034 170.276 250.014 170.432 248.886 170.432C247.35 170.432 245.946 170.072 244.674 169.352C243.426 168.608 242.43 167.54 241.686 166.148C240.966 164.756 240.606 163.136 240.606 161.288C240.606 159.464 240.966 157.856 241.686 156.464C242.43 155.072 243.402 154.004 244.602 153.26C245.802 152.492 247.074 152.108 248.418 152.108C250.578 152.108 252.258 152.84 253.458 154.304C254.682 155.744 255.294 157.736 255.294 160.28ZM252.954 159.956C252.954 158.108 252.558 156.692 251.766 155.708C250.974 154.724 249.87 154.232 248.454 154.232C247.158 154.232 246.006 154.724 244.998 155.708C243.99 156.692 243.39 158.108 243.198 159.956H252.954ZM264.633 170.432C262.905 170.432 261.669 169.94 260.925 168.956C260.181 167.972 259.809 166.568 259.809 164.744V154.7H257.181V152.72L259.917 152.54L260.241 147.608H262.437V152.54H267.225V154.7H262.437V164.816C262.437 165.968 262.641 166.832 263.049 167.408C263.481 167.984 264.201 168.272 265.209 168.272C265.713 168.272 266.385 168.116 267.225 167.804L267.765 169.784C266.469 170.216 265.425 170.432 264.633 170.432ZM271.259 152.54H273.851V170H271.259V152.54ZM272.591 148.796C272.063 148.796 271.631 148.628 271.295 148.292C270.959 147.956 270.791 147.512 270.791 146.96C270.791 146.432 270.959 146.012 271.295 145.7C271.631 145.364 272.063 145.196 272.591 145.196C273.119 145.196 273.551 145.364 273.887 145.7C274.223 146.012 274.391 146.432 274.391 146.96C274.391 147.512 274.223 147.956 273.887 148.292C273.551 148.628 273.119 148.796 272.591 148.796ZM279.978 152.54H282.138L282.354 155.132H282.462C284.31 153.116 286.122 152.108 287.898 152.108C290.37 152.108 291.978 153.236 292.722 155.492C293.73 154.388 294.702 153.548 295.638 152.972C296.574 152.396 297.534 152.108 298.518 152.108C302.046 152.108 303.81 154.376 303.81 158.912V170H301.182V159.236C301.182 157.556 300.906 156.332 300.354 155.564C299.802 154.796 298.938 154.412 297.762 154.412C296.394 154.412 294.87 155.348 293.19 157.22V170H290.562V159.236C290.562 157.58 290.286 156.368 289.734 155.6C289.182 154.808 288.33 154.412 287.178 154.412C285.81 154.412 284.274 155.348 282.57 157.22V170H279.978V152.54ZM323.005 160.28C323.005 160.904 322.969 161.432 322.897 161.864H310.837C310.957 163.904 311.581 165.488 312.709 166.616C313.861 167.744 315.265 168.308 316.921 168.308C318.457 168.308 319.933 167.84 321.349 166.904L322.321 168.632C321.457 169.184 320.569 169.628 319.657 169.964C318.745 170.276 317.725 170.432 316.597 170.432C315.061 170.432 313.657 170.072 312.385 169.352C311.137 168.608 310.141 167.54 309.397 166.148C308.677 164.756 308.317 163.136 308.317 161.288C308.317 159.464 308.677 157.856 309.397 156.464C310.141 155.072 311.113 154.004 312.313 153.26C313.513 152.492 314.785 152.108 316.129 152.108C318.289 152.108 319.969 152.84 321.169 154.304C322.393 155.744 323.005 157.736 323.005 160.28ZM320.665 159.956C320.665 158.108 320.269 156.692 319.477 155.708C318.685 154.724 317.581 154.232 316.165 154.232C314.869 154.232 313.717 154.724 312.709 155.708C311.701 156.692 311.101 158.108 310.909 159.956H320.665ZM331.868 170.432C330.668 170.432 329.504 170.216 328.376 169.784C327.248 169.328 326.252 168.74 325.388 168.02L326.72 166.256C327.584 166.952 328.424 167.48 329.24 167.84C330.056 168.2 330.968 168.38 331.976 168.38C333.128 168.38 334.016 168.104 334.64 167.552C335.264 167 335.576 166.304 335.576 165.464C335.576 164.624 335.216 163.952 334.496 163.448C333.8 162.944 332.804 162.464 331.508 162.008C329.852 161.408 328.556 160.76 327.62 160.064C326.684 159.344 326.216 158.324 326.216 157.004C326.216 155.588 326.744 154.424 327.8 153.512C328.88 152.576 330.332 152.108 332.156 152.108C333.14 152.108 334.088 152.288 335 152.648C335.912 153.008 336.728 153.476 337.448 154.052L336.188 155.744C335.492 155.24 334.832 154.856 334.208 154.592C333.584 154.328 332.9 154.196 332.156 154.196C331.052 154.196 330.212 154.46 329.636 154.988C329.06 155.492 328.772 156.116 328.772 156.86C328.772 157.388 328.94 157.844 329.276 158.228C329.636 158.612 330.068 158.924 330.572 159.164C331.076 159.38 331.784 159.668 332.696 160.028C333.92 160.484 334.88 160.892 335.576 161.252C336.272 161.612 336.872 162.128 337.376 162.8C337.88 163.448 338.132 164.288 338.132 165.32C338.132 166.256 337.88 167.12 337.376 167.912C336.896 168.68 336.176 169.292 335.216 169.748C334.28 170.204 333.164 170.432 331.868 170.432Z" fill="black"/>
<mask id="path-10-outside-4" maskUnits="userSpaceOnUse" x="363" y="154" width="56" height="114" fill="black">
<rect fill="white" x="363" y="154" width="56" height="114"/>
<path d="M373 164C384.126 164 395.174 165.857 405.689 169.494L373 264V164Z"/>
</mask>
<path d="M373 164C384.126 164 395.174 165.857 405.689 169.494L373 264V164Z" stroke="#FFAA67" stroke-width="20" mask="url(#path-10-outside-4)"/>
<circle cx="373" cy="264" r="100" fill="#F1F3F2"/>
<path d="M111.48 125C111.672 120.584 112.272 116.828 113.28 113.732C114.288 110.612 115.92 107.468 118.176 104.3H106.584V102.032H121.2V103.616C119.424 105.92 118.044 108.128 117.06 110.24C116.1 112.352 115.416 114.536 115.008 116.792C114.6 119.048 114.324 121.784 114.18 125H111.48ZM129.307 115.604C127.675 115.604 126.379 114.944 125.419 113.624C124.483 112.304 124.015 110.468 124.015 108.116C124.015 105.788 124.483 103.976 125.419 102.68C126.379 101.36 127.675 100.7 129.307 100.7C130.939 100.7 132.223 101.36 133.159 102.68C134.119 103.976 134.599 105.788 134.599 108.116C134.599 110.468 134.119 112.304 133.159 113.624C132.223 114.944 130.939 115.604 129.307 115.604ZM142.987 100.916H144.823L131.755 125.432H129.919L142.987 100.916ZM129.307 113.948C130.315 113.948 131.107 113.444 131.683 112.436C132.283 111.428 132.583 109.988 132.583 108.116C132.583 106.244 132.283 104.816 131.683 103.832C131.107 102.848 130.315 102.356 129.307 102.356C128.299 102.356 127.495 102.848 126.895 103.832C126.319 104.816 126.031 106.244 126.031 108.116C126.031 109.988 126.319 111.428 126.895 112.436C127.495 113.444 128.299 113.948 129.307 113.948ZM145.543 125.432C143.911 125.432 142.615 124.772 141.655 123.452C140.719 122.132 140.251 120.296 140.251 117.944C140.251 115.616 140.719 113.804 141.655 112.508C142.615 111.188 143.911 110.528 145.543 110.528C147.175 110.528 148.459 111.188 149.395 112.508C150.355 113.804 150.835 115.616 150.835 117.944C150.835 120.296 150.355 122.132 149.395 123.452C148.459 124.772 147.175 125.432 145.543 125.432ZM145.543 123.776C146.527 123.776 147.307 123.272 147.883 122.264C148.483 121.256 148.783 119.816 148.783 117.944C148.783 116.072 148.495 114.644 147.919 113.66C147.343 112.676 146.551 112.184 145.543 112.184C144.535 112.184 143.731 112.676 143.131 113.66C142.555 114.644 142.267 116.072 142.267 117.944C142.267 119.816 142.555 121.256 143.131 122.264C143.731 123.272 144.535 123.776 145.543 123.776ZM162.412 107.54H164.572L164.788 110.744H164.896C165.496 109.616 166.228 108.728 167.092 108.08C167.956 107.432 168.88 107.108 169.864 107.108C170.56 107.108 171.16 107.228 171.664 107.468L171.16 109.772C170.536 109.58 169.984 109.484 169.504 109.484C168.688 109.484 167.872 109.82 167.056 110.492C166.264 111.164 165.58 112.208 165.004 113.624V125H162.412V107.54ZM177.762 125.432C176.274 125.432 175.05 125 174.09 124.136C173.13 123.272 172.65 122.06 172.65 120.5C172.65 118.604 173.514 117.152 175.242 116.144C176.97 115.112 179.73 114.392 183.522 113.984C183.522 112.616 183.234 111.5 182.658 110.636C182.106 109.748 181.146 109.304 179.778 109.304C178.122 109.304 176.358 109.94 174.486 111.212L173.442 109.412C175.746 107.876 178.002 107.108 180.21 107.108C182.226 107.108 183.714 107.744 184.674 109.016C185.634 110.264 186.114 111.992 186.114 114.2V125H183.954L183.738 122.876H183.63C181.566 124.58 179.61 125.432 177.762 125.432ZM178.446 123.308C179.286 123.308 180.102 123.116 180.894 122.732C181.71 122.324 182.586 121.7 183.522 120.86V115.748C180.522 116.108 178.386 116.66 177.114 117.404C175.866 118.148 175.242 119.132 175.242 120.356C175.242 121.34 175.542 122.084 176.142 122.588C176.742 123.068 177.51 123.308 178.446 123.308ZM191.837 107.54H193.997L194.213 110.744H194.321C194.921 109.616 195.653 108.728 196.517 108.08C197.381 107.432 198.305 107.108 199.289 107.108C199.985 107.108 200.585 107.228 201.089 107.468L200.585 109.772C199.961 109.58 199.409 109.484 198.929 109.484C198.113 109.484 197.297 109.82 196.481 110.492C195.689 111.164 195.005 112.208 194.429 113.624V125H191.837V107.54ZM217.04 115.28C217.04 115.904 217.004 116.432 216.932 116.864H204.872C204.992 118.904 205.616 120.488 206.744 121.616C207.896 122.744 209.3 123.308 210.956 123.308C212.492 123.308 213.968 122.84 215.384 121.904L216.356 123.632C215.492 124.184 214.604 124.628 213.692 124.964C212.78 125.276 211.76 125.432 210.632 125.432C209.096 125.432 207.692 125.072 206.42 124.352C205.172 123.608 204.176 122.54 203.432 121.148C202.712 119.756 202.352 118.136 202.352 116.288C202.352 114.464 202.712 112.856 203.432 111.464C204.176 110.072 205.148 109.004 206.348 108.26C207.548 107.492 208.82 107.108 210.164 107.108C212.324 107.108 214.004 107.84 215.204 109.304C216.428 110.744 217.04 112.736 217.04 115.28ZM214.7 114.956C214.7 113.108 214.304 111.692 213.512 110.708C212.72 109.724 211.616 109.232 210.2 109.232C208.904 109.232 207.752 109.724 206.744 110.708C205.736 111.692 205.136 113.108 204.944 114.956H214.7ZM224.283 125.432C223.299 125.432 222.579 125.132 222.123 124.532C221.667 123.908 221.439 122.996 221.439 121.796V99.296H224.031V122.012C224.031 122.42 224.103 122.732 224.247 122.948C224.415 123.14 224.619 123.236 224.859 123.236C225.051 123.236 225.267 123.212 225.507 123.164L225.867 125.18C225.411 125.348 224.883 125.432 224.283 125.432ZM230.475 132.632C229.755 132.632 229.095 132.512 228.495 132.272L228.999 130.148C229.479 130.34 229.935 130.436 230.367 130.436C231.327 130.436 232.143 130.076 232.815 129.356C233.487 128.636 234.027 127.664 234.435 126.44L234.867 125.108L227.811 107.54H230.511L234.255 117.548L235.983 122.444H236.127C236.463 121.436 236.811 120.332 237.171 119.132L237.639 117.548L240.915 107.54H243.471L236.847 126.62C236.175 128.492 235.335 129.956 234.327 131.012C233.343 132.092 232.059 132.632 230.475 132.632ZM253.707 99.44H255.651L245.679 130.76H243.735L253.707 99.44ZM259.091 107.54H261.251L261.467 110.132H261.575C262.535 109.172 263.471 108.428 264.383 107.9C265.319 107.372 266.339 107.108 267.443 107.108C269.267 107.108 270.611 107.684 271.475 108.836C272.339 109.964 272.771 111.656 272.771 113.912V125H270.143V114.236C270.143 112.556 269.867 111.332 269.315 110.564C268.787 109.796 267.911 109.412 266.687 109.412C265.823 109.412 265.019 109.64 264.275 110.096C263.531 110.528 262.667 111.236 261.683 112.22V125H259.091V107.54ZM291.958 115.28C291.958 115.904 291.922 116.432 291.85 116.864H279.79C279.91 118.904 280.534 120.488 281.662 121.616C282.814 122.744 284.218 123.308 285.874 123.308C287.41 123.308 288.886 122.84 290.302 121.904L291.274 123.632C290.41 124.184 289.522 124.628 288.61 124.964C287.698 125.276 286.678 125.432 285.55 125.432C284.014 125.432 282.61 125.072 281.338 124.352C280.09 123.608 279.094 122.54 278.35 121.148C277.63 119.756 277.27 118.136 277.27 116.288C277.27 114.464 277.63 112.856 278.35 111.464C279.094 110.072 280.066 109.004 281.266 108.26C282.466 107.492 283.738 107.108 285.082 107.108C287.242 107.108 288.922 107.84 290.122 109.304C291.346 110.744 291.958 112.736 291.958 115.28ZM289.618 114.956C289.618 113.108 289.222 111.692 288.43 110.708C287.638 109.724 286.534 109.232 285.118 109.232C283.822 109.232 282.67 109.724 281.662 110.708C280.654 111.692 280.054 113.108 279.862 114.956H289.618ZM293.975 107.54H296.675L300.131 117.728L301.787 122.84H301.931L303.587 117.728L307.043 107.54H309.635L303.371 125H300.347L293.975 107.54ZM326.341 115.28C326.341 115.904 326.305 116.432 326.233 116.864H314.173C314.293 118.904 314.917 120.488 316.045 121.616C317.197 122.744 318.601 123.308 320.257 123.308C321.793 123.308 323.269 122.84 324.685 121.904L325.657 123.632C324.793 124.184 323.905 124.628 322.993 124.964C322.081 125.276 321.061 125.432 319.933 125.432C318.397 125.432 316.993 125.072 315.721 124.352C314.473 123.608 313.477 122.54 312.733 121.148C312.013 119.756 311.653 118.136 311.653 116.288C311.653 114.464 312.013 112.856 312.733 111.464C313.477 110.072 314.449 109.004 315.649 108.26C316.849 107.492 318.121 107.108 319.465 107.108C321.625 107.108 323.305 107.84 324.505 109.304C325.729 110.744 326.341 112.736 326.341 115.28ZM324.001 114.956C324.001 113.108 323.605 111.692 322.813 110.708C322.021 109.724 320.917 109.232 319.501 109.232C318.205 109.232 317.053 109.724 316.045 110.708C315.037 111.692 314.437 113.108 314.245 114.956H324.001ZM330.74 107.54H332.9L333.116 110.744H333.224C333.824 109.616 334.556 108.728 335.42 108.08C336.284 107.432 337.208 107.108 338.192 107.108C338.888 107.108 339.488 107.228 339.992 107.468L339.488 109.772C338.864 109.58 338.312 109.484 337.832 109.484C337.016 109.484 336.2 109.82 335.384 110.492C334.592 111.164 333.908 112.208 333.332 113.624V125H330.74V107.54Z" fill="black"/>
</svg>
