<svg width="699" height="557" viewBox="0 0 699 557" fill="none" xmlns="http://www.w3.org/2000/svg">
<mask id="path-1-outside-1" maskUnits="userSpaceOnUse" x="356" y="37" width="344" height="521" fill="black">
<rect fill="white" x="356" y="37" width="344" height="521"/>
<path d="M439 47C474.807 47 510.196 54.6918 542.773 69.5549C575.349 84.4181 604.353 106.106 627.82 133.15C651.288 160.194 668.673 191.964 678.798 226.31C688.922 260.656 691.551 296.776 686.506 332.225C681.461 367.675 668.859 401.627 649.554 431.785C630.249 461.942 604.691 487.6 574.61 507.023C544.529 526.447 510.627 539.181 475.197 544.366C439.767 549.55 403.637 547.063 369.252 537.073L439 297V47Z"/>
</mask>
<path d="M439 47C474.807 47 510.196 54.6918 542.773 69.5549C575.349 84.4181 604.353 106.106 627.82 133.15C651.288 160.194 668.673 191.964 678.798 226.31C688.922 260.656 691.551 296.776 686.506 332.225C681.461 367.675 668.859 401.627 649.554 431.785C630.249 461.942 604.691 487.6 574.61 507.023C544.529 526.447 510.627 539.181 475.197 544.366C439.767 549.55 403.637 547.063 369.252 537.073L439 297V47Z" stroke="#DA674A" stroke-width="20" mask="url(#path-1-outside-1)"/>
<circle cx="439" cy="297" r="250" fill="#F1F3F2"/>
<path d="M177.352 37.432C175.696 37.432 174.268 37.144 173.068 36.568C171.892 35.992 170.836 35.236 169.9 34.3L171.232 32.572C172.048 33.388 172.912 34.036 173.824 34.516C174.76 34.996 175.864 35.236 177.136 35.236C178.096 35.236 178.972 35.008 179.764 34.552C180.556 34.096 181.18 33.46 181.636 32.644C182.092 31.804 182.32 30.844 182.32 29.764C182.32 28.132 181.864 26.848 180.952 25.912C180.04 24.976 178.816 24.508 177.28 24.508C176.512 24.508 175.828 24.616 175.228 24.832C174.652 25.048 173.992 25.408 173.248 25.912L171.808 25.012L172.564 14.032H183.832V16.3H174.868L174.22 23.464C174.82 23.128 175.408 22.876 175.984 22.708C176.56 22.54 177.196 22.456 177.892 22.456C179.98 22.456 181.684 23.068 183.004 24.292C184.324 25.492 184.984 27.28 184.984 29.656C184.984 31.24 184.624 32.62 183.904 33.796C183.208 34.972 182.272 35.872 181.096 36.496C179.944 37.12 178.696 37.432 177.352 37.432ZM203.387 30.52H200.183V37H197.699V30.52H187.331V28.828L197.375 14.032H200.183V28.432H203.387V30.52ZM197.699 28.432V21.304C197.699 20.392 197.759 18.952 197.879 16.984H197.735C197.255 17.848 196.883 18.484 196.619 18.892L195.863 20.152L190.139 28.432H197.699ZM208.794 37.432C208.242 37.432 207.774 37.24 207.39 36.856C207.006 36.448 206.813 35.944 206.813 35.344C206.813 34.72 207.006 34.216 207.39 33.832C207.774 33.424 208.242 33.22 208.794 33.22C209.346 33.22 209.814 33.424 210.198 33.832C210.582 34.216 210.774 34.72 210.774 35.344C210.774 35.944 210.582 36.448 210.198 36.856C209.814 37.24 209.346 37.432 208.794 37.432ZM221.508 37.432C219.852 37.432 218.424 37.144 217.224 36.568C216.048 35.992 214.992 35.236 214.056 34.3L215.388 32.572C216.204 33.388 217.068 34.036 217.98 34.516C218.916 34.996 220.02 35.236 221.292 35.236C222.252 35.236 223.128 35.008 223.92 34.552C224.712 34.096 225.336 33.46 225.792 32.644C226.248 31.804 226.476 30.844 226.476 29.764C226.476 28.132 226.02 26.848 225.108 25.912C224.196 24.976 222.972 24.508 221.436 24.508C220.668 24.508 219.984 24.616 219.384 24.832C218.808 25.048 218.148 25.408 217.404 25.912L215.964 25.012L216.72 14.032H227.988V16.3H219.024L218.376 23.464C218.976 23.128 219.564 22.876 220.14 22.708C220.716 22.54 221.352 22.456 222.048 22.456C224.136 22.456 225.84 23.068 227.16 24.292C228.48 25.492 229.14 27.28 229.14 29.656C229.14 31.24 228.78 32.62 228.06 33.796C227.364 34.972 226.428 35.872 225.252 36.496C224.1 37.12 222.852 37.432 221.508 37.432ZM237.463 27.604C235.831 27.604 234.535 26.944 233.575 25.624C232.639 24.304 232.171 22.468 232.171 20.116C232.171 17.788 232.639 15.976 233.575 14.68C234.535 13.36 235.831 12.7 237.463 12.7C239.095 12.7 240.379 13.36 241.315 14.68C242.275 15.976 242.755 17.788 242.755 20.116C242.755 22.468 242.275 24.304 241.315 25.624C240.379 26.944 239.095 27.604 237.463 27.604ZM251.143 12.916H252.979L239.911 37.432H238.075L251.143 12.916ZM237.463 25.948C238.471 25.948 239.263 25.444 239.839 24.436C240.439 23.428 240.739 21.988 240.739 20.116C240.739 18.244 240.439 16.816 239.839 15.832C239.263 14.848 238.471 14.356 237.463 14.356C236.455 14.356 235.651 14.848 235.051 15.832C234.475 16.816 234.187 18.244 234.187 20.116C234.187 21.988 234.475 23.428 235.051 24.436C235.651 25.444 236.455 25.948 237.463 25.948ZM253.699 37.432C252.067 37.432 250.771 36.772 249.811 35.452C248.875 34.132 248.407 32.296 248.407 29.944C248.407 27.616 248.875 25.804 249.811 24.508C250.771 23.188 252.067 22.528 253.699 22.528C255.331 22.528 256.615 23.188 257.551 24.508C258.511 25.804 258.991 27.616 258.991 29.944C258.991 32.296 258.511 34.132 257.551 35.452C256.615 36.772 255.331 37.432 253.699 37.432ZM253.699 35.776C254.683 35.776 255.463 35.272 256.039 34.264C256.639 33.256 256.939 31.816 256.939 29.944C256.939 28.072 256.651 26.644 256.075 25.66C255.499 24.676 254.707 24.184 253.699 24.184C252.691 24.184 251.887 24.676 251.287 25.66C250.711 26.644 250.423 28.072 250.423 29.944C250.423 31.816 250.711 33.256 251.287 34.264C251.887 35.272 252.691 35.776 253.699 35.776ZM273.412 37.432C272.428 37.432 271.708 37.132 271.252 36.532C270.796 35.908 270.568 34.996 270.568 33.796V11.296H273.16V34.012C273.16 34.42 273.232 34.732 273.376 34.948C273.544 35.14 273.748 35.236 273.988 35.236C274.18 35.236 274.396 35.212 274.636 35.164L274.996 37.18C274.54 37.348 274.012 37.432 273.412 37.432ZM286.228 37.432C284.788 37.432 283.456 37.072 282.232 36.352C281.008 35.608 280.024 34.552 279.28 33.184C278.56 31.792 278.2 30.16 278.2 28.288C278.2 26.416 278.56 24.784 279.28 23.392C280.024 22 281.008 20.944 282.232 20.224C283.456 19.48 284.788 19.108 286.228 19.108C287.668 19.108 289 19.48 290.224 20.224C291.448 20.944 292.42 22 293.14 23.392C293.884 24.784 294.256 26.416 294.256 28.288C294.256 30.16 293.884 31.792 293.14 33.184C292.42 34.552 291.448 35.608 290.224 36.352C289 37.072 287.668 37.432 286.228 37.432ZM286.228 35.236C287.26 35.236 288.172 34.948 288.964 34.372C289.78 33.796 290.416 32.98 290.872 31.924C291.328 30.868 291.556 29.656 291.556 28.288C291.556 26.92 291.328 25.708 290.872 24.652C290.416 23.596 289.78 22.78 288.964 22.204C288.172 21.604 287.26 21.304 286.228 21.304C285.196 21.304 284.272 21.604 283.456 22.204C282.664 22.78 282.04 23.596 281.584 24.652C281.152 25.708 280.936 26.92 280.936 28.288C280.936 30.376 281.428 32.056 282.412 33.328C283.396 34.6 284.668 35.236 286.228 35.236ZM299.009 19.54H301.169L301.385 22.132H301.493C302.453 21.172 303.389 20.428 304.301 19.9C305.237 19.372 306.257 19.108 307.361 19.108C309.185 19.108 310.529 19.684 311.393 20.836C312.257 21.964 312.689 23.656 312.689 25.912V37H310.061V26.236C310.061 24.556 309.785 23.332 309.233 22.564C308.705 21.796 307.829 21.412 306.605 21.412C305.741 21.412 304.937 21.64 304.193 22.096C303.449 22.528 302.585 23.236 301.601 24.22V37H299.009V19.54ZM324.388 45.136C322.204 45.136 320.452 44.716 319.132 43.876C317.836 43.036 317.188 41.884 317.188 40.42C317.188 39.676 317.404 38.956 317.836 38.26C318.292 37.564 318.928 36.94 319.744 36.388V36.244C319.288 35.956 318.916 35.572 318.628 35.092C318.34 34.612 318.196 34.048 318.196 33.4C318.196 32.728 318.376 32.116 318.736 31.564C319.12 30.988 319.576 30.52 320.104 30.16V30.016C319.48 29.512 318.952 28.852 318.52 28.036C318.088 27.22 317.872 26.32 317.872 25.336C317.872 24.112 318.16 23.032 318.736 22.096C319.312 21.136 320.092 20.404 321.076 19.9C322.06 19.372 323.14 19.108 324.316 19.108C325.108 19.108 325.912 19.252 326.728 19.54H332.776V21.592H329.068C329.524 22.024 329.896 22.576 330.184 23.248C330.472 23.92 330.616 24.628 330.616 25.372C330.616 26.572 330.34 27.64 329.788 28.576C329.236 29.488 328.48 30.196 327.52 30.7C326.56 31.204 325.492 31.456 324.316 31.456C323.356 31.456 322.468 31.252 321.652 30.844C321.268 31.156 320.968 31.48 320.752 31.816C320.56 32.128 320.464 32.524 320.464 33.004C320.464 33.628 320.692 34.12 321.148 34.48C321.628 34.816 322.432 34.984 323.56 34.984H327.052C329.092 34.984 330.604 35.32 331.588 35.992C332.572 36.664 333.064 37.708 333.064 39.124C333.064 40.18 332.704 41.164 331.984 42.076C331.264 43.012 330.244 43.756 328.924 44.308C327.604 44.86 326.092 45.136 324.388 45.136ZM324.316 29.656C325.396 29.656 326.308 29.26 327.052 28.468C327.82 27.652 328.204 26.608 328.204 25.336C328.204 24.04 327.832 23.008 327.088 22.24C326.344 21.448 325.42 21.052 324.316 21.052C323.212 21.052 322.276 21.448 321.508 22.24C320.764 23.008 320.392 24.04 320.392 25.336C320.392 26.608 320.764 27.652 321.508 28.468C322.276 29.26 323.212 29.656 324.316 29.656ZM324.748 43.264C325.852 43.264 326.836 43.084 327.7 42.724C328.588 42.388 329.272 41.92 329.752 41.32C330.232 40.744 330.472 40.132 330.472 39.484C330.472 38.668 330.172 38.08 329.572 37.72C328.972 37.384 328.06 37.216 326.836 37.216H323.632C322.888 37.216 322.144 37.12 321.4 36.928C320.128 37.816 319.492 38.86 319.492 40.06C319.492 41.044 319.96 41.824 320.896 42.4C321.832 42.976 323.116 43.264 324.748 43.264ZM349.055 37.432C347.327 37.432 346.091 36.94 345.347 35.956C344.603 34.972 344.231 33.568 344.231 31.744V21.7H341.603V19.72L344.339 19.54L344.663 14.608H346.859V19.54H351.647V21.7H346.859V31.816C346.859 32.968 347.063 33.832 347.471 34.408C347.903 34.984 348.623 35.272 349.631 35.272C350.135 35.272 350.807 35.116 351.647 34.804L352.187 36.784C350.891 37.216 349.847 37.432 349.055 37.432ZM355.681 19.54H357.841L358.057 22.744H358.165C358.765 21.616 359.497 20.728 360.361 20.08C361.225 19.432 362.149 19.108 363.133 19.108C363.829 19.108 364.429 19.228 364.933 19.468L364.429 21.772C363.805 21.58 363.253 21.484 362.773 21.484C361.957 21.484 361.141 21.82 360.325 22.492C359.533 23.164 358.849 24.208 358.273 25.624V37H355.681V19.54ZM367.915 19.54H370.507V37H367.915V19.54ZM369.247 15.796C368.719 15.796 368.287 15.628 367.951 15.292C367.615 14.956 367.447 14.512 367.447 13.96C367.447 13.432 367.615 13.012 367.951 12.7C368.287 12.364 368.719 12.196 369.247 12.196C369.775 12.196 370.207 12.364 370.543 12.7C370.879 13.012 371.047 13.432 371.047 13.96C371.047 14.512 370.879 14.956 370.543 15.292C370.207 15.628 369.775 15.796 369.247 15.796ZM376.634 19.54H378.794L379.01 21.628H379.118C381.158 19.948 383.042 19.108 384.77 19.108C387.002 19.108 388.706 19.912 389.882 21.52C391.082 23.104 391.682 25.264 391.682 28C391.682 29.92 391.334 31.6 390.638 33.04C389.942 34.456 389.018 35.548 387.866 36.316C386.714 37.06 385.466 37.432 384.122 37.432C382.562 37.432 380.906 36.748 379.154 35.38L379.226 38.476V44.488H376.634V19.54ZM383.69 35.2C384.698 35.2 385.598 34.912 386.39 34.336C387.206 33.736 387.842 32.896 388.298 31.816C388.754 30.736 388.982 29.476 388.982 28.036C388.982 25.948 388.586 24.316 387.794 23.14C387.026 21.94 385.814 21.34 384.158 21.34C382.694 21.34 381.05 22.18 379.226 23.86V33.292C380.018 33.964 380.798 34.456 381.566 34.768C382.334 35.056 383.042 35.2 383.69 35.2ZM400.891 37.432C399.691 37.432 398.527 37.216 397.399 36.784C396.271 36.328 395.275 35.74 394.411 35.02L395.743 33.256C396.607 33.952 397.447 34.48 398.263 34.84C399.079 35.2 399.991 35.38 400.999 35.38C402.151 35.38 403.039 35.104 403.663 34.552C404.287 34 404.599 33.304 404.599 32.464C404.599 31.624 404.239 30.952 403.519 30.448C402.823 29.944 401.827 29.464 400.531 29.008C398.875 28.408 397.579 27.76 396.643 27.064C395.707 26.344 395.239 25.324 395.239 24.004C395.239 22.588 395.767 21.424 396.823 20.512C397.903 19.576 399.355 19.108 401.179 19.108C402.163 19.108 403.111 19.288 404.023 19.648C404.935 20.008 405.751 20.476 406.471 21.052L405.211 22.744C404.515 22.24 403.855 21.856 403.231 21.592C402.607 21.328 401.923 21.196 401.179 21.196C400.075 21.196 399.235 21.46 398.659 21.988C398.083 22.492 397.795 23.116 397.795 23.86C397.795 24.388 397.963 24.844 398.299 25.228C398.659 25.612 399.091 25.924 399.595 26.164C400.099 26.38 400.807 26.668 401.719 27.028C402.943 27.484 403.903 27.892 404.599 28.252C405.295 28.612 405.895 29.128 406.399 29.8C406.903 30.448 407.155 31.288 407.155 32.32C407.155 33.256 406.903 34.12 406.399 34.912C405.919 35.68 405.199 36.292 404.239 36.748C403.303 37.204 402.187 37.432 400.891 37.432Z" fill="black"/>
<mask id="path-4-outside-2" maskUnits="userSpaceOnUse" x="431" y="75" width="221" height="330" fill="black">
<rect fill="white" x="431" y="75" width="221" height="330"/>
<path d="M441 85C476.711 85 511.771 94.5617 542.538 112.692C573.304 130.822 598.656 156.859 615.958 188.099C633.26 219.339 641.882 254.642 640.929 290.34C639.975 326.039 629.481 360.831 610.536 391.102L441 285V85Z"/>
</mask>
<path d="M441 85C476.711 85 511.771 94.5617 542.538 112.692C573.304 130.822 598.656 156.859 615.958 188.099C633.26 219.339 641.882 254.642 640.929 290.34C639.975 326.039 629.481 360.831 610.536 391.102L441 285V85Z" stroke="#DA674A" stroke-width="20" mask="url(#path-4-outside-2)"/>
<circle cx="441" cy="285" r="200" fill="#F1F3F2"/>
<path d="M8.46 85.432C5.436 85.432 2.94 84.352 0.972 82.192L2.304 80.464C3.144 81.328 4.032 82.012 4.968 82.516C5.928 82.996 7.044 83.236 8.316 83.236C9.78 83.236 10.968 82.84 11.88 82.048C12.792 81.232 13.248 80.152 13.248 78.808C13.248 75.64 10.74 74.056 5.724 74.056V72.004C8.076 72.004 9.78 71.596 10.836 70.78C11.892 69.964 12.42 68.884 12.42 67.54C12.42 66.388 12.048 65.476 11.304 64.804C10.56 64.108 9.552 63.76 8.28 63.76C6.456 63.76 4.788 64.552 3.276 66.136L1.836 64.444C3.852 62.548 6.024 61.6 8.352 61.6C10.344 61.6 11.964 62.116 13.212 63.148C14.46 64.156 15.084 65.56 15.084 67.36C15.084 68.704 14.7 69.844 13.932 70.78C13.188 71.692 12.156 72.388 10.836 72.868V73.012C12.324 73.348 13.536 74.032 14.472 75.064C15.432 76.096 15.912 77.368 15.912 78.88C15.912 80.2 15.576 81.364 14.904 82.372C14.256 83.356 13.368 84.112 12.24 84.64C11.112 85.168 9.852 85.432 8.46 85.432ZM26.1788 85.432C23.1548 85.432 20.6588 84.352 18.6908 82.192L20.0228 80.464C20.8628 81.328 21.7508 82.012 22.6868 82.516C23.6468 82.996 24.7628 83.236 26.0348 83.236C27.4988 83.236 28.6868 82.84 29.5988 82.048C30.5108 81.232 30.9668 80.152 30.9668 78.808C30.9668 75.64 28.4588 74.056 23.4428 74.056V72.004C25.7948 72.004 27.4988 71.596 28.5548 70.78C29.6108 69.964 30.1388 68.884 30.1388 67.54C30.1388 66.388 29.7668 65.476 29.0228 64.804C28.2788 64.108 27.2708 63.76 25.9988 63.76C24.1748 63.76 22.5068 64.552 20.9948 66.136L19.5548 64.444C21.5708 62.548 23.7428 61.6 26.0708 61.6C28.0628 61.6 29.6828 62.116 30.9308 63.148C32.1788 64.156 32.8028 65.56 32.8028 67.36C32.8028 68.704 32.4188 69.844 31.6508 70.78C30.9068 71.692 29.8748 72.388 28.5548 72.868V73.012C30.0428 73.348 31.2548 74.032 32.1908 75.064C33.1508 76.096 33.6308 77.368 33.6308 78.88C33.6308 80.2 33.2948 81.364 32.6228 82.372C31.9748 83.356 31.0868 84.112 29.9588 84.64C28.8308 85.168 27.5708 85.432 26.1788 85.432ZM39.7935 85.432C39.2415 85.432 38.7735 85.24 38.3895 84.856C38.0055 84.448 37.8135 83.944 37.8135 83.344C37.8135 82.72 38.0055 82.216 38.3895 81.832C38.7735 81.424 39.2415 81.22 39.7935 81.22C40.3455 81.22 40.8135 81.424 41.1975 81.832C41.5815 82.216 41.7735 82.72 41.7735 83.344C41.7735 83.944 41.5815 84.448 41.1975 84.856C40.8135 85.24 40.3455 85.432 39.7935 85.432ZM52.2563 61.6C53.7923 61.6 55.1483 62.02 56.3243 62.86C57.5243 63.676 58.4483 64.912 59.0963 66.568C59.7683 68.2 60.1043 70.204 60.1043 72.58C60.1043 75.556 59.7083 78.004 58.9163 79.924C58.1243 81.844 57.0803 83.248 55.7843 84.136C54.4883 85 53.0363 85.432 51.4283 85.432C49.2683 85.432 47.4803 84.64 46.0643 83.056L47.5403 81.4C48.0203 81.976 48.5843 82.432 49.2323 82.768C49.9043 83.08 50.6003 83.236 51.3203 83.236C53.1443 83.236 54.6323 82.432 55.7843 80.824C56.9363 79.216 57.5363 76.624 57.5843 73.048C56.8403 73.984 55.9763 74.716 54.9923 75.244C54.0323 75.772 53.0723 76.036 52.1123 76.036C50.0723 76.036 48.4763 75.436 47.3243 74.236C46.1723 73.012 45.5963 71.236 45.5963 68.908C45.5963 67.516 45.8963 66.268 46.4963 65.164C47.0963 64.036 47.9003 63.16 48.9082 62.536C49.9403 61.912 51.0563 61.6 52.2563 61.6ZM52.5443 74.02C53.3363 74.02 54.1643 73.768 55.0283 73.264C55.9163 72.76 56.7443 71.968 57.5123 70.888C57.3443 68.584 56.8163 66.808 55.9283 65.56C55.0403 64.312 53.8163 63.688 52.2563 63.688C51.0803 63.688 50.0963 64.18 49.3043 65.164C48.5123 66.124 48.1163 67.372 48.1163 68.908C48.1163 70.516 48.4883 71.776 49.2323 72.688C49.9763 73.576 51.0803 74.02 52.5443 74.02ZM68.463 75.604C66.831 75.604 65.535 74.944 64.575 73.624C63.639 72.304 63.171 70.468 63.171 68.116C63.171 65.788 63.639 63.976 64.575 62.68C65.535 61.36 66.831 60.7 68.463 60.7C70.095 60.7 71.379 61.36 72.315 62.68C73.275 63.976 73.755 65.788 73.755 68.116C73.755 70.468 73.275 72.304 72.315 73.624C71.379 74.944 70.095 75.604 68.463 75.604ZM82.143 60.916H83.979L70.911 85.432H69.075L82.143 60.916ZM68.463 73.948C69.471 73.948 70.263 73.444 70.839 72.436C71.439 71.428 71.739 69.988 71.739 68.116C71.739 66.244 71.439 64.816 70.839 63.832C70.263 62.848 69.471 62.356 68.463 62.356C67.455 62.356 66.651 62.848 66.051 63.832C65.475 64.816 65.187 66.244 65.187 68.116C65.187 69.988 65.475 71.428 66.051 72.436C66.651 73.444 67.455 73.948 68.463 73.948ZM84.699 85.432C83.067 85.432 81.771 84.772 80.811 83.452C79.875 82.132 79.407 80.296 79.407 77.944C79.407 75.616 79.875 73.804 80.811 72.508C81.771 71.188 83.067 70.528 84.699 70.528C86.331 70.528 87.615 71.188 88.551 72.508C89.511 73.804 89.991 75.616 89.991 77.944C89.991 80.296 89.511 82.132 88.551 83.452C87.615 84.772 86.331 85.432 84.699 85.432ZM84.699 83.776C85.683 83.776 86.463 83.272 87.039 82.264C87.639 81.256 87.939 79.816 87.939 77.944C87.939 76.072 87.651 74.644 87.075 73.66C86.499 72.676 85.707 72.184 84.699 72.184C83.691 72.184 82.887 72.676 82.287 73.66C81.711 74.644 81.423 76.072 81.423 77.944C81.423 79.816 81.711 81.256 82.287 82.264C82.887 83.272 83.691 83.776 84.699 83.776ZM99.3718 67.54H102.072L104.808 77.944L105.132 79.492C105.468 80.932 105.708 82.024 105.852 82.768H105.996C106.452 80.896 106.86 79.288 107.22 77.944L110.028 67.54H112.656L115.5 77.944L116.724 82.768H116.868L118.02 77.944L120.684 67.54H123.204L118.452 85H115.212L112.548 75.244L111.864 72.4C111.816 72.208 111.648 71.488 111.36 70.24H111.216C110.688 72.616 110.268 74.308 109.956 75.316L107.364 85H104.304L99.3718 67.54ZM140.341 75.28C140.341 75.904 140.305 76.432 140.233 76.864H128.173C128.293 78.904 128.917 80.488 130.045 81.616C131.197 82.744 132.601 83.308 134.257 83.308C135.793 83.308 137.269 82.84 138.685 81.904L139.657 83.632C138.793 84.184 137.905 84.628 136.993 84.964C136.081 85.276 135.061 85.432 133.933 85.432C132.397 85.432 130.993 85.072 129.721 84.352C128.473 83.608 127.477 82.54 126.733 81.148C126.013 79.756 125.653 78.136 125.653 76.288C125.653 74.464 126.013 72.856 126.733 71.464C127.477 70.072 128.449 69.004 129.649 68.26C130.849 67.492 132.121 67.108 133.465 67.108C135.625 67.108 137.305 67.84 138.505 69.304C139.729 70.744 140.341 72.736 140.341 75.28ZM138.001 74.956C138.001 73.108 137.605 71.692 136.813 70.708C136.021 69.724 134.917 69.232 133.501 69.232C132.205 69.232 131.053 69.724 130.045 70.708C129.037 71.692 128.437 73.108 128.245 74.956H138.001ZM158.06 75.28C158.06 75.904 158.024 76.432 157.952 76.864H145.892C146.012 78.904 146.636 80.488 147.764 81.616C148.916 82.744 150.32 83.308 151.976 83.308C153.512 83.308 154.988 82.84 156.404 81.904L157.376 83.632C156.512 84.184 155.624 84.628 154.712 84.964C153.8 85.276 152.78 85.432 151.652 85.432C150.116 85.432 148.712 85.072 147.44 84.352C146.192 83.608 145.196 82.54 144.452 81.148C143.732 79.756 143.372 78.136 143.372 76.288C143.372 74.464 143.732 72.856 144.452 71.464C145.196 70.072 146.168 69.004 147.368 68.26C148.568 67.492 149.84 67.108 151.184 67.108C153.344 67.108 155.024 67.84 156.224 69.304C157.448 70.744 158.06 72.736 158.06 75.28ZM155.72 74.956C155.72 73.108 155.324 71.692 154.532 70.708C153.74 69.724 152.636 69.232 151.22 69.232C149.924 69.232 148.772 69.724 147.764 70.708C146.756 71.692 146.156 73.108 145.964 74.956H155.72ZM162.458 59.296H165.014V77.08H165.122L172.862 67.54H175.778L169.946 74.524L176.57 85H173.726L168.434 76.36L165.014 80.392V85H162.458V59.296ZM192.724 75.28C192.724 75.904 192.688 76.432 192.616 76.864H180.556C180.676 78.904 181.3 80.488 182.428 81.616C183.58 82.744 184.984 83.308 186.64 83.308C188.176 83.308 189.652 82.84 191.068 81.904L192.04 83.632C191.176 84.184 190.288 84.628 189.376 84.964C188.464 85.276 187.444 85.432 186.316 85.432C184.78 85.432 183.376 85.072 182.104 84.352C180.856 83.608 179.86 82.54 179.116 81.148C178.396 79.756 178.036 78.136 178.036 76.288C178.036 74.464 178.396 72.856 179.116 71.464C179.86 70.072 180.832 69.004 182.032 68.26C183.232 67.492 184.504 67.108 185.848 67.108C188.008 67.108 189.688 67.84 190.888 69.304C192.112 70.744 192.724 72.736 192.724 75.28ZM190.384 74.956C190.384 73.108 189.988 71.692 189.196 70.708C188.404 69.724 187.3 69.232 185.884 69.232C184.588 69.232 183.436 69.724 182.428 70.708C181.42 71.692 180.82 73.108 180.628 74.956H190.384ZM197.123 67.54H199.283L199.499 70.132H199.607C200.567 69.172 201.503 68.428 202.415 67.9C203.351 67.372 204.371 67.108 205.475 67.108C207.299 67.108 208.643 67.684 209.507 68.836C210.371 69.964 210.803 71.656 210.803 73.912V85H208.175V74.236C208.175 72.556 207.899 71.332 207.347 70.564C206.819 69.796 205.943 69.412 204.719 69.412C203.855 69.412 203.051 69.64 202.307 70.096C201.563 70.528 200.699 71.236 199.715 72.22V85H197.123V67.54ZM222.537 85.432C220.329 85.432 218.577 84.628 217.281 83.02C216.009 81.412 215.373 79.168 215.373 76.288C215.373 74.464 215.721 72.856 216.417 71.464C217.113 70.072 218.037 69.004 219.189 68.26C220.365 67.492 221.625 67.108 222.969 67.108C223.905 67.108 224.745 67.276 225.489 67.612C226.233 67.948 227.049 68.464 227.937 69.16L227.829 66.136V59.296H230.421V85H228.261L228.045 82.876H227.937C227.193 83.644 226.353 84.268 225.417 84.748C224.505 85.204 223.545 85.432 222.537 85.432ZM223.113 83.2C223.953 83.2 224.745 82.996 225.489 82.588C226.257 82.18 227.037 81.556 227.829 80.716V71.248C227.061 70.576 226.317 70.096 225.597 69.808C224.877 69.496 224.133 69.34 223.365 69.34C222.381 69.34 221.481 69.64 220.665 70.24C219.873 70.84 219.237 71.668 218.757 72.724C218.301 73.78 218.073 74.968 218.073 76.288C218.073 78.448 218.505 80.14 219.369 81.364C220.257 82.588 221.505 83.2 223.113 83.2ZM247.7 85.432C246.212 85.432 244.988 85 244.028 84.136C243.068 83.272 242.588 82.06 242.588 80.5C242.588 78.604 243.452 77.152 245.18 76.144C246.908 75.112 249.668 74.392 253.46 73.984C253.46 72.616 253.172 71.5 252.596 70.636C252.044 69.748 251.084 69.304 249.716 69.304C248.06 69.304 246.296 69.94 244.424 71.212L243.38 69.412C245.684 67.876 247.94 67.108 250.148 67.108C252.164 67.108 253.652 67.744 254.612 69.016C255.572 70.264 256.052 71.992 256.052 74.2V85H253.892L253.676 82.876H253.568C251.504 84.58 249.548 85.432 247.7 85.432ZM248.384 83.308C249.224 83.308 250.04 83.116 250.832 82.732C251.648 82.324 252.524 81.7 253.46 80.86V75.748C250.46 76.108 248.324 76.66 247.052 77.404C245.804 78.148 245.18 79.132 245.18 80.356C245.18 81.34 245.48 82.084 246.08 82.588C246.68 83.068 247.448 83.308 248.384 83.308ZM267.643 85.432C265.435 85.432 263.683 84.628 262.387 83.02C261.115 81.412 260.479 79.168 260.479 76.288C260.479 74.464 260.827 72.856 261.523 71.464C262.219 70.072 263.143 69.004 264.295 68.26C265.471 67.492 266.731 67.108 268.075 67.108C269.011 67.108 269.851 67.276 270.595 67.612C271.339 67.948 272.155 68.464 273.043 69.16L272.935 66.136V59.296H275.527V85H273.367L273.151 82.876H273.043C272.299 83.644 271.459 84.268 270.523 84.748C269.611 85.204 268.651 85.432 267.643 85.432ZM268.219 83.2C269.059 83.2 269.851 82.996 270.595 82.588C271.363 82.18 272.143 81.556 272.935 80.716V71.248C272.167 70.576 271.423 70.096 270.703 69.808C269.983 69.496 269.239 69.34 268.471 69.34C267.487 69.34 266.587 69.64 265.771 70.24C264.979 70.84 264.343 71.668 263.863 72.724C263.407 73.78 263.179 74.968 263.179 76.288C263.179 78.448 263.611 80.14 264.475 81.364C265.363 82.588 266.611 83.2 268.219 83.2ZM279.01 67.54H281.71L285.166 77.728L286.822 82.84H286.966L288.622 77.728L292.078 67.54H294.67L288.406 85H285.382L279.01 67.54ZM311.376 75.28C311.376 75.904 311.34 76.432 311.268 76.864H299.208C299.328 78.904 299.952 80.488 301.08 81.616C302.232 82.744 303.636 83.308 305.292 83.308C306.828 83.308 308.304 82.84 309.72 81.904L310.692 83.632C309.828 84.184 308.94 84.628 308.028 84.964C307.116 85.276 306.096 85.432 304.968 85.432C303.432 85.432 302.028 85.072 300.756 84.352C299.508 83.608 298.512 82.54 297.768 81.148C297.048 79.756 296.688 78.136 296.688 76.288C296.688 74.464 297.048 72.856 297.768 71.464C298.512 70.072 299.484 69.004 300.684 68.26C301.884 67.492 303.156 67.108 304.5 67.108C306.66 67.108 308.34 67.84 309.54 69.304C310.764 70.744 311.376 72.736 311.376 75.28ZM309.036 74.956C309.036 73.108 308.64 71.692 307.848 70.708C307.056 69.724 305.952 69.232 304.536 69.232C303.24 69.232 302.088 69.724 301.08 70.708C300.072 71.692 299.472 73.108 299.28 74.956H309.036ZM315.775 67.54H317.935L318.151 70.132H318.259C319.219 69.172 320.155 68.428 321.067 67.9C322.003 67.372 323.023 67.108 324.127 67.108C325.951 67.108 327.295 67.684 328.159 68.836C329.023 69.964 329.455 71.656 329.455 73.912V85H326.827V74.236C326.827 72.556 326.551 71.332 325.999 70.564C325.471 69.796 324.595 69.412 323.371 69.412C322.507 69.412 321.703 69.64 320.959 70.096C320.215 70.528 319.351 71.236 318.367 72.22V85H315.775V67.54ZM340.614 85.432C338.886 85.432 337.65 84.94 336.906 83.956C336.162 82.972 335.79 81.568 335.79 79.744V69.7H333.162V67.72L335.898 67.54L336.222 62.608H338.418V67.54H343.206V69.7H338.418V79.816C338.418 80.968 338.622 81.832 339.03 82.408C339.462 82.984 340.182 83.272 341.19 83.272C341.694 83.272 342.366 83.116 343.206 82.804L343.746 84.784C342.45 85.216 341.406 85.432 340.614 85.432ZM352.28 85.432C350.48 85.432 349.148 84.868 348.284 83.74C347.42 82.588 346.988 80.884 346.988 78.628V67.54H349.58V78.304C349.58 79.984 349.856 81.22 350.408 82.012C350.96 82.78 351.848 83.164 353.072 83.164C353.96 83.164 354.764 82.924 355.484 82.444C356.228 81.964 357.056 81.172 357.968 80.068V67.54H360.596V85H358.4L358.184 82.228H358.076C357.188 83.26 356.276 84.052 355.34 84.604C354.428 85.156 353.408 85.432 352.28 85.432ZM366.681 67.54H368.841L369.057 70.744H369.165C369.765 69.616 370.497 68.728 371.361 68.08C372.225 67.432 373.149 67.108 374.133 67.108C374.829 67.108 375.429 67.228 375.933 67.468L375.429 69.772C374.805 69.58 374.253 69.484 373.773 69.484C372.957 69.484 372.141 69.82 371.325 70.492C370.533 71.164 369.849 72.208 369.273 73.624V85H366.681V67.54ZM391.884 75.28C391.884 75.904 391.848 76.432 391.776 76.864H379.716C379.836 78.904 380.46 80.488 381.588 81.616C382.74 82.744 384.144 83.308 385.8 83.308C387.336 83.308 388.812 82.84 390.228 81.904L391.2 83.632C390.336 84.184 389.448 84.628 388.536 84.964C387.624 85.276 386.604 85.432 385.476 85.432C383.94 85.432 382.536 85.072 381.264 84.352C380.016 83.608 379.02 82.54 378.276 81.148C377.556 79.756 377.196 78.136 377.196 76.288C377.196 74.464 377.556 72.856 378.276 71.464C379.02 70.072 379.992 69.004 381.192 68.26C382.392 67.492 383.664 67.108 385.008 67.108C387.168 67.108 388.848 67.84 390.048 69.304C391.272 70.744 391.884 72.736 391.884 75.28ZM389.544 74.956C389.544 73.108 389.148 71.692 388.356 70.708C387.564 69.724 386.46 69.232 385.044 69.232C383.748 69.232 382.596 69.724 381.588 70.708C380.58 71.692 379.98 73.108 379.788 74.956H389.544ZM400.747 85.432C399.547 85.432 398.383 85.216 397.255 84.784C396.127 84.328 395.131 83.74 394.267 83.02L395.599 81.256C396.463 81.952 397.303 82.48 398.119 82.84C398.935 83.2 399.847 83.38 400.855 83.38C402.007 83.38 402.895 83.104 403.519 82.552C404.143 82 404.455 81.304 404.455 80.464C404.455 79.624 404.095 78.952 403.375 78.448C402.679 77.944 401.683 77.464 400.387 77.008C398.731 76.408 397.435 75.76 396.499 75.064C395.563 74.344 395.095 73.324 395.095 72.004C395.095 70.588 395.623 69.424 396.679 68.512C397.759 67.576 399.211 67.108 401.035 67.108C402.019 67.108 402.967 67.288 403.879 67.648C404.791 68.008 405.607 68.476 406.327 69.052L405.067 70.744C404.371 70.24 403.711 69.856 403.087 69.592C402.463 69.328 401.779 69.196 401.035 69.196C399.931 69.196 399.091 69.46 398.515 69.988C397.939 70.492 397.651 71.116 397.651 71.86C397.651 72.388 397.819 72.844 398.155 73.228C398.515 73.612 398.947 73.924 399.451 74.164C399.955 74.38 400.663 74.668 401.575 75.028C402.799 75.484 403.759 75.892 404.455 76.252C405.151 76.612 405.751 77.128 406.255 77.8C406.759 78.448 407.011 79.288 407.011 80.32C407.011 81.256 406.759 82.12 406.255 82.912C405.775 83.68 405.055 84.292 404.095 84.748C403.159 85.204 402.043 85.432 400.747 85.432Z" fill="black"/>
<mask id="path-7-outside-3" maskUnits="userSpaceOnUse" x="431" y="117" width="125" height="187" fill="black">
<rect fill="white" x="431" y="117" width="125" height="187"/>
<path d="M441 127C477.851 127 513.413 140.565 540.902 165.109L441 277V127Z"/>
</mask>
<path d="M441 127C477.851 127 513.413 140.565 540.902 165.109L441 277V127Z" stroke="#DA674A" stroke-width="20" mask="url(#path-7-outside-3)"/>
<circle cx="441" cy="277" r="150" fill="#F1F3F2"/>
<path d="M185.764 130.804H191.056V113.344H186.88V111.652C188.824 111.316 190.42 110.776 191.668 110.032H193.684V130.804H198.472V133H185.764V130.804ZM202.006 130.804H207.298V113.344H203.122V111.652C205.066 111.316 206.662 110.776 207.91 110.032H209.926V130.804H214.714V133H202.006V130.804ZM220.84 133.432C220.288 133.432 219.82 133.24 219.436 132.856C219.052 132.448 218.86 131.944 218.86 131.344C218.86 130.72 219.052 130.216 219.436 129.832C219.82 129.424 220.288 129.22 220.84 129.22C221.392 129.22 221.86 129.424 222.244 129.832C222.628 130.216 222.82 130.72 222.82 131.344C222.82 131.944 222.628 132.448 222.244 132.856C221.86 133.24 221.392 133.432 220.84 133.432ZM234.959 118.996C236.975 118.996 238.559 119.608 239.711 120.832C240.863 122.056 241.439 123.82 241.439 126.124C241.439 127.54 241.139 128.8 240.539 129.904C239.939 131.008 239.123 131.872 238.091 132.496C237.083 133.12 235.979 133.432 234.779 133.432C233.243 133.432 231.887 133.024 230.711 132.208C229.535 131.368 228.611 130.12 227.939 128.464C227.291 126.808 226.967 124.804 226.967 122.452C226.967 119.476 227.363 117.028 228.155 115.108C228.947 113.188 229.991 111.796 231.287 110.932C232.583 110.044 234.035 109.6 235.643 109.6C237.755 109.6 239.543 110.392 241.007 111.976L239.531 113.632C239.051 113.056 238.475 112.612 237.803 112.3C237.155 111.964 236.459 111.796 235.715 111.796C233.891 111.796 232.403 112.612 231.251 114.244C230.099 115.852 229.499 118.444 229.451 122.02C230.195 121.084 231.059 120.352 232.043 119.824C233.027 119.272 233.999 118.996 234.959 118.996ZM234.815 131.344C235.991 131.344 236.975 130.852 237.767 129.868C238.559 128.884 238.955 127.636 238.955 126.124C238.955 124.516 238.583 123.268 237.839 122.38C237.095 121.468 235.991 121.012 234.527 121.012C233.711 121.012 232.859 121.276 231.971 121.804C231.107 122.308 230.291 123.1 229.523 124.18C229.715 126.484 230.255 128.26 231.143 129.508C232.031 130.732 233.255 131.344 234.815 131.344ZM249.51 123.604C247.878 123.604 246.582 122.944 245.622 121.624C244.686 120.304 244.218 118.468 244.218 116.116C244.218 113.788 244.686 111.976 245.622 110.68C246.582 109.36 247.878 108.7 249.51 108.7C251.142 108.7 252.426 109.36 253.362 110.68C254.322 111.976 254.802 113.788 254.802 116.116C254.802 118.468 254.322 120.304 253.362 121.624C252.426 122.944 251.142 123.604 249.51 123.604ZM263.19 108.916H265.026L251.958 133.432H250.122L263.19 108.916ZM249.51 121.948C250.518 121.948 251.31 121.444 251.886 120.436C252.486 119.428 252.786 117.988 252.786 116.116C252.786 114.244 252.486 112.816 251.886 111.832C251.31 110.848 250.518 110.356 249.51 110.356C248.502 110.356 247.698 110.848 247.098 111.832C246.522 112.816 246.234 114.244 246.234 116.116C246.234 117.988 246.522 119.428 247.098 120.436C247.698 121.444 248.502 121.948 249.51 121.948ZM265.746 133.432C264.114 133.432 262.818 132.772 261.858 131.452C260.922 130.132 260.454 128.296 260.454 125.944C260.454 123.616 260.922 121.804 261.858 120.508C262.818 119.188 264.114 118.528 265.746 118.528C267.378 118.528 268.662 119.188 269.598 120.508C270.558 121.804 271.038 123.616 271.038 125.944C271.038 128.296 270.558 130.132 269.598 131.452C268.662 132.772 267.378 133.432 265.746 133.432ZM265.746 131.776C266.73 131.776 267.51 131.272 268.086 130.264C268.686 129.256 268.986 127.816 268.986 125.944C268.986 124.072 268.698 122.644 268.122 121.66C267.546 120.676 266.754 120.184 265.746 120.184C264.738 120.184 263.934 120.676 263.334 121.66C262.758 122.644 262.47 124.072 262.47 125.944C262.47 127.816 262.758 129.256 263.334 130.264C263.934 131.272 264.738 131.776 265.746 131.776ZM288.483 133.432C286.275 133.432 284.523 132.628 283.227 131.02C281.955 129.412 281.319 127.168 281.319 124.288C281.319 122.464 281.667 120.856 282.363 119.464C283.059 118.072 283.983 117.004 285.135 116.26C286.311 115.492 287.571 115.108 288.915 115.108C289.851 115.108 290.691 115.276 291.435 115.612C292.179 115.948 292.995 116.464 293.883 117.16L293.775 114.136V107.296H296.367V133H294.207L293.991 130.876H293.883C293.139 131.644 292.299 132.268 291.363 132.748C290.451 133.204 289.491 133.432 288.483 133.432ZM289.059 131.2C289.899 131.2 290.691 130.996 291.435 130.588C292.203 130.18 292.983 129.556 293.775 128.716V119.248C293.007 118.576 292.263 118.096 291.543 117.808C290.823 117.496 290.079 117.34 289.311 117.34C288.327 117.34 287.427 117.64 286.611 118.24C285.819 118.84 285.183 119.668 284.703 120.724C284.247 121.78 284.019 122.968 284.019 124.288C284.019 126.448 284.451 128.14 285.315 129.364C286.203 130.588 287.451 131.2 289.059 131.2ZM306.438 133.432C304.95 133.432 303.726 133 302.766 132.136C301.806 131.272 301.326 130.06 301.326 128.5C301.326 126.604 302.19 125.152 303.918 124.144C305.646 123.112 308.406 122.392 312.198 121.984C312.198 120.616 311.91 119.5 311.334 118.636C310.782 117.748 309.822 117.304 308.454 117.304C306.798 117.304 305.034 117.94 303.162 119.212L302.118 117.412C304.422 115.876 306.678 115.108 308.886 115.108C310.902 115.108 312.39 115.744 313.35 117.016C314.31 118.264 314.79 119.992 314.79 122.2V133H312.63L312.414 130.876H312.306C310.242 132.58 308.286 133.432 306.438 133.432ZM307.122 131.308C307.962 131.308 308.778 131.116 309.57 130.732C310.386 130.324 311.262 129.7 312.198 128.86V123.748C309.198 124.108 307.062 124.66 305.79 125.404C304.542 126.148 303.918 127.132 303.918 128.356C303.918 129.34 304.218 130.084 304.818 130.588C305.418 131.068 306.186 131.308 307.122 131.308ZM320.549 140.632C319.829 140.632 319.169 140.512 318.569 140.272L319.073 138.148C319.553 138.34 320.009 138.436 320.441 138.436C321.401 138.436 322.217 138.076 322.889 137.356C323.561 136.636 324.101 135.664 324.509 134.44L324.941 133.108L317.885 115.54H320.585L324.329 125.548L326.057 130.444H326.201C326.537 129.436 326.885 128.332 327.245 127.132L327.713 125.548L330.989 115.54H333.545L326.921 134.62C326.249 136.492 325.409 137.956 324.401 139.012C323.417 140.092 322.133 140.632 320.549 140.632ZM349.536 133.432C347.808 133.432 346.572 132.94 345.828 131.956C345.084 130.972 344.712 129.568 344.712 127.744V117.7H342.084V115.72L344.82 115.54L345.144 110.608H347.34V115.54H352.128V117.7H347.34V127.816C347.34 128.968 347.544 129.832 347.952 130.408C348.384 130.984 349.104 131.272 350.112 131.272C350.616 131.272 351.288 131.116 352.128 130.804L352.668 132.784C351.372 133.216 350.328 133.432 349.536 133.432ZM356.162 115.54H358.322L358.538 118.744H358.646C359.246 117.616 359.978 116.728 360.842 116.08C361.706 115.432 362.63 115.108 363.614 115.108C364.31 115.108 364.91 115.228 365.414 115.468L364.91 117.772C364.286 117.58 363.734 117.484 363.254 117.484C362.438 117.484 361.622 117.82 360.806 118.492C360.014 119.164 359.33 120.208 358.754 121.624V133H356.162V115.54ZM368.396 115.54H370.988V133H368.396V115.54ZM369.728 111.796C369.2 111.796 368.768 111.628 368.432 111.292C368.096 110.956 367.928 110.512 367.928 109.96C367.928 109.432 368.096 109.012 368.432 108.7C368.768 108.364 369.2 108.196 369.728 108.196C370.256 108.196 370.688 108.364 371.024 108.7C371.36 109.012 371.528 109.432 371.528 109.96C371.528 110.512 371.36 110.956 371.024 111.292C370.688 111.628 370.256 111.796 369.728 111.796ZM377.115 115.54H379.275L379.491 117.628H379.599C381.639 115.948 383.523 115.108 385.251 115.108C387.483 115.108 389.187 115.912 390.363 117.52C391.563 119.104 392.163 121.264 392.163 124C392.163 125.92 391.815 127.6 391.119 129.04C390.423 130.456 389.499 131.548 388.347 132.316C387.195 133.06 385.947 133.432 384.603 133.432C383.043 133.432 381.387 132.748 379.635 131.38L379.707 134.476V140.488H377.115V115.54ZM384.171 131.2C385.179 131.2 386.079 130.912 386.871 130.336C387.687 129.736 388.323 128.896 388.779 127.816C389.235 126.736 389.463 125.476 389.463 124.036C389.463 121.948 389.067 120.316 388.275 119.14C387.507 117.94 386.295 117.34 384.639 117.34C383.175 117.34 381.531 118.18 379.707 119.86V129.292C380.499 129.964 381.279 130.456 382.047 130.768C382.815 131.056 383.523 131.2 384.171 131.2ZM401.372 133.432C400.172 133.432 399.008 133.216 397.88 132.784C396.752 132.328 395.756 131.74 394.892 131.02L396.224 129.256C397.088 129.952 397.928 130.48 398.744 130.84C399.56 131.2 400.472 131.38 401.48 131.38C402.632 131.38 403.52 131.104 404.144 130.552C404.768 130 405.08 129.304 405.08 128.464C405.08 127.624 404.72 126.952 404 126.448C403.304 125.944 402.308 125.464 401.012 125.008C399.356 124.408 398.06 123.76 397.124 123.064C396.188 122.344 395.72 121.324 395.72 120.004C395.72 118.588 396.248 117.424 397.304 116.512C398.384 115.576 399.836 115.108 401.66 115.108C402.644 115.108 403.592 115.288 404.504 115.648C405.416 116.008 406.232 116.476 406.952 117.052L405.692 118.744C404.996 118.24 404.336 117.856 403.712 117.592C403.088 117.328 402.404 117.196 401.66 117.196C400.556 117.196 399.716 117.46 399.14 117.988C398.564 118.492 398.276 119.116 398.276 119.86C398.276 120.388 398.444 120.844 398.78 121.228C399.14 121.612 399.572 121.924 400.076 122.164C400.58 122.38 401.288 122.668 402.2 123.028C403.424 123.484 404.384 123.892 405.08 124.252C405.776 124.612 406.376 125.128 406.88 125.8C407.384 126.448 407.636 127.288 407.636 128.32C407.636 129.256 407.384 130.12 406.88 130.912C406.4 131.68 405.68 132.292 404.72 132.748C403.784 133.204 402.668 133.432 401.372 133.432Z" fill="black"/>
</svg>
