<svg width="608" height="557" viewBox="0 0 608 557" fill="none" xmlns="http://www.w3.org/2000/svg">
<mask id="path-1-outside-1" maskUnits="userSpaceOnUse" x="226" y="37" width="383" height="520" fill="black">
<rect fill="white" x="226" y="37" width="383" height="520"/>
<path d="M348 47C385.529 47 422.577 55.4493 456.395 71.7213C490.213 87.9932 519.934 111.67 543.353 140.996C566.772 170.322 583.288 204.544 591.676 241.124C600.064 277.704 600.108 315.703 591.807 352.302C583.505 388.902 567.07 423.162 543.72 452.543C520.37 481.924 490.705 505.671 456.926 522.023C423.146 538.374 386.118 546.911 348.589 546.999C311.06 547.088 273.992 538.726 240.136 522.533L348 297V47Z"/>
</mask>
<path d="M348 47C385.529 47 422.577 55.4493 456.395 71.7213C490.213 87.9932 519.934 111.67 543.353 140.996C566.772 170.322 583.288 204.544 591.676 241.124C600.064 277.704 600.108 315.703 591.807 352.302C583.505 388.902 567.07 423.162 543.72 452.543C520.37 481.924 490.705 505.671 456.926 522.023C423.146 538.374 386.118 546.911 348.589 546.999C311.06 547.088 273.992 538.726 240.136 522.533L348 297V47Z" stroke="#2B4D59" stroke-width="20" mask="url(#path-1-outside-1)"/>
<circle cx="348" cy="297" r="250" fill="#F1F3F2"/>
<path d="M8.352 37.432C6.696 37.432 5.268 37.144 4.068 36.568C2.892 35.992 1.836 35.236 0.9 34.3L2.232 32.572C3.048 33.388 3.912 34.036 4.824 34.516C5.76 34.996 6.864 35.236 8.136 35.236C9.096 35.236 9.972 35.008 10.764 34.552C11.556 34.096 12.18 33.46 12.636 32.644C13.092 31.804 13.32 30.844 13.32 29.764C13.32 28.132 12.864 26.848 11.952 25.912C11.04 24.976 9.816 24.508 8.28 24.508C7.512 24.508 6.828 24.616 6.228 24.832C5.652 25.048 4.992 25.408 4.248 25.912L2.808 25.012L3.564 14.032H14.832V16.3H5.868L5.22 23.464C5.82 23.128 6.408 22.876 6.984 22.708C7.56 22.54 8.196 22.456 8.892 22.456C10.98 22.456 12.684 23.068 14.004 24.292C15.324 25.492 15.984 27.28 15.984 29.656C15.984 31.24 15.624 32.62 14.904 33.796C14.208 34.972 13.272 35.872 12.096 36.496C10.944 37.12 9.696 37.432 8.352 37.432ZM24.1988 37C24.3908 32.584 24.9908 28.828 25.9988 25.732C27.0068 22.612 28.6388 19.468 30.8948 16.3H19.3028V14.032H33.9188V15.616C32.1428 17.92 30.7628 20.128 29.7788 22.24C28.8188 24.352 28.1348 26.536 27.7268 28.792C27.3188 31.048 27.0428 33.784 26.8988 37H24.1988ZM39.7935 37.432C39.2415 37.432 38.7735 37.24 38.3895 36.856C38.0055 36.448 37.8135 35.944 37.8135 35.344C37.8135 34.72 38.0055 34.216 38.3895 33.832C38.7735 33.424 39.2415 33.22 39.7935 33.22C40.3455 33.22 40.8135 33.424 41.1975 33.832C41.5815 34.216 41.7735 34.72 41.7735 35.344C41.7735 35.944 41.5815 36.448 41.1975 36.856C40.8135 37.24 40.3455 37.432 39.7935 37.432ZM45.9203 34.804H51.2123V17.344H47.0363V15.652C48.9803 15.316 50.5763 14.776 51.8243 14.032H53.8403V34.804H58.6283V37H45.9203V34.804ZM66.9864 27.604C65.3544 27.604 64.0584 26.944 63.0984 25.624C62.1624 24.304 61.6944 22.468 61.6944 20.116C61.6944 17.788 62.1624 15.976 63.0984 14.68C64.0584 13.36 65.3544 12.7 66.9864 12.7C68.6184 12.7 69.9024 13.36 70.8384 14.68C71.7984 15.976 72.2784 17.788 72.2784 20.116C72.2784 22.468 71.7984 24.304 70.8384 25.624C69.9024 26.944 68.6184 27.604 66.9864 27.604ZM80.6664 12.916H82.5024L69.4344 37.432H67.5984L80.6664 12.916ZM66.9864 25.948C67.9944 25.948 68.7864 25.444 69.3624 24.436C69.9624 23.428 70.2624 21.988 70.2624 20.116C70.2624 18.244 69.9624 16.816 69.3624 15.832C68.7864 14.848 67.9944 14.356 66.9864 14.356C65.9784 14.356 65.1744 14.848 64.5744 15.832C63.9984 16.816 63.7104 18.244 63.7104 20.116C63.7104 21.988 63.9984 23.428 64.5744 24.436C65.1744 25.444 65.9784 25.948 66.9864 25.948ZM83.2224 37.432C81.5904 37.432 80.2944 36.772 79.3344 35.452C78.3984 34.132 77.9304 32.296 77.9304 29.944C77.9304 27.616 78.3984 25.804 79.3344 24.508C80.2944 23.188 81.5904 22.528 83.2224 22.528C84.8544 22.528 86.1384 23.188 87.0744 24.508C88.0344 25.804 88.5144 27.616 88.5144 29.944C88.5144 32.296 88.0344 34.132 87.0744 35.452C86.1384 36.772 84.8544 37.432 83.2224 37.432ZM83.2224 35.776C84.2064 35.776 84.9864 35.272 85.5624 34.264C86.1624 33.256 86.4624 31.816 86.4624 29.944C86.4624 28.072 86.1744 26.644 85.5984 25.66C85.0224 24.676 84.2304 24.184 83.2224 24.184C82.2144 24.184 81.4104 24.676 80.8104 25.66C80.2344 26.644 79.9464 28.072 79.9464 29.944C79.9464 31.816 80.2344 33.256 80.8104 34.264C81.4104 35.272 82.2144 35.776 83.2224 35.776ZM106.751 37.432C105.311 37.432 103.979 37.072 102.755 36.352C101.531 35.608 100.547 34.552 99.8033 33.184C99.0833 31.792 98.7233 30.16 98.7233 28.288C98.7233 26.416 99.0833 24.784 99.8033 23.392C100.547 22 101.531 20.944 102.755 20.224C103.979 19.48 105.311 19.108 106.751 19.108C108.191 19.108 109.523 19.48 110.747 20.224C111.971 20.944 112.943 22 113.663 23.392C114.407 24.784 114.779 26.416 114.779 28.288C114.779 30.16 114.407 31.792 113.663 33.184C112.943 34.552 111.971 35.608 110.747 36.352C109.523 37.072 108.191 37.432 106.751 37.432ZM106.751 35.236C107.783 35.236 108.695 34.948 109.487 34.372C110.303 33.796 110.939 32.98 111.395 31.924C111.851 30.868 112.079 29.656 112.079 28.288C112.079 26.92 111.851 25.708 111.395 24.652C110.939 23.596 110.303 22.78 109.487 22.204C108.695 21.604 107.783 21.304 106.751 21.304C105.719 21.304 104.795 21.604 103.979 22.204C103.187 22.78 102.563 23.596 102.107 24.652C101.675 25.708 101.459 26.92 101.459 28.288C101.459 30.376 101.951 32.056 102.935 33.328C103.919 34.6 105.191 35.236 106.751 35.236ZM125.006 13.024C123.326 13.024 122.486 14.2 122.486 16.552V19.54H126.266V21.7H122.486V37H119.858V21.7H117.482V19.72L119.858 19.54V16.516C119.858 14.716 120.266 13.324 121.082 12.34C121.922 11.356 123.158 10.864 124.79 10.864C125.726 10.864 126.662 11.056 127.598 11.44L127.022 13.456C126.35 13.168 125.678 13.024 125.006 13.024ZM135.237 13.024C133.557 13.024 132.717 14.2 132.717 16.552V19.54H136.497V21.7H132.717V37H130.089V21.7H127.713V19.72L130.089 19.54V16.516C130.089 14.716 130.497 13.324 131.313 12.34C132.153 11.356 133.389 10.864 135.021 10.864C135.957 10.864 136.893 11.056 137.829 11.44L137.253 13.456C136.581 13.168 135.909 13.024 135.237 13.024ZM152.962 45.136C150.778 45.136 149.026 44.716 147.706 43.876C146.41 43.036 145.762 41.884 145.762 40.42C145.762 39.676 145.978 38.956 146.41 38.26C146.866 37.564 147.502 36.94 148.318 36.388V36.244C147.862 35.956 147.49 35.572 147.202 35.092C146.914 34.612 146.77 34.048 146.77 33.4C146.77 32.728 146.95 32.116 147.31 31.564C147.694 30.988 148.15 30.52 148.678 30.16V30.016C148.054 29.512 147.526 28.852 147.094 28.036C146.662 27.22 146.446 26.32 146.446 25.336C146.446 24.112 146.734 23.032 147.31 22.096C147.886 21.136 148.666 20.404 149.65 19.9C150.634 19.372 151.714 19.108 152.89 19.108C153.682 19.108 154.486 19.252 155.302 19.54H161.35V21.592H157.642C158.098 22.024 158.47 22.576 158.758 23.248C159.046 23.92 159.19 24.628 159.19 25.372C159.19 26.572 158.914 27.64 158.362 28.576C157.81 29.488 157.054 30.196 156.094 30.7C155.134 31.204 154.066 31.456 152.89 31.456C151.93 31.456 151.042 31.252 150.226 30.844C149.842 31.156 149.542 31.48 149.326 31.816C149.134 32.128 149.038 32.524 149.038 33.004C149.038 33.628 149.266 34.12 149.722 34.48C150.202 34.816 151.006 34.984 152.134 34.984H155.626C157.666 34.984 159.178 35.32 160.162 35.992C161.146 36.664 161.638 37.708 161.638 39.124C161.638 40.18 161.278 41.164 160.558 42.076C159.838 43.012 158.818 43.756 157.498 44.308C156.178 44.86 154.666 45.136 152.962 45.136ZM152.89 29.656C153.97 29.656 154.882 29.26 155.626 28.468C156.394 27.652 156.778 26.608 156.778 25.336C156.778 24.04 156.406 23.008 155.662 22.24C154.918 21.448 153.994 21.052 152.89 21.052C151.786 21.052 150.85 21.448 150.082 22.24C149.338 23.008 148.966 24.04 148.966 25.336C148.966 26.608 149.338 27.652 150.082 28.468C150.85 29.26 151.786 29.656 152.89 29.656ZM153.322 43.264C154.426 43.264 155.41 43.084 156.274 42.724C157.162 42.388 157.846 41.92 158.326 41.32C158.806 40.744 159.046 40.132 159.046 39.484C159.046 38.668 158.746 38.08 158.146 37.72C157.546 37.384 156.634 37.216 155.41 37.216H152.206C151.462 37.216 150.718 37.12 149.974 36.928C148.702 37.816 148.066 38.86 148.066 40.06C148.066 41.044 148.534 41.824 149.47 42.4C150.406 42.976 151.69 43.264 153.322 43.264ZM165.13 19.54H167.29L167.506 22.744H167.614C168.214 21.616 168.946 20.728 169.81 20.08C170.674 19.432 171.598 19.108 172.582 19.108C173.278 19.108 173.878 19.228 174.382 19.468L173.878 21.772C173.254 21.58 172.702 21.484 172.222 21.484C171.406 21.484 170.59 21.82 169.774 22.492C168.982 23.164 168.298 24.208 167.722 25.624V37H165.13V19.54ZM177.365 19.54H179.957V37H177.365V19.54ZM178.697 15.796C178.169 15.796 177.737 15.628 177.401 15.292C177.065 14.956 176.897 14.512 176.897 13.96C176.897 13.432 177.065 13.012 177.401 12.7C177.737 12.364 178.169 12.196 178.697 12.196C179.225 12.196 179.657 12.364 179.993 12.7C180.329 13.012 180.497 13.432 180.497 13.96C180.497 14.512 180.329 14.956 179.993 15.292C179.657 15.628 179.225 15.796 178.697 15.796ZM191.951 37.432C189.743 37.432 187.991 36.628 186.695 35.02C185.423 33.412 184.787 31.168 184.787 28.288C184.787 26.464 185.135 24.856 185.831 23.464C186.527 22.072 187.451 21.004 188.603 20.26C189.779 19.492 191.039 19.108 192.383 19.108C193.319 19.108 194.159 19.276 194.903 19.612C195.647 19.948 196.463 20.464 197.351 21.16L197.243 18.136V11.296H199.835V37H197.675L197.459 34.876H197.351C196.607 35.644 195.767 36.268 194.831 36.748C193.919 37.204 192.959 37.432 191.951 37.432ZM192.527 35.2C193.367 35.2 194.159 34.996 194.903 34.588C195.671 34.18 196.451 33.556 197.243 32.716V23.248C196.475 22.576 195.731 22.096 195.011 21.808C194.291 21.496 193.547 21.34 192.779 21.34C191.795 21.34 190.895 21.64 190.079 22.24C189.287 22.84 188.651 23.668 188.171 24.724C187.715 25.78 187.487 26.968 187.487 28.288C187.487 30.448 187.919 32.14 188.783 33.364C189.671 34.588 190.919 35.2 192.527 35.2ZM226.474 27.28C226.474 27.904 226.438 28.432 226.366 28.864H214.306C214.426 30.904 215.05 32.488 216.178 33.616C217.33 34.744 218.734 35.308 220.39 35.308C221.926 35.308 223.402 34.84 224.818 33.904L225.79 35.632C224.926 36.184 224.038 36.628 223.126 36.964C222.214 37.276 221.194 37.432 220.066 37.432C218.53 37.432 217.126 37.072 215.854 36.352C214.606 35.608 213.61 34.54 212.866 33.148C212.146 31.756 211.786 30.136 211.786 28.288C211.786 26.464 212.146 24.856 212.866 23.464C213.61 22.072 214.582 21.004 215.782 20.26C216.982 19.492 218.254 19.108 219.598 19.108C221.758 19.108 223.438 19.84 224.638 21.304C225.862 22.744 226.474 24.736 226.474 27.28ZM224.134 26.956C224.134 25.108 223.738 23.692 222.946 22.708C222.154 21.724 221.05 21.232 219.634 21.232C218.338 21.232 217.186 21.724 216.178 22.708C215.17 23.692 214.57 25.108 214.378 26.956H224.134ZM233.866 27.892L228.538 19.54H231.382L233.83 23.536C234.598 24.832 235.186 25.792 235.594 26.416H235.738L237.358 23.536L239.626 19.54H242.362L237.07 28.144L242.794 37H239.95L237.25 32.752C236.53 31.504 235.894 30.46 235.342 29.62H235.198C234.814 30.244 234.406 30.94 233.974 31.708L233.362 32.752L230.842 37H228.106L233.866 27.892ZM246.341 19.54H248.501L248.717 21.628H248.825C250.865 19.948 252.749 19.108 254.477 19.108C256.709 19.108 258.413 19.912 259.589 21.52C260.789 23.104 261.389 25.264 261.389 28C261.389 29.92 261.041 31.6 260.345 33.04C259.649 34.456 258.725 35.548 257.573 36.316C256.421 37.06 255.173 37.432 253.829 37.432C252.269 37.432 250.613 36.748 248.861 35.38L248.933 38.476V44.488H246.341V19.54ZM253.397 35.2C254.405 35.2 255.305 34.912 256.097 34.336C256.913 33.736 257.549 32.896 258.005 31.816C258.461 30.736 258.689 29.476 258.689 28.036C258.689 25.948 258.293 24.316 257.501 23.14C256.733 21.94 255.521 21.34 253.865 21.34C252.401 21.34 250.757 22.18 248.933 23.86V33.292C249.725 33.964 250.505 34.456 251.273 34.768C252.041 35.056 252.749 35.2 253.397 35.2ZM269.049 37.432C268.065 37.432 267.345 37.132 266.889 36.532C266.433 35.908 266.205 34.996 266.205 33.796V11.296H268.797V34.012C268.797 34.42 268.869 34.732 269.013 34.948C269.181 35.14 269.385 35.236 269.625 35.236C269.817 35.236 270.033 35.212 270.273 35.164L270.633 37.18C270.177 37.348 269.649 37.432 269.049 37.432ZM281.865 37.432C280.425 37.432 279.093 37.072 277.869 36.352C276.645 35.608 275.661 34.552 274.917 33.184C274.197 31.792 273.837 30.16 273.837 28.288C273.837 26.416 274.197 24.784 274.917 23.392C275.661 22 276.645 20.944 277.869 20.224C279.093 19.48 280.425 19.108 281.865 19.108C283.305 19.108 284.637 19.48 285.861 20.224C287.085 20.944 288.057 22 288.777 23.392C289.521 24.784 289.893 26.416 289.893 28.288C289.893 30.16 289.521 31.792 288.777 33.184C288.057 34.552 287.085 35.608 285.861 36.352C284.637 37.072 283.305 37.432 281.865 37.432ZM281.865 35.236C282.897 35.236 283.809 34.948 284.601 34.372C285.417 33.796 286.053 32.98 286.509 31.924C286.965 30.868 287.193 29.656 287.193 28.288C287.193 26.92 286.965 25.708 286.509 24.652C286.053 23.596 285.417 22.78 284.601 22.204C283.809 21.604 282.897 21.304 281.865 21.304C280.833 21.304 279.909 21.604 279.093 22.204C278.301 22.78 277.677 23.596 277.221 24.652C276.789 25.708 276.573 26.92 276.573 28.288C276.573 30.376 277.065 32.056 278.049 33.328C279.033 34.6 280.305 35.236 281.865 35.236ZM294.646 19.54H296.806L297.022 22.744H297.13C297.73 21.616 298.462 20.728 299.326 20.08C300.19 19.432 301.114 19.108 302.098 19.108C302.794 19.108 303.394 19.228 303.898 19.468L303.394 21.772C302.77 21.58 302.218 21.484 301.738 21.484C300.922 21.484 300.106 21.82 299.29 22.492C298.498 23.164 297.814 24.208 297.238 25.624V37H294.646V19.54ZM319.849 27.28C319.849 27.904 319.813 28.432 319.741 28.864H307.681C307.801 30.904 308.425 32.488 309.553 33.616C310.705 34.744 312.109 35.308 313.765 35.308C315.301 35.308 316.777 34.84 318.193 33.904L319.165 35.632C318.301 36.184 317.413 36.628 316.501 36.964C315.589 37.276 314.569 37.432 313.441 37.432C311.905 37.432 310.501 37.072 309.229 36.352C307.981 35.608 306.985 34.54 306.241 33.148C305.521 31.756 305.161 30.136 305.161 28.288C305.161 26.464 305.521 24.856 306.241 23.464C306.985 22.072 307.957 21.004 309.157 20.26C310.357 19.492 311.629 19.108 312.973 19.108C315.133 19.108 316.813 19.84 318.013 21.304C319.237 22.744 319.849 24.736 319.849 27.28ZM317.509 26.956C317.509 25.108 317.113 23.692 316.321 22.708C315.529 21.724 314.425 21.232 313.009 21.232C311.713 21.232 310.561 21.724 309.553 22.708C308.545 23.692 307.945 25.108 307.753 26.956H317.509ZM324.248 19.54H326.408L326.624 22.744H326.732C327.332 21.616 328.064 20.728 328.928 20.08C329.792 19.432 330.716 19.108 331.7 19.108C332.396 19.108 332.996 19.228 333.5 19.468L332.996 21.772C332.372 21.58 331.82 21.484 331.34 21.484C330.524 21.484 329.708 21.82 328.892 22.492C328.1 23.164 327.416 24.208 326.84 25.624V37H324.248V19.54Z" fill="black"/>
<mask id="path-4-outside-2" maskUnits="userSpaceOnUse" x="340" y="75" width="221" height="358" fill="black">
<rect fill="white" x="340" y="75" width="221" height="358"/>
<path d="M350 85C388.594 85 426.363 96.1663 458.752 117.152C491.141 138.138 516.767 168.046 532.538 203.27C548.31 238.494 553.553 277.529 547.635 315.666C541.717 353.803 524.892 389.414 499.188 418.202L350 285V85Z"/>
</mask>
<path d="M350 85C388.594 85 426.363 96.1663 458.752 117.152C491.141 138.138 516.767 168.046 532.538 203.27C548.31 238.494 553.553 277.529 547.635 315.666C541.717 353.803 524.892 389.414 499.188 418.202L350 285V85Z" stroke="#2B4D59" stroke-width="20" mask="url(#path-4-outside-2)"/>
<circle cx="350" cy="285" r="200" fill="#F1F3F2"/>
<path d="M17.46 85.432C14.436 85.432 11.94 84.352 9.972 82.192L11.304 80.464C12.144 81.328 13.032 82.012 13.968 82.516C14.928 82.996 16.044 83.236 17.316 83.236C18.78 83.236 19.968 82.84 20.88 82.048C21.792 81.232 22.248 80.152 22.248 78.808C22.248 75.64 19.74 74.056 14.724 74.056V72.004C17.076 72.004 18.78 71.596 19.836 70.78C20.892 69.964 21.42 68.884 21.42 67.54C21.42 66.388 21.048 65.476 20.304 64.804C19.56 64.108 18.552 63.76 17.28 63.76C15.456 63.76 13.788 64.552 12.276 66.136L10.836 64.444C12.852 62.548 15.024 61.6 17.352 61.6C19.344 61.6 20.964 62.116 22.212 63.148C23.46 64.156 24.084 65.56 24.084 67.36C24.084 68.704 23.7 69.844 22.932 70.78C22.188 71.692 21.156 72.388 19.836 72.868V73.012C21.324 73.348 22.536 74.032 23.472 75.064C24.432 76.096 24.912 77.368 24.912 78.88C24.912 80.2 24.576 81.364 23.904 82.372C23.256 83.356 22.368 84.112 21.24 84.64C20.112 85.168 18.852 85.432 17.46 85.432ZM36.4748 70.996C38.4908 70.996 40.0748 71.608 41.2268 72.832C42.3788 74.056 42.9548 75.82 42.9548 78.124C42.9548 79.54 42.6548 80.8 42.0548 81.904C41.4548 83.008 40.6388 83.872 39.6068 84.496C38.5988 85.12 37.4948 85.432 36.2948 85.432C34.7588 85.432 33.4028 85.024 32.2268 84.208C31.0508 83.368 30.1268 82.12 29.4548 80.464C28.8068 78.808 28.4828 76.804 28.4828 74.452C28.4828 71.476 28.8788 69.028 29.6708 67.108C30.4628 65.188 31.5068 63.796 32.8028 62.932C34.0988 62.044 35.5508 61.6 37.1588 61.6C39.2708 61.6 41.0588 62.392 42.5228 63.976L41.0468 65.632C40.5668 65.056 39.9908 64.612 39.3188 64.3C38.6708 63.964 37.9748 63.796 37.2308 63.796C35.4068 63.796 33.9188 64.612 32.7668 66.244C31.6148 67.852 31.0148 70.444 30.9668 74.02C31.7108 73.084 32.5748 72.352 33.5588 71.824C34.5428 71.272 35.5148 70.996 36.4748 70.996ZM36.3308 83.344C37.5068 83.344 38.4908 82.852 39.2828 81.868C40.0748 80.884 40.4708 79.636 40.4708 78.124C40.4708 76.516 40.0988 75.268 39.3548 74.38C38.6108 73.468 37.5068 73.012 36.0428 73.012C35.2268 73.012 34.3748 73.276 33.4868 73.804C32.6228 74.308 31.8068 75.1 31.0388 76.18C31.2308 78.484 31.7708 80.26 32.6588 81.508C33.5468 82.732 34.7708 83.344 36.3308 83.344ZM48.7935 85.432C48.2415 85.432 47.7735 85.24 47.3895 84.856C47.0055 84.448 46.8135 83.944 46.8135 83.344C46.8135 82.72 47.0055 82.216 47.3895 81.832C47.7735 81.424 48.2415 81.22 48.7935 81.22C49.3455 81.22 49.8135 81.424 50.1975 81.832C50.5815 82.216 50.7735 82.72 50.7735 83.344C50.7735 83.944 50.5815 84.448 50.1975 84.856C49.8135 85.24 49.3455 85.432 48.7935 85.432ZM62.9123 70.996C64.9283 70.996 66.5123 71.608 67.6643 72.832C68.8163 74.056 69.3923 75.82 69.3923 78.124C69.3923 79.54 69.0923 80.8 68.4923 81.904C67.8923 83.008 67.0763 83.872 66.0443 84.496C65.0363 85.12 63.9323 85.432 62.7323 85.432C61.1963 85.432 59.8403 85.024 58.6643 84.208C57.4883 83.368 56.5643 82.12 55.8923 80.464C55.2443 78.808 54.9203 76.804 54.9203 74.452C54.9203 71.476 55.3163 69.028 56.1083 67.108C56.9003 65.188 57.9443 63.796 59.2403 62.932C60.5363 62.044 61.9883 61.6 63.5963 61.6C65.7083 61.6 67.4963 62.392 68.9603 63.976L67.4843 65.632C67.0043 65.056 66.4283 64.612 65.7563 64.3C65.1083 63.964 64.4123 63.796 63.6683 63.796C61.8443 63.796 60.3563 64.612 59.2043 66.244C58.0523 67.852 57.4523 70.444 57.4043 74.02C58.1483 73.084 59.0123 72.352 59.9963 71.824C60.9803 71.272 61.9523 70.996 62.9123 70.996ZM62.7683 83.344C63.9443 83.344 64.9283 82.852 65.7203 81.868C66.5123 80.884 66.9083 79.636 66.9083 78.124C66.9083 76.516 66.5363 75.268 65.7923 74.38C65.0483 73.468 63.9443 73.012 62.4803 73.012C61.6643 73.012 60.8123 73.276 59.9243 73.804C59.0603 74.308 58.2443 75.1 57.4763 76.18C57.6683 78.484 58.2083 80.26 59.0963 81.508C59.9843 82.732 61.2083 83.344 62.7683 83.344ZM77.463 75.604C75.831 75.604 74.535 74.944 73.575 73.624C72.639 72.304 72.171 70.468 72.171 68.116C72.171 65.788 72.639 63.976 73.575 62.68C74.535 61.36 75.831 60.7 77.463 60.7C79.095 60.7 80.379 61.36 81.315 62.68C82.275 63.976 82.755 65.788 82.755 68.116C82.755 70.468 82.275 72.304 81.315 73.624C80.379 74.944 79.095 75.604 77.463 75.604ZM91.143 60.916H92.979L79.911 85.432H78.075L91.143 60.916ZM77.463 73.948C78.471 73.948 79.263 73.444 79.839 72.436C80.439 71.428 80.739 69.988 80.739 68.116C80.739 66.244 80.439 64.816 79.839 63.832C79.263 62.848 78.471 62.356 77.463 62.356C76.455 62.356 75.651 62.848 75.051 63.832C74.475 64.816 74.187 66.244 74.187 68.116C74.187 69.988 74.475 71.428 75.051 72.436C75.651 73.444 76.455 73.948 77.463 73.948ZM93.699 85.432C92.067 85.432 90.771 84.772 89.811 83.452C88.875 82.132 88.407 80.296 88.407 77.944C88.407 75.616 88.875 73.804 89.811 72.508C90.771 71.188 92.067 70.528 93.699 70.528C95.331 70.528 96.615 71.188 97.551 72.508C98.511 73.804 98.991 75.616 98.991 77.944C98.991 80.296 98.511 82.132 97.551 83.452C96.615 84.772 95.331 85.432 93.699 85.432ZM93.699 83.776C94.683 83.776 95.463 83.272 96.039 82.264C96.639 81.256 96.939 79.816 96.939 77.944C96.939 76.072 96.651 74.644 96.075 73.66C95.499 72.676 94.707 72.184 93.699 72.184C92.691 72.184 91.887 72.676 91.287 73.66C90.711 74.644 90.423 76.072 90.423 77.944C90.423 79.816 90.711 81.256 91.287 82.264C91.887 83.272 92.691 83.776 93.699 83.776ZM117.336 85.432C115.8 85.432 114.408 85.072 113.16 84.352C111.936 83.608 110.964 82.552 110.244 81.184C109.548 79.816 109.2 78.184 109.2 76.288C109.2 74.416 109.572 72.784 110.316 71.392C111.084 70 112.104 68.944 113.376 68.224C114.648 67.48 116.028 67.108 117.516 67.108C119.412 67.108 121.104 67.804 122.592 69.196L121.224 70.924C120.648 70.396 120.072 70 119.496 69.736C118.92 69.448 118.296 69.304 117.624 69.304C116.544 69.304 115.572 69.604 114.708 70.204C113.844 70.78 113.16 71.596 112.656 72.652C112.176 73.708 111.936 74.92 111.936 76.288C111.936 78.376 112.452 80.056 113.484 81.328C114.516 82.6 115.872 83.236 117.552 83.236C119.064 83.236 120.48 82.636 121.8 81.436L122.952 83.2C122.16 83.896 121.284 84.448 120.324 84.856C119.364 85.24 118.368 85.432 117.336 85.432ZM130.524 85.432C129.036 85.432 127.812 85 126.852 84.136C125.892 83.272 125.412 82.06 125.412 80.5C125.412 78.604 126.276 77.152 128.004 76.144C129.732 75.112 132.492 74.392 136.284 73.984C136.284 72.616 135.996 71.5 135.42 70.636C134.868 69.748 133.908 69.304 132.54 69.304C130.884 69.304 129.12 69.94 127.248 71.212L126.204 69.412C128.508 67.876 130.764 67.108 132.972 67.108C134.988 67.108 136.476 67.744 137.436 69.016C138.396 70.264 138.876 71.992 138.876 74.2V85H136.716L136.5 82.876H136.392C134.328 84.58 132.372 85.432 130.524 85.432ZM131.208 83.308C132.048 83.308 132.864 83.116 133.656 82.732C134.472 82.324 135.348 81.7 136.284 80.86V75.748C133.284 76.108 131.148 76.66 129.876 77.404C128.628 78.148 128.004 79.132 128.004 80.356C128.004 81.34 128.304 82.084 128.904 82.588C129.504 83.068 130.272 83.308 131.208 83.308ZM149.063 85.432C147.863 85.432 146.699 85.216 145.571 84.784C144.443 84.328 143.447 83.74 142.583 83.02L143.915 81.256C144.779 81.952 145.619 82.48 146.435 82.84C147.251 83.2 148.163 83.38 149.171 83.38C150.323 83.38 151.211 83.104 151.835 82.552C152.459 82 152.771 81.304 152.771 80.464C152.771 79.624 152.411 78.952 151.691 78.448C150.995 77.944 149.999 77.464 148.703 77.008C147.047 76.408 145.751 75.76 144.815 75.064C143.879 74.344 143.411 73.324 143.411 72.004C143.411 70.588 143.939 69.424 144.995 68.512C146.075 67.576 147.527 67.108 149.351 67.108C150.335 67.108 151.283 67.288 152.195 67.648C153.107 68.008 153.923 68.476 154.643 69.052L153.383 70.744C152.687 70.24 152.027 69.856 151.403 69.592C150.779 69.328 150.095 69.196 149.351 69.196C148.247 69.196 147.407 69.46 146.831 69.988C146.255 70.492 145.967 71.116 145.967 71.86C145.967 72.388 146.135 72.844 146.471 73.228C146.831 73.612 147.263 73.924 147.767 74.164C148.271 74.38 148.979 74.668 149.891 75.028C151.115 75.484 152.075 75.892 152.771 76.252C153.467 76.612 154.067 77.128 154.571 77.8C155.075 78.448 155.327 79.288 155.327 80.32C155.327 81.256 155.075 82.12 154.571 82.912C154.091 83.68 153.371 84.292 152.411 84.748C151.475 85.204 150.359 85.432 149.063 85.432ZM164.616 85.432C162.816 85.432 161.484 84.868 160.62 83.74C159.756 82.588 159.324 80.884 159.324 78.628V67.54H161.916V78.304C161.916 79.984 162.192 81.22 162.744 82.012C163.296 82.78 164.184 83.164 165.408 83.164C166.296 83.164 167.1 82.924 167.82 82.444C168.564 81.964 169.392 81.172 170.304 80.068V67.54H172.932V85H170.736L170.52 82.228H170.412C169.524 83.26 168.612 84.052 167.676 84.604C166.764 85.156 165.744 85.432 164.616 85.432ZM182.977 85.432C181.489 85.432 180.265 85 179.305 84.136C178.345 83.272 177.865 82.06 177.865 80.5C177.865 78.604 178.729 77.152 180.457 76.144C182.185 75.112 184.945 74.392 188.737 73.984C188.737 72.616 188.449 71.5 187.873 70.636C187.321 69.748 186.361 69.304 184.993 69.304C183.337 69.304 181.573 69.94 179.701 71.212L178.657 69.412C180.961 67.876 183.217 67.108 185.425 67.108C187.441 67.108 188.929 67.744 189.889 69.016C190.849 70.264 191.329 71.992 191.329 74.2V85H189.169L188.953 82.876H188.845C186.781 84.58 184.825 85.432 182.977 85.432ZM183.661 83.308C184.501 83.308 185.317 83.116 186.109 82.732C186.925 82.324 187.801 81.7 188.737 80.86V75.748C185.737 76.108 183.601 76.66 182.329 77.404C181.081 78.148 180.457 79.132 180.457 80.356C180.457 81.34 180.757 82.084 181.357 82.588C181.957 83.068 182.725 83.308 183.661 83.308ZM199.896 85.432C198.912 85.432 198.192 85.132 197.736 84.532C197.28 83.908 197.052 82.996 197.052 81.796V59.296H199.644V82.012C199.644 82.42 199.716 82.732 199.86 82.948C200.028 83.14 200.232 83.236 200.472 83.236C200.664 83.236 200.88 83.212 201.12 83.164L201.48 85.18C201.024 85.348 200.496 85.432 199.896 85.432ZM226.579 75.28C226.579 75.904 226.543 76.432 226.471 76.864H214.411C214.531 78.904 215.155 80.488 216.283 81.616C217.435 82.744 218.839 83.308 220.495 83.308C222.031 83.308 223.507 82.84 224.923 81.904L225.895 83.632C225.031 84.184 224.143 84.628 223.231 84.964C222.319 85.276 221.299 85.432 220.171 85.432C218.635 85.432 217.231 85.072 215.959 84.352C214.711 83.608 213.715 82.54 212.971 81.148C212.251 79.756 211.891 78.136 211.891 76.288C211.891 74.464 212.251 72.856 212.971 71.464C213.715 70.072 214.687 69.004 215.887 68.26C217.087 67.492 218.359 67.108 219.703 67.108C221.863 67.108 223.543 67.84 224.743 69.304C225.967 70.744 226.579 72.736 226.579 75.28ZM224.239 74.956C224.239 73.108 223.843 71.692 223.051 70.708C222.259 69.724 221.155 69.232 219.739 69.232C218.443 69.232 217.291 69.724 216.283 70.708C215.275 71.692 214.675 73.108 214.483 74.956H224.239ZM233.971 75.892L228.643 67.54H231.487L233.935 71.536C234.703 72.832 235.291 73.792 235.699 74.416H235.843L237.463 71.536L239.731 67.54H242.467L237.175 76.144L242.899 85H240.055L237.355 80.752C236.635 79.504 235.999 78.46 235.447 77.62H235.303C234.919 78.244 234.511 78.94 234.079 79.708L233.467 80.752L230.947 85H228.211L233.971 75.892ZM246.447 67.54H248.607L248.823 69.628H248.931C250.971 67.948 252.855 67.108 254.583 67.108C256.815 67.108 258.519 67.912 259.695 69.52C260.895 71.104 261.495 73.264 261.495 76C261.495 77.92 261.147 79.6 260.451 81.04C259.755 82.456 258.831 83.548 257.679 84.316C256.527 85.06 255.279 85.432 253.935 85.432C252.375 85.432 250.719 84.748 248.967 83.38L249.039 86.476V92.488H246.447V67.54ZM253.503 83.2C254.511 83.2 255.411 82.912 256.203 82.336C257.019 81.736 257.655 80.896 258.111 79.816C258.567 78.736 258.795 77.476 258.795 76.036C258.795 73.948 258.399 72.316 257.607 71.14C256.839 69.94 255.627 69.34 253.971 69.34C252.507 69.34 250.863 70.18 249.039 71.86V81.292C249.831 81.964 250.611 82.456 251.379 82.768C252.147 83.056 252.855 83.2 253.503 83.2ZM269.154 85.432C268.17 85.432 267.45 85.132 266.994 84.532C266.538 83.908 266.31 82.996 266.31 81.796V59.296H268.902V82.012C268.902 82.42 268.974 82.732 269.118 82.948C269.286 83.14 269.49 83.236 269.73 83.236C269.922 83.236 270.138 83.212 270.378 83.164L270.738 85.18C270.282 85.348 269.754 85.432 269.154 85.432ZM281.97 85.432C280.53 85.432 279.198 85.072 277.974 84.352C276.75 83.608 275.766 82.552 275.022 81.184C274.302 79.792 273.942 78.16 273.942 76.288C273.942 74.416 274.302 72.784 275.022 71.392C275.766 70 276.75 68.944 277.974 68.224C279.198 67.48 280.53 67.108 281.97 67.108C283.41 67.108 284.742 67.48 285.966 68.224C287.19 68.944 288.162 70 288.882 71.392C289.626 72.784 289.998 74.416 289.998 76.288C289.998 78.16 289.626 79.792 288.882 81.184C288.162 82.552 287.19 83.608 285.966 84.352C284.742 85.072 283.41 85.432 281.97 85.432ZM281.97 83.236C283.002 83.236 283.914 82.948 284.706 82.372C285.522 81.796 286.158 80.98 286.614 79.924C287.07 78.868 287.298 77.656 287.298 76.288C287.298 74.92 287.07 73.708 286.614 72.652C286.158 71.596 285.522 70.78 284.706 70.204C283.914 69.604 283.002 69.304 281.97 69.304C280.938 69.304 280.014 69.604 279.198 70.204C278.406 70.78 277.782 71.596 277.326 72.652C276.894 73.708 276.678 74.92 276.678 76.288C276.678 78.376 277.17 80.056 278.154 81.328C279.138 82.6 280.41 83.236 281.97 83.236ZM294.751 67.54H296.911L297.127 70.744H297.235C297.835 69.616 298.567 68.728 299.431 68.08C300.295 67.432 301.219 67.108 302.203 67.108C302.899 67.108 303.499 67.228 304.003 67.468L303.499 69.772C302.875 69.58 302.323 69.484 301.843 69.484C301.027 69.484 300.211 69.82 299.395 70.492C298.603 71.164 297.919 72.208 297.343 73.624V85H294.751V67.54ZM319.954 75.28C319.954 75.904 319.918 76.432 319.846 76.864H307.786C307.906 78.904 308.53 80.488 309.658 81.616C310.81 82.744 312.214 83.308 313.87 83.308C315.406 83.308 316.882 82.84 318.298 81.904L319.27 83.632C318.406 84.184 317.518 84.628 316.606 84.964C315.694 85.276 314.674 85.432 313.546 85.432C312.01 85.432 310.606 85.072 309.334 84.352C308.086 83.608 307.09 82.54 306.346 81.148C305.626 79.756 305.266 78.136 305.266 76.288C305.266 74.464 305.626 72.856 306.346 71.464C307.09 70.072 308.062 69.004 309.262 68.26C310.462 67.492 311.734 67.108 313.078 67.108C315.238 67.108 316.918 67.84 318.118 69.304C319.342 70.744 319.954 72.736 319.954 75.28ZM317.614 74.956C317.614 73.108 317.218 71.692 316.426 70.708C315.634 69.724 314.53 69.232 313.114 69.232C311.818 69.232 310.666 69.724 309.658 70.708C308.65 71.692 308.05 73.108 307.858 74.956H317.614ZM324.353 67.54H326.513L326.729 70.744H326.837C327.437 69.616 328.169 68.728 329.033 68.08C329.897 67.432 330.821 67.108 331.805 67.108C332.501 67.108 333.101 67.228 333.605 67.468L333.101 69.772C332.477 69.58 331.925 69.484 331.445 69.484C330.629 69.484 329.813 69.82 328.997 70.492C328.205 71.164 327.521 72.208 326.945 73.624V85H324.353V67.54Z" fill="black"/>
<mask id="path-7-outside-3" maskUnits="userSpaceOnUse" x="340" y="117" width="81" height="164" fill="black">
<rect fill="white" x="340" y="117" width="81" height="164"/>
<path d="M350 127C369.857 127 389.516 130.943 407.838 138.599L350 277V127Z"/>
</mask>
<path d="M350 127C369.857 127 389.516 130.943 407.838 138.599L350 277V127Z" stroke="#2B4D59" stroke-width="20" mask="url(#path-7-outside-3)"/>
<circle cx="350" cy="277" r="150" fill="#F1F3F2"/>
<path d="M29.756 118.996C31.772 118.996 33.356 119.608 34.508 120.832C35.66 122.056 36.236 123.82 36.236 126.124C36.236 127.54 35.936 128.8 35.336 129.904C34.736 131.008 33.92 131.872 32.888 132.496C31.88 133.12 30.776 133.432 29.576 133.432C28.04 133.432 26.684 133.024 25.508 132.208C24.332 131.368 23.408 130.12 22.736 128.464C22.088 126.808 21.764 124.804 21.764 122.452C21.764 119.476 22.16 117.028 22.952 115.108C23.744 113.188 24.788 111.796 26.084 110.932C27.38 110.044 28.832 109.6 30.44 109.6C32.552 109.6 34.34 110.392 35.804 111.976L34.328 113.632C33.848 113.056 33.272 112.612 32.6 112.3C31.952 111.964 31.256 111.796 30.512 111.796C28.688 111.796 27.2 112.612 26.048 114.244C24.896 115.852 24.296 118.444 24.248 122.02C24.992 121.084 25.856 120.352 26.84 119.824C27.824 119.272 28.796 118.996 29.756 118.996ZM29.612 131.344C30.788 131.344 31.772 130.852 32.564 129.868C33.356 128.884 33.752 127.636 33.752 126.124C33.752 124.516 33.38 123.268 32.636 122.38C31.892 121.468 30.788 121.012 29.324 121.012C28.508 121.012 27.656 121.276 26.768 121.804C25.904 122.308 25.088 123.1 24.32 124.18C24.512 126.484 25.052 128.26 25.94 129.508C26.828 130.732 28.052 131.344 29.612 131.344ZM42.0748 133.432C41.5228 133.432 41.0548 133.24 40.6708 132.856C40.2868 132.448 40.0947 131.944 40.0947 131.344C40.0947 130.72 40.2868 130.216 40.6708 129.832C41.0548 129.424 41.5228 129.22 42.0748 129.22C42.6268 129.22 43.0948 129.424 43.4788 129.832C43.8628 130.216 44.0548 130.72 44.0548 131.344C44.0548 131.944 43.8628 132.448 43.4788 132.856C43.0948 133.24 42.6268 133.432 42.0748 133.432ZM54.8975 133.432C51.8735 133.432 49.3775 132.352 47.4095 130.192L48.7415 128.464C49.5815 129.328 50.4695 130.012 51.4055 130.516C52.3655 130.996 53.4815 131.236 54.7535 131.236C56.2175 131.236 57.4055 130.84 58.3175 130.048C59.2295 129.232 59.6855 128.152 59.6855 126.808C59.6855 123.64 57.1775 122.056 52.1615 122.056V120.004C54.5135 120.004 56.2175 119.596 57.2735 118.78C58.3295 117.964 58.8575 116.884 58.8575 115.54C58.8575 114.388 58.4855 113.476 57.7415 112.804C56.9975 112.108 55.9895 111.76 54.7175 111.76C52.8935 111.76 51.2255 112.552 49.7135 114.136L48.2735 112.444C50.2895 110.548 52.4615 109.6 54.7895 109.6C56.7815 109.6 58.4015 110.116 59.6495 111.148C60.8975 112.156 61.5215 113.56 61.5215 115.36C61.5215 116.704 61.1375 117.844 60.3695 118.78C59.6255 119.692 58.5935 120.388 57.2735 120.868V121.012C58.7615 121.348 59.9735 122.032 60.9095 123.064C61.8695 124.096 62.3495 125.368 62.3495 126.88C62.3495 128.2 62.0135 129.364 61.3415 130.372C60.6935 131.356 59.8055 132.112 58.6775 132.64C57.5495 133.168 56.2895 133.432 54.8975 133.432ZM70.7443 123.604C69.1123 123.604 67.8163 122.944 66.8563 121.624C65.9203 120.304 65.4523 118.468 65.4523 116.116C65.4523 113.788 65.9203 111.976 66.8563 110.68C67.8163 109.36 69.1123 108.7 70.7443 108.7C72.3763 108.7 73.6603 109.36 74.5963 110.68C75.5563 111.976 76.0363 113.788 76.0363 116.116C76.0363 118.468 75.5563 120.304 74.5963 121.624C73.6603 122.944 72.3763 123.604 70.7443 123.604ZM84.4243 108.916H86.2603L73.1923 133.432H71.3563L84.4243 108.916ZM70.7443 121.948C71.7523 121.948 72.5443 121.444 73.1203 120.436C73.7203 119.428 74.0203 117.988 74.0203 116.116C74.0203 114.244 73.7203 112.816 73.1203 111.832C72.5443 110.848 71.7523 110.356 70.7443 110.356C69.7363 110.356 68.9323 110.848 68.3323 111.832C67.7563 112.816 67.4683 114.244 67.4683 116.116C67.4683 117.988 67.7563 119.428 68.3323 120.436C68.9323 121.444 69.7363 121.948 70.7443 121.948ZM86.9803 133.432C85.3483 133.432 84.0523 132.772 83.0923 131.452C82.1563 130.132 81.6883 128.296 81.6883 125.944C81.6883 123.616 82.1563 121.804 83.0923 120.508C84.0523 119.188 85.3483 118.528 86.9803 118.528C88.6123 118.528 89.8963 119.188 90.8323 120.508C91.7923 121.804 92.2723 123.616 92.2723 125.944C92.2723 128.296 91.7923 130.132 90.8323 131.452C89.8963 132.772 88.6123 133.432 86.9803 133.432ZM86.9803 131.776C87.9643 131.776 88.7443 131.272 89.3203 130.264C89.9203 129.256 90.2203 127.816 90.2203 125.944C90.2203 124.072 89.9323 122.644 89.3563 121.66C88.7803 120.676 87.9883 120.184 86.9803 120.184C85.9723 120.184 85.1683 120.676 84.5683 121.66C83.9923 122.644 83.7043 124.072 83.7043 125.944C83.7043 127.816 83.9923 129.256 84.5683 130.264C85.1683 131.272 85.9723 131.776 86.9803 131.776ZM110.509 133.432C109.069 133.432 107.737 133.072 106.513 132.352C105.289 131.608 104.305 130.552 103.561 129.184C102.841 127.792 102.481 126.16 102.481 124.288C102.481 122.416 102.841 120.784 103.561 119.392C104.305 118 105.289 116.944 106.513 116.224C107.737 115.48 109.069 115.108 110.509 115.108C111.949 115.108 113.281 115.48 114.505 116.224C115.729 116.944 116.701 118 117.421 119.392C118.165 120.784 118.537 122.416 118.537 124.288C118.537 126.16 118.165 127.792 117.421 129.184C116.701 130.552 115.729 131.608 114.505 132.352C113.281 133.072 111.949 133.432 110.509 133.432ZM110.509 131.236C111.541 131.236 112.453 130.948 113.245 130.372C114.061 129.796 114.697 128.98 115.153 127.924C115.609 126.868 115.837 125.656 115.837 124.288C115.837 122.92 115.609 121.708 115.153 120.652C114.697 119.596 114.061 118.78 113.245 118.204C112.453 117.604 111.541 117.304 110.509 117.304C109.477 117.304 108.553 117.604 107.737 118.204C106.945 118.78 106.321 119.596 105.865 120.652C105.433 121.708 105.217 122.92 105.217 124.288C105.217 126.376 105.709 128.056 106.693 129.328C107.677 130.6 108.949 131.236 110.509 131.236ZM128.33 133.432C126.53 133.432 125.198 132.868 124.334 131.74C123.47 130.588 123.038 128.884 123.038 126.628V115.54H125.63V126.304C125.63 127.984 125.906 129.22 126.458 130.012C127.01 130.78 127.898 131.164 129.122 131.164C130.01 131.164 130.814 130.924 131.534 130.444C132.278 129.964 133.106 129.172 134.018 128.068V115.54H136.646V133H134.45L134.234 130.228H134.126C133.238 131.26 132.326 132.052 131.39 132.604C130.478 133.156 129.458 133.432 128.33 133.432ZM148.024 133.432C146.296 133.432 145.06 132.94 144.316 131.956C143.572 130.972 143.2 129.568 143.2 127.744V117.7H140.572V115.72L143.308 115.54L143.632 110.608H145.828V115.54H150.616V117.7H145.828V127.816C145.828 128.968 146.032 129.832 146.44 130.408C146.872 130.984 147.592 131.272 148.6 131.272C149.104 131.272 149.776 131.116 150.616 130.804L151.156 132.784C149.86 133.216 148.816 133.432 148.024 133.432ZM160.061 133.432C157.853 133.432 156.101 132.628 154.805 131.02C153.533 129.412 152.897 127.168 152.897 124.288C152.897 122.464 153.245 120.856 153.941 119.464C154.637 118.072 155.561 117.004 156.713 116.26C157.889 115.492 159.149 115.108 160.493 115.108C161.429 115.108 162.269 115.276 163.013 115.612C163.757 115.948 164.573 116.464 165.461 117.16L165.353 114.136V107.296H167.945V133H165.785L165.569 130.876H165.461C164.717 131.644 163.877 132.268 162.941 132.748C162.029 133.204 161.069 133.432 160.061 133.432ZM160.637 131.2C161.477 131.2 162.269 130.996 163.013 130.588C163.781 130.18 164.561 129.556 165.353 128.716V119.248C164.585 118.576 163.841 118.096 163.121 117.808C162.401 117.496 161.657 117.34 160.889 117.34C159.905 117.34 159.005 117.64 158.189 118.24C157.397 118.84 156.761 119.668 156.281 120.724C155.825 121.78 155.597 122.968 155.597 124.288C155.597 126.448 156.029 128.14 156.893 129.364C157.781 130.588 159.029 131.2 160.637 131.2ZM180.716 133.432C179.276 133.432 177.944 133.072 176.72 132.352C175.496 131.608 174.512 130.552 173.768 129.184C173.048 127.792 172.688 126.16 172.688 124.288C172.688 122.416 173.048 120.784 173.768 119.392C174.512 118 175.496 116.944 176.72 116.224C177.944 115.48 179.276 115.108 180.716 115.108C182.156 115.108 183.488 115.48 184.712 116.224C185.936 116.944 186.908 118 187.628 119.392C188.372 120.784 188.744 122.416 188.744 124.288C188.744 126.16 188.372 127.792 187.628 129.184C186.908 130.552 185.936 131.608 184.712 132.352C183.488 133.072 182.156 133.432 180.716 133.432ZM180.716 131.236C181.748 131.236 182.66 130.948 183.452 130.372C184.268 129.796 184.904 128.98 185.36 127.924C185.816 126.868 186.044 125.656 186.044 124.288C186.044 122.92 185.816 121.708 185.36 120.652C184.904 119.596 184.268 118.78 183.452 118.204C182.66 117.604 181.748 117.304 180.716 117.304C179.684 117.304 178.76 117.604 177.944 118.204C177.152 118.78 176.528 119.596 176.072 120.652C175.64 121.708 175.424 122.92 175.424 124.288C175.424 126.376 175.916 128.056 176.9 129.328C177.884 130.6 179.156 131.236 180.716 131.236ZM200.158 133.432C198.718 133.432 197.386 133.072 196.162 132.352C194.938 131.608 193.954 130.552 193.21 129.184C192.49 127.792 192.13 126.16 192.13 124.288C192.13 122.416 192.49 120.784 193.21 119.392C193.954 118 194.938 116.944 196.162 116.224C197.386 115.48 198.718 115.108 200.158 115.108C201.598 115.108 202.93 115.48 204.154 116.224C205.378 116.944 206.35 118 207.07 119.392C207.814 120.784 208.186 122.416 208.186 124.288C208.186 126.16 207.814 127.792 207.07 129.184C206.35 130.552 205.378 131.608 204.154 132.352C202.93 133.072 201.598 133.432 200.158 133.432ZM200.158 131.236C201.19 131.236 202.102 130.948 202.894 130.372C203.71 129.796 204.346 128.98 204.802 127.924C205.258 126.868 205.486 125.656 205.486 124.288C205.486 122.92 205.258 121.708 204.802 120.652C204.346 119.596 203.71 118.78 202.894 118.204C202.102 117.604 201.19 117.304 200.158 117.304C199.126 117.304 198.202 117.604 197.386 118.204C196.594 118.78 195.97 119.596 195.514 120.652C195.082 121.708 194.866 122.92 194.866 124.288C194.866 126.376 195.358 128.056 196.342 129.328C197.326 130.6 198.598 131.236 200.158 131.236ZM212.939 115.54H215.099L215.315 118.744H215.423C216.023 117.616 216.755 116.728 217.619 116.08C218.483 115.432 219.407 115.108 220.391 115.108C221.087 115.108 221.687 115.228 222.191 115.468L221.687 117.772C221.063 117.58 220.511 117.484 220.031 117.484C219.215 117.484 218.399 117.82 217.583 118.492C216.791 119.164 216.107 120.208 215.531 121.624V133H212.939V115.54ZM236.34 133.432C234.852 133.432 233.628 133 232.668 132.136C231.708 131.272 231.228 130.06 231.228 128.5C231.228 126.604 232.092 125.152 233.82 124.144C235.548 123.112 238.308 122.392 242.1 121.984C242.1 120.616 241.812 119.5 241.236 118.636C240.684 117.748 239.724 117.304 238.356 117.304C236.7 117.304 234.936 117.94 233.064 119.212L232.02 117.412C234.324 115.876 236.58 115.108 238.788 115.108C240.804 115.108 242.292 115.744 243.252 117.016C244.212 118.264 244.692 119.992 244.692 122.2V133H242.532L242.316 130.876H242.208C240.144 132.58 238.188 133.432 236.34 133.432ZM237.024 131.308C237.864 131.308 238.68 131.116 239.472 130.732C240.288 130.324 241.164 129.7 242.1 128.86V123.748C239.1 124.108 236.964 124.66 235.692 125.404C234.444 126.148 233.82 127.132 233.82 128.356C233.82 129.34 234.12 130.084 234.72 130.588C235.32 131.068 236.088 131.308 237.024 131.308ZM255.25 133.432C253.522 133.432 252.286 132.94 251.542 131.956C250.798 130.972 250.426 129.568 250.426 127.744V117.7H247.798V115.72L250.534 115.54L250.858 110.608H253.054V115.54H257.842V117.7H253.054V127.816C253.054 128.968 253.258 129.832 253.666 130.408C254.098 130.984 254.818 131.272 255.826 131.272C256.33 131.272 257.002 131.116 257.842 130.804L258.382 132.784C257.086 133.216 256.042 133.432 255.25 133.432ZM261.876 107.296H264.468V114.424L264.396 118.096C265.356 117.136 266.292 116.404 267.204 115.9C268.116 115.372 269.124 115.108 270.228 115.108C272.052 115.108 273.396 115.684 274.26 116.836C275.124 117.964 275.556 119.656 275.556 121.912V133H272.928V122.236C272.928 120.556 272.652 119.332 272.1 118.564C271.572 117.796 270.696 117.412 269.472 117.412C268.608 117.412 267.804 117.64 267.06 118.096C266.316 118.528 265.452 119.236 264.468 120.22V133H261.876V107.296ZM284.162 133.432C283.178 133.432 282.458 133.132 282.002 132.532C281.546 131.908 281.318 130.996 281.318 129.796V107.296H283.91V130.012C283.91 130.42 283.982 130.732 284.126 130.948C284.294 131.14 284.498 131.236 284.738 131.236C284.93 131.236 285.146 131.212 285.386 131.164L285.746 133.18C285.29 133.348 284.762 133.432 284.162 133.432ZM303.638 123.28C303.638 123.904 303.602 124.432 303.53 124.864H291.47C291.59 126.904 292.214 128.488 293.342 129.616C294.494 130.744 295.898 131.308 297.554 131.308C299.09 131.308 300.566 130.84 301.982 129.904L302.954 131.632C302.09 132.184 301.202 132.628 300.29 132.964C299.378 133.276 298.358 133.432 297.23 133.432C295.694 133.432 294.29 133.072 293.018 132.352C291.77 131.608 290.774 130.54 290.03 129.148C289.31 127.756 288.95 126.136 288.95 124.288C288.95 122.464 289.31 120.856 290.03 119.464C290.774 118.072 291.746 117.004 292.946 116.26C294.146 115.492 295.418 115.108 296.762 115.108C298.922 115.108 300.602 115.84 301.802 117.304C303.026 118.744 303.638 120.736 303.638 123.28ZM301.298 122.956C301.298 121.108 300.902 119.692 300.11 118.708C299.318 117.724 298.214 117.232 296.798 117.232C295.502 117.232 294.35 117.724 293.342 118.708C292.334 119.692 291.734 121.108 291.542 122.956H301.298ZM312.977 133.432C311.249 133.432 310.013 132.94 309.269 131.956C308.525 130.972 308.153 129.568 308.153 127.744V117.7H305.525V115.72L308.261 115.54L308.585 110.608H310.781V115.54H315.569V117.7H310.781V127.816C310.781 128.968 310.985 129.832 311.393 130.408C311.825 130.984 312.545 131.272 313.553 131.272C314.057 131.272 314.729 131.116 315.569 130.804L316.109 132.784C314.813 133.216 313.769 133.432 312.977 133.432ZM332.466 123.28C332.466 123.904 332.43 124.432 332.358 124.864H320.298C320.418 126.904 321.042 128.488 322.17 129.616C323.322 130.744 324.726 131.308 326.382 131.308C327.918 131.308 329.394 130.84 330.81 129.904L331.782 131.632C330.918 132.184 330.03 132.628 329.118 132.964C328.206 133.276 327.186 133.432 326.058 133.432C324.522 133.432 323.118 133.072 321.846 132.352C320.598 131.608 319.602 130.54 318.858 129.148C318.138 127.756 317.778 126.136 317.778 124.288C317.778 122.464 318.138 120.856 318.858 119.464C319.602 118.072 320.574 117.004 321.774 116.26C322.974 115.492 324.246 115.108 325.59 115.108C327.75 115.108 329.43 115.84 330.63 117.304C331.854 118.744 332.466 120.736 332.466 123.28ZM330.126 122.956C330.126 121.108 329.73 119.692 328.938 118.708C328.146 117.724 327.042 117.232 325.626 117.232C324.33 117.232 323.178 117.724 322.17 118.708C321.162 119.692 320.562 121.108 320.37 122.956H330.126Z" fill="black"/>
</svg>
