<svg width="437" height="88" viewBox="0 0 437 88" fill="none" xmlns="http://www.w3.org/2000/svg">
<path d="M43.5646 0L81.2926 65.3469H5.83655L43.5646 0Z" fill="#2B4D59"/>
<path d="M6.104 69.8152H8.036C9.236 69.8152 10.148 70.1552 10.772 70.8352C11.404 71.5152 11.72 72.4792 11.72 73.7272C11.72 74.9752 11.404 75.9512 10.772 76.6552C10.148 77.3512 9.248 77.6992 8.072 77.6992H6.104V69.8152ZM7.964 76.9672C8.908 76.9672 9.616 76.6872 10.088 76.1272C10.568 75.5592 10.808 74.7592 10.808 73.7272C10.808 72.7112 10.568 71.9272 10.088 71.3752C9.616 70.8232 8.908 70.5472 7.964 70.5472H6.992V76.9672H7.964ZM14.6994 77.8432C14.2034 77.8432 13.7954 77.6992 13.4754 77.4112C13.1554 77.1232 12.9954 76.7192 12.9954 76.1992C12.9954 75.5672 13.2834 75.0832 13.8594 74.7472C14.4354 74.4032 15.3554 74.1632 16.6194 74.0272C16.6194 73.5712 16.5234 73.1992 16.3314 72.9112C16.1474 72.6152 15.8274 72.4672 15.3714 72.4672C14.8194 72.4672 14.2314 72.6792 13.6074 73.1032L13.2594 72.5032C14.0274 71.9912 14.7794 71.7352 15.5154 71.7352C16.1874 71.7352 16.6834 71.9472 17.0034 72.3712C17.3234 72.7872 17.4834 73.3632 17.4834 74.0992V77.6992H16.7634L16.6914 76.9912H16.6554C15.9674 77.5592 15.3154 77.8432 14.6994 77.8432ZM14.9274 77.1352C15.2074 77.1352 15.4794 77.0712 15.7434 76.9432C16.0154 76.8072 16.3074 76.5992 16.6194 76.3192V74.6152C15.6194 74.7352 14.9074 74.9192 14.4834 75.1672C14.0674 75.4152 13.8594 75.7432 13.8594 76.1512C13.8594 76.4792 13.9594 76.7272 14.1594 76.8952C14.3594 77.0552 14.6154 77.1352 14.9274 77.1352ZM19.3911 71.8792H20.1111L20.1831 72.9472H20.2191C20.4191 72.5712 20.6631 72.2752 20.9511 72.0592C21.2391 71.8432 21.5471 71.7352 21.8751 71.7352C22.1071 71.7352 22.3071 71.7752 22.4751 71.8552L22.3071 72.6232C22.0991 72.5592 21.9151 72.5272 21.7551 72.5272C21.4831 72.5272 21.2111 72.6392 20.9391 72.8632C20.6751 73.0872 20.4471 73.4352 20.2551 73.9072V77.6992H19.3911V71.8792ZM23.4692 69.1312H24.3212V75.0592H24.3572L26.9372 71.8792H27.9092L25.9652 74.2072L28.1732 77.6992H27.2252L25.4612 74.8192L24.3212 76.1632V77.6992H23.4692V69.1312ZM33.9512 77.8432C33.4072 77.8432 32.8992 77.7392 32.4272 77.5312C31.9632 77.3232 31.5592 77.0352 31.2152 76.6672L31.7552 76.0552C32.0432 76.3672 32.3792 76.6152 32.7632 76.7992C33.1472 76.9752 33.5472 77.0632 33.9632 77.0632C34.4992 77.0632 34.9192 76.9392 35.2232 76.6912C35.5352 76.4432 35.6912 76.1112 35.6912 75.6952C35.6912 75.4312 35.6352 75.2112 35.5232 75.0352C35.4112 74.8592 35.2672 74.7192 35.0912 74.6152C34.9152 74.5112 34.6672 74.3872 34.3472 74.2432L33.2072 73.7392C32.7432 73.5392 32.3592 73.2832 32.0552 72.9712C31.7592 72.6592 31.6112 72.2432 31.6112 71.7232C31.6112 71.3312 31.7152 70.9792 31.9232 70.6672C32.1312 70.3552 32.4192 70.1112 32.7872 69.9352C33.1632 69.7592 33.5792 69.6712 34.0352 69.6712C34.4912 69.6712 34.9152 69.7592 35.3072 69.9352C35.7072 70.1112 36.0472 70.3472 36.3272 70.6432L35.8472 71.2072C35.3272 70.7032 34.7232 70.4512 34.0352 70.4512C33.5712 70.4512 33.1992 70.5632 32.9192 70.7872C32.6392 71.0112 32.4992 71.3072 32.4992 71.6752C32.4992 71.9232 32.5632 72.1312 32.6912 72.2992C32.8192 72.4672 32.9672 72.5992 33.1352 72.6952C33.3032 72.7912 33.5312 72.9032 33.8192 73.0312L34.9592 73.5352C35.4792 73.7512 35.8792 74.0192 36.1592 74.3392C36.4472 74.6592 36.5912 75.0912 36.5912 75.6352C36.5912 76.0512 36.4832 76.4272 36.2672 76.7632C36.0512 77.0992 35.7432 77.3632 35.3432 77.5552C34.9432 77.7472 34.4792 77.8432 33.9512 77.8432ZM39.0305 77.8432C38.7025 77.8432 38.4625 77.7432 38.3105 77.5432C38.1585 77.3352 38.0825 77.0312 38.0825 76.6312V69.1312H38.9465V76.7032C38.9465 76.8392 38.9705 76.9432 39.0185 77.0152C39.0745 77.0792 39.1425 77.1112 39.2225 77.1112C39.2865 77.1112 39.3585 77.1032 39.4385 77.0872L39.5585 77.7592C39.4065 77.8152 39.2305 77.8432 39.0305 77.8432ZM42.4025 77.8432C41.9065 77.8432 41.4985 77.6992 41.1785 77.4112C40.8585 77.1232 40.6985 76.7192 40.6985 76.1992C40.6985 75.5672 40.9865 75.0832 41.5625 74.7472C42.1385 74.4032 43.0585 74.1632 44.3225 74.0272C44.3225 73.5712 44.2265 73.1992 44.0345 72.9112C43.8505 72.6152 43.5305 72.4672 43.0745 72.4672C42.5225 72.4672 41.9345 72.6792 41.3105 73.1032L40.9625 72.5032C41.7305 71.9912 42.4825 71.7352 43.2185 71.7352C43.8905 71.7352 44.3865 71.9472 44.7065 72.3712C45.0265 72.7872 45.1865 73.3632 45.1865 74.0992V77.6992H44.4665L44.3945 76.9912H44.3585C43.6705 77.5592 43.0185 77.8432 42.4025 77.8432ZM42.6305 77.1352C42.9105 77.1352 43.1825 77.0712 43.4465 76.9432C43.7185 76.8072 44.0105 76.5992 44.3225 76.3192V74.6152C43.3225 74.7352 42.6105 74.9192 42.1865 75.1672C41.7705 75.4152 41.5625 75.7432 41.5625 76.1512C41.5625 76.4792 41.6625 76.7272 41.8625 76.8952C42.0625 77.0552 42.3185 77.1352 42.6305 77.1352ZM48.7059 77.8432C48.1299 77.8432 47.7179 77.6792 47.4699 77.3512C47.2219 77.0232 47.0979 76.5552 47.0979 75.9472V72.5992H46.2219V71.9392L47.1339 71.8792L47.2419 70.2352H47.9739V71.8792H49.5699V72.5992H47.9739V75.9712C47.9739 76.3552 48.0419 76.6432 48.1779 76.8352C48.3219 77.0272 48.5619 77.1232 48.8979 77.1232C49.0659 77.1232 49.2899 77.0712 49.5699 76.9672L49.7499 77.6272C49.3179 77.7712 48.9699 77.8432 48.7059 77.8432ZM55.2022 74.4592C55.2022 74.6672 55.1902 74.8432 55.1662 74.9872H51.1462C51.1862 75.6672 51.3942 76.1952 51.7702 76.5712C52.1542 76.9472 52.6222 77.1352 53.1742 77.1352C53.6862 77.1352 54.1782 76.9792 54.6502 76.6672L54.9742 77.2432C54.6862 77.4272 54.3902 77.5752 54.0862 77.6872C53.7822 77.7912 53.4422 77.8432 53.0662 77.8432C52.5542 77.8432 52.0862 77.7232 51.6622 77.4832C51.2462 77.2352 50.9142 76.8792 50.6662 76.4152C50.4262 75.9512 50.3062 75.4112 50.3062 74.7952C50.3062 74.1872 50.4262 73.6512 50.6662 73.1872C50.9142 72.7232 51.2382 72.3672 51.6382 72.1192C52.0382 71.8632 52.4622 71.7352 52.9102 71.7352C53.6302 71.7352 54.1902 71.9792 54.5902 72.4672C54.9982 72.9472 55.2022 73.6112 55.2022 74.4592ZM54.4222 74.3512C54.4222 73.7352 54.2902 73.2632 54.0262 72.9352C53.7622 72.6072 53.3942 72.4432 52.9222 72.4432C52.4902 72.4432 52.1062 72.6072 51.7702 72.9352C51.4342 73.2632 51.2342 73.7352 51.1702 74.3512H54.4222ZM62.1908 77.8432C61.5028 77.8432 60.8908 77.6792 60.3548 77.3512C59.8268 77.0232 59.4148 76.5512 59.1188 75.9352C58.8228 75.3192 58.6748 74.5952 58.6748 73.7632C58.6748 72.9312 58.8268 72.2072 59.1308 71.5912C59.4348 70.9752 59.8588 70.5032 60.4028 70.1752C60.9468 69.8392 61.5668 69.6712 62.2628 69.6712C63.1348 69.6712 63.8828 69.9912 64.5068 70.6312L64.0148 71.2192C63.5348 70.7072 62.9588 70.4512 62.2868 70.4512C61.7428 70.4512 61.2668 70.5872 60.8588 70.8592C60.4588 71.1232 60.1468 71.5032 59.9228 71.9992C59.7068 72.4872 59.5988 73.0672 59.5988 73.7392C59.5988 74.7632 59.8348 75.5752 60.3068 76.1752C60.7788 76.7672 61.4348 77.0632 62.2748 77.0632C62.5708 77.0632 62.8548 77.0192 63.1268 76.9312C63.3988 76.8352 63.6188 76.7112 63.7868 76.5592V74.4112H62.0588V73.6672H64.6028V76.9312C64.3388 77.2112 63.9988 77.4352 63.5828 77.6032C63.1668 77.7632 62.7028 77.8432 62.1908 77.8432ZM66.4419 71.8792H67.1619L67.2339 72.9472H67.2699C67.4699 72.5712 67.7139 72.2752 68.0019 72.0592C68.2899 71.8432 68.5979 71.7352 68.9259 71.7352C69.1579 71.7352 69.3579 71.7752 69.5259 71.8552L69.3579 72.6232C69.1499 72.5592 68.9659 72.5272 68.8059 72.5272C68.5339 72.5272 68.2619 72.6392 67.9899 72.8632C67.7259 73.0872 67.4979 73.4352 67.3059 73.9072V77.6992H66.4419V71.8792ZM71.5588 77.8432C71.0628 77.8432 70.6548 77.6992 70.3348 77.4112C70.0148 77.1232 69.8548 76.7192 69.8548 76.1992C69.8548 75.5672 70.1428 75.0832 70.7188 74.7472C71.2948 74.4032 72.2148 74.1632 73.4788 74.0272C73.4788 73.5712 73.3828 73.1992 73.1908 72.9112C73.0068 72.6152 72.6868 72.4672 72.2308 72.4672C71.6788 72.4672 71.0908 72.6792 70.4668 73.1032L70.1188 72.5032C70.8868 71.9912 71.6388 71.7352 72.3748 71.7352C73.0468 71.7352 73.5428 71.9472 73.8628 72.3712C74.1828 72.7872 74.3428 73.3632 74.3428 74.0992V77.6992H73.6228L73.5508 76.9912H73.5148C72.8268 77.5592 72.1748 77.8432 71.5588 77.8432ZM71.7868 77.1352C72.0668 77.1352 72.3388 77.0712 72.6028 76.9432C72.8748 76.8072 73.1668 76.5992 73.4788 76.3192V74.6152C72.4788 74.7352 71.7668 74.9192 71.3428 75.1672C70.9268 75.4152 70.7188 75.7432 70.7188 76.1512C70.7188 76.4792 70.8188 76.7272 71.0188 76.8952C71.2188 77.0552 71.4748 77.1352 71.7868 77.1352ZM76.2625 80.2432C76.0225 80.2432 75.8025 80.2032 75.6025 80.1232L75.7705 79.4152C75.9305 79.4792 76.0825 79.5112 76.2265 79.5112C76.5465 79.5112 76.8185 79.3912 77.0425 79.1512C77.2665 78.9112 77.4465 78.5872 77.5825 78.1792L77.7265 77.7352L75.3745 71.8792H76.2745L77.5225 75.2152L78.0985 76.8472H78.1465C78.2585 76.5112 78.3745 76.1432 78.4945 75.7432L78.6505 75.2152L79.7425 71.8792H80.5945L78.3865 78.2392C78.1625 78.8632 77.8825 79.3512 77.5465 79.7032C77.2185 80.0632 76.7905 80.2432 76.2625 80.2432Z" fill="black"/>
<path d="M130.34 0L168.068 65.3469H92.6117L130.34 0Z" fill="#39998E"/>
<path d="M116.547 77.4232L120.795 70.8232H116.931V70.0672H121.899V70.5952L117.651 77.1952H121.935V77.9512H116.547V77.4232ZM125.423 78.0952C124.943 78.0952 124.499 77.9752 124.091 77.7352C123.683 77.4872 123.355 77.1352 123.107 76.6792C122.867 76.2152 122.747 75.6712 122.747 75.0472C122.747 74.4232 122.867 73.8792 123.107 73.4152C123.355 72.9512 123.683 72.5992 124.091 72.3592C124.499 72.1112 124.943 71.9872 125.423 71.9872C125.903 71.9872 126.347 72.1112 126.755 72.3592C127.163 72.5992 127.487 72.9512 127.727 73.4152C127.975 73.8792 128.099 74.4232 128.099 75.0472C128.099 75.6712 127.975 76.2152 127.727 76.6792C127.487 77.1352 127.163 77.4872 126.755 77.7352C126.347 77.9752 125.903 78.0952 125.423 78.0952ZM125.423 77.3632C125.767 77.3632 126.071 77.2672 126.335 77.0752C126.607 76.8832 126.819 76.6112 126.971 76.2592C127.123 75.9072 127.199 75.5032 127.199 75.0472C127.199 74.5912 127.123 74.1872 126.971 73.8352C126.819 73.4832 126.607 73.2112 126.335 73.0192C126.071 72.8192 125.767 72.7192 125.423 72.7192C125.079 72.7192 124.771 72.8192 124.499 73.0192C124.235 73.2112 124.027 73.4832 123.875 73.8352C123.731 74.1872 123.659 74.5912 123.659 75.0472C123.659 75.7432 123.823 76.3032 124.151 76.7272C124.479 77.1512 124.903 77.3632 125.423 77.3632ZM129.683 72.1312H130.403L130.475 72.9952H130.511C131.127 72.3232 131.731 71.9872 132.323 71.9872C133.147 71.9872 133.683 72.3632 133.931 73.1152C134.267 72.7472 134.591 72.4672 134.903 72.2752C135.215 72.0832 135.535 71.9872 135.863 71.9872C137.039 71.9872 137.627 72.7432 137.627 74.2552V77.9512H136.751V74.3632C136.751 73.8032 136.659 73.3952 136.475 73.1392C136.291 72.8832 136.003 72.7552 135.611 72.7552C135.155 72.7552 134.647 73.0672 134.087 73.6912V77.9512H133.211V74.3632C133.211 73.8112 133.119 73.4072 132.935 73.1512C132.751 72.8872 132.467 72.7552 132.083 72.7552C131.627 72.7552 131.115 73.0672 130.547 73.6912V77.9512H129.683V72.1312ZM139.585 72.1312H140.305L140.377 72.8272H140.413C141.093 72.2672 141.721 71.9872 142.297 71.9872C143.041 71.9872 143.609 72.2552 144.001 72.7912C144.401 73.3192 144.601 74.0392 144.601 74.9512C144.601 75.5912 144.485 76.1512 144.253 76.6312C144.021 77.1032 143.713 77.4672 143.329 77.7232C142.945 77.9712 142.529 78.0952 142.081 78.0952C141.561 78.0952 141.009 77.8672 140.425 77.4112L140.449 78.4432V80.4472H139.585V72.1312ZM141.937 77.3512C142.273 77.3512 142.573 77.2552 142.837 77.0632C143.109 76.8632 143.321 76.5832 143.473 76.2232C143.625 75.8632 143.701 75.4432 143.701 74.9632C143.701 74.2672 143.569 73.7232 143.305 73.3312C143.049 72.9312 142.645 72.7312 142.093 72.7312C141.605 72.7312 141.057 73.0112 140.449 73.5712V76.7152C140.713 76.9392 140.973 77.1032 141.229 77.2072C141.485 77.3032 141.721 77.3512 141.937 77.3512Z" fill="black"/>
<path d="M217.565 0L255.293 65.3469H179.837L217.565 0Z" fill="#FFDC7C"/>
<path d="M183.635 69.8152H184.727L186.275 74.1352L186.851 75.8032H186.899C186.955 75.6512 187.031 75.4232 187.127 75.1192C187.255 74.7352 187.367 74.4072 187.463 74.1352L188.987 69.8152H190.091V77.6992H189.263V73.1392C189.263 72.6592 189.299 71.8992 189.371 70.8592H189.323L188.699 72.6472L187.163 76.8832H186.539L184.991 72.6472L184.367 70.8592H184.319L184.343 71.1592C184.407 72.0072 184.439 72.6672 184.439 73.1392V77.6992H183.635V69.8152ZM196.64 74.4592C196.64 74.6672 196.628 74.8432 196.604 74.9872H192.584C192.624 75.6672 192.832 76.1952 193.208 76.5712C193.592 76.9472 194.06 77.1352 194.612 77.1352C195.124 77.1352 195.616 76.9792 196.088 76.6672L196.412 77.2432C196.124 77.4272 195.828 77.5752 195.524 77.6872C195.22 77.7912 194.88 77.8432 194.504 77.8432C193.992 77.8432 193.524 77.7232 193.1 77.4832C192.684 77.2352 192.352 76.8792 192.104 76.4152C191.864 75.9512 191.744 75.4112 191.744 74.7952C191.744 74.1872 191.864 73.6512 192.104 73.1872C192.352 72.7232 192.676 72.3672 193.076 72.1192C193.476 71.8632 193.9 71.7352 194.348 71.7352C195.068 71.7352 195.628 71.9792 196.028 72.4672C196.436 72.9472 196.64 73.6112 196.64 74.4592ZM195.86 74.3512C195.86 73.7352 195.728 73.2632 195.464 72.9352C195.2 72.6072 194.832 72.4432 194.36 72.4432C193.928 72.4432 193.544 72.6072 193.208 72.9352C192.872 73.2632 192.672 73.7352 192.608 74.3512H195.86ZM199.054 77.8432C198.726 77.8432 198.486 77.7432 198.334 77.5432C198.182 77.3352 198.106 77.0312 198.106 76.6312V69.1312H198.97V76.7032C198.97 76.8392 198.994 76.9432 199.042 77.0152C199.098 77.0792 199.166 77.1112 199.246 77.1112C199.31 77.1112 199.382 77.1032 199.462 77.0872L199.582 77.7592C199.43 77.8152 199.254 77.8432 199.054 77.8432ZM202.054 77.8432C201.726 77.8432 201.486 77.7432 201.334 77.5432C201.182 77.3352 201.106 77.0312 201.106 76.6312V69.1312H201.97V76.7032C201.97 76.8392 201.994 76.9432 202.042 77.0152C202.098 77.0792 202.166 77.1112 202.246 77.1112C202.31 77.1112 202.382 77.1032 202.462 77.0872L202.582 77.7592C202.43 77.8152 202.254 77.8432 202.054 77.8432ZM206.326 77.8432C205.846 77.8432 205.402 77.7232 204.994 77.4832C204.586 77.2352 204.258 76.8832 204.01 76.4272C203.77 75.9632 203.65 75.4192 203.65 74.7952C203.65 74.1712 203.77 73.6272 204.01 73.1632C204.258 72.6992 204.586 72.3472 204.994 72.1072C205.402 71.8592 205.846 71.7352 206.326 71.7352C206.806 71.7352 207.25 71.8592 207.658 72.1072C208.066 72.3472 208.39 72.6992 208.63 73.1632C208.878 73.6272 209.002 74.1712 209.002 74.7952C209.002 75.4192 208.878 75.9632 208.63 76.4272C208.39 76.8832 208.066 77.2352 207.658 77.4832C207.25 77.7232 206.806 77.8432 206.326 77.8432ZM206.326 77.1112C206.67 77.1112 206.974 77.0152 207.238 76.8232C207.51 76.6312 207.722 76.3592 207.874 76.0072C208.026 75.6552 208.102 75.2512 208.102 74.7952C208.102 74.3392 208.026 73.9352 207.874 73.5832C207.722 73.2312 207.51 72.9592 207.238 72.7672C206.974 72.5672 206.67 72.4672 206.326 72.4672C205.982 72.4672 205.674 72.5672 205.402 72.7672C205.138 72.9592 204.93 73.2312 204.778 73.5832C204.634 73.9352 204.562 74.3392 204.562 74.7952C204.562 75.4912 204.726 76.0512 205.054 76.4752C205.382 76.8992 205.806 77.1112 206.326 77.1112ZM209.819 71.8792H210.719L211.631 75.3472L211.739 75.8632C211.851 76.3432 211.931 76.7072 211.979 76.9552H212.027C212.179 76.3312 212.315 75.7952 212.435 75.3472L213.371 71.8792H214.247L215.195 75.3472L215.603 76.9552H215.651L216.035 75.3472L216.923 71.8792H217.763L216.179 77.6992H215.099L214.211 74.4472L213.983 73.4992C213.967 73.4352 213.911 73.1952 213.815 72.7792H213.767C213.591 73.5712 213.451 74.1352 213.347 74.4712L212.483 77.6992H211.463L209.819 71.8792ZM222.817 74.6032L220.453 69.8152H221.401L222.457 72.1072L222.661 72.5512C222.981 73.2472 223.177 73.6672 223.249 73.8112H223.297L223.501 73.3912C223.837 72.6872 224.037 72.2592 224.101 72.1072L225.157 69.8152H226.081L223.705 74.6032V77.6992H222.817V74.6032ZM231.058 74.4592C231.058 74.6672 231.046 74.8432 231.022 74.9872H227.002C227.042 75.6672 227.25 76.1952 227.626 76.5712C228.01 76.9472 228.478 77.1352 229.03 77.1352C229.542 77.1352 230.034 76.9792 230.506 76.6672L230.83 77.2432C230.542 77.4272 230.246 77.5752 229.942 77.6872C229.638 77.7912 229.298 77.8432 228.922 77.8432C228.41 77.8432 227.942 77.7232 227.518 77.4832C227.102 77.2352 226.77 76.8792 226.522 76.4152C226.282 75.9512 226.162 75.4112 226.162 74.7952C226.162 74.1872 226.282 73.6512 226.522 73.1872C226.77 72.7232 227.094 72.3672 227.494 72.1192C227.894 71.8632 228.318 71.7352 228.766 71.7352C229.486 71.7352 230.046 71.9792 230.446 72.4672C230.854 72.9472 231.058 73.6112 231.058 74.4592ZM230.278 74.3512C230.278 73.7352 230.146 73.2632 229.882 72.9352C229.618 72.6072 229.25 72.4432 228.778 72.4432C228.346 72.4432 227.962 72.6072 227.626 72.9352C227.29 73.2632 227.09 73.7352 227.026 74.3512H230.278ZM233.472 77.8432C233.144 77.8432 232.904 77.7432 232.752 77.5432C232.6 77.3352 232.524 77.0312 232.524 76.6312V69.1312H233.388V76.7032C233.388 76.8392 233.412 76.9432 233.46 77.0152C233.516 77.0792 233.584 77.1112 233.664 77.1112C233.728 77.1112 233.8 77.1032 233.88 77.0872L234 77.7592C233.848 77.8152 233.672 77.8432 233.472 77.8432ZM236.472 77.8432C236.144 77.8432 235.904 77.7432 235.752 77.5432C235.6 77.3352 235.524 77.0312 235.524 76.6312V69.1312H236.388V76.7032C236.388 76.8392 236.412 76.9432 236.46 77.0152C236.516 77.0792 236.584 77.1112 236.664 77.1112C236.728 77.1112 236.8 77.1032 236.88 77.0872L237 77.7592C236.848 77.8152 236.672 77.8432 236.472 77.8432ZM240.744 77.8432C240.264 77.8432 239.82 77.7232 239.412 77.4832C239.004 77.2352 238.676 76.8832 238.428 76.4272C238.188 75.9632 238.068 75.4192 238.068 74.7952C238.068 74.1712 238.188 73.6272 238.428 73.1632C238.676 72.6992 239.004 72.3472 239.412 72.1072C239.82 71.8592 240.264 71.7352 240.744 71.7352C241.224 71.7352 241.668 71.8592 242.076 72.1072C242.484 72.3472 242.808 72.6992 243.048 73.1632C243.296 73.6272 243.42 74.1712 243.42 74.7952C243.42 75.4192 243.296 75.9632 243.048 76.4272C242.808 76.8832 242.484 77.2352 242.076 77.4832C241.668 77.7232 241.224 77.8432 240.744 77.8432ZM240.744 77.1112C241.088 77.1112 241.392 77.0152 241.656 76.8232C241.928 76.6312 242.14 76.3592 242.292 76.0072C242.444 75.6552 242.52 75.2512 242.52 74.7952C242.52 74.3392 242.444 73.9352 242.292 73.5832C242.14 73.2312 241.928 72.9592 241.656 72.7672C241.392 72.5672 241.088 72.4672 240.744 72.4672C240.4 72.4672 240.092 72.5672 239.82 72.7672C239.556 72.9592 239.348 73.2312 239.196 73.5832C239.052 73.9352 238.98 74.3392 238.98 74.7952C238.98 75.4912 239.144 76.0512 239.472 76.4752C239.8 76.8992 240.224 77.1112 240.744 77.1112ZM244.237 71.8792H245.137L246.049 75.3472L246.157 75.8632C246.269 76.3432 246.349 76.7072 246.397 76.9552H246.445C246.597 76.3312 246.733 75.7952 246.853 75.3472L247.789 71.8792H248.665L249.613 75.3472L250.021 76.9552H250.069L250.453 75.3472L251.341 71.8792H252.181L250.597 77.6992H249.517L248.629 74.4472L248.401 73.4992C248.385 73.4352 248.329 73.1952 248.233 72.7792H248.185C248.009 73.5712 247.869 74.1352 247.765 74.4712L246.901 77.6992H245.881L244.237 71.8792Z" fill="black"/>
<path d="M304.565 0L342.293 65.3469H266.837L304.565 0Z" fill="#E17055"/>
<path d="M280.561 70.5712H278.137V69.8152H283.861V70.5712H281.449V77.6992H280.561V70.5712ZM288.874 74.4592C288.874 74.6672 288.862 74.8432 288.838 74.9872H284.818C284.858 75.6672 285.066 76.1952 285.442 76.5712C285.826 76.9472 286.294 77.1352 286.846 77.1352C287.358 77.1352 287.85 76.9792 288.322 76.6672L288.646 77.2432C288.358 77.4272 288.062 77.5752 287.758 77.6872C287.454 77.7912 287.114 77.8432 286.738 77.8432C286.226 77.8432 285.758 77.7232 285.334 77.4832C284.918 77.2352 284.586 76.8792 284.338 76.4152C284.098 75.9512 283.978 75.4112 283.978 74.7952C283.978 74.1872 284.098 73.6512 284.338 73.1872C284.586 72.7232 284.91 72.3672 285.31 72.1192C285.71 71.8632 286.134 71.7352 286.582 71.7352C287.302 71.7352 287.862 71.9792 288.262 72.4672C288.67 72.9472 288.874 73.6112 288.874 74.4592ZM288.094 74.3512C288.094 73.7352 287.962 73.2632 287.698 72.9352C287.434 72.6072 287.066 72.4432 286.594 72.4432C286.162 72.4432 285.778 72.6072 285.442 72.9352C285.106 73.2632 284.906 73.7352 284.842 74.3512H288.094ZM290.341 71.8792H291.061L291.133 72.9472H291.169C291.369 72.5712 291.613 72.2752 291.901 72.0592C292.189 71.8432 292.497 71.7352 292.825 71.7352C293.057 71.7352 293.257 71.7752 293.425 71.8552L293.257 72.6232C293.049 72.5592 292.865 72.5272 292.705 72.5272C292.433 72.5272 292.161 72.6392 291.889 72.8632C291.625 73.0872 291.397 73.4352 291.205 73.9072V77.6992H290.341V71.8792ZM294.419 71.8792H295.139L295.211 72.9472H295.247C295.447 72.5712 295.691 72.2752 295.979 72.0592C296.267 71.8432 296.575 71.7352 296.903 71.7352C297.135 71.7352 297.335 71.7752 297.503 71.8552L297.335 72.6232C297.127 72.5592 296.943 72.5272 296.783 72.5272C296.511 72.5272 296.239 72.6392 295.967 72.8632C295.703 73.0872 295.475 73.4352 295.283 73.9072V77.6992H294.419V71.8792ZM299.536 77.8432C299.04 77.8432 298.632 77.6992 298.312 77.4112C297.992 77.1232 297.832 76.7192 297.832 76.1992C297.832 75.5672 298.12 75.0832 298.696 74.7472C299.272 74.4032 300.192 74.1632 301.456 74.0272C301.456 73.5712 301.36 73.1992 301.168 72.9112C300.984 72.6152 300.664 72.4672 300.208 72.4672C299.656 72.4672 299.068 72.6792 298.444 73.1032L298.096 72.5032C298.864 71.9912 299.616 71.7352 300.352 71.7352C301.024 71.7352 301.52 71.9472 301.84 72.3712C302.16 72.7872 302.32 73.3632 302.32 74.0992V77.6992H301.6L301.528 76.9912H301.492C300.804 77.5592 300.152 77.8432 299.536 77.8432ZM299.764 77.1352C300.044 77.1352 300.316 77.0712 300.58 76.9432C300.852 76.8072 301.144 76.5992 301.456 76.3192V74.6152C300.456 74.7352 299.744 74.9192 299.32 75.1672C298.904 75.4152 298.696 75.7432 298.696 76.1512C298.696 76.4792 298.796 76.7272 298.996 76.8952C299.196 77.0552 299.452 77.1352 299.764 77.1352ZM309.642 77.8432C308.986 77.8432 308.398 77.6792 307.878 77.3512C307.366 77.0232 306.962 76.5512 306.666 75.9352C306.378 75.3192 306.234 74.5952 306.234 73.7632C306.234 72.9392 306.382 72.2192 306.678 71.6032C306.974 70.9792 307.386 70.5032 307.914 70.1752C308.442 69.8392 309.038 69.6712 309.702 69.6712C310.142 69.6712 310.546 69.7632 310.914 69.9472C311.282 70.1312 311.59 70.3592 311.838 70.6312L311.346 71.2192C310.89 70.7072 310.346 70.4512 309.714 70.4512C309.202 70.4512 308.754 70.5872 308.37 70.8592C307.986 71.1232 307.686 71.5032 307.47 71.9992C307.262 72.4872 307.158 73.0672 307.158 73.7392C307.158 74.4112 307.258 74.9992 307.458 75.5032C307.666 75.9992 307.958 76.3832 308.334 76.6552C308.718 76.9272 309.166 77.0632 309.678 77.0632C310.046 77.0632 310.378 76.9872 310.674 76.8352C310.978 76.6832 311.27 76.4552 311.55 76.1512L312.042 76.7032C311.722 77.0792 311.366 77.3632 310.974 77.5552C310.582 77.7472 310.138 77.8432 309.642 77.8432ZM315.682 77.8432C315.202 77.8432 314.758 77.7232 314.35 77.4832C313.942 77.2352 313.614 76.8832 313.366 76.4272C313.126 75.9632 313.006 75.4192 313.006 74.7952C313.006 74.1712 313.126 73.6272 313.366 73.1632C313.614 72.6992 313.942 72.3472 314.35 72.1072C314.758 71.8592 315.202 71.7352 315.682 71.7352C316.162 71.7352 316.606 71.8592 317.014 72.1072C317.422 72.3472 317.746 72.6992 317.986 73.1632C318.234 73.6272 318.358 74.1712 318.358 74.7952C318.358 75.4192 318.234 75.9632 317.986 76.4272C317.746 76.8832 317.422 77.2352 317.014 77.4832C316.606 77.7232 316.162 77.8432 315.682 77.8432ZM315.682 77.1112C316.026 77.1112 316.33 77.0152 316.594 76.8232C316.866 76.6312 317.078 76.3592 317.23 76.0072C317.382 75.6552 317.458 75.2512 317.458 74.7952C317.458 74.3392 317.382 73.9352 317.23 73.5832C317.078 73.2312 316.866 72.9592 316.594 72.7672C316.33 72.5672 316.026 72.4672 315.682 72.4672C315.338 72.4672 315.03 72.5672 314.758 72.7672C314.494 72.9592 314.286 73.2312 314.134 73.5832C313.99 73.9352 313.918 74.3392 313.918 74.7952C313.918 75.4912 314.082 76.0512 314.41 76.4752C314.738 76.8992 315.162 77.1112 315.682 77.1112ZM321.519 77.8432C320.943 77.8432 320.531 77.6792 320.283 77.3512C320.035 77.0232 319.911 76.5552 319.911 75.9472V72.5992H319.035V71.9392L319.947 71.8792L320.055 70.2352H320.787V71.8792H322.383V72.5992H320.787V75.9712C320.787 76.3552 320.855 76.6432 320.991 76.8352C321.135 77.0272 321.375 77.1232 321.711 77.1232C321.879 77.1232 322.103 77.0712 322.383 76.9672L322.563 77.6272C322.131 77.7712 321.783 77.8432 321.519 77.8432ZM325.257 77.8432C324.681 77.8432 324.269 77.6792 324.021 77.3512C323.773 77.0232 323.649 76.5552 323.649 75.9472V72.5992H322.773V71.9392L323.685 71.8792L323.793 70.2352H324.525V71.8792H326.121V72.5992H324.525V75.9712C324.525 76.3552 324.593 76.6432 324.729 76.8352C324.873 77.0272 325.113 77.1232 325.449 77.1232C325.617 77.1232 325.841 77.0712 326.121 76.9672L326.301 77.6272C325.869 77.7712 325.521 77.8432 325.257 77.8432ZM328.528 77.8432C328.032 77.8432 327.624 77.6992 327.304 77.4112C326.984 77.1232 326.824 76.7192 326.824 76.1992C326.824 75.5672 327.112 75.0832 327.688 74.7472C328.264 74.4032 329.184 74.1632 330.448 74.0272C330.448 73.5712 330.352 73.1992 330.16 72.9112C329.976 72.6152 329.656 72.4672 329.2 72.4672C328.648 72.4672 328.06 72.6792 327.436 73.1032L327.088 72.5032C327.856 71.9912 328.608 71.7352 329.344 71.7352C330.016 71.7352 330.512 71.9472 330.832 72.3712C331.152 72.7872 331.312 73.3632 331.312 74.0992V77.6992H330.592L330.52 76.9912H330.484C329.796 77.5592 329.144 77.8432 328.528 77.8432ZM328.756 77.1352C329.036 77.1352 329.308 77.0712 329.572 76.9432C329.844 76.8072 330.136 76.5992 330.448 76.3192V74.6152C329.448 74.7352 328.736 74.9192 328.312 75.1672C327.896 75.4152 327.688 75.7432 327.688 76.1512C327.688 76.4792 327.788 76.7272 327.988 76.8952C328.188 77.0552 328.444 77.1352 328.756 77.1352Z" fill="black"/>
<path d="M392.565 0L430.293 65.3469H354.837L392.565 0Z" fill="#D63031"/>
<path d="M373.538 77.8432C372.882 77.8432 372.294 77.6792 371.774 77.3512C371.262 77.0232 370.858 76.5512 370.562 75.9352C370.274 75.3192 370.13 74.5952 370.13 73.7632C370.13 72.9392 370.278 72.2192 370.574 71.6032C370.87 70.9792 371.282 70.5032 371.81 70.1752C372.338 69.8392 372.934 69.6712 373.598 69.6712C374.038 69.6712 374.442 69.7632 374.81 69.9472C375.178 70.1312 375.486 70.3592 375.734 70.6312L375.242 71.2192C374.786 70.7072 374.242 70.4512 373.61 70.4512C373.098 70.4512 372.65 70.5872 372.266 70.8592C371.882 71.1232 371.582 71.5032 371.366 71.9992C371.158 72.4872 371.054 73.0672 371.054 73.7392C371.054 74.4112 371.154 74.9992 371.354 75.5032C371.562 75.9992 371.854 76.3832 372.23 76.6552C372.614 76.9272 373.062 77.0632 373.574 77.0632C373.942 77.0632 374.274 76.9872 374.57 76.8352C374.874 76.6832 375.166 76.4552 375.446 76.1512L375.938 76.7032C375.618 77.0792 375.262 77.3632 374.87 77.5552C374.478 77.7472 374.034 77.8432 373.538 77.8432ZM377.358 69.1312H378.222V71.5072L378.198 72.7312C378.518 72.4112 378.83 72.1672 379.134 71.9992C379.438 71.8232 379.774 71.7352 380.142 71.7352C380.75 71.7352 381.198 71.9272 381.486 72.3112C381.774 72.6872 381.918 73.2512 381.918 74.0032V77.6992H381.042V74.1112C381.042 73.5512 380.95 73.1432 380.766 72.8872C380.59 72.6312 380.298 72.5032 379.89 72.5032C379.602 72.5032 379.334 72.5792 379.086 72.7312C378.838 72.8752 378.55 73.1112 378.222 73.4392V77.6992H377.358V69.1312ZM383.839 71.8792H384.703V77.6992H383.839V71.8792ZM384.283 70.6312C384.107 70.6312 383.963 70.5752 383.851 70.4632C383.739 70.3512 383.683 70.2032 383.683 70.0192C383.683 69.8432 383.739 69.7032 383.851 69.5992C383.963 69.4872 384.107 69.4312 384.283 69.4312C384.459 69.4312 384.603 69.4872 384.715 69.5992C384.827 69.7032 384.883 69.8432 384.883 70.0192C384.883 70.2032 384.827 70.3512 384.715 70.4632C384.603 70.5752 384.459 70.6312 384.283 70.6312ZM392.267 77.8432C391.579 77.8432 390.967 77.6792 390.431 77.3512C389.903 77.0232 389.491 76.5512 389.195 75.9352C388.899 75.3192 388.751 74.5952 388.751 73.7632C388.751 72.9312 388.903 72.2072 389.207 71.5912C389.511 70.9752 389.935 70.5032 390.479 70.1752C391.023 69.8392 391.643 69.6712 392.339 69.6712C393.211 69.6712 393.959 69.9912 394.583 70.6312L394.091 71.2192C393.611 70.7072 393.035 70.4512 392.363 70.4512C391.819 70.4512 391.343 70.5872 390.935 70.8592C390.535 71.1232 390.223 71.5032 389.999 71.9992C389.783 72.4872 389.675 73.0672 389.675 73.7392C389.675 74.7632 389.911 75.5752 390.383 76.1752C390.855 76.7672 391.511 77.0632 392.351 77.0632C392.647 77.0632 392.931 77.0192 393.203 76.9312C393.475 76.8352 393.695 76.7112 393.863 76.5592V74.4112H392.135V73.6672H394.679V76.9312C394.415 77.2112 394.075 77.4352 393.659 77.6032C393.243 77.7632 392.779 77.8432 392.267 77.8432ZM398.738 77.8432C398.258 77.8432 397.814 77.7232 397.406 77.4832C396.998 77.2352 396.67 76.8832 396.422 76.4272C396.182 75.9632 396.062 75.4192 396.062 74.7952C396.062 74.1712 396.182 73.6272 396.422 73.1632C396.67 72.6992 396.998 72.3472 397.406 72.1072C397.814 71.8592 398.258 71.7352 398.738 71.7352C399.218 71.7352 399.662 71.8592 400.07 72.1072C400.478 72.3472 400.802 72.6992 401.042 73.1632C401.29 73.6272 401.414 74.1712 401.414 74.7952C401.414 75.4192 401.29 75.9632 401.042 76.4272C400.802 76.8832 400.478 77.2352 400.07 77.4832C399.662 77.7232 399.218 77.8432 398.738 77.8432ZM398.738 77.1112C399.082 77.1112 399.386 77.0152 399.65 76.8232C399.922 76.6312 400.134 76.3592 400.286 76.0072C400.438 75.6552 400.514 75.2512 400.514 74.7952C400.514 74.3392 400.438 73.9352 400.286 73.5832C400.134 73.2312 399.922 72.9592 399.65 72.7672C399.386 72.5672 399.082 72.4672 398.738 72.4672C398.394 72.4672 398.086 72.5672 397.814 72.7672C397.55 72.9592 397.342 73.2312 397.19 73.5832C397.046 73.9352 396.974 74.3392 396.974 74.7952C396.974 75.4912 397.138 76.0512 397.466 76.4752C397.794 76.8992 398.218 77.1112 398.738 77.1112ZM402.999 71.8792H403.719L403.791 72.7432H403.827C404.147 72.4232 404.459 72.1752 404.763 71.9992C405.075 71.8232 405.415 71.7352 405.783 71.7352C406.391 71.7352 406.839 71.9272 407.127 72.3112C407.415 72.6872 407.559 73.2512 407.559 74.0032V77.6992H406.683V74.1112C406.683 73.5512 406.591 73.1432 406.407 72.8872C406.231 72.6312 405.939 72.5032 405.531 72.5032C405.243 72.5032 404.975 72.5792 404.727 72.7312C404.479 72.8752 404.191 73.1112 403.863 73.4392V77.6992H402.999V71.8792ZM411.458 80.4112C410.73 80.4112 410.146 80.2712 409.706 79.9912C409.274 79.7112 409.058 79.3272 409.058 78.8392C409.058 78.5912 409.13 78.3512 409.274 78.1192C409.426 77.8872 409.638 77.6792 409.91 77.4952V77.4472C409.758 77.3512 409.634 77.2232 409.538 77.0632C409.442 76.9032 409.394 76.7152 409.394 76.4992C409.394 76.2752 409.454 76.0712 409.574 75.8872C409.702 75.6952 409.854 75.5392 410.03 75.4192V75.3712C409.822 75.2032 409.646 74.9832 409.502 74.7112C409.358 74.4392 409.286 74.1392 409.286 73.8112C409.286 73.4032 409.382 73.0432 409.574 72.7312C409.766 72.4112 410.026 72.1672 410.354 71.9992C410.682 71.8232 411.042 71.7352 411.434 71.7352C411.698 71.7352 411.966 71.7832 412.238 71.8792H414.254V72.5632H413.018C413.17 72.7072 413.294 72.8912 413.39 73.1152C413.486 73.3392 413.534 73.5752 413.534 73.8232C413.534 74.2232 413.442 74.5792 413.258 74.8912C413.074 75.1952 412.822 75.4312 412.502 75.5992C412.182 75.7672 411.826 75.8512 411.434 75.8512C411.114 75.8512 410.818 75.7832 410.546 75.6472C410.418 75.7512 410.318 75.8592 410.246 75.9712C410.182 76.0752 410.15 76.2072 410.15 76.3672C410.15 76.5752 410.226 76.7392 410.378 76.8592C410.538 76.9712 410.806 77.0272 411.182 77.0272H412.346C413.026 77.0272 413.53 77.1392 413.858 77.3632C414.186 77.5872 414.35 77.9352 414.35 78.4072C414.35 78.7592 414.23 79.0872 413.99 79.3912C413.75 79.7032 413.41 79.9512 412.97 80.1352C412.53 80.3192 412.026 80.4112 411.458 80.4112ZM411.434 75.2512C411.794 75.2512 412.098 75.1192 412.346 74.8552C412.602 74.5832 412.73 74.2352 412.73 73.8112C412.73 73.3792 412.606 73.0352 412.358 72.7792C412.11 72.5152 411.802 72.3832 411.434 72.3832C411.066 72.3832 410.754 72.5152 410.498 72.7792C410.25 73.0352 410.126 73.3792 410.126 73.8112C410.126 74.2352 410.25 74.5832 410.498 74.8552C410.754 75.1192 411.066 75.2512 411.434 75.2512ZM411.578 79.7872C411.946 79.7872 412.274 79.7272 412.562 79.6072C412.858 79.4952 413.086 79.3392 413.246 79.1392C413.406 78.9472 413.486 78.7432 413.486 78.5272C413.486 78.2552 413.386 78.0592 413.186 77.9392C412.986 77.8272 412.682 77.7712 412.274 77.7712H411.206C410.958 77.7712 410.71 77.7392 410.462 77.6752C410.038 77.9712 409.826 78.3192 409.826 78.7192C409.826 79.0472 409.982 79.3072 410.294 79.4992C410.606 79.6912 411.034 79.7872 411.578 79.7872Z" fill="black"/>
</svg>
