<svg width="101" height="161" viewBox="0 0 101 161" fill="none" xmlns="http://www.w3.org/2000/svg">
<g clip-path="url(#clip0)">
<path d="M80.9993 75.2375C79.6657 70.4715 76.3495 64.6229 70.959 61.9062C71.295 61.7537 71.625 61.5828 71.9425 61.377C74.6415 59.6312 75.5222 55.7038 73.8274 52.973C72.7729 51.2738 70.9116 50.0594 68.1357 49.2609C65.7113 48.563 63.1344 48.2648 60.6027 48.3787C61.1496 47.8281 61.6536 47.2346 62.1094 46.6063C64.0647 47.6239 66.3951 47.86 68.5139 47.2487C69.5359 46.9541 70.5571 46.2733 70.9309 45.3379C72.8335 45.7553 74.922 45.3097 76.465 44.1101C77.874 43.0141 78.7939 41.3334 78.9878 39.4981L78.9952 39.433C79.0707 38.7166 79.1654 37.8249 78.7614 37.0145C78.7266 36.9449 78.3662 36.4195 77.9014 35.9969C78.5808 35.1377 79.2557 34.1298 79.5229 32.9538C79.7989 31.7357 79.4222 30.2319 78.5852 29.2114C78.3373 28.9087 78.0568 28.6608 77.7534 28.4728C79.1188 26.989 79.7338 24.9894 79.3482 23.0704C78.9242 20.9628 77.3353 19.1977 75.329 18.4939C76.1852 16.6231 76.26 14.5606 75.4911 12.9191C74.6482 11.1215 72.7255 9.9974 70.8983 10.0596C71.1277 8.27012 70.2426 6.3482 68.6175 5.48308C66.9168 4.57725 64.7085 4.9902 63.3616 6.31786C62.6711 5.55782 61.6809 5.03831 60.5509 4.87105C59.7117 4.74672 58.8909 4.83035 58.1627 5.09677C58.0717 3.89862 57.4271 2.74118 56.3711 2.11288C55.0871 1.34988 53.4057 1.49715 52.2216 2.35487C51.295 0.901411 49.5855 -0.0606569 47.8538 0.00298749C46.1976 0.0636719 44.6301 1.05904 43.782 2.47328C42.4307 1.19595 40.3741 0.697897 38.595 1.33878C36.7656 1.99817 35.4801 3.77282 35.3084 5.67771C33.8994 5.38539 32.329 5.82794 31.3491 6.89584C30.3693 7.96299 30.0615 9.56373 30.4722 10.941C28.7849 11.2266 27.2308 12.3559 26.5196 13.9197C25.7921 15.5152 25.9815 17.4756 26.9236 18.9469C24.0811 20.1324 22.154 21.7716 21.1875 23.8282C20.4474 25.4038 20.4385 27.3931 21.1645 29.0197C21.5057 29.7849 21.9882 30.4214 22.5751 30.898C21.653 31.6491 20.9085 32.7155 20.8974 32.7333C20.1566 33.9647 19.9405 35.4937 20.3209 36.8221C20.7886 38.4569 22.1555 39.7949 23.7717 40.3114C23.3396 41.3889 23.3544 42.6441 23.8598 43.6987C24.5288 45.0944 25.7825 45.8907 27.3543 45.9758C27.3484 46.0061 27.3425 46.0365 27.3381 46.0668C27.1982 46.9171 27.4579 47.8333 28.0159 48.4579C28.7893 49.3245 30.0267 49.7841 31.5956 49.7878H31.6178C34.1732 49.7878 36.6968 48.7266 38.5018 46.9238C39.0272 47.6128 39.6126 48.2566 40.249 48.845C37.5648 49.1854 35.0294 50.2866 32.7486 51.2805C30.9599 52.0598 28.9321 52.9434 27.5149 54.6107C26.3886 55.9369 25.6633 58.14 26.7327 59.8414C27.4158 60.9286 28.5495 61.4414 29.741 61.7397C25.9956 63.37 23.2552 67.0799 21.9046 70.2184C20.0256 74.584 19.7377 79.5283 19.4839 83.8909L19.0961 90.5573C19.0213 91.8302 18.92 93.5738 19.8761 94.9436C21.2156 96.8633 23.7851 97.0231 26.1222 96.9262C42.5114 96.2483 59.1307 96.2646 75.5192 96.975C75.7826 96.9869 76.0935 97.0002 76.4324 97.0002C77.726 97.0002 79.4282 96.8033 80.4709 95.546C81.171 94.7023 81.3575 93.6626 81.5018 92.5821C82.1545 87.6748 82.6866 81.2674 80.9993 75.2375ZM56.8965 55.3937C56.6819 55.7556 56.448 56.1056 56.2001 56.4475C56.0787 56.5349 55.9848 56.6585 55.9315 56.8065C55.0071 58.0083 53.9141 59.1036 52.8469 60.1715C52.3267 60.6917 51.7376 61.2816 51.0686 61.4718C50.4381 61.6509 49.6551 61.5088 48.6738 61.0373C44.8292 59.1931 42.37 54.892 42.6638 50.6514C42.7645 50.7114 42.8651 50.7699 42.9665 50.8276C45.1719 52.0657 47.688 52.6896 50.2035 52.6888C52.3955 52.6888 54.5883 52.2152 56.5746 51.2613C57.1267 50.9963 57.6595 50.6944 58.1709 50.3613C58.3426 51.9362 57.9008 53.6982 56.8965 55.3937ZM31.6178 48.2603C31.6119 48.2603 31.6052 48.2603 31.5993 48.2603C30.8163 48.2589 29.7566 48.1153 29.1556 47.4411C28.9048 47.1606 28.7804 46.7084 28.8448 46.3147C28.8751 46.129 28.9603 45.8796 29.1919 45.7479C29.5197 45.5614 29.6626 45.1625 29.5271 44.8095C29.391 44.4565 29.0165 44.2574 28.6487 44.3388C27.8901 44.5075 26.0415 44.7177 25.2378 43.0393C24.8152 42.1579 24.9462 41.0086 25.5568 40.2456C25.7336 40.0236 25.7736 39.7209 25.6589 39.4611C25.5442 39.2006 25.2948 39.026 25.0113 39.0067C23.5482 38.9076 22.1932 37.8123 21.7891 36.4025C21.5235 35.4737 21.6796 34.3969 22.2065 33.5214C22.5122 33.0123 23.6955 31.823 24.1336 31.7017C24.5088 31.7705 24.8885 31.5462 25.0025 31.1703C25.1238 30.7662 24.8944 30.34 24.4903 30.2186C24.4896 30.2186 24.4889 30.2179 24.4881 30.2179C23.6563 29.9677 22.9717 29.3209 22.5595 28.3981C22.0178 27.1836 22.0215 25.6458 22.5699 24.4787C23.4654 22.5724 25.4383 21.0664 28.4326 20.0022C28.682 19.9141 28.8685 19.7024 28.924 19.4442C28.9795 19.1852 28.8974 18.9158 28.7072 18.7322C27.6185 17.6851 27.2833 15.9274 27.9094 14.5532C28.5355 13.1789 30.0792 12.279 31.586 12.4114C31.8812 12.4381 32.1691 12.2886 32.3164 12.0296C32.4644 11.7706 32.4481 11.4494 32.275 11.2066C31.5963 10.2579 31.6859 8.78815 32.474 7.92895C33.2622 7.06975 34.7201 6.85513 35.7229 7.45014C35.9789 7.60259 36.3008 7.59149 36.5465 7.42202C36.7922 7.2518 36.9166 6.9543 36.864 6.6605C36.5821 5.06717 37.5915 3.32508 39.113 2.77596C40.6353 2.22759 42.5239 2.92546 43.3232 4.3323C43.4786 4.60463 43.7835 4.75561 44.0943 4.7112C44.4052 4.6668 44.6568 4.43812 44.73 4.13322C45.0734 2.7027 46.441 1.58374 47.91 1.52972C49.3835 1.47569 50.8259 2.49178 51.2728 3.8927C51.3617 4.1717 51.6022 4.37522 51.8915 4.41666C52.1809 4.4581 52.4695 4.33082 52.6331 4.08808C53.2436 3.18521 54.6534 2.86995 55.5911 3.42647C56.5287 3.98373 56.9261 5.37281 56.4244 6.3408C56.2482 6.68196 56.3518 7.10009 56.6671 7.31915C56.9824 7.5382 57.4108 7.48936 57.6684 7.20518C58.2774 6.53321 59.2713 6.22535 60.3274 6.38224C61.3834 6.53839 62.2456 7.12155 62.6334 7.94079C62.7555 8.19981 63.0123 8.36854 63.2987 8.37816C63.5873 8.38704 63.8515 8.23607 63.9907 7.9852C64.7174 6.679 66.5801 6.12914 67.8996 6.83145C69.2191 7.53376 69.803 9.38686 69.1244 10.7189C68.9786 11.0054 69.0282 11.3524 69.2472 11.587C69.467 11.8224 69.8097 11.8942 70.1057 11.7676C71.611 11.1238 73.4604 12.1872 74.1079 13.5682C74.7858 15.015 74.5712 16.9391 73.5477 18.5894C73.413 18.807 73.396 19.0771 73.5025 19.3095C73.6084 19.5419 73.8245 19.7054 74.0761 19.7461C75.8988 20.0377 77.4863 21.5622 77.8504 23.3724C78.2093 25.1529 77.396 27.043 75.7789 28.1864C75.5044 28.3803 75.3889 28.7318 75.4948 29.0508C75.6013 29.3698 75.9099 29.5836 76.24 29.5733C76.6715 29.5629 77.0644 29.7664 77.4041 30.1809C77.9318 30.824 78.2019 31.8711 78.0331 32.6164C77.7653 33.7975 76.8846 34.8469 76.1083 35.7727C75.8374 36.0961 75.8796 36.5779 76.2023 36.8487C76.3636 36.9842 76.5649 37.0411 76.7588 37.0249C76.9712 37.1973 77.299 37.5629 77.4063 37.7212C77.5973 38.1298 77.5381 38.6848 77.4759 39.2724L77.4692 39.3375C77.3183 40.7621 76.6108 42.0624 75.5273 42.9053C74.1486 43.9777 72.203 44.2663 70.5719 43.6417C70.3166 43.544 70.0287 43.5899 69.8171 43.7616C69.6054 43.934 69.5011 44.2056 69.544 44.475C69.6291 45.0063 68.8713 45.5569 68.0905 45.7819C66.3929 46.2711 64.5316 46.1001 62.9487 45.3201C63.7324 43.9725 64.3081 42.5042 64.6308 40.973C66.4025 40.7954 68.0136 39.9792 69.0267 38.7233C70.3396 37.0966 70.5453 34.8025 69.5285 33.144C68.9712 32.2352 68.0239 31.5662 66.9301 31.3102C66.6149 31.2362 66.3011 31.2006 65.9932 31.2006C67.2025 26.9735 66.2737 22.1135 63.4941 18.5095C60.6079 14.7693 55.7613 12.4322 50.8458 12.4122C50.8229 12.4114 50.7992 12.4114 50.7763 12.4114C46.0688 12.4114 41.3739 14.4066 37.8846 17.893C33.9549 21.8183 32.0633 27.265 32.8818 32.216C31.7614 32.777 30.8518 33.7035 30.3893 34.8202C29.6566 36.5904 30.1332 38.7455 31.5216 39.9458C32.6753 40.9434 34.3353 41.1684 35.6785 40.6245C36.0107 42.3999 36.6797 44.102 37.6204 45.6383C36.0892 47.2842 33.8683 48.2603 31.6178 48.2603ZM34.2265 30.2578C34.1147 26.2719 35.8309 22.1024 38.9643 18.972C42.1687 15.7705 46.4706 13.9382 50.7763 13.9382H50.8399C55.2943 13.9567 59.6798 16.0658 62.2841 19.4419C64.4117 22.1994 65.3294 25.7731 64.8765 29.1078C64.2304 26.4495 62.8117 23.9681 60.8092 22.1158C56.1986 17.8508 49.103 17.6296 44.1165 19.3013C42.3752 19.8852 40.7885 20.7548 39.3994 21.8863C36.8255 23.9837 34.9791 27.0105 34.2265 30.2578ZM37.0276 39.2842C36.9987 38.9949 36.8085 38.747 36.5362 38.6456C36.4488 38.613 36.3578 38.5967 36.2683 38.5967C36.0773 38.5967 35.8894 38.6685 35.7458 38.8032C34.9258 39.5721 33.4191 39.5662 32.5206 38.7899C31.6304 38.0195 31.321 36.5638 31.8013 35.4041C32.275 34.2585 33.4383 33.3934 34.7645 33.201C35.1175 33.1499 35.3876 32.8606 35.4165 32.5054C35.7021 28.8887 37.5523 25.3624 40.3645 23.0712C41.6107 22.0558 43.0361 21.2751 44.602 20.7504C50.9295 18.6279 56.7811 20.4699 59.7724 23.2369C62.273 25.5503 63.7568 28.9657 63.742 32.3721C63.7413 32.6504 63.8915 32.9072 64.135 33.0426C64.3777 33.1781 64.6759 33.1699 64.912 33.0227C65.3738 32.7326 65.9673 32.6526 66.5808 32.7962C67.2706 32.9583 67.8855 33.386 68.226 33.9418C68.9009 35.0415 68.7374 36.6489 67.8382 37.7634C66.9886 38.8165 65.5455 39.4589 63.9795 39.4811C63.6103 39.4863 63.2972 39.7557 63.2373 40.1205C62.5446 44.3062 59.7383 48.0479 55.9137 49.8848C52.0891 51.7216 47.4142 51.5728 43.7139 49.4955C40.0144 47.4182 37.4524 43.5055 37.0276 39.2842ZM26.0592 95.4002C24.0389 95.4838 22.0437 95.3802 21.1283 94.0696C20.5251 93.2045 20.5414 92.0078 20.6206 90.6461L21.0091 83.9797C21.2674 79.5364 21.5353 74.9415 23.3077 70.8223C25.7203 65.2157 29.8898 62.8268 32.7271 62.4849C32.8744 62.4671 33.0046 62.4072 33.1127 62.3206L36.5221 62.852C37.6559 63.0288 38.8059 63.2656 39.3225 64.0368C39.5289 64.3454 39.64 64.7554 39.7569 65.1898C39.8235 65.4362 39.8923 65.6908 39.9833 65.9469C40.2845 66.7994 40.7767 67.5195 41.2518 68.2159C41.5138 68.5999 41.7609 68.9633 41.9741 69.34C42.4522 70.1888 42.7741 71.3692 42.2457 72.1396C42.0066 72.4874 42.0955 72.9626 42.4433 73.2016C42.575 73.2919 42.7252 73.3355 42.8747 73.3355C43.1182 73.3355 43.3572 73.2201 43.5053 73.004C44.2912 71.8584 44.2164 70.2088 43.3047 68.5903C43.0597 68.1559 42.7822 67.7489 42.5136 67.3552C42.074 66.7106 41.6588 66.1023 41.4227 65.437C41.3517 65.2357 41.2932 65.0203 41.2318 64.7916C41.0942 64.2817 40.938 63.7038 40.5917 63.1872C39.731 61.9025 38.1613 61.5613 36.7575 61.343L31.398 60.5082C30.0874 60.304 28.6383 60.0042 28.0256 59.0296C27.395 58.0261 27.8768 56.5452 28.679 55.6009C29.8668 54.203 31.7221 53.3948 33.3584 52.6822C35.7495 51.6402 38.4352 50.4724 41.1608 50.291C40.9543 52.5393 41.4316 54.8135 42.4366 56.8257C40.9876 56.6548 39.5615 56.3239 38.1821 55.8355C37.6685 55.6535 37.0579 55.3907 36.8907 54.9697C36.7604 54.6411 36.8781 54.1519 37.2488 53.4747C37.4516 53.1047 37.3162 52.6407 36.9462 52.4379C36.5769 52.2352 36.1121 52.3713 35.9093 52.7406C35.5245 53.4429 35.0605 54.496 35.4705 55.5314C35.8642 56.5252 36.8544 56.9856 37.6729 57.2757C39.5201 57.9291 41.4449 58.3191 43.3987 58.4435C44.5739 60.1256 46.1517 61.5228 48.0137 62.4153C48.6124 62.7032 49.1711 62.8941 49.6965 62.9933C49.0608 73.5761 48.8336 84.3053 49.0216 94.9066C43.6636 94.9177 38.3079 95.0013 32.9691 95.1582L33.613 78.4219C33.6292 78.0001 33.2999 77.6456 32.8788 77.6293C32.4622 77.613 32.1025 77.9416 32.0862 78.3627L31.4387 95.2056C29.6433 95.2618 27.8494 95.3262 26.0592 95.4002ZM79.9869 92.3808C79.8692 93.2644 79.736 94.0393 79.2949 94.5714C78.5275 95.4964 76.9786 95.5097 75.5851 95.4498C73.3087 95.3506 71.0278 95.267 68.7448 95.1945L68.9002 77.2238C68.9039 76.8019 68.5649 76.4571 68.1431 76.4534C68.1409 76.4534 68.1386 76.4534 68.1364 76.4534C67.7176 76.4534 67.3764 76.7908 67.3727 77.2105L67.2173 95.1486C61.6728 94.9887 56.1106 94.9059 50.5491 94.9029C50.3611 84.3061 50.5883 73.5805 51.2255 63.0029C51.3135 62.9852 51.4001 62.9652 51.486 62.9408C52.5369 62.6418 53.308 61.8706 53.9274 61.2512C54.9812 60.1966 56.0573 59.114 57.0038 57.9121C57.5603 58.0083 58.1257 58.0557 58.6904 58.0557C60.7907 58.0557 62.8932 57.4029 64.6005 56.1767C65.5211 55.5158 66.0154 54.8128 66.1116 54.0283C66.1634 53.6094 65.8652 53.2283 65.4471 53.1765C65.0282 53.1254 64.6471 53.4229 64.596 53.8418C64.5538 54.1793 64.2645 54.5375 63.7094 54.9364C62.0732 56.1108 60.0092 56.6629 58.0044 56.4986C58.0724 56.3898 58.145 56.2832 58.2108 56.1722C59.4304 54.1149 59.9344 51.9369 59.6606 49.9743C62.347 49.7256 65.1237 49.9832 67.7131 50.7284C70.1087 51.4174 71.6842 52.415 72.5294 53.7774C73.7808 55.7948 73.1059 58.8053 71.1129 60.0945C70.4839 60.5015 69.7468 60.7657 68.9668 61.0462C67.8382 61.451 66.6711 61.8699 65.7438 62.7676C65.4789 63.0236 65.2554 63.2997 65.04 63.5661C64.7396 63.9361 64.4561 64.2862 64.1202 64.5015C63.6199 64.822 62.9457 64.8878 62.2315 64.9567C61.8637 64.9922 61.4834 65.0292 61.103 65.1025C58.2027 65.6597 55.9492 68.5141 56.081 71.4647C56.0995 71.8739 56.4377 72.1944 56.8432 72.1944C56.8551 72.1944 56.8662 72.1944 56.878 72.1936C57.2991 72.1751 57.6262 71.8177 57.607 71.3966C57.5093 69.2105 59.2425 67.0155 61.3916 66.6025C61.7017 66.5426 62.0303 66.5108 62.3788 66.4775C63.2018 66.3975 64.1342 66.3073 64.9453 65.7877C65.4878 65.4392 65.88 64.9552 66.2263 64.5282C66.4225 64.2862 66.6075 64.0575 66.8066 63.8651C67.4023 63.2886 68.2023 62.9519 69.0659 62.6351C69.1429 62.7269 69.2398 62.8031 69.3583 62.852C72.9557 64.3254 77.5173 68.4608 79.5288 75.6497C81.1406 81.4117 80.6204 87.6178 79.9869 92.3808Z" fill="black"/>
<path d="M44.396 83.0391C44.581 83.0391 44.7675 82.9718 44.914 82.8356C45.4661 82.325 46.2143 82.0253 46.9662 82.0134C47.388 82.0068 47.7247 81.6589 47.7181 81.2379C47.7114 80.816 47.3562 80.4763 46.9425 80.486C46.813 80.4882 46.6835 80.4978 46.5554 80.5111C46.9706 75.9221 47.1889 71.2693 47.1986 66.6684C47.1993 66.2473 46.8581 65.9039 46.4363 65.9032C46.4363 65.9032 46.4356 65.9032 46.4348 65.9032C46.0137 65.9032 45.6718 66.2444 45.6711 66.6655C45.6615 71.4188 45.4291 76.2292 44.9813 80.964C44.5795 81.1609 44.2043 81.4118 43.8772 81.7145C43.5671 82.0009 43.5486 82.4841 43.835 82.7934C43.9852 82.9563 44.1902 83.0391 44.396 83.0391Z" fill="black"/>
<path d="M55.4385 81.3259C55.2069 81.2001 54.9664 81.092 54.7199 80.9995L54.8754 66.5914C54.8798 66.1703 54.5416 65.824 54.1198 65.8196C53.7061 65.8181 53.3523 66.1533 53.3479 66.5751L53.1962 80.6539C53.0112 80.6376 52.8262 80.6273 52.6411 80.6287C52.2193 80.6324 51.8804 80.9781 51.8848 81.3999C51.8892 81.8188 52.2304 82.1562 52.6485 82.1562H52.6559C53.3708 82.1488 54.0798 82.3257 54.7081 82.6676C54.8243 82.7305 54.9494 82.7608 55.0722 82.7608C55.3431 82.7608 55.6058 82.6165 55.7442 82.362C55.9462 81.9912 55.8086 81.5279 55.4385 81.3259Z" fill="black"/>
</g>
<path d="M29.113 129C29.209 126.792 29.509 124.914 30.013 123.366C30.517 121.806 31.333 120.234 32.461 118.65H26.665V117.516H33.973V118.308C33.085 119.46 32.395 120.564 31.903 121.62C31.423 122.676 31.081 123.768 30.877 124.896C30.673 126.024 30.535 127.392 30.463 129H29.113ZM35.4524 128.226C36.8084 126.858 37.8584 125.76 38.6024 124.932C39.3464 124.104 39.9164 123.342 40.3124 122.646C40.7204 121.95 40.9244 121.296 40.9244 120.684C40.9244 119.988 40.7324 119.43 40.3484 119.01C39.9644 118.59 39.4004 118.38 38.6564 118.38C38.2004 118.38 37.7564 118.506 37.3244 118.758C36.9044 119.01 36.5144 119.352 36.1544 119.784L35.3804 119.028C35.8844 118.476 36.4124 118.05 36.9644 117.75C37.5164 117.45 38.1344 117.3 38.8184 117.3C39.8624 117.3 40.6904 117.606 41.3024 118.218C41.9144 118.818 42.2204 119.622 42.2204 120.63C42.2204 121.326 42.0224 122.04 41.6264 122.772C41.2424 123.504 40.7324 124.242 40.0964 124.986C39.4604 125.73 38.5544 126.72 37.3784 127.956L37.8104 127.938C38.4824 127.89 38.9804 127.866 39.3044 127.866H42.7784V129H35.4524V128.226ZM45.7698 129.216C45.4938 129.216 45.2598 129.12 45.0678 128.928C44.8758 128.724 44.7798 128.472 44.7798 128.172C44.7798 127.86 44.8758 127.608 45.0678 127.416C45.2598 127.212 45.4938 127.11 45.7698 127.11C46.0458 127.11 46.2798 127.212 46.4718 127.416C46.6638 127.608 46.7598 127.86 46.7598 128.172C46.7598 128.472 46.6638 128.724 46.4718 128.928C46.2798 129.12 46.0458 129.216 45.7698 129.216ZM52.0012 117.3C52.7692 117.3 53.4472 117.51 54.0352 117.93C54.6352 118.338 55.0972 118.956 55.4212 119.784C55.7572 120.6 55.9252 121.602 55.9252 122.79C55.9252 124.278 55.7272 125.502 55.3312 126.462C54.9352 127.422 54.4132 128.124 53.7652 128.568C53.1172 129 52.3912 129.216 51.5872 129.216C50.5072 129.216 49.6132 128.82 48.9052 128.028L49.6432 127.2C49.8832 127.488 50.1652 127.716 50.4892 127.884C50.8252 128.04 51.1732 128.118 51.5332 128.118C52.4452 128.118 53.1892 127.716 53.7652 126.912C54.3412 126.108 54.6412 124.812 54.6652 123.024C54.2932 123.492 53.8612 123.858 53.3692 124.122C52.8892 124.386 52.4092 124.518 51.9292 124.518C50.9092 124.518 50.1112 124.218 49.5352 123.618C48.9592 123.006 48.6712 122.118 48.6712 120.954C48.6712 120.258 48.8212 119.634 49.1212 119.082C49.4212 118.518 49.8232 118.08 50.3272 117.768C50.8432 117.456 51.4012 117.3 52.0012 117.3ZM52.1452 123.51C52.5412 123.51 52.9552 123.384 53.3872 123.132C53.8312 122.88 54.2452 122.484 54.6292 121.944C54.5452 120.792 54.2812 119.904 53.8372 119.28C53.3932 118.656 52.7812 118.344 52.0012 118.344C51.4132 118.344 50.9212 118.59 50.5252 119.082C50.1292 119.562 49.9312 120.186 49.9312 120.954C49.9312 121.758 50.1172 122.388 50.4892 122.844C50.8612 123.288 51.4132 123.51 52.1452 123.51ZM60.1045 124.302C59.2885 124.302 58.6405 123.972 58.1605 123.312C57.6925 122.652 57.4585 121.734 57.4585 120.558C57.4585 119.394 57.6925 118.488 58.1605 117.84C58.6405 117.18 59.2885 116.85 60.1045 116.85C60.9205 116.85 61.5625 117.18 62.0305 117.84C62.5105 118.488 62.7505 119.394 62.7505 120.558C62.7505 121.734 62.5105 122.652 62.0305 123.312C61.5625 123.972 60.9205 124.302 60.1045 124.302ZM66.9445 116.958H67.8625L61.3285 129.216H60.4105L66.9445 116.958ZM60.1045 123.474C60.6085 123.474 61.0045 123.222 61.2925 122.718C61.5925 122.214 61.7425 121.494 61.7425 120.558C61.7425 119.622 61.5925 118.908 61.2925 118.416C61.0045 117.924 60.6085 117.678 60.1045 117.678C59.6005 117.678 59.1985 117.924 58.8985 118.416C58.6105 118.908 58.4665 119.622 58.4665 120.558C58.4665 121.494 58.6105 122.214 58.8985 122.718C59.1985 123.222 59.6005 123.474 60.1045 123.474ZM68.2225 129.216C67.4065 129.216 66.7585 128.886 66.2785 128.226C65.8105 127.566 65.5765 126.648 65.5765 125.472C65.5765 124.308 65.8105 123.402 66.2785 122.754C66.7585 122.094 67.4065 121.764 68.2225 121.764C69.0385 121.764 69.6805 122.094 70.1485 122.754C70.6285 123.402 70.8685 124.308 70.8685 125.472C70.8685 126.648 70.6285 127.566 70.1485 128.226C69.6805 128.886 69.0385 129.216 68.2225 129.216ZM68.2225 128.388C68.7145 128.388 69.1045 128.136 69.3925 127.632C69.6925 127.128 69.8425 126.408 69.8425 125.472C69.8425 124.536 69.6985 123.822 69.4105 123.33C69.1225 122.838 68.7265 122.592 68.2225 122.592C67.7185 122.592 67.3165 122.838 67.0165 123.33C66.7285 123.822 66.5845 124.536 66.5845 125.472C66.5845 126.408 66.7285 127.128 67.0165 127.632C67.3165 128.136 67.7185 128.388 68.2225 128.388ZM22.6335 141.174H29.3475V142.308H23.9655V146.484H28.5195V147.6H23.9655V153H22.6335V141.174ZM31.4578 141.174H38.1718V142.308H32.7898V146.214H37.3258V147.33H32.7898V151.866H38.3518V153H31.4578V141.174ZM40.8972 141.174H42.5352L44.8572 147.654L45.7212 150.156H45.7932C45.8772 149.928 45.9912 149.586 46.1352 149.13C46.3272 148.554 46.4952 148.062 46.6392 147.654L48.9252 141.174H50.5812V153H49.3392V146.16C49.3392 145.44 49.3932 144.3 49.5012 142.74H49.4292L48.4932 145.422L46.1892 151.776H45.2532L42.9312 145.422L41.9952 142.74H41.9232L41.9592 143.19C42.0552 144.462 42.1032 145.452 42.1032 146.16V153H40.8972V141.174ZM59.2519 149.274H54.8419L53.6359 153H52.2859L56.3359 141.174H57.8119L61.8439 153H60.4399L59.2519 149.274ZM58.9099 148.212L58.2979 146.304C57.8179 144.804 57.4099 143.466 57.0739 142.29H57.0019C56.6059 143.742 56.2039 145.08 55.7959 146.304L55.1839 148.212H58.9099ZM63.573 141.174H64.905V151.866H70.125V153H63.573V141.174ZM72.239 141.174H78.953V142.308H73.571V146.214H78.107V147.33H73.571V151.866H79.133V153H72.239V141.174Z" fill="black"/>
<defs>
<clipPath id="clip0">
<rect width="97" height="97" fill="white" transform="translate(2)"/>
</clipPath>
</defs>
</svg>
