<svg width="656" height="280" viewBox="0 0 656 280" fill="none" xmlns="http://www.w3.org/2000/svg">
<rect width="656" height="280" fill="white"/>
<g clip-path="url(#clip0)">
<path d="M573.984 230.958L573.983 230.958C572.036 232.122 569.637 231.368 568.205 229.023C568.205 229.023 568.205 229.023 568.205 229.023L550.614 200.206C550.613 200.206 550.613 200.205 550.613 200.205C540.774 183.773 552.568 162.5 572.023 162.5C572.749 162.5 573.465 162.529 574.167 162.588L574.168 162.588C592.356 164.079 602.883 184.424 593.433 200.205C593.432 200.205 593.432 200.206 593.432 200.206L575.836 229.031C575.283 229.937 574.646 230.564 573.984 230.958Z" fill="white" stroke="black" stroke-width="0.999999"/>
<path d="M574.247 207.918L574.247 207.918C575.091 207.826 575.938 207.68 576.785 207.478M574.247 207.918L552.035 192.258C551.206 188.781 551.296 185.14 552.296 181.731L552.296 181.731C553.265 178.424 555.067 175.387 557.505 172.949L557.505 172.949C560.181 170.271 563.553 168.39 567.256 167.508L567.256 167.508C569.61 166.946 571.966 166.817 574.244 167.067L574.244 167.067C582.633 167.988 589.94 174.062 592.007 182.728C592.836 186.205 592.745 189.844 591.746 193.254C590.776 196.561 588.975 199.599 586.537 202.037C583.86 204.714 580.488 206.595 576.785 207.478M574.247 207.918C564.109 209.032 554.461 202.43 552.035 192.258L574.247 207.918ZM576.785 207.478L576.901 207.965L576.785 207.478C576.785 207.478 576.785 207.478 576.785 207.478Z" fill="white" stroke="black" stroke-width="0.999999"/>
<g filter="url(#filter0_d)">
<path d="M551 189.791H556.845C557.244 189.791 557.604 189.554 557.763 189.189L560.66 182.509C561.021 181.679 562.21 181.716 562.518 182.567L566.094 192.458C566.389 193.275 567.514 193.353 567.919 192.585L571.281 186.214C571.635 185.544 572.576 185.495 572.997 186.125L574.525 188.412C574.943 189.038 575.876 188.995 576.235 188.334L579.695 181.955C580.087 181.231 581.137 181.265 581.482 182.013L584.799 189.209C584.963 189.564 585.317 189.791 585.707 189.791H593.129" stroke="black" stroke-width="3"/>
</g>
</g>
<path d="M433.333 165H432.333V166V186.333H412H411V187.333V208.667V209.667H412H432.333V230V231H433.333H454.667H455.667V230V209.667H476H477V208.667V187.333V186.333H476H455.667V166V165H454.667H433.333Z" fill="white" stroke="black" stroke-width="2"/>
<path d="M462.577 207.709C461.747 206.219 460.929 204.741 460.199 203.219C459.546 201.73 459.004 200.208 458.075 198.904C457.213 197.784 456.151 196.838 455.332 195.664C454.669 194.719 454.061 193.74 452.921 193.555C452.014 193.425 451.273 194.001 450.665 194.719C449.99 195.523 449.349 196.338 448.652 197.11C448.121 196.393 447.756 195.534 447.303 194.675C446.761 193.642 446.153 192.751 445.467 191.903C444.748 191.001 443.653 190.675 442.835 189.914C442.149 189.207 440.955 187.99 440.722 186.957C440.578 186.272 439.893 186.272 439.484 186.631C437.758 188.218 436.376 190.186 434.728 191.892C433.39 193.327 430.835 194.229 430.061 196.24C429.839 196.871 429.696 197.458 429.286 197.947C428.833 198.491 428.335 199.001 427.882 199.534C426.908 200.697 425.913 202.176 424.442 202.687C424.121 202.806 418.135 208.5 418.5 208.5C419.927 208.446 426.864 201.828 428.158 201.426C429.353 201.012 430.514 199.665 431.211 198.545C431.41 198.197 431.531 197.73 431.62 197.284C431.808 196.567 432.261 196.208 432.803 195.849C433.755 195.088 434.816 194.642 435.745 193.751C436.741 192.751 437.471 191.534 438.333 190.36C438.787 189.783 439.307 189.294 439.804 188.751C440.059 189.251 440.39 189.664 440.755 190.066C440.955 190.283 441.12 190.512 441.319 190.729C440.955 191.034 440.623 191.447 440.435 191.849C440.214 192.349 439.893 192.664 439.484 192.979C439.196 193.24 438.897 193.599 438.621 193.827C438.488 193.914 438.532 194.186 438.665 194.153C439.074 194.11 439.251 194.197 439.661 194.001C440.025 193.871 440.435 193.512 440.811 193.24C441.165 192.979 441.773 192.925 442.182 192.708C442.403 192.566 442.636 192.392 442.868 192.262C443.045 192.392 443.277 192.523 443.498 192.664C444.881 193.468 445.611 194.36 446.44 195.806C446.849 196.48 447.391 197.197 448.044 197.838C447.845 197.958 447.668 198.132 447.513 198.317C446.285 199.447 444.925 200.382 443.819 201.643C442.591 202.991 441.364 204.426 440.258 205.861C440.07 206.089 440.302 206.415 440.534 206.263C442.868 204.839 445.334 203.393 447.336 201.371C448.331 200.339 449.393 199.317 450.444 198.241C451.185 197.425 451.727 196.251 452.612 195.577C452.789 195.393 454.193 196.969 455.421 198.404C453.198 199.621 452.966 203.491 450.731 204.741C450.621 204.784 450.665 204.969 450.82 204.969C452.092 204.839 452.7 203.839 453.519 202.86C453.972 202.284 454.293 201.654 454.702 201.11C455.2 200.436 455.83 200.121 456.516 199.817C456.837 200.165 457.058 200.491 457.168 200.621C458.075 201.773 458.684 203.089 459.458 204.382C459.867 205.1 460.32 205.817 460.73 206.491C460.508 206.404 460.276 206.361 460.044 206.361C458.861 206.415 454.105 209.328 455.941 208.97C457.799 208.611 460.199 207.839 462.013 208.47C462.422 208.611 462.743 208.067 462.577 207.709Z" fill="black"/>
<path d="M437.893 199.805C437.528 199.045 437.119 198.273 436.621 197.555C436.345 197.153 435.935 197.012 435.471 197.24C434.973 197.512 434.652 197.838 434.321 198.327C433.823 199.001 433.823 199.936 433.325 200.621C432.407 201.827 431.257 202.849 430.306 204.067C430.162 204.197 429.367 206.142 429.5 206C431.468 204.424 434.332 201.153 436.079 199.208C436.422 199.49 436.787 199.708 437.152 199.979C437.849 200.479 438.214 201.197 438.756 201.882C438.8 201.925 438.844 201.882 438.844 201.827C438.667 201.056 438.214 200.479 437.893 199.805Z" fill="black"/>
<path d="M445.654 196.838C445.245 196.468 444.969 195.99 444.427 195.762C443.907 195.577 443.133 195.446 442.723 195.946C442.226 196.479 442.038 197.077 441.728 197.729C441.573 198.088 441.319 198.446 441.363 198.849C441.363 199.001 441.496 199.077 441.584 199.077C442.104 199.033 442.469 198.36 442.834 198.033C443.243 197.718 443.542 197.272 443.874 196.827C444.106 196.468 444.283 196.153 444.758 196.425C445.013 196.566 445.345 196.74 445.577 196.925C445.61 196.968 445.698 196.881 445.654 196.838Z" fill="black"/>
<path d="M450.544 201.643C449.394 202.176 448.21 202.73 447.171 203.437C446.563 203.893 446.198 204.426 445.7 205.057C445.246 205.687 444.561 206.133 444.063 206.774C443.974 206.905 444.063 207.078 444.196 207.035C445.379 206.578 446.529 205.904 447.635 205.285C448.797 204.524 449.77 202.991 450.743 201.959C450.865 201.828 450.732 201.556 450.544 201.643Z" fill="black"/>
<path d="M457.621 203.751C457.345 203.49 457.057 203.251 456.803 202.99C456.648 202.806 456.571 202.632 456.438 202.447C456.482 202.219 456.394 202.001 456.161 202.045C455.575 202.132 455.166 202.719 454.801 203.208C454.425 203.664 454.259 204.153 453.894 204.61C453.573 205.012 453.208 205.458 452.877 205.914C452.788 206.045 452.921 206.328 453.109 206.175C453.85 205.556 454.713 205.143 455.487 204.567C455.785 204.338 456.029 203.98 456.117 203.577C456.117 203.577 456.117 203.577 456.117 203.534C456.25 203.762 456.438 203.936 456.526 204.023C457.135 204.523 457.798 204.838 458.407 205.371C458.495 205.414 458.584 205.371 458.584 205.284C458.573 204.61 457.997 204.153 457.621 203.751Z" fill="black"/>
<mask id="path-11-inside-1" fill="white">
<path fill-rule="evenodd" clip-rule="evenodd" d="M418.746 187.859C418.061 190.212 417.694 192.7 417.694 195.274C417.694 196.134 417.677 196.882 417.662 197.553C417.591 200.679 417.559 202.126 419.444 205.351C419.739 205.856 420.549 205.048 421.665 203.935C422.496 203.106 423.497 202.108 424.582 201.355C426.576 197.038 428.919 192.476 430 193.5C438.527 179.108 444.225 183.897 449.278 188.144C451.488 190.001 453.575 191.755 455.721 191.755C459.313 191.755 460.564 196.212 461.742 200.406C462.32 202.463 462.88 204.456 463.689 205.831C464.215 207.118 464.218 207.837 464.22 208.232C464.22 208.419 464.221 208.533 464.277 208.6C464.365 208.702 464.586 208.692 465.148 208.664C465.561 208.644 466.158 208.614 467.022 208.614C469.312 204.697 470.625 200.139 470.625 195.274C470.625 192.701 470.258 190.213 469.573 187.861H454.163V170.764C451.077 169.503 447.699 168.808 444.159 168.808C440.488 168.808 436.991 169.556 433.813 170.907V187.859H418.746Z"/>
</mask>
<path fill-rule="evenodd" clip-rule="evenodd" d="M418.746 187.859C418.061 190.212 417.694 192.7 417.694 195.274C417.694 196.134 417.677 196.882 417.662 197.553C417.591 200.679 417.559 202.126 419.444 205.351C419.739 205.856 420.549 205.048 421.665 203.935C422.496 203.106 423.497 202.108 424.582 201.355C426.576 197.038 428.919 192.476 430 193.5C438.527 179.108 444.225 183.897 449.278 188.144C451.488 190.001 453.575 191.755 455.721 191.755C459.313 191.755 460.564 196.212 461.742 200.406C462.32 202.463 462.88 204.456 463.689 205.831C464.215 207.118 464.218 207.837 464.22 208.232C464.22 208.419 464.221 208.533 464.277 208.6C464.365 208.702 464.586 208.692 465.148 208.664C465.561 208.644 466.158 208.614 467.022 208.614C469.312 204.697 470.625 200.139 470.625 195.274C470.625 192.701 470.258 190.213 469.573 187.861H454.163V170.764C451.077 169.503 447.699 168.808 444.159 168.808C440.488 168.808 436.991 169.556 433.813 170.907V187.859H418.746Z" fill="white"/>
<path d="M441.703 179.555L441.867 179.366L441.675 179.199L441.512 179.394L441.703 179.555ZM430 193.5L429.808 193.339L429.801 193.348L429.795 193.357L430 193.5ZM426.5 198.5L426.295 198.357L426.292 198.361L426.5 198.5ZM467.182 208.423L463.849 205.639L463.529 206.023L466.862 208.806L467.182 208.423ZM455.885 191.566L441.867 179.366L441.539 179.744L455.556 191.943L455.885 191.566ZM441.512 179.394L429.808 193.339L430.191 193.661L441.895 179.716L441.512 179.394ZM429.795 193.357L426.295 198.357L426.705 198.644L430.205 193.644L429.795 193.357ZM426.292 198.361L424.375 201.216L424.79 201.494L426.707 198.64L426.292 198.361ZM418.746 187.859V187.359H418.371L418.266 187.719L418.746 187.859ZM417.662 197.553L417.162 197.541L417.662 197.553ZM419.444 205.351L419.876 205.099L419.444 205.351ZM421.665 203.935L422.019 204.289H422.019L421.665 203.935ZM424.582 201.355L424.867 201.766L424.979 201.688L425.036 201.565L424.582 201.355ZM430 193.5L429.656 193.863L430.111 194.294L430.43 193.755L430 193.5ZM449.278 188.144L449.6 187.761L449.278 188.144ZM461.742 200.406L461.261 200.542V200.542L461.742 200.406ZM463.689 205.831L464.152 205.642L464.138 205.608L464.12 205.577L463.689 205.831ZM464.22 208.232L463.72 208.234V208.234L464.22 208.232ZM464.277 208.6L463.896 208.923L463.896 208.923L464.277 208.6ZM465.148 208.664L465.124 208.165L465.148 208.664ZM467.022 208.614V209.114H467.309L467.454 208.867L467.022 208.614ZM469.573 187.861L470.053 187.721L469.948 187.361H469.573V187.861ZM454.163 187.861H453.663V188.361H454.163V187.861ZM454.163 170.764H454.663V170.428L454.352 170.301L454.163 170.764ZM433.813 170.907L433.618 170.447L433.313 170.576V170.907H433.813ZM433.813 187.859V188.359H434.313V187.859H433.813ZM418.266 187.719C417.568 190.117 417.194 192.652 417.194 195.274H418.194C418.194 192.748 418.554 190.306 419.226 187.999L418.266 187.719ZM417.194 195.274C417.194 196.127 417.177 196.87 417.162 197.541L418.161 197.564C418.177 196.893 418.194 196.14 418.194 195.274H417.194ZM417.162 197.541C417.127 199.092 417.098 200.291 417.328 201.508C417.561 202.738 418.052 203.961 419.013 205.604L419.876 205.099C418.951 203.517 418.515 202.403 418.311 201.322C418.104 200.227 418.126 199.139 418.161 197.564L417.162 197.541ZM419.013 205.604C419.09 205.737 419.206 205.86 419.371 205.936C419.534 206.01 419.699 206.016 419.84 205.993C420.098 205.95 420.342 205.8 420.543 205.653C420.96 205.347 421.473 204.833 422.019 204.289L421.312 203.581C420.742 204.15 420.292 204.597 419.951 204.847C419.87 204.906 419.804 204.948 419.752 204.974C419.699 205.002 419.676 205.006 419.678 205.006C419.684 205.005 419.729 205 419.787 205.026C419.846 205.053 419.872 205.092 419.876 205.099L419.013 205.604ZM422.019 204.289C422.855 203.455 423.825 202.489 424.867 201.766L424.297 200.944C423.169 201.727 422.138 202.758 421.312 203.581L422.019 204.289ZM425.036 201.565C426.033 199.406 427.106 197.212 428.057 195.689C428.538 194.921 428.962 194.365 429.306 194.065C429.48 193.913 429.59 193.866 429.639 193.856C429.652 193.854 429.64 193.848 429.656 193.863L430.344 193.137C430.089 192.896 429.768 192.809 429.438 192.877C429.144 192.937 428.878 193.112 428.649 193.311C428.188 193.714 427.699 194.376 427.209 195.159C426.221 196.741 425.125 198.987 424.128 201.145L425.036 201.565ZM430.43 193.755C434.679 186.584 438.11 184.397 440.953 184.333C442.386 184.3 443.745 184.801 445.078 185.595C446.415 186.392 447.687 187.46 448.957 188.527L449.6 187.761C448.343 186.705 447.008 185.582 445.589 184.736C444.166 183.888 442.619 183.294 440.93 183.333C437.529 183.41 433.848 186.025 429.57 193.245L430.43 193.755ZM448.957 188.527C450.055 189.45 451.157 190.377 452.257 191.069C453.359 191.762 454.512 192.255 455.721 192.255V191.255C454.784 191.255 453.821 190.871 452.79 190.223C451.759 189.574 450.712 188.696 449.6 187.761L448.957 188.527ZM455.721 192.255C457.255 192.255 458.332 193.186 459.2 194.75C460.075 196.327 460.667 198.427 461.261 200.542L462.224 200.271C461.639 198.191 461.017 195.965 460.074 194.265C459.124 192.552 457.778 191.255 455.721 191.255V192.255ZM461.261 200.542C461.832 202.575 462.408 204.642 463.258 206.085L464.12 205.577C463.351 204.271 462.808 202.351 462.224 200.271L461.261 200.542ZM463.226 206.02C463.721 207.232 463.718 207.884 463.72 208.234L464.72 208.229C464.718 207.79 464.708 207.004 464.152 205.642L463.226 206.02ZM463.72 208.234C463.72 208.317 463.72 208.425 463.731 208.521C463.743 208.618 463.774 208.78 463.896 208.923L464.658 208.276C464.691 208.315 464.708 208.352 464.717 208.376C464.724 208.398 464.725 208.409 464.724 208.401C464.723 208.393 464.722 208.377 464.721 208.345C464.72 208.314 464.72 208.278 464.72 208.229L463.72 208.234ZM463.896 208.923C464.089 209.151 464.369 209.173 464.51 209.18C464.677 209.188 464.904 209.177 465.173 209.163L465.124 208.165C464.83 208.179 464.665 208.186 464.559 208.181C464.508 208.179 464.503 208.174 464.52 208.179C464.544 208.187 464.604 208.212 464.658 208.276L463.896 208.923ZM465.173 209.163C465.583 209.143 466.171 209.114 467.022 209.114V208.114C466.146 208.114 465.539 208.144 465.124 208.165L465.173 209.163ZM467.454 208.867C469.788 204.875 471.125 200.23 471.125 195.274H470.125C470.125 200.048 468.837 204.52 466.59 208.362L467.454 208.867ZM471.125 195.274C471.125 192.653 470.751 190.118 470.053 187.721L469.093 188.001C469.765 190.308 470.125 192.749 470.125 195.274H471.125ZM469.573 187.361H454.163V188.361H469.573V187.361ZM454.663 187.861V170.764H453.663V187.861H454.663ZM454.352 170.301C451.207 169.016 447.765 168.308 444.159 168.308V169.308C447.633 169.308 450.947 169.99 453.974 171.227L454.352 170.301ZM444.159 168.308C440.42 168.308 436.857 169.07 433.618 170.447L434.009 171.367C437.126 170.042 440.557 169.308 444.159 169.308V168.308ZM433.313 170.907V187.859H434.313V170.907H433.313ZM433.813 187.359H418.746V188.359H433.813V187.359Z" fill="black" mask="url(#path-11-inside-1)"/>
<path fill-rule="evenodd" clip-rule="evenodd" d="M427.517 199.001C428.077 198.297 428.415 197.477 428.75 196.661C429.103 195.802 429.454 194.948 430.061 194.24C430.691 193.503 431.513 193.011 432.329 192.522C433.161 192.024 433.987 191.53 434.595 190.783C435.172 190.093 435.606 189.261 436.035 188.438C436.247 188.03 436.459 187.625 436.686 187.24C437.338 186.196 438.024 185.131 439.34 184.946C439.897 184.874 440.492 185.322 440.963 185.676C441.062 185.75 441.156 185.82 441.242 185.881C443.322 187.229 444.793 188.838 446.396 190.675C446.488 190.779 446.578 190.88 446.667 190.98C447.855 192.317 448.785 193.364 449.228 195.164C449.228 195.262 449.228 195.36 449.272 195.393C449.438 195.001 449.637 194.599 449.891 194.229C451.041 192.208 453.021 191.762 454.802 193.327C456.616 194.99 458.175 197.11 459.602 199.078C460.708 200.61 461.847 202.317 462.887 204.056C463.617 202.034 463.993 199.925 463.993 197.675C463.993 194.101 463.021 190.749 461.324 187.859H454.154V180.732C451.173 178.996 447.696 178 443.985 178C440.288 178 436.826 178.989 433.856 180.712V187.859H426.663C424.969 190.749 424 194.101 424 197.675C424 198.991 424.133 200.284 424.365 201.545C425.593 200.925 426.544 200.208 427.517 199.001Z" fill="white"/>
<g clip-path="url(#clip1)">
<path d="M570.984 124.958L570.983 124.958C569.036 126.122 566.637 125.368 565.205 123.023C565.205 123.023 565.205 123.023 565.205 123.023L547.614 94.2065C547.613 94.2058 547.613 94.2052 547.613 94.2045C537.774 77.7733 549.568 56.5 569.023 56.5C569.749 56.5 570.465 56.5294 571.167 56.588L571.168 56.588C589.356 58.0793 599.883 78.4236 590.433 94.2046C590.432 94.2052 590.432 94.2058 590.432 94.2064L572.836 123.031C572.283 123.937 571.646 124.564 570.984 124.958Z" fill="white" stroke="black" stroke-width="0.999999"/>
<path d="M571.247 101.918L571.247 101.918C572.091 101.826 572.938 101.68 573.785 101.478M571.247 101.918L549.035 86.2583C548.206 82.7808 548.296 79.14 549.296 75.7313L549.296 75.7312C550.265 72.4237 552.067 69.3871 554.505 66.949L554.505 66.949C557.181 64.2713 560.553 62.3897 564.256 61.5079L564.256 61.5078C566.61 60.9457 568.966 60.8165 571.244 61.0667L571.244 61.0667C579.633 61.9876 586.94 68.0625 589.007 76.7277C589.836 80.2052 589.745 83.8444 588.746 87.2537C587.776 90.5608 585.975 93.599 583.537 96.037C580.86 98.7136 577.488 100.595 573.785 101.478M571.247 101.918C561.109 103.032 551.461 96.4304 549.035 86.2583L571.247 101.918ZM573.785 101.478L573.901 101.965L573.785 101.478C573.785 101.478 573.785 101.478 573.785 101.478Z" fill="white" stroke="black" stroke-width="0.999999"/>
<g filter="url(#filter1_d)">
<path d="M565.309 71.3564V76.7807C565.309 77.333 564.861 77.7807 564.309 77.7807H558.884C558.332 77.7807 557.884 78.2284 557.884 78.7807V84.2049C557.884 84.7572 558.332 85.2049 558.884 85.2049H564.309C564.861 85.2049 565.309 85.6527 565.309 86.2049V91.6292C565.309 92.1815 565.756 92.6292 566.309 92.6292H571.733C572.285 92.6292 572.733 92.1815 572.733 91.6292V86.2049C572.733 85.6527 573.18 85.2049 573.733 85.2049H579.157C579.709 85.2049 580.157 84.7572 580.157 84.2049V78.7807C580.157 78.2284 579.709 77.7807 579.157 77.7807H573.733C573.18 77.7807 572.733 77.333 572.733 76.7807V71.3564C572.733 70.8042 572.285 70.3564 571.733 70.3564H566.309C565.756 70.3564 565.309 70.8042 565.309 71.3564Z" fill="white"/>
<path d="M565.309 71.3564V76.7807C565.309 77.333 564.861 77.7807 564.309 77.7807H558.884C558.332 77.7807 557.884 78.2284 557.884 78.7807V84.2049C557.884 84.7572 558.332 85.2049 558.884 85.2049H564.309C564.861 85.2049 565.309 85.6527 565.309 86.2049V91.6292C565.309 92.1815 565.756 92.6292 566.309 92.6292H571.733C572.285 92.6292 572.733 92.1815 572.733 91.6292V86.2049C572.733 85.6527 573.18 85.2049 573.733 85.2049H579.157C579.709 85.2049 580.157 84.7572 580.157 84.2049V78.7807C580.157 78.2284 579.709 77.7807 579.157 77.7807H573.733C573.18 77.7807 572.733 77.333 572.733 76.7807V71.3564C572.733 70.8042 572.285 70.3564 571.733 70.3564H566.309C565.756 70.3564 565.309 70.8042 565.309 71.3564Z" stroke="black"/>
</g>
</g>
<path d="M176.942 100.014C177.013 100.014 180.395 100.256 187.513 102.916C188.429 103.239 197.872 106.867 197.942 106.867C195.617 105.496 193.573 103.884 187.865 101.707C180.466 99.1271 177.013 100.014 176.942 100.014Z" fill="black"/>
<path d="M190.942 102.096C190.942 102.096 191.147 101.767 191.623 101.438C194.075 99.4652 197.821 101.767 200.136 103.165C202.588 104.727 206.129 106.947 209.057 106.864C209.602 106.864 209.942 106.7 209.942 106.7C209.602 106.536 208.921 107.522 200.681 102.096C192.372 97.1632 191.283 101.932 190.942 102.096Z" fill="black"/>
<path d="M185.217 110.672C185.011 110.802 184.942 110.867 184.942 110.867C184.942 110.867 185.011 110.802 185.217 110.672C187.755 109.765 206.07 110.089 203.738 107.756L203.669 107.691C200.102 105.746 199.485 105.552 195.3 103.867C195.369 103.932 201.68 107.432 202.64 108.015C199.896 108.663 187.618 109.311 185.217 110.672ZM203.052 108.404C203.052 108.404 203.052 108.469 203.052 108.404V108.404Z" fill="black"/>
<path d="M175.942 89.8667L177.826 88.4539C178.227 88.1533 178.803 88.3032 179.007 88.761V88.761C179.237 89.279 179.925 89.386 180.302 88.9623L180.664 88.5544C181.01 88.1657 181.596 88.1067 182.012 88.4188L183.942 89.8667" stroke="black" stroke-width="0.75"/>
<path d="M204.404 86.8667L202.342 88.3561C202.332 88.3631 202.298 88.3773 202.286 88.3814V88.3814C202.138 88.4349 202.065 88.2182 202.201 88.1393L204.404 86.8667ZM204.404 86.8667L204.559 87.2027C204.815 87.7569 205.552 87.8732 205.966 87.4247V87.4247C206.26 87.1063 206.745 87.0576 207.096 87.3113L208.296 88.1774C208.466 88.3005 208.671 88.3667 208.881 88.3667H209.942" stroke="black" stroke-width="0.75"/>
<path d="M190.942 91.8667L192.684 90.4515C193.028 90.1718 193.546 90.3292 193.677 90.7531V90.7531C193.823 91.23 194.442 91.3517 194.758 90.966L194.901 90.7918C195.109 90.539 195.457 90.4506 195.76 90.5737L197.531 91.2932C197.65 91.3417 197.778 91.3667 197.907 91.3667H198.942" stroke="black" stroke-width="0.75"/>
<path d="M166.942 92.3667H174.814C174.892 92.3667 174.963 92.3211 174.996 92.25L180.245 80.7963C180.319 80.6357 180.55 80.6425 180.614 80.8072L187.292 97.9803C187.353 98.1364 187.567 98.1532 187.651 98.0086L194.29 86.6271C194.363 86.5035 194.537 86.4934 194.623 86.6079L198.758 92.1209C198.845 92.2366 199.022 92.2248 199.093 92.0986L205.746 80.2167C205.827 80.0727 206.037 80.0828 206.104 80.2339L211.39 92.2472C211.422 92.3198 211.494 92.3667 211.573 92.3667H221.442" stroke="black"/>
<path fill-rule="evenodd" clip-rule="evenodd" d="M162.704 58.9185C166.847 55.5536 175.416 57.6386 193.142 57.6386C198.765 57.6386 203.567 57.4288 207.666 57.2497C228.587 56.3358 231.21 56.2212 231.21 88.8665C231.21 109.316 233.606 119.055 229.794 123.692C226.329 127.909 217.734 127.909 197.542 127.909C173.506 127.909 163.775 127.909 160.079 123.186C156.301 118.359 158.826 108.6 158.826 88.8665C158.826 69.9914 158.826 62.0679 162.704 58.9185ZM173.142 101.966C181.442 110.866 192.542 117.566 194.442 118.666C196.842 117.266 214.042 106.866 221.742 94.3665C225.542 86.3665 224.942 75.9665 222.042 71.8665L221.942 71.6665C220.842 70.1665 219.642 69.0665 218.242 68.1665C214.142 65.6665 210.142 64.8665 206.342 65.9665C199.142 67.9665 195.042 75.8665 195.042 75.9665L194.542 76.9665L194.042 75.9665C194.042 75.8665 189.942 67.9665 182.742 65.9665C178.942 64.8665 174.942 65.6665 170.842 68.1665C164.842 71.8665 162.742 84.8665 167.142 94.3665C168.642 96.7665 170.542 99.1665 172.842 101.666L173.142 101.966Z" fill="black"/>
<rect x="286" y="57" width="70" height="70" rx="18" fill="black"/>
<path d="M320.647 118.183C318.747 117.083 307.647 110.383 299.347 101.483L299.047 101.183C296.747 98.6826 294.847 96.2826 293.347 93.8826C288.947 84.3826 291.047 71.3826 297.047 67.6826C301.147 65.1826 305.147 64.3826 308.947 65.4826C316.147 67.4826 320.247 75.3826 320.247 75.4826L320.747 76.4826L321.247 75.4826C321.247 75.3826 325.347 67.4826 332.547 65.4826C336.347 64.3826 340.347 65.1826 344.447 67.6826C345.847 68.5826 347.047 69.6826 348.147 71.1826L348.247 71.3826C351.147 75.4826 351.747 85.8826 347.947 93.8826C340.247 106.383 323.047 116.783 320.647 118.183Z" fill="white"/>
<path d="M302.516 100.442C302.589 100.442 306.126 100.663 313.568 103.099C314.526 103.394 324.4 106.716 324.474 106.716C322.042 105.461 319.905 103.985 313.937 101.992C306.2 99.63 302.589 100.442 302.516 100.442Z" fill="black"/>
<path d="M316.958 101.844C316.958 101.844 317.179 101.549 317.694 101.254C320.347 99.4823 324.4 101.549 326.905 102.804C329.558 104.206 333.389 106.199 336.558 106.125C337.147 106.125 337.515 105.977 337.515 105.977C337.147 105.83 336.41 106.716 327.494 101.844C318.505 97.4157 317.326 101.697 316.958 101.844Z" fill="black"/>
<path d="M310.473 110.258C310.252 110.406 310.179 110.48 310.179 110.48C310.179 110.48 310.252 110.406 310.473 110.258C313.2 109.225 332.873 109.594 330.368 106.937L330.295 106.863C326.463 104.649 325.8 104.427 321.305 102.508C321.379 102.582 328.158 106.568 329.189 107.232C326.242 107.97 313.052 108.708 310.473 110.258ZM329.631 107.675C329.631 107.675 329.631 107.749 329.631 107.675V107.675Z" fill="black"/>
<path d="M304.5 92.5L306.385 91.8L307.308 90L308.231 92.4L309.154 90L310.538 92.4H311" stroke="black"/>
<path d="M337 90.4H336.067L334.667 88.6L333.733 90.4L332.8 88L330.5 90.5H330" stroke="black"/>
<path d="M319 95.5H319.5L320 95L322 93L322.5 95L323.5 93.5L325 94.5H325.5" stroke="black"/>
<path d="M316.145 97.627L321.437 87.2438C321.665 86.8746 322.109 86.6 322.5 86.6H322.541L322.582 86.5932C322.914 86.5378 323.337 86.7687 323.569 87.1543C323.57 87.1553 323.571 87.1563 323.571 87.1572L326.467 92.1509L326.943 92.9709L327.351 92.1153L332.549 81.2197C332.77 80.782 333.201 80.5 333.7 80.5C334.082 80.5 334.519 80.7648 334.748 81.2149L339.944 92.8045L340.038 93.0153L340.26 93.08L346.463 94.8893L339.412 94.8678C339.042 94.7831 338.729 94.5345 338.551 94.1848L334.056 84.1948L333.624 83.2344L333.153 84.1764L327.953 94.5764C327.725 95.0318 327.284 95.3 326.9 95.3H326.859L326.818 95.3068C326.485 95.3622 326.062 95.1309 325.83 94.7445C325.829 94.7439 325.829 94.7433 325.829 94.7428L322.831 89.6465L322.366 88.8567L321.954 89.6748L316.454 100.575L316.453 100.576C316.256 100.971 315.855 101.2 315.3 101.2C314.837 101.2 314.413 100.859 314.274 100.442L314.274 100.442L314.27 100.429L308.57 84.7294L308.119 83.4869L307.635 84.7169L303.938 94.1095C303.711 94.6329 303.286 94.9 302.8 94.9H295.843L302.328 93.1834L302.572 93.1187L302.665 92.8836L307.162 81.4908C307.389 80.9672 307.814 80.7 308.3 80.7C308.836 80.7 309.295 81.0044 309.419 81.4374L309.424 81.4536L309.43 81.4695L315.23 97.5695L315.621 98.6561L316.145 97.627Z" stroke="black"/>
<rect x="410" y="57" width="70" height="70" rx="18" fill="black"/>
<path d="M417.347 93.8826C418.847 96.2826 420.747 98.6826 423.047 101.183L423.347 101.483C431.647 110.383 442.747 117.083 444.647 118.183C447.047 116.783 464.247 106.383 471.947 93.8826M417.347 93.8826H425.147C425.847 93.8826 426.447 93.4826 426.747 92.7826L430.447 83.3826L436.147 99.0826C436.347 99.6826 436.947 100.183 437.647 100.183C438.347 100.183 438.947 99.8826 439.247 99.2826L444.747 88.3826L447.747 93.4826C448.047 93.9826 448.647 94.3826 449.247 94.2826C449.847 94.2826 450.447 93.8826 450.747 93.2826L455.947 82.8826L460.447 92.8826C460.747 93.4826 461.347 93.8826 462.047 93.8826H471.947M417.347 93.8826L424.547 91.1826L429.047 79.7826C429.347 79.0826 429.947 78.6826 430.647 78.6826C431.347 78.6826 432.047 79.0826 432.247 79.7826L438.047 95.8826L443.347 85.4826C443.647 84.9826 444.247 84.5826 444.847 84.5826C445.447 84.4826 446.047 84.8826 446.347 85.3826L449.247 90.3826L454.447 79.4826C454.747 78.8826 455.347 78.4826 456.047 78.4826C456.647 78.4826 457.247 78.8826 457.547 79.4826L462.747 91.0826L471.947 93.8826M417.347 93.8826C412.947 84.3826 415.047 71.3826 421.047 67.6826C425.147 65.1826 429.147 64.3826 432.947 65.4826C440.147 67.4826 444.247 75.3826 444.247 75.4826L444.747 76.4826L445.247 75.4826C445.247 75.3826 449.347 67.4826 456.547 65.4826C460.347 64.3826 464.347 65.1826 468.447 67.6826C469.847 68.5826 471.047 69.6826 472.147 71.1826L472.247 71.3826C475.147 75.4826 475.747 85.8826 471.947 93.8826" fill="white"/>
<path d="M417.347 93.8826C418.847 96.2826 420.747 98.6826 423.047 101.183L423.347 101.483C431.647 110.383 442.747 117.083 444.647 118.183C447.047 116.783 464.247 106.383 471.947 93.8826M417.347 93.8826H425.147C425.847 93.8826 426.447 93.4826 426.747 92.7826L430.447 83.3826L436.147 99.0826C436.347 99.6826 436.947 100.183 437.647 100.183C438.347 100.183 438.947 99.8826 439.247 99.2826L444.747 88.3826L447.747 93.4826C448.047 93.9826 448.647 94.3826 449.247 94.2826C449.847 94.2826 450.447 93.8826 450.747 93.2826L455.947 82.8826L460.447 92.8826C460.747 93.4826 461.347 93.8826 462.047 93.8826H471.947M417.347 93.8826L424.547 91.1826L429.047 79.7826C429.347 79.0826 429.947 78.6826 430.647 78.6826C431.347 78.6826 432.047 79.0826 432.247 79.7826L438.047 95.8826L443.347 85.4826C443.647 84.9826 444.247 84.5826 444.847 84.5826C445.447 84.4826 446.047 84.8826 446.347 85.3826L449.247 90.3826L454.447 79.4826C454.747 78.8826 455.347 78.4826 456.047 78.4826C456.647 78.4826 457.247 78.8826 457.547 79.4826L462.747 91.0826L471.947 93.8826M417.347 93.8826C412.947 84.3826 415.047 71.3826 421.047 67.6826C425.147 65.1826 429.147 64.3826 432.947 65.4826C440.147 67.4826 444.247 75.3826 444.247 75.4826L444.747 76.4826L445.247 75.4826C445.247 75.3826 449.347 67.4826 456.547 65.4826C460.347 64.3826 464.347 65.1826 468.447 67.6826C469.847 68.5826 471.047 69.6826 472.147 71.1826L472.247 71.3826C475.147 75.4826 475.747 85.8826 471.947 93.8826" stroke="black"/>
<path d="M426.516 100.442C426.589 100.442 430.126 100.663 437.568 103.099C438.526 103.394 448.4 106.716 448.474 106.716C446.042 105.461 443.905 103.985 437.937 101.992C430.2 99.63 426.589 100.442 426.516 100.442Z" fill="black"/>
<path d="M440.958 101.844C440.958 101.844 441.179 101.549 441.694 101.254C444.347 99.4823 448.4 101.549 450.905 102.804C453.558 104.206 457.389 106.199 460.558 106.125C461.147 106.125 461.515 105.977 461.515 105.977C461.147 105.83 460.41 106.716 451.494 101.844C442.505 97.4157 441.326 101.697 440.958 101.844Z" fill="black"/>
<path d="M434.473 110.258C434.252 110.406 434.179 110.48 434.179 110.48C434.179 110.48 434.252 110.406 434.473 110.258C437.2 109.225 456.873 109.594 454.368 106.937L454.295 106.863C450.463 104.649 449.8 104.427 445.305 102.508C445.379 102.582 452.158 106.568 453.189 107.232C450.242 107.97 437.052 108.708 434.473 110.258ZM453.631 107.675C453.631 107.675 453.631 107.749 453.631 107.675V107.675Z" fill="black"/>
<path d="M427.016 92.3428L428.516 91.3428L429.516 89.8428L430.516 91.8428L431.516 89.8428L433.016 91.8428H433.516" stroke="black"/>
<path d="M452.016 90.8428L455.016 88.3428L456.016 90.3428L457.016 88.8428L458.516 90.3428H459.516" stroke="black"/>
<path d="M447.516 93.3428L446.016 92.3428L445.016 93.8428L444.516 91.8428L442.516 93.8428L442.016 94.3428H441.516" stroke="black"/>
<path d="M52.4075 100.836C50.3711 98.6223 48.6576 96.4947 47.2623 94.3826H54.1465C55.0588 94.3826 55.8322 93.8519 56.2061 92.9796L56.2091 92.9727L56.2118 92.9657L59.4277 84.7957L64.6745 99.2475C64.9377 100.028 65.7126 100.683 66.6465 100.683C67.4913 100.683 68.2903 100.312 68.6933 99.5071C68.6935 99.5068 68.6936 99.5065 68.6938 99.5062L73.7802 89.4259L76.3156 93.7361L76.3178 93.7398C76.6795 94.3427 77.4371 94.9022 78.2874 94.7822C79.0874 94.7647 79.8277 94.2383 80.1938 93.5062L84.9228 84.0482L88.9906 93.0878L88.9948 93.0971L88.9993 93.1062C89.3794 93.8663 90.147 94.3826 91.0465 94.3826H100.038C96.2092 100.261 90.3192 105.654 85.0016 109.801C79.7925 113.863 75.1666 116.703 73.6458 117.603C71.1811 116.152 60.6502 109.653 52.7122 101.142L52.7063 101.135L52.7001 101.129L52.4075 100.836ZM100.676 93.2776L92.1097 90.6705L87.0028 79.2781L86.9985 79.2684L86.9938 79.259C86.6215 78.5144 85.8622 77.9826 85.0465 77.9826C84.147 77.9826 83.3794 78.4989 82.9993 79.259L82.9992 79.259L82.9953 79.2673L78.2034 89.3117L75.7791 85.1317L75.7791 85.1317L75.7753 85.1253C75.4136 84.5225 74.6559 83.963 73.8056 84.083C73.0167 84.1002 72.2859 84.6119 71.9178 85.2253L71.9089 85.2402L71.9011 85.2556L67.1255 94.6265L61.7223 79.6279C61.4397 78.6723 60.505 78.1826 59.6465 78.1826C58.7343 78.1826 57.9608 78.7133 57.587 79.5856L57.5841 79.5923L57.5815 79.599L53.163 90.7924L46.6099 93.2498C44.6134 88.69 44.1 83.3524 44.7912 78.6808C45.5073 73.8407 47.4933 69.8452 50.3079 68.1088C54.3232 65.6608 58.1777 64.9122 61.8075 65.9629L61.8075 65.9629L61.8127 65.9644C65.2776 66.9268 68.0234 69.3196 69.9175 71.5212C70.8612 72.618 71.5844 73.657 72.0708 74.4263C72.3139 74.8109 72.497 75.1267 72.6182 75.3471C72.6757 75.4517 72.7184 75.5333 72.7465 75.5894V75.6006L72.7993 75.7062L73.2993 76.7062L73.7465 77.6006L74.1938 76.7062L74.6938 75.7062L74.7465 75.6006V75.5894C74.7747 75.5333 74.8174 75.4517 74.8749 75.3471C74.9961 75.1267 75.1792 74.8109 75.4223 74.4263C75.9087 73.657 76.6319 72.618 77.5756 71.5212C79.4696 69.3196 82.2155 66.9268 85.6804 65.9644L85.6804 65.9644L85.6856 65.9629C89.3141 64.9125 93.1674 65.6603 97.1811 68.1064C98.5174 68.9662 99.6632 70.0135 100.718 71.4444L100.799 71.6062L100.816 71.6403L100.838 71.6713C102.203 73.6003 103.072 77.105 103.109 81.1747C103.145 85.0917 102.408 89.4498 100.676 93.2776Z" fill="white" stroke="black"/>
<path d="M55 100.599C55.0737 100.599 58.6105 100.821 66.0526 103.256C67.0105 103.551 76.8842 106.873 76.9579 106.873C74.5263 105.618 72.3895 104.142 66.4211 102.149C58.6842 99.7872 55.0737 100.599 55 100.599Z" fill="black"/>
<path d="M69.4419 102.001C69.4419 102.001 69.6629 101.706 70.1787 101.411C72.8314 99.6396 76.884 101.706 79.3893 102.961C82.0419 104.363 85.8735 106.356 89.0419 106.282C89.6314 106.282 89.9998 106.135 89.9998 106.135C89.6314 105.987 88.8945 106.873 79.9787 102.001C70.9893 97.5729 69.8103 101.854 69.4419 102.001Z" fill="black"/>
<path d="M62.9578 110.415C62.7368 110.563 62.6631 110.637 62.6631 110.637C62.6631 110.637 62.7368 110.563 62.9578 110.415C65.6841 109.382 85.3578 109.751 82.8526 107.094L82.7789 107.02C78.9473 104.806 78.2841 104.585 73.7894 102.666C73.8631 102.739 80.642 106.725 81.6736 107.389C78.7263 108.127 65.5368 108.865 62.9578 110.415ZM82.1157 107.832C82.1157 107.832 82.1157 107.906 82.1157 107.832V107.832Z" fill="black"/>
<path d="M56.5 92L57.5 91.5L58.5 90L59 92L60 90L61.5 92H62" stroke="black"/>
<path d="M84 89L82.5 90.5C81.7 90.9 81.5 91 81.5 91L84 89ZM84 89L84.5 90.5L85.5 89L87 90.5H88" stroke="black"/>
<path d="M71 95L73 93L73.5 95L74.5 93.5L76.5 94.5H77" stroke="black"/>
<path d="M208.267 197.298L201.774 189.386L199.101 192.337L199.483 192.274C199.483 192.337 193.626 198.302 194.008 197.926C194.008 197.863 196.682 193.907 196.554 194.158L190.189 187L180.131 195.728L177.331 192.777L166.509 200.563V201.944L170.201 199.621V202.949L168.292 204.644L174.402 201.819V202.447L175.548 201.442L173.511 199.621H174.784L173.384 197.612L176.058 195.916L178.858 198.616L189.043 190.265V190.391L185.988 193.656L189.043 195.037L187.643 193.53L191.08 195.602L189.552 192.777L190.189 192.965L190.444 192.149L192.481 195.288C188.279 204.142 189.807 201.065 189.425 201.756L191.462 200.249L197.955 196.921L199.737 198.114L199.864 197.988L200.628 196.858L206.485 200.877L208.394 199.747L212.723 204.079L214.123 203.451L218.961 206.151V207.47L220.871 208.349H228L212.85 196.356L208.267 197.298ZM212.468 201.756L212.341 200.626L214.505 201.567C214.378 201.505 212.595 200.249 212.214 200.06L211.959 197.988L216.669 202.572L212.468 201.756Z" fill="black"/>
<path d="M201.265 199.621L199.355 198.428V200.123L195.281 201.442L197.318 202.132L201.265 199.621Z" fill="black"/>
<path d="M186.752 200.751V202.76L182.168 204.895H189.043L194.899 201.756C194.518 201.881 188.279 203.765 188.534 203.702V201.756L186.752 200.751Z" fill="black"/>
<path d="M166 205.46C166.127 205.46 172.238 205.649 185.097 207.721C186.752 207.972 203.811 210.798 203.938 210.798C199.737 209.73 196.045 208.474 185.733 206.779C172.365 204.77 166.127 205.46 166 205.46Z" fill="black"/>
<path fill-rule="evenodd" clip-rule="evenodd" d="M190.953 206.653C190.953 206.653 191.028 206.604 191.189 206.527C191.09 206.596 191.015 206.641 190.953 206.653ZM217.863 208.841C215.627 208.333 212.784 207.629 209.158 206.653C195.634 203.373 192.342 205.71 191.296 206.452C191.257 206.479 191.222 206.504 191.189 206.527C191.392 206.431 191.73 206.291 192.226 206.151C196.756 204.661 203.65 206.362 207.988 207.432C208.039 207.445 208.09 207.457 208.139 207.47C209.781 207.897 211.684 208.389 213.702 208.841H217.863Z" fill="black"/>
<path d="M186.667 167V187.667H166V208.333H186.667V229H207.333V208.333H228V187.667H207.333V167H186.667Z" stroke="black"/>
<mask id="mask0" mask-type="alpha" maskUnits="userSpaceOnUse" x="289" y="167" width="62" height="62">
<path d="M309.682 208H289.5V188H309.631H310.131V187.5V167.5H330V187.5V188H330.5L350.5 188V208H330.364H329.864V208.5V228.5H310.182V208.5V208H309.682Z" fill="#C4C4C4" stroke="black"/>
</mask>
<g mask="url(#mask0)">
<path d="M305 213.479C305.059 213.479 307.888 213.656 313.842 215.605C314.608 215.841 322.507 218.498 322.566 218.498C320.621 217.494 318.912 216.313 314.137 214.719C307.947 212.829 305.059 213.479 305 213.479Z" fill="black"/>
<path d="M316.554 214.601C316.554 214.601 316.731 214.365 317.143 214.129C319.265 212.712 322.507 214.365 324.512 215.369C326.634 216.491 329.699 218.085 332.234 218.026C332.705 218.026 333 217.908 333 217.908C332.705 217.79 332.116 218.498 324.983 214.601C317.792 211.058 316.848 214.483 316.554 214.601Z" fill="black"/>
<path d="M311.366 221.332C311.189 221.45 311.13 221.509 311.13 221.509C311.13 221.509 311.189 221.45 311.366 221.332C313.547 220.506 329.286 220.801 327.282 218.675L327.223 218.616C324.158 216.845 323.627 216.668 320.031 215.132C320.09 215.191 325.514 218.38 326.339 218.911C323.981 219.502 313.429 220.092 311.366 221.332ZM326.692 219.266C326.692 219.266 326.692 219.325 326.692 219.266V219.266Z" fill="black"/>
<path d="M331.671 200.366L325.969 186.256L323.621 191.519L323.957 191.407C323.957 191.519 318.814 202.158 319.149 201.486C319.149 201.374 321.497 194.319 321.385 194.767L315.795 182L306.963 197.566L304.503 192.303L295 206.19V208.653L298.242 204.51V210.445L296.565 213.469L301.932 208.429V209.549L302.938 207.758L301.149 204.51H302.267L301.037 200.926L303.385 197.902L305.845 202.718L314.789 187.823V188.047L312.106 193.871L314.789 196.335L313.559 193.647L316.578 197.343L315.236 192.303L315.795 192.639L316.019 191.183L317.807 196.783C314.118 212.573 315.46 207.086 315.124 208.317L316.913 205.63L322.615 199.694L324.18 201.822L324.292 201.598L324.963 199.582L330.106 206.75L331.783 204.734L335.584 212.461L336.814 211.341L341.062 216.157V218.508L342.739 220.076H349L335.696 198.686L331.671 200.366ZM335.36 208.317L335.248 206.302L337.149 207.981C337.037 207.869 335.472 205.63 335.137 205.294L334.913 201.598L339.05 209.773L335.36 208.317Z" fill="black"/>
<path d="M325.522 204.51L323.845 202.382V205.406L320.267 207.757L322.056 208.989L325.522 204.51Z" fill="black"/>
<path d="M312.776 206.525V210.109L308.751 213.917H314.789L319.932 208.317C319.596 208.541 314.118 211.901 314.342 211.789V208.317L312.776 206.525Z" fill="black"/>
</g>
<path d="M309.682 208H289.5V188H309.631H310.131V187.5V167.5H330V187.5V188H330.5L350.5 188V208H330.364H329.864V208.5V228.5H310.182V208.5V208H309.682Z" stroke="black"/>
<path d="M63.6667 167V187.667H43V208.333H63.6667V229H84.3333V208.333H105V187.667H84.3333V167H63.6667Z" stroke="black"/>
<path d="M56 200L57.8838 198.587C58.2845 198.287 58.8607 198.437 59.0641 198.894V198.894C59.2943 199.412 59.9828 199.519 60.3594 199.096L60.722 198.688C61.0676 198.299 61.6534 198.24 62.0694 198.552L64 200" stroke="black" stroke-width="0.75"/>
<path d="M84.4615 197L82.3993 198.489C82.3896 198.496 82.3553 198.511 82.344 198.515V198.515C82.1957 198.568 82.1224 198.352 82.2589 198.273L84.4615 197ZM84.4615 197L84.6166 197.336C84.8724 197.89 85.6094 198.007 86.0234 197.558V197.558C86.3173 197.24 86.8028 197.191 87.1541 197.445L88.3532 198.311C88.5237 198.434 88.7285 198.5 88.9387 198.5H90" stroke="black" stroke-width="0.75"/>
<path d="M71 202L72.7417 200.585C73.086 200.305 73.6038 200.463 73.7343 200.886V200.886C73.881 201.363 74.4995 201.485 74.816 201.099L74.9589 200.925C75.1663 200.672 75.5142 200.584 75.8171 200.707L77.5882 201.426C77.7078 201.475 77.8356 201.5 77.9646 201.5H79" stroke="black" stroke-width="0.75"/>
<path d="M43 202.5H54.8717C54.9499 202.5 55.0209 202.454 55.0535 202.383L60.3031 190.93C60.3767 190.769 60.6072 190.776 60.6713 190.94L67.3497 208.114C67.4104 208.27 67.6245 208.287 67.7089 208.142L74.3481 196.76C74.4202 196.637 74.595 196.627 74.6809 196.741L78.8156 202.254C78.9024 202.37 79.0795 202.358 79.1501 202.232L85.804 190.35C85.8846 190.206 86.0951 190.216 86.1616 190.367L91.4474 202.381C91.4794 202.453 91.5512 202.5 91.6305 202.5H104.5" stroke="black"/>
<defs>
<filter id="filter0_d" x="547" y="179.932" width="50.1289" height="22.687" filterUnits="userSpaceOnUse" color-interpolation-filters="sRGB">
<feFlood flood-opacity="0" result="BackgroundImageFix"/>
<feColorMatrix in="SourceAlpha" type="matrix" values="0 0 0 0 0 0 0 0 0 0 0 0 0 0 0 0 0 0 127 0"/>
<feOffset dy="4"/>
<feGaussianBlur stdDeviation="2"/>
<feColorMatrix type="matrix" values="0 0 0 0 0 0 0 0 0 0 0 0 0 0 0 0 0 0 0.25 0"/>
<feBlend mode="normal" in2="BackgroundImageFix" result="effect1_dropShadow"/>
<feBlend mode="normal" in="SourceGraphic" in2="effect1_dropShadow" result="shape"/>
</filter>
<filter id="filter1_d" x="553.384" y="69.8564" width="31.2727" height="31.2727" filterUnits="userSpaceOnUse" color-interpolation-filters="sRGB">
<feFlood flood-opacity="0" result="BackgroundImageFix"/>
<feColorMatrix in="SourceAlpha" type="matrix" values="0 0 0 0 0 0 0 0 0 0 0 0 0 0 0 0 0 0 127 0"/>
<feOffset dy="4"/>
<feGaussianBlur stdDeviation="2"/>
<feColorMatrix type="matrix" values="0 0 0 0 0 0 0 0 0 0 0 0 0 0 0 0 0 0 0.25 0"/>
<feBlend mode="normal" in2="BackgroundImageFix" result="effect1_dropShadow"/>
<feBlend mode="normal" in="SourceGraphic" in2="effect1_dropShadow" result="shape"/>
</filter>
<clipPath id="clip0">
<rect width="70" height="70" fill="white" transform="translate(537 162)"/>
</clipPath>
<clipPath id="clip1">
<rect width="70" height="70" fill="white" transform="translate(534 56)"/>
</clipPath>
</defs>
</svg>
