<svg width="462" height="76" viewBox="0 0 462 76" fill="none" xmlns="http://www.w3.org/2000/svg">
<g clip-path="url(#clip0)">
<path d="M224.984 38.9381L211.551 60.9443C211.102 61.6798 210.573 62.2069 210.007 62.544C208.294 63.5673 206.246 62.8571 205.074 60.9378L191.644 38.9381C183.981 26.1433 193.163 9.57715 208.315 9.57715C208.879 9.57715 209.436 9.59998 209.983 9.64564C224.149 10.8071 232.345 26.6489 224.984 38.9381Z" fill="#00665C"/>
<path d="M224.984 38.938L211.551 60.9442C211.102 61.6796 210.573 62.2068 210.007 62.5439C209.396 62.1917 208.842 61.6478 208.409 60.9377L194.98 38.938C187.601 26.6194 195.838 10.8049 209.983 9.64551C224.149 10.807 232.345 26.6487 224.984 38.938Z" fill="#00746A"/>
<path d="M223.736 33.5426C222.978 36.1285 221.57 38.5036 219.663 40.4099C217.57 42.5033 214.933 43.9746 212.038 44.6647C211.376 44.8225 210.714 44.9367 210.054 45.0084C202.126 45.8796 194.583 40.7185 192.685 32.764C192.037 30.0452 192.108 27.1984 192.889 24.5322C193.647 21.946 195.056 19.5721 196.962 17.6658C199.056 15.5716 201.692 14.1003 204.587 13.4109C206.427 12.9714 208.27 12.8703 210.052 13.066C216.61 13.786 222.324 18.535 223.94 25.3117C224.588 28.0305 224.518 30.876 223.736 33.5426Z" fill="#39998E"/>
<path d="M223.736 33.542C222.977 36.1279 221.569 38.503 219.663 40.4093C217.57 42.5027 214.933 43.974 212.038 44.6641C211.376 44.8219 210.713 44.9361 210.053 45.0078C203.495 44.2891 197.78 39.5401 196.165 32.7634C195.517 30.0446 195.587 27.1978 196.369 24.5316C197.127 21.9454 198.535 19.5715 200.442 17.6652C202.535 15.571 205.172 14.0997 208.067 13.4103C208.729 13.2526 209.391 13.1372 210.051 13.0654C216.609 13.7854 222.324 18.5344 223.94 25.3111C224.588 28.0299 224.518 30.8754 223.736 33.542Z" fill="#59B9AE"/>
<g filter="url(#filter0_d)">
<path d="M205.479 21.5361V25.2034C205.479 25.7557 205.031 26.2034 204.479 26.2034H200.812C200.259 26.2034 199.812 26.6511 199.812 27.2034V30.8707C199.812 31.423 200.259 31.8707 200.812 31.8707H204.479C205.031 31.8707 205.479 32.3184 205.479 32.8707V36.538C205.479 37.0903 205.927 37.538 206.479 37.538H210.146C210.698 37.538 211.146 37.0903 211.146 36.538V32.8707C211.146 32.3184 211.594 31.8707 212.146 31.8707H215.813C216.366 31.8707 216.813 31.423 216.813 30.8707V27.2034C216.813 26.6511 216.366 26.2034 215.813 26.2034H212.146C211.594 26.2034 211.146 25.7557 211.146 25.2034V21.5361C211.146 20.9838 210.698 20.5361 210.146 20.5361H206.479C205.927 20.5361 205.479 20.9838 205.479 21.5361Z" fill="#DA674A"/>
<path d="M205.479 21.5361V25.2034C205.479 25.7557 205.031 26.2034 204.479 26.2034H200.812C200.259 26.2034 199.812 26.6511 199.812 27.2034V30.8707C199.812 31.423 200.259 31.8707 200.812 31.8707H204.479C205.031 31.8707 205.479 32.3184 205.479 32.8707V36.538C205.479 37.0903 205.927 37.538 206.479 37.538H210.146C210.698 37.538 211.146 37.0903 211.146 36.538V32.8707C211.146 32.3184 211.594 31.8707 212.146 31.8707H215.813C216.366 31.8707 216.813 31.423 216.813 30.8707V27.2034C216.813 26.6511 216.366 26.2034 215.813 26.2034H212.146C211.594 26.2034 211.146 25.7557 211.146 25.2034V21.5361C211.146 20.9838 210.698 20.5361 210.146 20.5361H206.479C205.927 20.5361 205.479 20.9838 205.479 21.5361Z" stroke="black" stroke-width="0.25"/>
</g>
</g>
<path d="M240.917 44.7764C241.613 44.7764 242.234 44.6154 242.781 44.2935C243.327 43.9715 243.788 43.541 244.162 43.002C244.536 42.4554 244.821 41.8265 245.016 41.1152C245.21 40.3965 245.308 39.6478 245.308 38.8691C245.308 38.0306 245.199 37.2445 244.982 36.5107C244.765 35.7695 244.454 35.1219 244.05 34.5679C243.653 34.0138 243.17 33.5758 242.601 33.2539C242.04 32.932 241.414 32.771 240.726 32.771C240.029 32.771 239.408 32.9357 238.861 33.2651C238.322 33.5871 237.866 34.0213 237.491 34.5679C237.124 35.1069 236.844 35.7358 236.649 36.4546C236.454 37.1659 236.357 37.9108 236.357 38.6895C236.357 39.528 236.465 40.3179 236.683 41.0591C236.9 41.7928 237.207 42.4367 237.604 42.9907C238 43.5373 238.479 43.9715 239.041 44.2935C239.603 44.6154 240.228 44.7764 240.917 44.7764ZM240.535 47.2246C239.359 47.2246 238.266 47.0449 237.255 46.6855C236.252 46.3187 235.38 45.7909 234.639 45.1021C233.897 44.4058 233.313 43.556 232.887 42.5527C232.467 41.5495 232.258 40.4077 232.258 39.1274C232.258 37.8172 232.479 36.623 232.92 35.5449C233.37 34.4593 233.987 33.5309 234.773 32.7598C235.567 31.9886 236.503 31.3896 237.581 30.9629C238.667 30.5361 239.85 30.3228 241.13 30.3228C242.298 30.3228 243.383 30.5024 244.387 30.8618C245.397 31.2212 246.273 31.749 247.015 32.4453C247.756 33.1341 248.336 33.9801 248.755 34.9834C249.182 35.9867 249.396 37.1284 249.396 38.4087C249.396 39.2847 249.294 40.112 249.092 40.8906C248.89 41.6618 248.602 42.3768 248.228 43.0356C247.861 43.687 247.411 44.271 246.88 44.7876C246.348 45.3042 245.753 45.7459 245.094 46.1128C244.443 46.4722 243.732 46.7492 242.96 46.9438C242.197 47.131 241.388 47.2246 240.535 47.2246ZM252.327 35.0957H256.224V42.5303C256.224 42.8447 256.265 43.133 256.347 43.395C256.43 43.6496 256.546 43.8667 256.695 44.0464C256.845 44.2261 257.021 44.3646 257.223 44.4619C257.433 44.5592 257.661 44.6079 257.908 44.6079C258.29 44.6079 258.653 44.5031 258.998 44.2935C259.349 44.0763 259.683 43.818 259.997 43.5186V35.0957H263.894V47H260.604L260.121 45.0571C259.851 45.2967 259.559 45.5475 259.245 45.8096C258.938 46.0641 258.608 46.2962 258.256 46.5059C257.912 46.7155 257.549 46.8877 257.167 47.0225C256.793 47.1572 256.4 47.2246 255.988 47.2246C255.531 47.2246 255.082 47.1385 254.64 46.9663C254.206 46.7941 253.817 46.5396 253.472 46.2026C253.128 45.8582 252.851 45.4277 252.641 44.9111C252.431 44.3945 252.327 43.7918 252.327 43.103V35.0957ZM268.195 37.5103H265.803L266.05 35.8594C266.447 35.7171 266.792 35.5824 267.083 35.4551C267.375 35.3278 267.63 35.193 267.847 35.0508C268.072 34.901 268.266 34.7401 268.431 34.5679C268.603 34.3957 268.764 34.1935 268.914 33.9614C269.071 33.7218 269.229 33.4523 269.386 33.1528C269.543 32.8534 269.723 32.5015 269.925 32.0972H271.856V35.0957H276.068L275.518 37.5103H272.092V42.5977C272.092 43.3389 272.283 43.8592 272.665 44.1587C273.054 44.4582 273.608 44.6079 274.327 44.6079C274.612 44.6079 274.9 44.5854 275.192 44.5405C275.491 44.4881 275.78 44.4058 276.057 44.2935V45.9668C275.473 46.3936 274.829 46.7118 274.125 46.9214C273.429 47.1235 272.732 47.2246 272.036 47.2246C271.347 47.2246 270.76 47.131 270.273 46.9438C269.786 46.7492 269.389 46.4722 269.083 46.1128C268.776 45.7534 268.551 45.3192 268.409 44.8101C268.266 44.3009 268.195 43.7282 268.195 43.0918V37.5103ZM283.323 44.7764C283.675 44.7764 284.012 44.7389 284.333 44.6641C284.655 44.5817 284.94 44.4582 285.187 44.2935C285.434 44.1287 285.632 43.9191 285.782 43.6646C285.932 43.41 286.007 43.1068 286.007 42.7549C286.007 42.3356 285.902 41.98 285.692 41.688C285.483 41.396 285.202 41.1414 284.85 40.9243C284.506 40.6997 284.113 40.4976 283.671 40.3179C283.229 40.1307 282.776 39.9398 282.312 39.7451C281.855 39.543 281.406 39.3221 280.964 39.0825C280.53 38.8354 280.137 38.5397 279.785 38.1953C279.441 37.8509 279.164 37.4429 278.954 36.9712C278.744 36.492 278.64 35.923 278.64 35.2642C278.64 34.508 278.786 33.8267 279.078 33.2202C279.37 32.6063 279.785 32.0859 280.324 31.6592C280.863 31.2324 281.511 30.903 282.267 30.6709C283.031 30.4388 283.881 30.3228 284.816 30.3228C285.071 30.3228 285.367 30.334 285.704 30.3564C286.048 30.3714 286.415 30.4014 286.804 30.4463C287.194 30.4912 287.594 30.5511 288.006 30.626C288.418 30.7008 288.822 30.7944 289.219 30.9067L288.646 33.5459L288.444 33.6357C288.092 33.4785 287.74 33.3475 287.388 33.2427C287.044 33.1304 286.707 33.0405 286.377 32.9731C286.056 32.8983 285.752 32.8459 285.468 32.8159C285.183 32.786 284.932 32.771 284.715 32.771C283.997 32.771 283.42 32.9245 282.986 33.2314C282.559 33.5384 282.346 33.9876 282.346 34.5791C282.346 34.9984 282.451 35.354 282.66 35.646C282.87 35.9305 283.147 36.1851 283.491 36.4097C283.843 36.6343 284.24 36.8402 284.682 37.0273C285.123 37.207 285.573 37.3979 286.029 37.6001C286.493 37.8022 286.946 38.0231 287.388 38.2627C287.83 38.5023 288.223 38.7943 288.567 39.1387C288.919 39.4831 289.2 39.8911 289.41 40.3628C289.619 40.827 289.724 41.3848 289.724 42.0361C289.724 42.7998 289.574 43.4998 289.275 44.1362C288.975 44.7651 288.545 45.3117 287.983 45.7759C287.429 46.2326 286.756 46.5882 285.962 46.8428C285.176 47.0973 284.289 47.2246 283.3 47.2246C282.933 47.2246 282.537 47.2021 282.11 47.1572C281.683 47.1198 281.241 47.0599 280.785 46.9775C280.335 46.8952 279.879 46.7866 279.415 46.6519C278.95 46.5171 278.501 46.3524 278.067 46.1577L278.651 43.5073L278.875 43.395C279.302 43.5972 279.71 43.7843 280.1 43.9565C280.489 44.1287 280.863 44.2747 281.223 44.3945C281.59 44.5143 281.945 44.6079 282.29 44.6753C282.634 44.7427 282.978 44.7764 283.323 44.7764ZM292.419 35.0957H295.71L296.182 37.0498C296.451 36.8102 296.743 36.5632 297.058 36.3086C297.372 36.054 297.705 35.8219 298.057 35.6123C298.409 35.3952 298.776 35.2192 299.158 35.0845C299.54 34.9422 299.933 34.8711 300.337 34.8711C300.749 34.8711 301.131 34.931 301.482 35.0508C301.834 35.1706 302.149 35.3353 302.426 35.5449C302.71 35.7471 302.954 35.9867 303.156 36.2637C303.365 36.5332 303.53 36.8177 303.65 37.1172C303.957 36.8626 304.271 36.6043 304.593 36.3423C304.915 36.0728 305.252 35.8294 305.604 35.6123C305.956 35.3952 306.326 35.2192 306.716 35.0845C307.113 34.9422 307.536 34.8711 307.985 34.8711C308.554 34.8711 309.067 34.9797 309.523 35.1968C309.98 35.4139 310.366 35.7096 310.68 36.084C311.002 36.4583 311.245 36.8963 311.41 37.3979C311.582 37.8996 311.668 38.4349 311.668 39.0039V47H307.76V39.543C307.76 39.2285 307.719 38.944 307.637 38.6895C307.554 38.4349 307.438 38.2215 307.289 38.0493C307.139 37.8696 306.963 37.7349 306.761 37.645C306.559 37.5477 306.334 37.499 306.087 37.499C305.698 37.499 305.334 37.6001 304.998 37.8022C304.668 38.0044 304.324 38.2627 303.964 38.5771C303.979 38.6445 303.987 38.7157 303.987 38.7905C303.987 38.8579 303.987 38.929 303.987 39.0039V47H300.09V39.543C300.09 38.9066 299.933 38.4087 299.618 38.0493C299.304 37.6825 298.899 37.499 298.405 37.499C298.031 37.499 297.675 37.6001 297.338 37.8022C297.009 38.0044 296.668 38.259 296.316 38.5659V47H292.419V35.0957ZM321.473 45.2817C321.248 45.4689 320.993 45.6748 320.709 45.8994C320.424 46.124 320.114 46.3374 319.777 46.5396C319.44 46.7342 319.081 46.8952 318.699 47.0225C318.317 47.1572 317.913 47.2246 317.486 47.2246C316.969 47.2246 316.516 47.1273 316.127 46.9326C315.738 46.7305 315.412 46.4684 315.15 46.1465C314.895 45.8245 314.701 45.4614 314.566 45.0571C314.439 44.6528 314.375 44.2485 314.375 43.8442C314.375 43.2902 314.499 42.7699 314.746 42.2832C315 41.7965 315.393 41.3735 315.925 41.0142C316.456 40.6473 317.134 40.359 317.958 40.1494C318.781 39.9398 319.762 39.835 320.9 39.835H321.338V39.1387C321.338 38.5322 321.151 38.0718 320.776 37.7573C320.402 37.4429 319.9 37.2856 319.271 37.2856C318.994 37.2856 318.702 37.3193 318.396 37.3867C318.096 37.4541 317.793 37.5477 317.486 37.6675C317.179 37.7798 316.879 37.9146 316.587 38.0718C316.295 38.229 316.022 38.3975 315.768 38.5771L315.565 38.4648L314.903 36.0952C315.869 35.646 316.782 35.3315 317.643 35.1519C318.504 34.9647 319.35 34.8711 320.181 34.8711C320.892 34.8711 321.555 34.9385 322.169 35.0732C322.79 35.208 323.326 35.4289 323.775 35.7358C324.232 36.0353 324.591 36.4284 324.853 36.915C325.115 37.4017 325.246 38.0007 325.246 38.7119V43.4961C325.246 43.6309 325.257 43.7656 325.28 43.9004C325.302 44.0277 325.343 44.1437 325.403 44.2485C325.463 44.3534 325.546 44.4395 325.65 44.5068C325.755 44.5742 325.89 44.6079 326.055 44.6079C326.16 44.6079 326.261 44.6004 326.358 44.5854C326.463 44.5705 326.579 44.5368 326.706 44.4844V46.1465C326.219 46.4834 325.733 46.7492 325.246 46.9438C324.759 47.131 324.288 47.2246 323.831 47.2246C323.24 47.2246 322.753 47.0562 322.371 46.7192C321.989 46.3823 321.69 45.9032 321.473 45.2817ZM321.338 41.2051H320.911C320.32 41.2051 319.829 41.25 319.44 41.3398C319.058 41.4222 318.751 41.542 318.519 41.6992C318.294 41.8564 318.137 42.0474 318.047 42.272C317.958 42.4891 317.913 42.7362 317.913 43.0132C317.913 43.2977 317.954 43.541 318.036 43.7432C318.118 43.9378 318.227 44.1025 318.362 44.2373C318.504 44.3646 318.665 44.4582 318.845 44.5181C319.032 44.578 319.227 44.6079 319.429 44.6079C319.706 44.6079 320.001 44.5518 320.316 44.4395C320.638 44.3197 320.979 44.11 321.338 43.8105V41.2051ZM328.806 35.0957H332.097L332.568 38.5884C332.688 38.3713 332.808 38.1504 332.928 37.9258C333.055 37.7012 333.171 37.4953 333.276 37.3081C333.388 37.1134 333.486 36.945 333.568 36.8027C333.658 36.6605 333.721 36.5557 333.759 36.4883C333.901 36.2562 334.062 36.0428 334.242 35.8481C334.421 35.646 334.62 35.4738 334.837 35.3315C335.054 35.1893 335.297 35.077 335.567 34.9946C335.836 34.9123 336.136 34.8711 336.465 34.8711C336.682 34.8711 336.918 34.901 337.173 34.9609C337.435 35.0133 337.674 35.1032 337.892 35.2305L337.465 38.7344C337.397 38.7194 337.308 38.7082 337.195 38.7007C337.083 38.6857 336.963 38.6745 336.836 38.667C336.716 38.6595 336.596 38.6558 336.477 38.6558C336.364 38.6483 336.263 38.6445 336.173 38.6445C335.417 38.6445 334.74 38.7905 334.141 39.0825C333.549 39.3745 333.07 39.7489 332.703 40.2056V47H328.806V35.0957ZM341.418 37.5103H339.026L339.273 35.8594C339.67 35.7171 340.014 35.5824 340.306 35.4551C340.598 35.3278 340.853 35.193 341.07 35.0508C341.294 34.901 341.489 34.7401 341.654 34.5679C341.826 34.3957 341.987 34.1935 342.137 33.9614C342.294 33.7218 342.451 33.4523 342.608 33.1528C342.766 32.8534 342.945 32.5015 343.147 32.0972H345.079V35.0957H349.291L348.74 37.5103H345.315V42.5977C345.315 43.3389 345.506 43.8592 345.888 44.1587C346.277 44.4582 346.831 44.6079 347.55 44.6079C347.834 44.6079 348.123 44.5854 348.415 44.5405C348.714 44.4881 349.002 44.4058 349.279 44.2935V45.9668C348.695 46.3936 348.051 46.7118 347.348 46.9214C346.651 47.1235 345.955 47.2246 345.259 47.2246C344.57 47.2246 343.982 47.131 343.496 46.9438C343.009 46.7492 342.612 46.4722 342.305 46.1128C341.998 45.7534 341.774 45.3192 341.631 44.8101C341.489 44.3009 341.418 43.7282 341.418 43.0918V37.5103Z" fill="black"/>
<g clip-path="url(#clip1)">
<path d="M76.6329 27.4862L63.1374 48.0872C62.686 48.7756 62.1552 49.2691 61.5859 49.5847C59.8654 50.5426 57.8081 49.8778 56.6306 48.0811L43.1383 27.4862C35.4398 15.5084 44.6644 0 59.8862 0C60.4531 0 61.0125 0.0213719 61.5622 0.0641157C75.7937 1.15141 84.028 15.9816 76.6329 27.4862Z" fill="#00665C"/>
<path d="M76.6331 27.4855L63.1375 48.0865C62.6862 48.775 62.1554 49.2685 61.5861 49.5841C60.9722 49.2543 60.4164 48.7452 59.9814 48.0804L46.4891 27.4855C39.0769 15.9535 47.3513 1.14886 61.5623 0.0634766C75.7939 1.15077 84.0282 15.981 76.6331 27.4855Z" fill="#00746A"/>
<path d="M75.3789 22.4341C74.6172 24.8548 73.2025 27.0783 71.2874 28.8628C69.1843 30.8226 66.5352 32.1999 63.6269 32.846C62.9618 32.9937 62.2962 33.1006 61.6332 33.1677C53.6688 33.9833 46.0902 29.1517 44.1841 21.7052C43.5329 19.16 43.6037 16.495 44.3893 13.9991C45.1506 11.5779 46.5657 9.35563 48.4808 7.57108C50.5839 5.61059 53.233 4.23324 56.1413 3.58789C57.9897 3.17648 59.8413 3.08183 61.6311 3.26502C68.2198 3.939 73.9606 8.38474 75.5841 14.7288C76.2353 17.2739 76.1645 19.9378 75.3789 22.4341Z" fill="#39998E"/>
<path d="M75.3788 22.4347C74.617 24.8554 73.2023 27.0789 71.2872 28.8634C69.1841 30.8232 66.535 32.2005 63.6267 32.8466C62.9616 32.9943 62.296 33.1012 61.633 33.1684C55.0443 32.4955 49.303 28.0498 47.6799 21.7058C47.0287 19.1606 47.0996 16.4956 47.8851 13.9997C48.6465 11.5785 50.0615 9.35624 51.9767 7.57168C54.0794 5.61119 56.7288 4.23385 59.6372 3.58849C60.3023 3.4408 60.9678 3.33279 61.6309 3.26562C68.2196 3.9396 73.9604 8.38534 75.584 14.7294C76.2352 17.2745 76.1643 19.9384 75.3788 22.4347Z" fill="#59B9AE"/>
<g filter="url(#filter1_d)">
<path d="M57.0373 11.2588V14.5642C57.0373 15.1165 56.5896 15.5642 56.0373 15.5642H52.3438C51.7915 15.5642 51.3438 16.0119 51.3438 16.5642V19.8696C51.3438 20.4219 51.7915 20.8696 52.3438 20.8696H56.0373C56.5896 20.8696 57.0373 21.3173 57.0373 21.8696V25.175C57.0373 25.7273 57.4851 26.175 58.0373 26.175H61.7309C62.2832 26.175 62.7309 25.7273 62.7309 25.175V21.8696C62.7309 21.3173 63.1786 20.8696 63.7309 20.8696H67.4245C67.9768 20.8696 68.4245 20.4219 68.4245 19.8696V16.5642C68.4245 16.0119 67.9768 15.5642 67.4245 15.5642H63.7309C63.1786 15.5642 62.7309 15.1165 62.7309 14.5642V11.2588C62.7309 10.7065 62.2832 10.2588 61.7309 10.2588H58.0373C57.4851 10.2588 57.0373 10.7065 57.0373 11.2588Z" fill="#DA674A"/>
<path d="M57.0373 11.2588V14.5642C57.0373 15.1165 56.5896 15.5642 56.0373 15.5642H52.3438C51.7915 15.5642 51.3438 16.0119 51.3438 16.5642V19.8696C51.3438 20.4219 51.7915 20.8696 52.3438 20.8696H56.0373C56.5896 20.8696 57.0373 21.3173 57.0373 21.8696V25.175C57.0373 25.7273 57.4851 26.175 58.0373 26.175H61.7309C62.2832 26.175 62.7309 25.7273 62.7309 25.175V21.8696C62.7309 21.3173 63.1786 20.8696 63.7309 20.8696H67.4245C67.9768 20.8696 68.4245 20.4219 68.4245 19.8696V16.5642C68.4245 16.0119 67.9768 15.5642 67.4245 15.5642H63.7309C63.1786 15.5642 62.7309 15.1165 62.7309 14.5642V11.2588C62.7309 10.7065 62.2832 10.2588 61.7309 10.2588H58.0373C57.4851 10.2588 57.0373 10.7065 57.0373 11.2588Z" stroke="black" stroke-width="0.25"/>
</g>
</g>
<path d="M9.9165 73.0723C10.6128 73.0723 11.2342 72.9113 11.7808 72.5894C12.3273 72.2674 12.7878 71.8369 13.1621 71.2979C13.5365 70.7513 13.821 70.1224 14.0156 69.4111C14.2103 68.6924 14.3076 67.9437 14.3076 67.165C14.3076 66.3265 14.1991 65.5404 13.9819 64.8066C13.7648 64.0654 13.4541 63.4178 13.0498 62.8638C12.653 62.3097 12.1701 61.8717 11.6011 61.5498C11.0396 61.2279 10.4144 61.0669 9.72559 61.0669C9.0293 61.0669 8.40788 61.2316 7.86133 61.561C7.32227 61.883 6.86556 62.3172 6.49121 62.8638C6.12435 63.4028 5.84359 64.0317 5.64893 64.7505C5.45426 65.4618 5.35693 66.2067 5.35693 66.9854C5.35693 67.8239 5.46549 68.6138 5.68262 69.355C5.89974 70.0887 6.20671 70.7326 6.60352 71.2866C7.00033 71.8332 7.47949 72.2674 8.04102 72.5894C8.60254 72.9113 9.2277 73.0723 9.9165 73.0723ZM9.53467 75.5205C8.35921 75.5205 7.26611 75.3408 6.25537 74.9814C5.25212 74.6146 4.37988 74.0868 3.63867 73.3979C2.89746 72.7017 2.31348 71.8519 1.88672 70.8486C1.46745 69.8454 1.25781 68.7036 1.25781 67.4233C1.25781 66.1131 1.47868 64.9189 1.92041 63.8408C2.36963 62.7552 2.9873 61.8268 3.77344 61.0557C4.56706 60.2845 5.50293 59.6855 6.58105 59.2588C7.66667 58.832 8.84961 58.6187 10.1299 58.6187C11.2979 58.6187 12.3835 58.7983 13.3867 59.1577C14.3975 59.5171 15.2734 60.0449 16.0146 60.7412C16.7559 61.43 17.3361 62.276 17.7554 63.2793C18.1821 64.2826 18.3955 65.4243 18.3955 66.7046C18.3955 67.5806 18.2944 68.4079 18.0923 69.1865C17.8901 69.9577 17.6019 70.6727 17.2275 71.3315C16.8607 71.9829 16.4115 72.5669 15.8799 73.0835C15.3483 73.6001 14.7531 74.0418 14.0942 74.4087C13.4429 74.7681 12.7316 75.0451 11.9604 75.2397C11.1968 75.4269 10.3882 75.5205 9.53467 75.5205ZM21.3267 63.3916H25.2236V70.8262C25.2236 71.1406 25.2648 71.4289 25.3472 71.6909C25.4295 71.9455 25.5456 72.1626 25.6953 72.3423C25.8451 72.522 26.021 72.6605 26.2231 72.7578C26.4328 72.8551 26.6611 72.9038 26.9082 72.9038C27.29 72.9038 27.6532 72.799 27.9976 72.5894C28.3494 72.3722 28.6826 72.1139 28.9971 71.8145V63.3916H32.894V75.2959H29.6035L29.1206 73.353C28.8511 73.5926 28.5591 73.8434 28.2446 74.1055C27.9377 74.36 27.6082 74.5921 27.2563 74.8018C26.9119 75.0114 26.5488 75.1836 26.167 75.3184C25.7926 75.4531 25.3996 75.5205 24.9878 75.5205C24.5311 75.5205 24.0819 75.4344 23.6401 75.2622C23.2059 75.09 22.8166 74.8354 22.4722 74.4985C22.1278 74.1541 21.8507 73.7236 21.6411 73.207C21.4315 72.6904 21.3267 72.0877 21.3267 71.3989V63.3916ZM37.1953 65.8062H34.8032L35.0503 64.1553C35.4471 64.013 35.7915 63.8783 36.0835 63.751C36.3755 63.6237 36.63 63.4889 36.8472 63.3467C37.0718 63.1969 37.2664 63.036 37.4312 62.8638C37.6034 62.6916 37.7643 62.4894 37.9141 62.2573C38.0713 62.0177 38.2285 61.7482 38.3857 61.4487C38.543 61.1493 38.7227 60.7974 38.9248 60.3931H40.8564V63.3916H45.0679L44.5176 65.8062H41.0923V70.8936C41.0923 71.6348 41.2832 72.1551 41.665 72.4546C42.0544 72.7541 42.6084 72.9038 43.3271 72.9038C43.6117 72.9038 43.8999 72.8813 44.1919 72.8364C44.4914 72.784 44.7796 72.7017 45.0566 72.5894V74.2627C44.4727 74.6895 43.8288 75.0076 43.125 75.2173C42.4287 75.4194 41.7324 75.5205 41.0361 75.5205C40.3473 75.5205 39.7596 75.4269 39.2729 75.2397C38.7863 75.0451 38.3895 74.7681 38.0825 74.4087C37.7756 74.0493 37.5509 73.6151 37.4087 73.106C37.2664 72.5968 37.1953 72.0241 37.1953 71.3877V65.8062ZM52.3228 73.0723C52.6746 73.0723 53.0116 73.0348 53.3335 72.96C53.6554 72.8776 53.9399 72.7541 54.187 72.5894C54.4341 72.4246 54.6325 72.215 54.7822 71.9604C54.932 71.7059 55.0068 71.4027 55.0068 71.0508C55.0068 70.6315 54.902 70.2759 54.6924 69.9839C54.4827 69.6919 54.202 69.4373 53.8501 69.2202C53.5057 68.9956 53.1126 68.7935 52.6709 68.6138C52.2292 68.4266 51.7762 68.2357 51.312 68.041C50.8553 67.8389 50.4061 67.618 49.9644 67.3784C49.5301 67.1313 49.137 66.8356 48.7852 66.4912C48.4408 66.1468 48.1637 65.7388 47.9541 65.2671C47.7445 64.7879 47.6396 64.2189 47.6396 63.5601C47.6396 62.8039 47.7856 62.1226 48.0776 61.5161C48.3696 60.9022 48.7852 60.3818 49.3242 59.9551C49.8633 59.5283 50.5109 59.1989 51.2671 58.9668C52.0308 58.7347 52.8805 58.6187 53.8164 58.6187C54.071 58.6187 54.3667 58.6299 54.7036 58.6523C55.048 58.6673 55.4149 58.6973 55.8042 58.7422C56.1935 58.7871 56.5941 58.847 57.0059 58.9219C57.4176 58.9967 57.8219 59.0903 58.2188 59.2026L57.646 61.8418L57.4438 61.9316C57.092 61.7744 56.7401 61.6434 56.3882 61.5386C56.0438 61.4263 55.7069 61.3364 55.3774 61.269C55.0555 61.1942 54.7523 61.1418 54.4678 61.1118C54.1833 61.0819 53.9325 61.0669 53.7153 61.0669C52.9966 61.0669 52.4201 61.2204 51.9858 61.5273C51.5591 61.8343 51.3457 62.2835 51.3457 62.875C51.3457 63.2943 51.4505 63.6499 51.6602 63.9419C51.8698 64.2264 52.1468 64.481 52.4912 64.7056C52.8431 64.9302 53.2399 65.1361 53.6816 65.3232C54.1234 65.5029 54.5726 65.6938 55.0293 65.896C55.4935 66.0981 55.9465 66.319 56.3882 66.5586C56.8299 66.7982 57.223 67.0902 57.5674 67.4346C57.9193 67.779 58.2 68.187 58.4097 68.6587C58.6193 69.1229 58.7241 69.6807 58.7241 70.332C58.7241 71.0957 58.5744 71.7957 58.2749 72.4321C57.9754 73.061 57.5449 73.6076 56.9834 74.0718C56.4294 74.5285 55.7555 74.8841 54.9619 75.1387C54.1758 75.3932 53.2886 75.5205 52.3003 75.5205C51.9334 75.5205 51.5366 75.498 51.1099 75.4531C50.6831 75.4157 50.2414 75.3558 49.7847 75.2734C49.3354 75.1911 48.8787 75.0825 48.4146 74.9478C47.9504 74.813 47.5011 74.6483 47.0669 74.4536L47.6509 71.8032L47.8755 71.6909C48.3022 71.8931 48.7103 72.0802 49.0996 72.2524C49.4889 72.4246 49.8633 72.5706 50.2227 72.6904C50.5895 72.8102 50.9451 72.9038 51.2896 72.9712C51.634 73.0386 51.9784 73.0723 52.3228 73.0723ZM61.4194 63.3916H64.71L65.1816 65.3457C65.4512 65.1061 65.7432 64.859 66.0576 64.6045C66.3721 64.3499 66.7052 64.1178 67.0571 63.9082C67.409 63.6911 67.7759 63.5151 68.1577 63.3804C68.5396 63.2381 68.9326 63.167 69.3369 63.167C69.7487 63.167 70.1305 63.2269 70.4824 63.3467C70.8343 63.4665 71.1488 63.6312 71.4258 63.8408C71.7103 64.043 71.9536 64.2826 72.1558 64.5596C72.3654 64.8291 72.5301 65.1136 72.6499 65.4131C72.9569 65.1585 73.2713 64.9002 73.5933 64.6382C73.9152 64.3687 74.2521 64.1253 74.604 63.9082C74.9559 63.6911 75.3265 63.5151 75.7158 63.3804C76.1126 63.2381 76.5356 63.167 76.9849 63.167C77.5539 63.167 78.0667 63.2756 78.5234 63.4927C78.9801 63.7098 79.3657 64.0055 79.6802 64.3799C80.0021 64.7542 80.2454 65.1922 80.4102 65.6938C80.5824 66.1955 80.6685 66.7308 80.6685 67.2998V75.2959H76.7603V67.8389C76.7603 67.5244 76.7191 67.2399 76.6367 66.9854C76.5544 66.7308 76.4383 66.5174 76.2886 66.3452C76.1388 66.1655 75.9629 66.0308 75.7607 65.9409C75.5586 65.8436 75.334 65.7949 75.0869 65.7949C74.6976 65.7949 74.3345 65.896 73.9976 66.0981C73.6681 66.3003 73.3237 66.5586 72.9644 66.873C72.9793 66.9404 72.9868 67.0116 72.9868 67.0864C72.9868 67.1538 72.9868 67.2249 72.9868 67.2998V75.2959H69.0898V67.8389C69.0898 67.2025 68.9326 66.7046 68.6182 66.3452C68.3037 65.9784 67.8994 65.7949 67.4053 65.7949C67.0309 65.7949 66.6753 65.896 66.3384 66.0981C66.009 66.3003 65.6683 66.5549 65.3164 66.8618V75.2959H61.4194V63.3916ZM90.4727 73.5776C90.248 73.7648 89.9935 73.9707 89.709 74.1953C89.4245 74.4199 89.1138 74.6333 88.7769 74.8354C88.4399 75.0301 88.0806 75.1911 87.6987 75.3184C87.3169 75.4531 86.9126 75.5205 86.4858 75.5205C85.9692 75.5205 85.5163 75.4232 85.127 75.2285C84.7376 75.0264 84.4119 74.7643 84.1499 74.4424C83.8953 74.1204 83.7007 73.7573 83.5659 73.353C83.4386 72.9487 83.375 72.5444 83.375 72.1401C83.375 71.5861 83.4985 71.0658 83.7456 70.5791C84.0002 70.0924 84.3932 69.6694 84.9248 69.3101C85.4564 68.9432 86.134 68.6549 86.9575 68.4453C87.7811 68.2357 88.7619 68.1309 89.8999 68.1309H90.3379V67.4346C90.3379 66.8281 90.1507 66.3677 89.7764 66.0532C89.402 65.7388 88.9004 65.5815 88.2715 65.5815C87.9945 65.5815 87.7025 65.6152 87.3955 65.6826C87.096 65.75 86.7928 65.8436 86.4858 65.9634C86.1789 66.0757 85.8794 66.2104 85.5874 66.3677C85.2954 66.5249 85.0221 66.6934 84.7676 66.873L84.5654 66.7607L83.9028 64.3911C84.8687 63.9419 85.7821 63.6274 86.6431 63.4478C87.5041 63.2606 88.3501 63.167 89.1812 63.167C89.8924 63.167 90.555 63.2344 91.1689 63.3691C91.7904 63.5039 92.3257 63.7248 92.7749 64.0317C93.2316 64.3312 93.591 64.7243 93.853 65.2109C94.1151 65.6976 94.2461 66.2965 94.2461 67.0078V71.792C94.2461 71.9268 94.2573 72.0615 94.2798 72.1963C94.3022 72.3236 94.3434 72.4396 94.4033 72.5444C94.4632 72.6493 94.5456 72.7354 94.6504 72.8027C94.7552 72.8701 94.89 72.9038 95.0547 72.9038C95.1595 72.9038 95.2606 72.8963 95.3579 72.8813C95.4627 72.8664 95.5788 72.8327 95.7061 72.7803V74.4424C95.2194 74.7793 94.7327 75.0451 94.2461 75.2397C93.7594 75.4269 93.2878 75.5205 92.8311 75.5205C92.2396 75.5205 91.7529 75.3521 91.3711 75.0151C90.9893 74.6782 90.6898 74.1991 90.4727 73.5776ZM90.3379 69.501H89.9111C89.3197 69.501 88.8293 69.5459 88.4399 69.6357C88.0581 69.7181 87.7511 69.8379 87.519 69.9951C87.2944 70.1523 87.1372 70.3433 87.0474 70.5679C86.9575 70.785 86.9126 71.0321 86.9126 71.3091C86.9126 71.5936 86.9538 71.8369 87.0361 72.0391C87.1185 72.2337 87.2271 72.3984 87.3618 72.5332C87.5041 72.6605 87.665 72.7541 87.8447 72.814C88.0319 72.8739 88.2266 72.9038 88.4287 72.9038C88.7057 72.9038 89.0015 72.8477 89.3159 72.7354C89.6379 72.6156 89.9785 72.4059 90.3379 72.1064V69.501ZM97.8062 63.3916H101.097L101.568 66.8843C101.688 66.6672 101.808 66.4463 101.928 66.2217C102.055 65.9971 102.171 65.7912 102.276 65.604C102.388 65.4093 102.486 65.2409 102.568 65.0986C102.658 64.9564 102.721 64.8516 102.759 64.7842C102.901 64.5521 103.062 64.3387 103.242 64.144C103.421 63.9419 103.62 63.7697 103.837 63.6274C104.054 63.4852 104.297 63.3729 104.567 63.2905C104.836 63.2082 105.136 63.167 105.465 63.167C105.682 63.167 105.918 63.1969 106.173 63.2568C106.435 63.3092 106.674 63.3991 106.892 63.5264L106.465 67.0303C106.397 67.0153 106.308 67.0041 106.195 66.9966C106.083 66.9816 105.963 66.9704 105.836 66.9629C105.716 66.9554 105.596 66.9517 105.477 66.9517C105.364 66.9442 105.263 66.9404 105.173 66.9404C104.417 66.9404 103.74 67.0864 103.141 67.3784C102.549 67.6704 102.07 68.0448 101.703 68.5015V75.2959H97.8062V63.3916ZM110.418 65.8062H108.026L108.273 64.1553C108.67 64.013 109.014 63.8783 109.306 63.751C109.598 63.6237 109.853 63.4889 110.07 63.3467C110.294 63.1969 110.489 63.036 110.654 62.8638C110.826 62.6916 110.987 62.4894 111.137 62.2573C111.294 62.0177 111.451 61.7482 111.608 61.4487C111.766 61.1493 111.945 60.7974 112.147 60.3931H114.079V63.3916H118.291L117.74 65.8062H114.315V70.8936C114.315 71.6348 114.506 72.1551 114.888 72.4546C115.277 72.7541 115.831 72.9038 116.55 72.9038C116.834 72.9038 117.123 72.8813 117.415 72.8364C117.714 72.784 118.002 72.7017 118.279 72.5894V74.2627C117.695 74.6895 117.051 75.0076 116.348 75.2173C115.651 75.4194 114.955 75.5205 114.259 75.5205C113.57 75.5205 112.982 75.4269 112.496 75.2397C112.009 75.0451 111.612 74.7681 111.305 74.4087C110.998 74.0493 110.774 73.6151 110.631 73.106C110.489 72.5968 110.418 72.0241 110.418 71.3877V65.8062Z" fill="black"/>
<path fill-rule="evenodd" clip-rule="evenodd" d="M435.341 2.8623C442.897 2.8623 446.675 2.8623 450.742 4.0605C455.183 5.56671 458.681 8.82579 460.297 12.9639C461.583 16.7537 461.583 20.2746 461.583 27.3153V48.5473C461.583 55.5885 461.583 59.1083 460.297 62.8987C458.681 67.0368 455.183 70.2959 450.742 71.8015C446.675 73.0003 442.897 73.0003 435.341 73.0003H412.556C404.999 73.0003 401.222 73.0003 397.155 71.8015C392.714 70.2959 389.216 67.0368 387.6 62.8987C386.314 59.1083 386.314 55.5885 386.314 48.5473V27.3153C386.314 20.2746 386.314 16.7537 387.6 12.9639C389.216 8.82579 392.714 5.56671 397.155 4.0605C401.222 2.8623 404.999 2.8623 412.556 2.8623H435.341Z" fill="white" stroke="black" stroke-width="0.25"/>
<g clip-path="url(#clip2)">
<path d="M442.754 40.7084L427.616 63.8166C427.109 64.5889 426.514 65.1424 425.875 65.4965C423.946 66.571 421.638 65.8252 420.317 63.8098L405.183 40.7084C396.547 27.2728 406.895 9.87695 423.969 9.87695C424.605 9.87695 425.232 9.90093 425.849 9.94887C441.812 11.1685 451.049 27.8036 442.754 40.7084Z" fill="#00665C"/>
<path d="M442.753 40.7077L427.615 63.816C427.109 64.5883 426.514 65.1418 425.875 65.4958C425.186 65.126 424.563 64.5549 424.075 63.8092L408.941 40.7077C400.627 27.7722 409.908 11.1657 425.849 9.94824C441.812 11.1679 451.048 27.803 442.753 40.7077Z" fill="#00746A"/>
<path d="M441.347 35.0426C440.492 37.758 438.905 40.252 436.757 42.2538C434.398 44.452 431.427 45.997 428.165 46.7217C427.419 46.8874 426.672 47.0073 425.928 47.0826C416.995 47.9975 408.494 42.5778 406.356 34.225C405.625 31.37 405.705 28.3807 406.586 25.581C407.44 22.8652 409.027 20.3724 411.175 18.3707C413.534 16.1716 416.506 14.6266 419.768 13.9027C421.841 13.4412 423.918 13.335 425.926 13.5405C433.316 14.2965 439.756 19.2833 441.577 26.3995C442.307 29.2544 442.228 32.2425 441.347 35.0426Z" fill="#39998E"/>
<path d="M441.347 35.0421C440.492 37.7575 438.905 40.2515 436.757 42.2533C434.398 44.4515 431.427 45.9965 428.164 46.7213C427.418 46.8869 426.672 47.0068 425.928 47.0821C418.538 46.3274 412.098 41.3406 410.277 34.2245C409.547 31.3695 409.626 28.3802 410.507 25.5805C411.361 22.8647 412.949 20.3719 415.097 18.3702C417.455 16.1711 420.427 14.6261 423.689 13.9022C424.435 13.7365 425.182 13.6154 425.926 13.54C433.316 14.296 439.756 19.2829 441.577 26.399C442.307 29.2539 442.228 32.242 441.347 35.0421Z" fill="#59B9AE"/>
<g filter="url(#filter2_d)">
<path d="M420.773 22.3848V26.3359C420.773 26.8882 420.325 27.3359 419.773 27.3359H415.386C414.834 27.3359 414.386 27.7836 414.386 28.3359V32.287C414.386 32.8393 414.834 33.287 415.386 33.287H419.773C420.325 33.287 420.773 33.7347 420.773 34.287V38.2381C420.773 38.7904 421.22 39.2381 421.773 39.2381H426.159C426.711 39.2381 427.159 38.7904 427.159 38.2381V34.287C427.159 33.7347 427.607 33.287 428.159 33.287H432.546C433.098 33.287 433.546 32.8393 433.546 32.287V28.3359C433.546 27.7836 433.098 27.3359 432.546 27.3359H428.159C427.607 27.3359 427.159 26.8882 427.159 26.3359V22.3848C427.159 21.8325 426.711 21.3848 426.159 21.3848H421.773C421.22 21.3848 420.773 21.8325 420.773 22.3848Z" fill="#DA674A"/>
<path d="M420.773 22.3848V26.3359C420.773 26.8882 420.325 27.3359 419.773 27.3359H415.386C414.834 27.3359 414.386 27.7836 414.386 28.3359V32.287C414.386 32.8393 414.834 33.287 415.386 33.287H419.773C420.325 33.287 420.773 33.7347 420.773 34.287V38.2381C420.773 38.7904 421.22 39.2381 421.773 39.2381H426.159C426.711 39.2381 427.159 38.7904 427.159 38.2381V34.287C427.159 33.7347 427.607 33.287 428.159 33.287H432.546C433.098 33.287 433.546 32.8393 433.546 32.287V28.3359C433.546 27.7836 433.098 27.3359 432.546 27.3359H428.159C427.607 27.3359 427.159 26.8882 427.159 26.3359V22.3848C427.159 21.8325 426.711 21.3848 426.159 21.3848H421.773C421.22 21.3848 420.773 21.8325 420.773 22.3848Z" stroke="black" stroke-width="0.25"/>
</g>
</g>
<defs>
<filter id="filter0_d" x="195.687" y="20.4111" width="25.2519" height="25.2519" filterUnits="userSpaceOnUse" color-interpolation-filters="sRGB">
<feFlood flood-opacity="0" result="BackgroundImageFix"/>
<feColorMatrix in="SourceAlpha" type="matrix" values="0 0 0 0 0 0 0 0 0 0 0 0 0 0 0 0 0 0 127 0"/>
<feOffset dy="4"/>
<feGaussianBlur stdDeviation="2"/>
<feColorMatrix type="matrix" values="0 0 0 0 0 0 0 0 0 0 0 0 0 0 0 0 0 0 0.25 0"/>
<feBlend mode="normal" in2="BackgroundImageFix" result="effect1_dropShadow"/>
<feBlend mode="normal" in="SourceGraphic" in2="effect1_dropShadow" result="shape"/>
</filter>
<filter id="filter1_d" x="47.2188" y="10.1338" width="25.3308" height="24.1662" filterUnits="userSpaceOnUse" color-interpolation-filters="sRGB">
<feFlood flood-opacity="0" result="BackgroundImageFix"/>
<feColorMatrix in="SourceAlpha" type="matrix" values="0 0 0 0 0 0 0 0 0 0 0 0 0 0 0 0 0 0 127 0"/>
<feOffset dy="4"/>
<feGaussianBlur stdDeviation="2"/>
<feColorMatrix type="matrix" values="0 0 0 0 0 0 0 0 0 0 0 0 0 0 0 0 0 0 0.25 0"/>
<feBlend mode="normal" in2="BackgroundImageFix" result="effect1_dropShadow"/>
<feBlend mode="normal" in="SourceGraphic" in2="effect1_dropShadow" result="shape"/>
</filter>
<filter id="filter2_d" x="410.261" y="21.2598" width="27.4094" height="26.1033" filterUnits="userSpaceOnUse" color-interpolation-filters="sRGB">
<feFlood flood-opacity="0" result="BackgroundImageFix"/>
<feColorMatrix in="SourceAlpha" type="matrix" values="0 0 0 0 0 0 0 0 0 0 0 0 0 0 0 0 0 0 127 0"/>
<feOffset dy="4"/>
<feGaussianBlur stdDeviation="2"/>
<feColorMatrix type="matrix" values="0 0 0 0 0 0 0 0 0 0 0 0 0 0 0 0 0 0 0.25 0"/>
<feBlend mode="normal" in2="BackgroundImageFix" result="effect1_dropShadow"/>
<feBlend mode="normal" in="SourceGraphic" in2="effect1_dropShadow" result="shape"/>
</filter>
<clipPath id="clip0">
<rect width="53.4345" height="53.4345" fill="white" transform="translate(181.58 9.57715)"/>
</clipPath>
<clipPath id="clip1">
<rect width="53.6824" height="50.0225" fill="white" transform="translate(33.0271)"/>
</clipPath>
<clipPath id="clip2">
<rect width="60.2152" height="56.1105" fill="white" transform="translate(393.841 9.87695)"/>
</clipPath>
</defs>
</svg>
