<svg width="98" height="163" viewBox="0 0 98 163" fill="none" xmlns="http://www.w3.org/2000/svg">
<g clip-path="url(#clip0)">
<path d="M49.8441 42.146C54.6008 41.8699 59.0712 39.0799 61.2335 35.0392C62.7132 32.2744 63.084 29.1203 63.2425 26.6811C63.3778 24.5882 63.4631 21.4585 62.6391 18.4524C61.8227 15.4715 60.1867 12.9709 58.0319 11.4101C57.8532 11.2806 57.6259 11.2332 57.4091 11.2806C57.1923 11.3279 57.0068 11.4656 56.8999 11.658C56.4708 12.4314 56.7594 13.2402 56.9919 13.89C57.0779 14.1313 57.2386 14.5805 57.1848 14.707C57.1833 14.7085 57.0771 14.801 56.5246 14.6789C54.0931 14.1379 51.7798 12.8835 50.0108 11.1466C49.7424 10.8832 49.3214 10.8506 49.0156 11.0697C48.7091 11.288 48.6081 11.6943 48.7764 12.0288L51.7656 17.9803C48.7203 17.7287 45.7535 16.2944 43.577 14.0106C43.3684 13.7923 43.1516 13.5007 42.9228 13.1921C42.1355 12.1346 41.0588 10.6856 39.2404 11.1503C37.1133 11.6935 35.7218 14.3511 35.2224 15.4685C34.2698 17.5991 34.0141 19.9103 33.8982 21.6865C33.5992 26.2452 34.0762 32.6378 38.0464 37.2009C40.75 40.3084 44.9056 42.1696 49.05 42.1689C49.3147 42.1689 49.5801 42.1615 49.8441 42.146ZM39.2158 36.2041C35.5858 32.0317 35.1573 26.0602 35.4377 21.7849C35.5461 20.1353 35.7794 17.9966 36.6333 16.0865C37.2606 14.6841 38.4202 12.9368 39.6262 12.629C39.7182 12.6053 39.8064 12.5942 39.8932 12.5942C40.5115 12.5942 40.999 13.1833 41.6794 14.098C41.9261 14.4295 42.1811 14.7721 42.454 15.0593C44.9849 17.7139 48.4788 19.3435 52.0392 19.5299H52.04C52.2531 19.541 52.8998 19.5736 53.2879 19.0519C53.5802 18.6582 53.581 18.1645 53.2894 17.5821L51.6654 14.3496C53.0643 15.194 54.603 15.8171 56.1866 16.1686C56.5231 16.2441 57.5474 16.4713 58.2465 15.8156C58.808 15.2887 58.799 14.6345 58.6607 14.0595C59.7785 15.3427 60.6391 16.9879 61.1498 18.8521C61.9131 21.6391 61.8309 24.5993 61.7023 26.5834C61.5542 28.8701 61.2118 31.8163 59.8697 34.3243C57.9549 37.904 53.984 40.375 49.7543 40.6207C45.82 40.8516 41.7848 39.1569 39.2158 36.2041Z" fill="black"/>
<path d="M54.0377 36.4587C55.1226 36.4587 56.2957 36.3129 57.5406 36.0213C57.5414 36.0213 57.5414 36.0213 57.5421 36.0206H57.5429C57.9571 35.9236 58.2143 35.5122 58.1156 35.1022C58.0289 34.7366 57.6902 34.4924 57.3238 34.5146C56.861 34.371 55.4479 33.3038 54.834 32.8413C54.4243 32.532 54.1275 32.3077 53.9391 32.1901C53.646 32.008 53.3491 31.806 53.0351 31.5921C52.1656 31.0008 51.2661 30.3888 50.2605 30.0602C48.4219 29.46 46.9849 30.4006 45.7175 31.2309C45.5119 31.3656 45.3063 31.5003 45.1007 31.6269C44.279 32.1338 43.4423 32.657 42.6139 33.1817C42.4995 33.2543 42.3433 33.3727 42.0763 33.5762C41.7526 33.8234 41.0169 34.3836 40.7268 34.5146C40.3926 34.5316 40.0965 34.764 40.0157 35.1022C39.917 35.5122 40.1742 35.9236 40.5884 36.0206H40.5892C42.421 36.4498 44.0966 36.5638 45.5688 36.361C46.9363 36.173 48.1699 35.689 49.0657 35.003C49.9614 35.689 51.1951 36.173 52.5626 36.361C53.0336 36.4261 53.5256 36.4587 54.0377 36.4587ZM49.6302 33.4548C49.4844 33.3001 49.2802 33.2121 49.0657 33.2121C48.8518 33.2121 48.647 33.3001 48.5012 33.4548C47.8507 34.146 46.6753 34.6663 45.3557 34.8483C44.6072 34.9519 43.7878 34.9586 42.9085 34.869C42.9444 34.8424 42.981 34.8143 43.0177 34.7862C43.1889 34.6559 43.3818 34.5086 43.4461 34.4679C44.2693 33.9462 45.1007 33.4267 45.9157 32.9234C46.134 32.7895 46.3516 32.6474 46.5692 32.5046C47.6854 31.7734 48.6485 31.1421 49.7767 31.5107C50.573 31.7704 51.3805 32.3196 52.1603 32.8509C52.4743 33.0641 52.7981 33.2846 53.1174 33.4829C53.2467 33.5636 53.5637 33.8026 53.8987 34.0557C54.3211 34.3747 54.6935 34.6507 55.0247 34.8883C54.2194 34.9571 53.468 34.9438 52.7749 34.8483C51.456 34.667 50.2806 34.146 49.6302 33.4548Z" fill="black"/>
<path d="M82.2069 74.7194C80.8387 67.7666 77.4606 62.14 72.6859 58.8415C72.5319 57.4517 72.0968 56.13 71.385 54.9918C70.176 53.0573 66.4899 50.1082 63.7564 51.3715C63.4222 51.5254 63.162 51.7563 62.9526 52.0338C61.6898 51.5528 61.0617 50.7875 60.2363 49.3881C59.4707 48.0878 59.1738 46.493 59.4206 45.007C59.9806 44.6873 60.5286 44.3358 61.0408 43.9199C63.4446 41.9654 64.8921 38.6751 65.2443 34.3976C65.3011 34.3858 65.3586 34.3673 65.414 34.3406C66.7075 33.7286 68.4189 32.6141 69.2189 30.7795C70.0414 28.8953 69.5367 26.6507 68.0458 25.5577C67.2757 24.9945 66.362 24.7806 65.5859 24.6267C65.6218 24.3447 65.663 24.0635 65.7116 23.7853C65.903 22.6944 66.2058 21.5858 66.4981 20.5142C66.9774 18.7603 67.4731 16.9472 67.5359 15.0615C67.592 13.4001 67.1972 11.7239 66.4233 10.3429C65.7945 9.21953 64.9654 8.37291 63.9844 7.84378L65.9501 6.209C66.1826 6.01585 66.279 5.70503 66.1961 5.41566C66.1123 5.1263 65.8656 4.91169 65.565 4.86877C64.4405 4.70669 63.2816 4.69189 62.1436 4.82214L64.0338 1.27581C64.1953 0.972389 64.1325 0.598662 63.8797 0.363326C63.627 0.127989 63.2464 0.0887661 62.9504 0.266379C60.8755 1.51559 58.1308 1.80865 54.3124 1.18774C53.5542 1.06416 52.7782 0.916145 52.0282 0.771835C49.685 0.321883 47.2618 -0.14287 44.8041 0.0414027C40.2081 0.384787 35.7916 3.1141 33.2779 7.16515C31.9724 9.26986 31.1559 11.7712 30.9174 14.4006C30.655 17.2987 31.0004 19.9503 31.3668 22.7581C31.4072 23.0696 31.4483 23.3827 31.4879 23.6972C31.5746 24.3766 31.6374 25.0633 31.6905 25.7494C31.6756 25.7531 31.6599 25.7538 31.6449 25.7582C30.1002 26.2141 28.7865 27.3131 28.1293 28.6977C27.428 30.1756 27.493 31.9392 28.2983 33.2994C29.1035 34.6588 30.646 35.5388 32.1915 35.5388C32.2655 35.5388 32.3403 35.5365 32.4143 35.5321C32.4965 35.5277 32.5735 35.5069 32.6461 35.4796C32.7223 35.82 32.8061 36.1597 32.8995 36.4986C34.0308 40.6096 36.1886 44.0324 38.9984 46.2866C38.9976 46.3036 38.9939 46.3199 38.9946 46.3376C39.0343 48.0827 38.3808 49.8277 37.2638 51.1864C37.1785 51.2523 37.1097 51.3344 37.0604 51.4262C36.6581 51.8754 36.2043 52.2765 35.7048 52.614C35.4633 52.0797 35.1089 51.6238 34.5616 51.3707C31.8288 50.1082 28.142 53.0565 26.933 54.991C26.2212 56.1292 25.7861 57.4517 25.6328 58.8408C20.8581 62.1392 17.4801 67.7666 16.1111 74.7194C14.8879 80.9336 15.326 87.2869 15.7499 93.4309C15.7985 94.1361 15.889 95.449 16.9089 96.1446C17.4973 96.5465 18.1851 96.5857 18.6868 96.6146C22.1269 96.8122 25.8167 96.9113 29.7309 96.9113C33.787 96.9113 38.084 96.8048 42.591 96.5924C42.6314 96.5909 42.6695 96.5827 42.7076 96.5753C42.9372 96.6827 43.1742 96.7396 43.4119 96.7396C43.5817 96.7396 43.7521 96.7108 43.9196 96.6523C43.9331 96.6479 43.9458 96.6412 43.9592 96.636C44.2927 96.6383 44.6351 96.6397 44.9888 96.6397C46.2972 96.6397 47.7223 96.6264 49.1115 96.6138C50.8746 96.5975 52.6929 96.5813 54.2511 96.5916C54.2989 96.6138 54.3475 96.6346 54.3991 96.6523C54.5666 96.7108 54.7363 96.7396 54.9068 96.7396C55.0279 96.7396 55.1491 96.7234 55.2694 96.6952C55.3517 96.7293 55.4399 96.753 55.5341 96.7574C58.9675 96.9195 62.5092 97.0001 66.0846 97.0001C70.5999 97.0001 75.1682 96.8714 79.6311 96.6146C80.1328 96.5857 80.8207 96.5465 81.4091 96.1446C82.429 95.449 82.5194 94.1361 82.568 93.4309C82.992 87.2869 83.4309 80.9336 82.2069 74.7194ZM64.4091 52.7553C64.6506 52.6436 64.9175 52.5933 65.2009 52.5933C66.9258 52.5933 69.2451 54.4708 70.0728 55.7947C71.3139 57.7803 71.5547 60.4549 70.7173 62.9503C69.9726 65.1697 68.4114 67.2715 66.202 69.0276C66.0966 69.112 65.9897 69.1956 65.8828 69.2785C65.3631 69.6826 64.8263 70.1007 64.3754 70.6454C63.6816 71.4839 63.3736 72.4726 63.5306 73.3584C63.6786 74.1902 64.1893 74.8178 64.6394 75.3706C64.9758 75.7843 65.2936 76.1751 65.4132 76.5843C65.639 77.3591 65.1485 78.2354 64.6147 78.7978C64.2117 79.2211 63.7302 79.5823 63.2203 79.9641C62.8621 80.2313 62.492 80.5088 62.1406 80.8167C59.9873 82.6994 58.8673 85.4487 58.1323 87.6333C57.9454 88.1883 57.7667 88.7545 57.5932 89.3021C57.0003 91.1826 56.4396 92.9587 55.5072 94.5816C55.2896 94.9605 55.0578 95.1574 54.9494 95.2025C54.9292 95.1892 54.9076 95.1796 54.8866 95.1678C54.8388 95.0508 54.7909 94.7334 54.9083 94.2079L63.4603 55.9154C63.5171 55.6615 63.5597 55.3663 63.6046 55.0539C63.716 54.2821 63.9029 52.9892 64.4091 52.7553ZM39.3565 53.1424C40.4848 53.9994 41.6646 54.8223 42.9611 55.4743C44.4422 56.2203 45.9324 56.6502 47.353 56.7509C46.4587 58.0608 45.6004 59.404 44.7914 60.762C42.7846 58.3575 40.9147 55.8428 39.3565 53.1424ZM45.9174 61.875C46.766 60.4327 47.676 59.0058 48.624 57.6175C49.8742 59.4291 51.1931 61.2134 52.5628 62.9311C51.7239 64.1707 50.8686 65.3969 49.9968 66.6069C48.5979 65.095 47.193 63.5631 45.8329 61.989C45.8643 61.9542 45.8927 61.9165 45.9174 61.875ZM53.4615 61.5849C52.1823 59.9635 50.9486 58.2865 49.7792 56.5829C50.66 56.3942 51.4682 56.093 52.106 55.8325C54.6683 54.789 57.0467 53.3659 59.345 51.9465C57.5117 55.2175 55.5416 58.4404 53.4615 61.5849ZM67.1277 26.7854C68.149 27.5344 68.2724 29.0959 67.8021 30.1741C67.2996 31.3256 66.2723 32.1308 65.3355 32.6585C65.3609 31.763 65.3624 30.8698 65.3616 29.9965C65.3601 28.7303 65.3594 27.4367 65.4409 26.1579C66.1198 26.2999 66.685 26.4613 67.1277 26.7854ZM32.3283 34.0069C31.2718 34.0705 30.1892 33.4711 29.6299 32.5268C29.0864 31.6091 29.0452 30.3606 29.5267 29.3467C29.9581 28.4365 30.7941 27.6964 31.7967 27.3205C31.8161 27.6565 31.8348 27.9925 31.8528 28.3247C31.9545 30.1904 32.0591 32.0997 32.3664 34.0091C32.3537 34.0091 32.341 34.0061 32.3283 34.0069ZM34.3889 36.0975C33.6809 33.5266 33.5418 30.9601 33.393 28.2426C33.3085 26.6951 33.2218 25.0951 33.0192 23.5055C32.9788 23.1895 32.9377 22.875 32.8973 22.5627C32.5421 19.84 32.2072 17.2691 32.4547 14.5376C32.6715 12.142 33.4109 9.8693 34.5923 7.96515C36.8518 4.32409 40.8093 1.87155 44.92 1.56443C47.1728 1.39718 49.3882 1.82197 51.7344 2.27118C52.4955 2.41771 53.2821 2.56868 54.0619 2.69523C56.1382 3.0327 58.9772 3.32132 61.6315 2.50874L60.0419 5.49115C59.9006 5.75683 59.9297 6.08023 60.1167 6.31705C60.3028 6.55387 60.6124 6.66043 60.9084 6.58939C61.7451 6.38661 62.6154 6.27783 63.485 6.26376L61.9933 7.50335C61.7705 7.68911 61.6718 7.98439 61.7391 8.26561C61.8072 8.54683 62.0292 8.76588 62.3133 8.83175C64.8188 9.41491 66.0794 12.4506 65.9934 15.0112C65.9366 16.7192 65.4858 18.3688 65.0087 20.1153C64.7067 21.221 64.3941 22.3643 64.1908 23.524C63.8132 25.6805 63.8162 27.8755 63.8184 29.9987C63.8199 31.3064 63.8214 32.6592 63.7317 33.9699C63.3855 39.0318 61.5447 41.5332 60.0606 42.7395C59.2269 43.4181 58.2579 43.9125 57.2313 44.4364C56.521 44.799 55.7876 45.1742 55.0915 45.6198C53.398 46.7032 52.2802 48.1234 51.9123 49.5946L51.6118 49.3977C51.3942 49.2556 51.1198 49.2312 50.8805 49.3333C50.642 49.4347 50.4701 49.6493 50.4259 49.9032C50.3332 50.4271 50.2278 51.0207 49.9355 51.4077C49.7373 51.6704 49.3687 51.8258 49.1788 51.7282C48.9919 51.6319 48.8461 51.3174 48.6921 50.9837C48.6323 50.8556 48.5732 50.7276 48.5096 50.6055C47.5556 48.7635 45.655 47.9872 43.8172 47.2368C43.3192 47.0333 42.8489 46.8416 42.3996 46.6292C38.6664 44.8686 35.7467 41.03 34.3889 36.0975ZM41.7364 48.0087C42.2224 48.2381 42.7345 48.4468 43.2295 48.6488C44.8811 49.3237 46.4423 49.9609 47.1369 51.3026C47.19 51.4048 47.2393 51.5121 47.2894 51.6201C47.5219 52.1219 47.8106 52.7465 48.4693 53.0839C48.7452 53.226 49.0323 53.2882 49.3149 53.2882C50.0529 53.2882 50.7617 52.8649 51.1721 52.3232C51.4174 51.9975 51.5789 51.6401 51.6933 51.2834L52.1381 51.5742C52.3849 51.7363 52.7034 51.7444 52.9576 51.5942C53.2118 51.4455 53.3576 51.165 53.3329 50.8727C53.1587 48.8427 55.2762 47.3204 55.9296 46.9023C56.5181 46.5263 57.1394 46.2037 57.7929 45.8699C57.7555 47.3655 58.136 48.8545 58.9039 50.1578C58.9413 50.2221 58.9794 50.2858 59.0176 50.3487C56.6212 51.8332 54.1449 53.3511 51.5183 54.4205C50.8073 54.7106 49.8674 55.0599 48.9044 55.1886C46.8782 55.461 44.9342 54.7542 43.6602 54.1133C42.0699 53.3126 40.6149 52.1944 39.2107 51.0902C39.9068 49.9476 40.3562 48.6569 40.4937 47.3374C40.8982 47.5831 41.3117 47.8081 41.7364 48.0087ZM37.5628 53.0965C40.6934 58.8208 45.166 63.6526 49.5011 68.3327C49.6476 68.4911 49.8547 68.5799 50.07 68.5799C50.085 68.5799 50.1 68.5799 50.1149 68.5784C50.3467 68.5651 50.5598 68.4496 50.6951 68.2632C54.3333 63.2782 57.7054 58.0238 60.7185 52.6458C60.7395 52.6088 60.7544 52.5696 60.7686 52.5311C61.1985 52.8826 61.7085 53.1875 62.3343 53.4332C62.2109 53.9128 62.1391 54.4042 62.0763 54.8379C62.0352 55.1213 61.9971 55.3885 61.953 55.5861L61.867 55.9709C61.7892 56.0279 61.7204 56.1004 61.6673 56.1885L60.6819 57.8069C57.6269 62.8282 54.4672 68.0204 51.1796 72.6909C51.0174 72.921 50.5224 73.6182 50.1246 73.5937C49.8906 73.5782 49.6027 73.3207 49.3284 73.058C44.9507 68.87 40.887 64.2965 37.2488 59.4639C37.2413 59.4536 37.2323 59.4462 37.2241 59.4373L36.3643 55.5861C36.3202 55.3885 36.2813 55.1213 36.2409 54.8379C36.2095 54.6218 36.1759 54.3909 36.1348 54.1548C36.6469 53.8528 37.1247 53.4969 37.5628 53.0965ZM28.2452 55.7947C29.0729 54.4708 31.3922 52.5933 33.1171 52.5933C33.4005 52.5933 33.6674 52.6436 33.9089 52.7553C34.4151 52.9892 34.602 54.2821 34.7134 55.0547C34.7583 55.3663 34.8016 55.6623 34.8585 55.9161L43.4104 94.2079V94.2087C43.5241 94.7193 43.4815 95.0323 43.4351 95.1559C43.4067 95.1663 43.379 95.1796 43.3514 95.1929C43.237 95.1359 43.0179 94.9428 42.8108 94.5816C41.8792 92.9587 41.3184 91.1826 40.7248 89.3021C40.5521 88.7545 40.3734 88.1883 40.1864 87.634C39.4507 85.4487 38.3307 82.6994 36.1781 80.8167C35.826 80.5088 35.4559 80.2313 35.0985 79.9641C34.5885 79.5823 34.1063 79.2211 33.7033 78.7971C33.1694 78.2354 32.679 77.3591 32.9055 76.5843C33.0244 76.1751 33.3422 75.7843 33.6794 75.3706C34.1295 74.8178 34.6401 74.1902 34.7874 73.3584C34.9452 72.4726 34.6371 71.4839 33.9425 70.6454C33.4917 70.1007 32.9549 69.6826 32.436 69.2785C32.329 69.1956 32.2214 69.112 32.116 69.0276C29.9073 67.2715 28.3454 65.1697 27.6007 62.9503C26.7633 60.4549 27.0041 57.7803 28.2452 55.7947ZM28.6931 95.3809C27.7921 88.3608 27.3263 81.2193 27.3121 74.1458C27.3114 73.7247 26.9659 73.3836 26.5405 73.3836C26.5405 73.3836 26.5397 73.3836 26.539 73.3836C26.1128 73.3843 25.7681 73.727 25.7689 74.1488C25.7831 81.2163 26.2444 88.3511 27.1357 95.3683C24.2085 95.3343 21.4174 95.2418 18.7766 95.0893C18.4379 95.0701 18.0177 95.0457 17.7844 94.8873C17.427 94.6431 17.335 93.9933 17.2894 93.3265C16.8722 87.281 16.4408 81.0291 17.6251 75.0117C18.8267 68.9107 21.6379 63.9124 25.5992 60.7723C25.6657 61.6611 25.8422 62.5566 26.136 63.4313C26.9742 65.9305 28.708 68.2772 31.1485 70.2184C31.2584 70.3057 31.3698 70.3923 31.4812 70.4789C31.956 70.8489 32.4046 71.1982 32.7485 71.6134C33.1575 72.107 33.3466 72.6472 33.2674 73.0942C33.1881 73.5382 32.8427 73.9623 32.4763 74.4122C32.0786 74.9014 31.627 75.4557 31.4214 76.161C31.0774 77.3429 31.5103 78.7194 32.5788 79.8435C33.0715 80.3615 33.6278 80.7789 34.1669 81.1822C34.5168 81.4442 34.8472 81.6914 35.1553 81.9608C37.0327 83.6022 38.0473 86.1125 38.7217 88.1165C38.9034 88.6583 39.0799 89.217 39.2511 89.7572C39.8186 91.5563 40.4093 93.4116 41.3513 95.1189C36.9093 95.3113 32.6797 95.3994 28.6931 95.3809ZM49.0973 95.0871C47.7186 95.0997 46.3062 95.1123 45.0105 95.1123C45.0479 94.7467 45.0187 94.3322 44.917 93.8786L38.0069 62.9392C41.1667 66.8948 44.6015 70.6594 48.2562 74.1554C48.6106 74.4944 49.2035 75.062 50.02 75.1175C50.0656 75.1205 50.1104 75.122 50.1545 75.122C51.3486 75.122 52.1127 74.037 52.4454 73.5641C55.3532 69.4332 58.1495 64.9174 60.8621 60.4689L53.401 93.8786C53.3038 94.3115 53.2724 94.7082 53.3023 95.0612C51.9714 95.0612 50.5164 95.0738 49.0973 95.0871ZM81.0286 93.3273C80.983 93.9933 80.891 94.6438 80.5336 94.8873C80.3003 95.0464 79.8801 95.0701 79.5414 95.0901C76.781 95.2484 73.9794 95.3572 71.1756 95.4172C72.0721 88.3844 72.5349 81.2333 72.5491 74.1488C72.5499 73.727 72.2052 73.3851 71.779 73.3836C71.7782 73.3836 71.7782 73.3836 71.7775 73.3836C71.3521 73.3836 71.0066 73.7247 71.0059 74.1458C70.9917 81.2407 70.5236 88.4044 69.6167 95.4453C65.3145 95.5097 61.0221 95.4571 56.8755 95.2876C57.8729 93.5345 58.48 91.6155 59.0662 89.758C59.2374 89.2177 59.4138 88.6583 59.5963 88.1165C60.2699 86.1132 61.2853 83.603 63.162 81.9608C63.47 81.6921 63.8005 81.4442 64.1504 81.1822C64.6895 80.7789 65.2465 80.3623 65.7385 79.8442C66.8077 78.7201 67.2398 77.3429 66.8959 76.1617C66.6903 75.4565 66.2394 74.9022 65.8409 74.413C65.4753 73.963 65.1291 73.5382 65.0506 73.0942C64.9713 72.648 65.1598 72.1077 65.5687 71.6141C65.9127 71.1982 66.3613 70.8496 66.8361 70.4796C66.9475 70.393 67.0589 70.3064 67.1688 70.2191C69.61 68.278 71.3431 65.9312 72.182 63.4321C72.4751 62.5573 72.6515 61.6619 72.7188 60.7723C76.68 63.9124 79.4913 68.9114 80.6921 75.0117C81.8772 81.0291 81.4458 87.281 81.0286 93.3273Z" fill="black"/>
</g>
<path d="M25.9622 131.859C27.3182 130.491 28.3682 129.393 29.1122 128.565C29.8562 127.737 30.4262 126.975 30.8222 126.279C31.2302 125.583 31.4342 124.929 31.4342 124.317C31.4342 123.621 31.2422 123.063 30.8582 122.643C30.4742 122.223 29.9102 122.013 29.1662 122.013C28.7102 122.013 28.2662 122.139 27.8342 122.391C27.4142 122.643 27.0242 122.985 26.6642 123.417L25.8902 122.661C26.3942 122.109 26.9222 121.683 27.4742 121.383C28.0262 121.083 28.6442 120.933 29.3282 120.933C30.3722 120.933 31.2002 121.239 31.8122 121.851C32.4242 122.451 32.7302 123.255 32.7302 124.263C32.7302 124.959 32.5322 125.673 32.1362 126.405C31.7522 127.137 31.2422 127.875 30.6062 128.619C29.9702 129.363 29.0642 130.353 27.8882 131.589L28.3202 131.571C28.9922 131.523 29.4902 131.499 29.8142 131.499H33.2882V132.633H25.9622V131.859ZM38.9796 125.631C39.9876 125.631 40.7796 125.937 41.3556 126.549C41.9316 127.161 42.2196 128.043 42.2196 129.195C42.2196 129.903 42.0696 130.533 41.7696 131.085C41.4696 131.637 41.0616 132.069 40.5456 132.381C40.0416 132.693 39.4896 132.849 38.8896 132.849C38.1216 132.849 37.4436 132.645 36.8556 132.237C36.2676 131.817 35.8056 131.193 35.4696 130.365C35.1456 129.537 34.9836 128.535 34.9836 127.359C34.9836 125.871 35.1816 124.647 35.5776 123.687C35.9736 122.727 36.4956 122.031 37.1436 121.599C37.7916 121.155 38.5176 120.933 39.3216 120.933C40.3776 120.933 41.2716 121.329 42.0036 122.121L41.2656 122.949C41.0256 122.661 40.7376 122.439 40.4016 122.283C40.0776 122.115 39.7296 122.031 39.3576 122.031C38.4456 122.031 37.7016 122.439 37.1256 123.255C36.5496 124.059 36.2496 125.355 36.2256 127.143C36.5976 126.675 37.0296 126.309 37.5216 126.045C38.0136 125.769 38.4996 125.631 38.9796 125.631ZM38.9076 131.805C39.4956 131.805 39.9876 131.559 40.3836 131.067C40.7796 130.575 40.9776 129.951 40.9776 129.195C40.9776 128.391 40.7916 127.767 40.4196 127.323C40.0476 126.867 39.4956 126.639 38.7636 126.639C38.3556 126.639 37.9296 126.771 37.4856 127.035C37.0536 127.287 36.6456 127.683 36.2616 128.223C36.3576 129.375 36.6276 130.263 37.0716 130.887C37.5156 131.499 38.1276 131.805 38.9076 131.805ZM45.1389 132.849C44.8629 132.849 44.6289 132.753 44.4369 132.561C44.2449 132.357 44.1489 132.105 44.1489 131.805C44.1489 131.493 44.2449 131.241 44.4369 131.049C44.6289 130.845 44.8629 130.743 45.1389 130.743C45.4149 130.743 45.6489 130.845 45.8409 131.049C46.0329 131.241 46.1289 131.493 46.1289 131.805C46.1289 132.105 46.0329 132.357 45.8409 132.561C45.6489 132.753 45.4149 132.849 45.1389 132.849ZM48.2023 131.535H50.8483V122.805H48.7603V121.959C49.7323 121.791 50.5303 121.521 51.1543 121.149H52.1623V131.535H54.5563V132.633H48.2023V131.535ZM58.7354 127.935C57.9194 127.935 57.2714 127.605 56.7914 126.945C56.3234 126.285 56.0894 125.367 56.0894 124.191C56.0894 123.027 56.3234 122.121 56.7914 121.473C57.2714 120.813 57.9194 120.483 58.7354 120.483C59.5514 120.483 60.1934 120.813 60.6614 121.473C61.1414 122.121 61.3814 123.027 61.3814 124.191C61.3814 125.367 61.1414 126.285 60.6614 126.945C60.1934 127.605 59.5514 127.935 58.7354 127.935ZM65.5754 120.591H66.4934L59.9594 132.849H59.0414L65.5754 120.591ZM58.7354 127.107C59.2394 127.107 59.6354 126.855 59.9234 126.351C60.2234 125.847 60.3734 125.127 60.3734 124.191C60.3734 123.255 60.2234 122.541 59.9234 122.049C59.6354 121.557 59.2394 121.311 58.7354 121.311C58.2314 121.311 57.8294 121.557 57.5294 122.049C57.2414 122.541 57.0974 123.255 57.0974 124.191C57.0974 125.127 57.2414 125.847 57.5294 126.351C57.8294 126.855 58.2314 127.107 58.7354 127.107ZM66.8534 132.849C66.0374 132.849 65.3894 132.519 64.9094 131.859C64.4414 131.199 64.2074 130.281 64.2074 129.105C64.2074 127.941 64.4414 127.035 64.9094 126.387C65.3894 125.727 66.0374 125.397 66.8534 125.397C67.6694 125.397 68.3114 125.727 68.7794 126.387C69.2594 127.035 69.4994 127.941 69.4994 129.105C69.4994 130.281 69.2594 131.199 68.7794 131.859C68.3114 132.519 67.6694 132.849 66.8534 132.849ZM66.8534 132.021C67.3454 132.021 67.7354 131.769 68.0234 131.265C68.3234 130.761 68.4734 130.041 68.4734 129.105C68.4734 128.169 68.3294 127.455 68.0414 126.963C67.7534 126.471 67.3574 126.225 66.8534 126.225C66.3494 126.225 65.9474 126.471 65.6474 126.963C65.3594 127.455 65.2154 128.169 65.2154 129.105C65.2154 130.041 65.3594 130.761 65.6474 131.265C65.9474 131.769 66.3494 132.021 66.8534 132.021ZM30.7654 144.807H32.4034L34.7254 151.287L35.5894 153.789H35.6614C35.7454 153.561 35.8594 153.219 36.0034 152.763C36.1954 152.187 36.3634 151.695 36.5074 151.287L38.7934 144.807H40.4494V156.633H39.2074V149.793C39.2074 149.073 39.2614 147.933 39.3694 146.373H39.2974L38.3614 149.055L36.0574 155.409H35.1214L32.7994 149.055L31.8634 146.373H31.7914L31.8274 146.823C31.9234 148.095 31.9714 149.085 31.9714 149.793V156.633H30.7654V144.807ZM49.12 152.907H44.71L43.504 156.633H42.154L46.204 144.807H47.68L51.712 156.633H50.308L49.12 152.907ZM48.778 151.845L48.166 149.937C47.686 148.437 47.278 147.099 46.942 145.923H46.87C46.474 147.375 46.072 148.713 45.664 149.937L45.052 151.845H48.778ZM53.4412 144.807H54.7732V155.499H59.9932V156.633H53.4412V144.807ZM62.1072 144.807H68.8212V145.941H63.4392V149.847H67.9752V150.963H63.4392V155.499H69.0012V156.633H62.1072V144.807Z" fill="black"/>
<defs>
<clipPath id="clip0">
<rect width="98" height="97" fill="white"/>
</clipPath>
</defs>
</svg>
