<svg width="97" height="155" viewBox="0 0 97 155" fill="none" xmlns="http://www.w3.org/2000/svg">
<g clip-path="url(#clip0)">
<path d="M62.197 50.6447C65.3666 45.5176 65.448 39.2323 65.0639 33.2031C64.7317 27.9887 64.0908 22.4946 61.6745 17.648C59.5165 13.3187 56.0138 10.0284 52.0649 8.6201C48.3454 7.29467 43.806 8.5424 39.9229 11.9585C38.0084 13.6428 36.5165 15.7313 35.6077 17.9995C34.1624 21.6073 34.0913 25.5251 34.0232 29.3142C33.9988 30.6344 33.9744 31.9998 33.8908 33.3186C33.8256 34.3384 33.722 35.3796 33.6214 36.3868C33.5807 36.7902 33.54 37.1972 33.5015 37.6064C33.4415 37.75 33.4245 37.9099 33.46 38.0667C33.3601 39.1842 33.2824 40.3172 33.2758 41.4495C33.2573 44.7553 33.9056 47.5142 35.2036 49.65C36.9072 52.4541 39.7305 54.2835 42.2215 55.8975L48.0983 59.7058C48.5882 60.0233 49.2601 60.4585 50.0638 60.4896C50.0957 60.4903 50.1275 60.491 50.1586 60.491C51.0821 60.491 51.8407 59.973 52.3994 59.5911C55.8621 57.2267 59.7859 54.5462 62.197 50.6447ZM60.8982 49.8417C60.52 50.4522 60.096 51.0317 59.6401 51.5867C59.5668 51.4883 59.4714 51.4032 59.3522 51.3477C58.5367 50.9666 57.9202 50.0548 57.7026 48.9085C57.4888 47.7784 57.6449 46.5618 57.7959 45.3858C57.7989 45.3614 57.7974 45.3385 57.7981 45.3141C60.0708 43.9716 62.1067 42.1814 63.6238 40.1115C63.4129 43.5927 62.6876 46.9459 60.8982 49.8417ZM40.9316 13.1056C43.5099 10.838 46.3702 9.62731 48.9804 9.62731C49.8744 9.62731 50.7388 9.7694 51.5521 10.0595C55.1324 11.3354 58.3243 14.3496 60.3076 18.3296C61.0751 19.8689 61.6516 21.4881 62.0948 23.1503C60.9574 23.6579 59.5528 23.5395 58.5234 22.8291C57.9387 22.4258 56.8501 21.6746 55.928 22.4502C55.2879 22.9897 55.3707 23.8533 55.4018 24.1789C55.5025 25.2217 55.7001 26.254 55.9924 27.2598C53.8958 27.2206 51.7371 26.4198 49.9417 24.9945C48.0561 23.4966 46.5545 21.3334 45.5998 18.7381C45.4999 18.4672 45.2565 18.2756 44.9701 18.243C44.6837 18.2104 44.4032 18.3407 44.2448 18.5819C43.1 20.3225 42.7751 22.5597 43.319 24.5638C40.1997 24.1153 37.6591 22.0742 36.8177 19.2361C36.8117 19.2169 36.8021 19.1999 36.7947 19.1814C36.8672 18.9756 36.9442 18.7706 37.0256 18.5671C37.8456 16.5209 39.1962 14.6323 40.9316 13.1056ZM35.4153 33.4155C35.5011 32.062 35.5263 30.6788 35.55 29.3408C35.5995 26.6241 35.6491 24.0154 36.1546 21.5303C37.7642 24.3159 40.8754 26.1201 44.4328 26.183C44.7029 26.1897 44.9456 26.055 45.0892 25.8322C45.232 25.6095 45.2498 25.329 45.1358 25.0899C44.5127 23.786 44.4239 22.2496 44.8443 20.8709C45.8796 23.0237 47.2938 24.842 48.9922 26.1904C51.1029 27.8666 53.6686 28.7887 56.1596 28.7887C56.4756 28.7887 56.7909 28.7732 57.1032 28.7436C57.3378 28.7214 57.5487 28.5911 57.6753 28.3928C57.8018 28.1937 57.8292 27.9473 57.7493 27.7253C57.3223 26.5345 57.044 25.292 56.9226 24.0324C56.9041 23.8326 56.9093 23.7194 56.9189 23.6572C57.1187 23.7157 57.4873 23.9702 57.6582 24.0879C59.0384 25.0396 60.8967 25.2402 62.4604 24.6481C63.0813 27.4981 63.3574 30.4398 63.5394 33.3001C63.6216 34.5855 63.6815 35.8821 63.6941 37.1735C63.6342 37.2305 63.5801 37.2956 63.5394 37.3726C60.8183 42.5855 54.4901 46.4508 48.8154 46.3849C43.1214 46.3102 37.614 42.8756 35.0164 37.8129C35.0563 37.3852 35.0993 36.9596 35.1407 36.5378C35.2428 35.518 35.3487 34.4627 35.4153 33.4155ZM36.5091 48.8567C35.3605 46.9666 34.7862 44.4771 34.8032 41.4584C34.8047 41.1224 34.8151 40.7857 34.8284 40.4475C36.3026 42.5441 38.2563 44.2987 40.4817 45.579C40.4868 45.6123 40.4898 45.6456 40.4994 45.6789C41.0907 47.7622 40.472 50.1296 38.9623 51.6755C38.0128 50.8474 37.1566 49.9224 36.5091 48.8567ZM51.538 58.3308C51.017 58.6868 50.553 58.9791 50.123 58.9636C49.7382 58.9488 49.3082 58.6698 48.9293 58.4241L43.0526 54.6158C42.1061 54.003 41.1107 53.3555 40.1575 52.6398C41.6909 51.0028 42.4435 48.6732 42.1964 46.4471C44.2729 47.3625 46.5197 47.8828 48.7946 47.9131C48.8546 47.9139 48.9131 47.9139 48.973 47.9139C51.3582 47.9139 53.8418 47.2819 56.1611 46.1836C56.059 47.1501 56.0101 48.1795 56.2018 49.1927C56.506 50.7956 57.4192 52.1011 58.6492 52.7027C56.5341 54.9133 53.9239 56.7005 51.538 58.3308Z" fill="black"/>
<path d="M44.911 77.2538L44.5824 77.333C44.9805 71.776 44.5572 66.2064 43.3184 60.7714C43.2244 60.3599 42.8151 60.1017 42.4037 60.1964C41.9929 60.2904 41.7354 60.6996 41.8286 61.1104C43.0631 66.5261 43.4679 72.0794 43.0312 77.6157C43.029 77.6468 43.032 77.6764 43.0335 77.7075L42.1861 77.9117C41.7761 78.0109 41.5245 78.4239 41.6237 78.8338C41.708 79.1831 42.0203 79.4185 42.3652 79.4185C42.4244 79.4185 42.4851 79.4111 42.545 79.3963L45.2699 78.7384C45.6799 78.6392 45.9322 78.227 45.8331 77.8163C45.7339 77.407 45.321 77.1554 44.911 77.2538Z" fill="black"/>
<path d="M57.0027 77.1243C56.5527 76.9586 56.0857 76.8424 55.6114 76.7721C55.49 71.4718 56.0465 66.1686 57.2691 61.009C57.366 60.599 57.1122 60.1875 56.7015 60.0898C56.2907 59.9921 55.88 60.2467 55.7823 60.6574C54.5376 65.9133 53.967 71.3142 54.0832 76.7136C53.9744 76.7217 53.8648 76.7299 53.7568 76.7432C53.3379 76.7935 53.0397 77.1739 53.09 77.5928C53.1403 78.0117 53.5207 78.3106 53.9396 78.2596C54.7914 78.1567 55.6676 78.2596 56.4728 78.5578C56.5601 78.5896 56.6497 78.6052 56.7377 78.6052C57.0485 78.6052 57.3401 78.4142 57.4541 78.1064C57.6006 77.7105 57.3986 77.2709 57.0027 77.1243Z" fill="black"/>
<path d="M79.8858 73.7447C78.3842 66.7393 74.5182 61.146 69.2757 58.3916C69.4437 58.0164 69.5769 57.6315 69.6701 57.2393C69.9935 55.8687 69.8359 54.5033 69.6835 53.1838C69.6124 52.5644 69.5443 51.979 69.5236 51.3944C69.4466 49.2268 70.015 47.111 70.6167 44.8708C71.2879 42.3694 71.9828 39.783 71.6927 37.1195C71.4699 35.0688 70.6825 33.1751 69.921 31.3434C69.2875 29.8197 68.6888 28.381 68.3862 26.8565C67.9332 24.5801 68.1649 22.2571 68.4098 19.7971C68.6681 17.2077 68.9345 14.5295 68.3262 11.9134C67.5536 8.58759 65.3142 5.4742 62.1845 3.37245C59.4722 1.55193 56.0332 0.417427 52.2397 0.0932843C46.6827 -0.381829 41.5889 0.968765 37.896 3.89715C34.8204 6.3371 32.4752 10.0462 30.927 14.9217C28.7949 21.6391 28.6003 28.7836 28.4123 35.6927C28.3264 38.8623 28.2369 42.14 27.9609 45.3215C27.9327 45.6457 27.9024 45.9698 27.872 46.2947C27.6863 48.2943 27.4946 50.3613 27.7633 52.4193C27.9971 54.2103 28.5773 55.7866 29.4447 57.0424C25.6985 57.8136 22.258 60.7952 20.3302 65.0054C18.5052 68.9891 18.1034 73.5345 17.7481 77.5448L16.5567 91.0019C16.4501 92.2104 16.251 94.4587 17.7067 95.8026C18.7687 96.7832 20.2273 96.8683 21.6305 96.8713L74.8054 97H74.9704C76.0094 97 77.4829 96.9549 78.5278 96.0098C79.5121 95.1203 79.7437 93.8119 79.8954 92.5486C80.6281 86.4743 81.2312 80.0196 79.8858 73.7447ZM78.3791 92.3651C78.2562 93.3827 78.0971 94.3403 77.5036 94.8768C76.8901 95.4311 75.8762 95.4777 74.8091 95.4726L65.8241 95.4504C65.4859 88.6789 65.8211 81.8512 66.8261 75.1478C66.889 74.7304 66.6011 74.3411 66.1838 74.279C65.7656 74.2153 65.3778 74.504 65.3157 74.9206C64.2996 81.6987 63.9577 88.5997 64.2944 95.4467L31.8461 95.3682C32.3494 88.7411 32.3375 82.031 31.8054 75.409C31.7714 74.9887 31.4028 74.6757 30.9825 74.709C30.5621 74.743 30.2491 75.1108 30.2824 75.5319C30.8108 82.1109 30.8204 88.7803 30.3142 95.3645L21.6342 95.3438C20.4856 95.3408 19.4007 95.2883 18.742 94.68C17.908 93.9096 17.962 92.4472 18.0782 91.1366L19.2697 77.6788C19.6308 73.6018 20.0038 69.3858 21.7185 65.6411C23.9246 60.8219 27.6678 58.7549 30.4348 58.4263C30.4977 58.4189 30.5562 58.4027 30.6125 58.3812C30.8189 58.5677 31.0343 58.7423 31.2585 58.9022C32.2702 59.6208 33.4135 60.0286 34.5199 60.423C34.9928 60.5917 35.4398 60.7508 35.8779 60.9336C37.0383 61.4161 38.4992 62.2813 38.8692 63.6607C38.9787 64.0678 39.3969 64.3105 39.8046 64.2002C40.2124 64.0914 40.4537 63.6726 40.3449 63.2648C39.9245 61.6981 38.5828 60.4045 36.4648 59.5231C35.9897 59.3255 35.5027 59.1516 35.0328 58.9836C33.9782 58.6084 32.9821 58.2532 32.1436 57.6567C30.6332 56.5836 29.5882 54.6018 29.2774 52.221C29.031 50.3324 29.2145 48.3513 29.3928 46.4353C29.4232 46.1074 29.4535 45.7803 29.4817 45.4525C29.7621 42.2259 29.8517 38.9253 29.939 35.7341C30.124 28.9309 30.3157 21.8959 32.3827 15.3835C33.8376 10.8026 36.0111 7.34061 38.8448 5.09381C42.2313 2.40816 46.9417 1.17376 52.1087 1.61483C55.6454 1.91677 58.835 2.9632 61.3327 4.64016C64.1449 6.52877 66.1519 9.30544 66.8387 12.2582C67.3893 14.6286 67.1466 17.0656 66.8898 19.6454C66.6448 22.1076 66.391 24.6541 66.8875 27.154C67.2206 28.8273 67.8763 30.4043 68.5105 31.9295C69.2639 33.7412 69.975 35.4522 70.1741 37.2838C70.4331 39.6631 69.8056 42.0002 69.141 44.4742C68.5364 46.7247 67.9118 49.0514 67.9969 51.4484C68.0198 52.0937 68.0946 52.7368 68.1664 53.3585C68.3099 54.6025 68.4454 55.777 68.1834 56.887C67.7016 58.9259 65.995 60.2284 65.0211 60.8234C63.4507 61.7832 61.611 62.322 59.8319 62.8437C59.4263 62.9621 59.1947 63.3862 59.3131 63.791C59.4108 64.124 59.7157 64.3401 60.0458 64.3401C60.1168 64.3401 60.1893 64.3305 60.2611 64.3098C62.1357 63.7599 64.0739 63.1923 65.8174 62.1273C66.9253 61.4502 67.8341 60.6258 68.506 59.7074C68.5171 59.714 68.526 59.7222 68.5379 59.7281C73.3919 62.2657 76.9833 67.4912 78.3924 74.0644C79.6882 80.1098 79.0962 86.4203 78.3791 92.3651Z" fill="black"/>
</g>
<path d="M29.923 123.902H32.569V115.172H30.481V114.326C31.453 114.158 32.251 113.888 32.875 113.516H33.883V123.902H36.277V125H29.923V123.902ZM39.3401 125.216C39.0641 125.216 38.8301 125.12 38.6381 124.928C38.4461 124.724 38.3501 124.472 38.3501 124.172C38.3501 123.86 38.4461 123.608 38.6381 123.416C38.8301 123.212 39.0641 123.11 39.3401 123.11C39.6161 123.11 39.8501 123.212 40.0421 123.416C40.2341 123.608 40.3301 123.86 40.3301 124.172C40.3301 124.472 40.2341 124.724 40.0421 124.928C39.8501 125.12 39.6161 125.216 39.3401 125.216ZM42.4035 123.902H45.0495V115.172H42.9615V114.326C43.9335 114.158 44.7315 113.888 45.3555 113.516H46.3635V123.902H48.7575V125H42.4035V123.902ZM52.9366 120.302C52.1206 120.302 51.4726 119.972 50.9926 119.312C50.5246 118.652 50.2906 117.734 50.2906 116.558C50.2906 115.394 50.5246 114.488 50.9926 113.84C51.4726 113.18 52.1206 112.85 52.9366 112.85C53.7526 112.85 54.3946 113.18 54.8626 113.84C55.3426 114.488 55.5826 115.394 55.5826 116.558C55.5826 117.734 55.3426 118.652 54.8626 119.312C54.3946 119.972 53.7526 120.302 52.9366 120.302ZM59.7766 112.958H60.6946L54.1606 125.216H53.2426L59.7766 112.958ZM52.9366 119.474C53.4406 119.474 53.8366 119.222 54.1246 118.718C54.4246 118.214 54.5746 117.494 54.5746 116.558C54.5746 115.622 54.4246 114.908 54.1246 114.416C53.8366 113.924 53.4406 113.678 52.9366 113.678C52.4326 113.678 52.0306 113.924 51.7306 114.416C51.4426 114.908 51.2986 115.622 51.2986 116.558C51.2986 117.494 51.4426 118.214 51.7306 118.718C52.0306 119.222 52.4326 119.474 52.9366 119.474ZM61.0546 125.216C60.2386 125.216 59.5906 124.886 59.1106 124.226C58.6426 123.566 58.4086 122.648 58.4086 121.472C58.4086 120.308 58.6426 119.402 59.1106 118.754C59.5906 118.094 60.2386 117.764 61.0546 117.764C61.8706 117.764 62.5126 118.094 62.9806 118.754C63.4606 119.402 63.7006 120.308 63.7006 121.472C63.7006 122.648 63.4606 123.566 62.9806 124.226C62.5126 124.886 61.8706 125.216 61.0546 125.216ZM61.0546 124.388C61.5466 124.388 61.9366 124.136 62.2246 123.632C62.5246 123.128 62.6746 122.408 62.6746 121.472C62.6746 120.536 62.5306 119.822 62.2426 119.33C61.9546 118.838 61.5586 118.592 61.0546 118.592C60.5506 118.592 60.1486 118.838 59.8486 119.33C59.5606 119.822 59.4166 120.536 59.4166 121.472C59.4166 122.408 59.5606 123.128 59.8486 123.632C60.1486 124.136 60.5506 124.388 61.0546 124.388ZM28.293 149.216C27.309 149.216 26.439 148.964 25.683 148.46C24.927 147.956 24.333 147.236 23.901 146.3C23.481 145.364 23.271 144.278 23.271 143.042C23.271 141.806 23.481 140.732 23.901 139.82C24.333 138.896 24.927 138.188 25.683 137.696C26.439 137.204 27.309 136.958 28.293 136.958C29.265 136.958 30.129 137.204 30.885 137.696C31.641 138.188 32.229 138.896 32.649 139.82C33.081 140.732 33.297 141.806 33.297 143.042C33.297 144.278 33.081 145.364 32.649 146.3C32.229 147.236 31.641 147.956 30.885 148.46C30.129 148.964 29.265 149.216 28.293 149.216ZM28.293 148.046C29.013 148.046 29.643 147.842 30.183 147.434C30.735 147.014 31.161 146.432 31.461 145.688C31.761 144.932 31.911 144.05 31.911 143.042C31.911 142.046 31.761 141.182 31.461 140.45C31.161 139.706 30.735 139.136 30.183 138.74C29.643 138.332 29.013 138.128 28.293 138.128C27.561 138.128 26.919 138.332 26.367 138.74C25.827 139.136 25.407 139.706 25.107 140.45C24.807 141.182 24.657 142.046 24.657 143.042C24.657 144.05 24.807 144.932 25.107 145.688C25.407 146.444 25.833 147.026 26.385 147.434C26.937 147.842 27.573 148.046 28.293 148.046ZM37.9535 138.308H34.3175V137.174H42.9035V138.308H39.2855V149H37.9535V138.308ZM45.0671 137.174H46.3991V142.178H52.1051V137.174H53.4371V149H52.1051V143.348H46.3991V149H45.0671V137.174ZM56.739 137.174H63.453V138.308H58.071V142.214H62.607V143.33H58.071V147.866H63.633V149H56.739V137.174ZM72.6765 149L69.7425 143.888H67.5105V149H66.1785V137.174H69.7965C72.5085 137.174 73.8645 138.266 73.8645 140.45C73.8645 141.35 73.6185 142.082 73.1265 142.646C72.6465 143.21 71.9745 143.582 71.1105 143.762L74.1885 149H72.6765ZM67.5105 142.808H69.5805C70.5405 142.808 71.2725 142.61 71.7765 142.214C72.2805 141.818 72.5325 141.23 72.5325 140.45C72.5325 139.67 72.2865 139.112 71.7945 138.776C71.3025 138.428 70.5645 138.254 69.5805 138.254H67.5105V142.808Z" fill="black"/>
<defs>
<clipPath id="clip0">
<rect width="97" height="97" fill="white"/>
</clipPath>
</defs>
</svg>
