<svg fill="none" height="204" viewBox="0 0 456 204" width="456" xmlns="http://www.w3.org/2000/svg" xmlns:xlink="http://www.w3.org/1999/xlink"><filter id="a" color-interpolation-filters="sRGB" filterUnits="userSpaceOnUse" height="203.58" width="375.158" x=".216797" y="0"><feFlood flood-opacity="0" result="BackgroundImageFix"/><feColorMatrix in="SourceAlpha" type="matrix" values="0 0 0 0 0 0 0 0 0 0 0 0 0 0 0 0 0 0 127 0"/><feOffset dy="4"/><feGaussianBlur stdDeviation="2"/><feColorMatrix type="matrix" values="0 0 0 0 0 0 0 0 0 0 0 0 0 0 0 0 0 0 0.25 0"/><feBlend in2="BackgroundImageFix" mode="normal" result="effect1_dropShadow"/><feBlend in="SourceGraphic" in2="effect1_dropShadow" mode="normal" result="shape"/></filter><g filter="url(#a)" stroke="#292929" stroke-width="4"><path d="m6 194.345 7.66-15.073 4.8229-11.797 3.9719-11.141 2.5533-9.174 1.9859-10.814v-9.502-8.847l-.8511-7.537-1.9859-9.502-3.6881-10.1583-3.4045-7.2089-2.5533-4.9151-1.9859-5.2428-1.4185-5.8981-.8512-7.8642v-6.8811-6.8812-4.2597l.8512-3.9321 1.4185-4.2598 1.9859-4.9151 1.4185-3.2767 1.9859-2.9491 2.5534-3.2768 2.837-2.949 4.2555-3.6044 3.9719-2.9491 5.1066-2.29372 5.1067-1.96604 5.1066-1.3107 5.6741-1.31069 6.5252-.65535h5.3903 2.2696 2.5534l4.5392.65535 2.837.65535 4.5393.65534 2.2696.65535 4.2556 1.63837 1.9859.98302 2.5533 1.3107 2.837 1.96602 3.9719 2.9491 2.8374 2.6214 2.837 2.949 2.837 4.2598 2.269 3.2768 2.554 5.5704 1.418 4.9151 1.419 4.9151 1.702 5.8982.851 4.9151v1.966 3.9321l-.851 3.6044-.568 3.2768v2.6214l.568 3.6044 1.986 2.949 2.837 3.9321 3.121 4.5875 2.837 3.932 1.986 4.2598v2.2937l-1.986 1.3107-3.405 1.6384-2.553 1.6384-2.27 1.9658-.567 3.605.567 2.621 1.135 2.621-2.837 2.949 1.135 3.933-1.135 2.293-2.27 2.622-.567 2.293.567 4.588.851 6.881-.851 3.277-1.702 1.966-2.553 1.966-4.539.655h-5.107l-5.1067-.655-4.823.655-3.1207 1.639-1.1348 3.604-1.4186 4.915-1.4185 6.226-.8511 6.881v3.932l.8511 6.226 1.4185 5.57 1.986 6.882 1.9859 6.553"/><path d="m67.9917 18.9004h-3.0415-4.3833-5.0095l-3.0415.6161-6.9776 1.335-2.8626 1.335-3.5782 2.3619-2.7731 2.8753-2.5942 3.3888-2.5048 4.2103-2.2364 3.6969-2.5942 5.648-1.2524 4.1076-.7156 3.5942v3.3887 4.2104l1.1629 2.0538 2.2364 1.643 1.1629 1.2323v1.1296l-.5367 1.335-.6262 1.643v1.5404l1.1629 2.6699 1.8786 2.67 2.7731 3.1834 2.7731 1.6431 4.115 1.5403 3.0121 1.5404h2.8025 3.5058c1.7469 0 2.8456-1.5404 2.8456-1.5404l2.7731-3.1834 2.5048-3.1834 2.5942-1.4377 2.5047-2.0538s1.6249-.6155 2.6837-.5134c1.2347.119 2.9521 1.3349 2.9521 1.3349l3.936 1.2323h2.4153l1.4313-.6161 1.8786-1.4377 2.6836-.5134 1.6997-1.335 1.5208-2.1565 1.1629-4.1076 1.5207-.6162 2.8626-1.0269 3.2204-.6161 3.2204-1.0269 2.2364-2.2592 1.8789-2.3619.984-2.8753v-3.1835l-.448-3.4914-.536-2.4646-.8054-2.4646-1.0735-2.978-2.2364-3.5942-2.2364-3.2861-2.3258-1.9511-3.131-2.3619-3.1309-2.0538-3.2204-2.0538-3.8466-1.7458-3.3099-1.2322-3.1309-.8216z" fill="#ff324f"/></g><path d="m152.885 72.2h15.36c3.669 0 6.379.96 8.128 2.88 1.792 1.92 2.688 4.288 2.688 7.104 0 2.7733-.704 5.0773-2.112 6.912-1.365 1.8347-3.243 3.0293-5.632 3.584v.256c6.741.64 10.112 4.4373 10.112 11.392 0 3.456-1.365 6.443-4.096 8.96-2.688 2.475-6.165 3.712-10.432 3.712h-14.016zm6.144 23.808v16h6.784c3.541 0 5.931-.704 7.168-2.112 1.28-1.408 1.92-3.349 1.92-5.824 0-2.517-.832-4.48-2.496-5.888-1.621-1.4507-4.181-2.176-7.68-2.176zm0-19.136v14.016h5.76c2.517 0 4.437-.6187 5.76-1.856s1.984-3.008 1.984-5.312-.555-4.0107-1.664-5.12c-1.067-1.152-2.965-1.728-5.696-1.728zm42.911 5.76c1.109 0 1.941.1067 2.496.32.597.1707 1.088.32 1.472.448.384.0853.618.1493.704.192l-1.024 5.76c-1.28-.4267-2.816-.64-4.608-.64-1.75 0-3.35.768-4.8 2.304-1.408 1.4933-2.112 3.3067-2.112 5.44v20.544h-5.76v-24.384l-.512-8.896 4.672-.64.704 6.464h.256c.725-2.0907 1.813-3.7547 3.264-4.992 1.493-1.28 3.242-1.92 5.248-1.92zm24.527 10.944c0-3.8827-1.771-5.824-5.312-5.824-2.262 0-5.312.5973-9.152 1.792l-2.048-4.032c3.669-1.92 7.637-2.88 11.904-2.88 5.162 0 8.32 1.536 9.472 4.608.597 1.5787.896 3.6693.896 6.272v13.632c0 3.072.874 5.504 2.624 7.296l-3.392 3.328c-.768-.469-1.558-1.152-2.368-2.048-.768-.939-1.302-1.856-1.6-2.752h-.192c-2.347 3.2-5.59 4.8-9.728 4.8-6.102 0-9.152-3.179-9.152-9.536 0-5.632 3.968-9.024 11.904-10.176l6.144-.896zm-11.905 15.36c0 2.475 1.515 3.712 4.545 3.712 3.072 0 5.525-1.067 7.36-3.2v-7.808c-5.376.725-8.683 1.579-9.92 2.56-1.323 1.067-1.985 2.645-1.985 4.736zm33.693 8.064h-5.76v-33.28l5.76-.64zm-3.136-35.776c-2.603 0-3.904-1.4507-3.904-4.352 0-1.0667.341-1.984 1.024-2.752.725-.768 1.835-1.152 3.328-1.152 2.603 0 3.904 1.4507 3.904 4.352 0 1.0667-.363 1.984-1.088 2.752-.683.768-1.771 1.152-3.264 1.152zm27.84 1.408c3.157 0 5.675.9173 7.552 2.752 1.877 1.792 2.816 4.6507 2.816 8.576v23.04h-5.76v-22.656c0-4.3947-2.197-6.592-6.592-6.592-1.28 0-2.539.32-3.776.96-1.237.5973-2.219 1.3013-2.944 2.112v26.176h-5.76v-24.384l-.512-8.896 4.672-.64.832 3.776h.256c.768-.9813 1.92-1.92 3.456-2.816 1.579-.9387 3.499-1.408 5.76-1.408zm17.534.832c0-3.4133 1.28-6.272 3.84-8.576s5.824-3.456 9.792-3.456 6.976.9813 9.024 2.944 3.221 4.6507 3.52 8.064l-6.528.64c-.128-1.9627-.789-3.4773-1.984-4.544-1.152-1.0667-2.752-1.6-4.8-1.6-2.005 0-3.584.4907-4.736 1.472s-1.728 2.24-1.728 3.776c0 2.048.661 3.712 1.984 4.992s3.584 2.7307 6.784 4.352c2.816 1.4507 4.736 2.5173 5.76 3.2 1.067.64 2.133 1.4507 3.2 2.432 2.048 1.8347 3.072 4.501 3.072 8s-1.323 6.485-3.968 8.96c-2.645 2.432-6.208 3.648-10.688 3.648s-8.725-1.387-12.736-4.16l2.624-4.736c3.968 2.261 7.701 3.392 11.2 3.392 2.091 0 3.797-.512 5.12-1.536 1.323-1.067 1.984-2.581 1.984-4.544 0-2.005-.683-3.584-2.048-4.736-1.323-1.152-3.008-2.1973-5.056-3.136-2.005-.9387-3.243-1.5147-3.712-1.728-.469-.256-1.259-.6827-2.368-1.28-1.109-.64-1.92-1.1733-2.432-1.6s-1.173-1.024-1.984-1.792c-.768-.8107-1.323-1.5787-1.664-2.304-.981-2.0053-1.472-4.0533-1.472-6.144zm38.933 3.52c2.432-2.9013 5.504-4.352 9.216-4.352s6.592 1.3227 8.64 3.968c2.091 2.6027 3.136 7.1467 3.136 13.632 0 3.285-.448 6.144-1.344 8.576-.853 2.389-1.984 4.203-3.392 5.44-2.688 2.347-5.589 3.52-8.704 3.52s-5.397-.683-6.848-2.048l-.192.064.192 1.6v11.392l-5.76.64v-36.8l-.512-8.896 4.672-.64.64 3.904zm.704 24c1.835 1.109 3.968 1.664 6.4 1.664s4.331-.896 5.696-2.688c1.365-1.835 2.048-5.205 2.048-10.112 0-5.9307-1.109-9.6427-3.328-11.136-.939-.64-2.091-.96-3.456-.96-3.243 0-5.696 1.0667-7.36 3.2zm43.087-17.408c0-3.8827-1.771-5.824-5.312-5.824-2.262 0-5.312.5973-9.152 1.792l-2.048-4.032c3.669-1.92 7.637-2.88 11.904-2.88 5.162 0 8.32 1.536 9.472 4.608.597 1.5787.896 3.6693.896 6.272v13.632c0 3.072.874 5.504 2.624 7.296l-3.392 3.328c-.768-.469-1.558-1.152-2.368-2.048-.768-.939-1.302-1.856-1.6-2.752h-.192c-2.347 3.2-5.59 4.8-9.728 4.8-6.102 0-9.152-3.179-9.152-9.536 0-5.632 3.968-9.024 11.904-10.176l6.144-.896zm-11.905 15.36c0 2.475 1.515 3.712 4.545 3.712 3.072 0 5.525-1.067 7.36-3.2v-7.808c-5.376.725-8.683 1.579-9.92 2.56-1.323 1.067-1.985 2.645-1.985 4.736zm25.693-8.512c0-5.3333 1.237-9.6213 3.712-12.864 2.517-3.2853 5.845-4.928 9.984-4.928 4.181 0 6.955.9813 8.32 2.944 1.408 1.92 2.112 4.736 2.112 8.448l-5.76.384c0-2.432-.363-4.1387-1.088-5.12-.725-1.024-2.197-1.536-4.416-1.536-4.48 0-6.72 4.16-6.72 12.48 0 8.277 2.859 12.416 8.576 12.416 2.517 0 5.184-.704 8-2.112l1.728 3.84c-1.067.939-2.581 1.749-4.544 2.432-1.963.64-4.075.96-6.336.96-9.045 0-13.568-5.781-13.568-17.344zm43.711-17.792c3.669 0 6.379 1.1093 8.128 3.328 1.451 1.792 2.347 4.8 2.688 9.024.128 1.664.192 3.7333.192 6.208l-2.624.384h-16.576c0 5.376 1.429 8.768 4.288 10.176 1.195.597 2.837.896 4.928.896s4.501-.683 7.232-2.048l1.792 3.968c-3.541 2.133-7.104 3.2-10.688 3.2-9.131 0-13.696-5.76-13.696-17.28 0-5.4613 1.195-9.792 3.584-12.992 2.432-3.2427 6.016-4.864 10.752-4.864zm4.864 14.4c0-3.4133-.341-5.8027-1.024-7.168-.683-1.408-2.261-2.112-4.736-2.112-2.432 0-4.16.832-5.184 2.496-1.024 1.6213-1.664 3.8827-1.92 6.784z" fill="#292929"/></svg>