<svg width="64" height="64" viewBox="0 0 64 64" fill="none" xmlns="http://www.w3.org/2000/svg">
<g clip-path="url(#clip0)">
<path d="M32 41.1427L24.0823 34.2124L1.44458 53.6181C2.26744 54.3816 3.37829 54.857 4.60344 54.857H59.3966C60.6172 54.857 61.7234 54.3816 62.5417 53.6181L39.9177 34.2124L32 41.1427Z" fill="#FBFBFB"/>
<path d="M62.5555 10.3814C61.7326 9.61343 60.6263 9.14258 59.3966 9.14258H4.60345C3.38288 9.14258 2.27659 9.61801 1.45374 10.3906L32 36.5712L62.5555 10.3814Z" fill="#FBFBFB"/>
<path d="M0 13.1562V51.1357L22.0937 32.3608L0 13.1562Z" fill="#FBFBFB"/>
<path d="M41.9063 32.3609L64 51.1357V13.1426L41.9063 32.3609Z" fill="#FBFBFB"/>
</g>
<defs>
<clipPath id="clip0">
<rect width="64" height="64" fill="white"/>
</clipPath>
</defs>
</svg>
