<svg width="64" height="64" viewBox="0 0 64 64" fill="none" xmlns="http://www.w3.org/2000/svg">
<g clip-path="url(#clip0)">
<path d="M59.707 16.7201C56.8455 11.8172 52.964 7.93561 48.0616 5.07439C43.1585 2.21303 37.8057 0.782715 31.9995 0.782715C26.194 0.782715 20.8395 2.21347 15.9374 5.07439C11.0345 7.93547 7.15319 11.8172 4.29168 16.7201C1.43061 21.6228 0 26.9766 0 32.7813C0 39.7541 2.03435 46.0243 6.10406 51.5933C10.1733 57.1628 15.4302 61.0167 21.8743 63.1554C22.6244 63.2946 23.1797 63.1967 23.5408 62.8641C23.902 62.5311 24.0823 62.114 24.0823 61.6146C24.0823 61.5313 24.0752 60.7816 24.0613 59.3647C24.047 57.9478 24.0403 56.7117 24.0403 55.6571L23.0819 55.8228C22.4709 55.9348 21.7001 55.9822 20.7694 55.9688C19.8392 55.9558 18.8736 55.8583 17.8738 55.6771C16.8735 55.4974 15.9432 55.0808 15.082 54.428C14.2213 53.7752 13.6103 52.9208 13.2491 51.8659L12.8324 50.9071C12.5547 50.2688 12.1175 49.5597 11.5202 48.7825C10.9229 48.0045 10.3188 47.4771 9.7078 47.1994L9.41607 46.9905C9.22168 46.8517 9.04131 46.6843 8.8745 46.4901C8.70784 46.2959 8.58307 46.1015 8.49974 45.9068C8.41626 45.712 8.48544 45.5522 8.70799 45.4268C8.93054 45.3015 9.33274 45.2406 9.91634 45.2406L10.7493 45.3651C11.3049 45.4764 11.9921 45.809 12.8119 46.3649C13.6311 46.9203 14.3046 47.6424 14.8325 48.5309C15.4717 49.67 16.2418 50.5381 17.145 51.1354C18.0474 51.7327 18.9574 52.0308 19.8738 52.0308C20.7903 52.0308 21.5819 51.9614 22.2488 51.8232C22.915 51.6842 23.54 51.4754 24.1236 51.1978C24.3736 49.336 25.0543 47.9057 26.165 46.9059C24.5819 46.7395 23.1586 46.4889 21.8943 46.1558C20.6308 45.8222 19.3251 45.2807 17.9781 44.53C16.6304 43.7804 15.5124 42.8494 14.6238 41.7389C13.735 40.6277 13.0057 39.1689 12.4366 37.3639C11.8674 35.558 11.5826 33.475 11.5826 31.114C11.5826 27.7524 12.6801 24.8917 14.8745 22.5305C13.8465 20.0032 13.9436 17.17 15.1659 14.0312C15.9715 13.7809 17.1661 13.9687 18.7492 14.5935C20.3327 15.2185 21.492 15.754 22.2284 16.1979C22.9647 16.6417 23.5548 17.0178 23.9993 17.3228C26.5831 16.6008 29.2495 16.2398 31.9992 16.2398C34.7489 16.2398 37.4159 16.6008 39.9998 17.3228L41.5831 16.3233C42.6658 15.6563 43.9443 15.0452 45.4157 14.4896C46.8879 13.9343 48.0136 13.7814 48.7917 14.0316C50.0412 17.1706 50.1526 20.0036 49.1243 22.5309C51.3186 24.8922 52.4165 27.7535 52.4165 31.1144C52.4165 33.4754 52.1307 35.5651 51.5623 37.3847C50.9932 39.2047 50.2575 40.662 49.355 41.7597C48.4516 42.8573 47.3264 43.781 45.9794 44.5305C44.6321 45.2806 43.326 45.822 42.0625 46.1556C40.7984 46.4892 39.3751 46.7399 37.792 46.9066C39.2359 48.1561 39.958 50.1284 39.958 52.8227V61.6134C39.958 62.1128 40.1316 62.5298 40.4792 62.8629C40.8264 63.1955 41.3747 63.2934 42.1248 63.1541C48.5698 61.0157 53.8267 57.1617 57.8958 51.5922C61.9645 46.0231 63.9996 39.753 63.9996 32.7802C63.9981 26.9761 62.5668 21.6228 59.707 16.7201Z" fill="#FBFBFB"/>
</g>
<defs>
<clipPath id="clip0">
<rect width="64" height="64" fill="white"/>
</clipPath>
</defs>
</svg>
