<svg width="64" height="64" viewBox="0 0 64 64" fill="none" xmlns="http://www.w3.org/2000/svg">
<g clip-path="url(#clip0)">
<path d="M64 38.9169V62.5781H50.2827V40.5016C50.2827 34.9558 48.2987 31.171 43.3335 31.171C39.5432 31.171 37.2876 33.7217 36.2952 36.189C35.9334 37.0711 35.8402 38.2988 35.8402 39.5335V62.5781H22.1183C22.1183 62.5781 22.3031 25.1877 22.1183 21.3138H35.8389V27.1629C35.8111 27.2066 35.7749 27.2538 35.7487 27.2962H35.8389V27.1629C37.6618 24.3552 40.9173 20.3444 48.2042 20.3444C57.2321 20.3442 64 26.2421 64 38.9169ZM7.76466 1.42236C3.07042 1.42236 0 4.50141 0 8.55047C0 12.5113 2.98159 15.6838 7.58253 15.6838H7.67419C12.4593 15.6838 15.4353 12.5119 15.4353 8.55047C15.3451 4.50141 12.4593 1.42236 7.76466 1.42236ZM0.81496 62.5781H14.5316V21.3138H0.81496V62.5781Z" fill="#FBFBFB"/>
</g>
<defs>
<clipPath id="clip0">
<rect width="64" height="64" fill="white"/>
</clipPath>
</defs>
</svg>
