<svg fill="none" height="129" viewBox="0 0 353 129" width="353" xmlns="http://www.w3.org/2000/svg"><g fill="#fbfbfb" stroke="#000"><path d="m181 82h-4l4-6.5 6.5-1.5 15.5-10 15.5-9.5 6.5-1.5v-2.5l2-4 5.5-1.5v3.5h5.5l2 2v6l-2 2 22 19.5v4l11.5-12.5h3.5l11-8.5h6.5v3l4.5 4 5 9 24.5 26 18 13 2 4.5 5.5 4.5v3.5h-19.5l-12.5-6.5-9-1.5-38-6.5-13-1-38-2.5-71-1.5h-81.5-46l-2.5 2.5h-8l-2.5-2.5-8.5-2.5 11-4.5 81.5 3 89.5 1.5 69 2 18.5 1 32.5 3.5h5.5l-29-31-7.5-4-15.5 10.5-9-1h-6.5l-2-5.5-10-12.5-8-7-7 1.5c-2.5 1.3333-8 4.5-10 6.5l-5 5-16 9h-3z"/><path d="m245 6-2.5-3.5v-1.5h-6l-1.5 2.5-6 1.5h-5.5l-4 3v3l2 .5v2l-27 20.5-9-11.5-11 4.5v3.5l-41 29-4.5 1-11 9-2.5.5-13.5 9-1 2.5h6.5l8-4.5 4.5-1 2.5-3.5 11-5 14-10 31-19 1.5 8h2.5l3-2 1 2h3.5l3-1 1.5-3.5 31-24 22.5 19.5 16.5 20v4.5l2.5 3.5h3.5l8.5-6h5l3.5-4-10-9-13-15.5-19.5-19.5z"/></g></svg>