<svg width="300" height="300" viewBox="0 0 300 300" fill="none" xmlns="http://www.w3.org/2000/svg">
<circle cx="150" cy="150" r="147.5" stroke="#489B9E" stroke-width="5"/>
<path d="M54.6597 175.288C53.6997 175.288 52.8117 175.048 51.9957 174.568C51.1797 174.072 50.5237 173.368 50.0277 172.456C49.5477 171.528 49.3077 170.44 49.3077 169.192C49.3077 167.944 49.5477 166.856 50.0277 165.928C50.5237 165 51.1797 164.296 51.9957 163.816C52.8117 163.32 53.6997 163.072 54.6597 163.072C55.6197 163.072 56.5077 163.32 57.3237 163.816C58.1397 164.296 58.7877 165 59.2677 165.928C59.7637 166.856 60.0117 167.944 60.0117 169.192C60.0117 170.44 59.7637 171.528 59.2677 172.456C58.7877 173.368 58.1397 174.072 57.3237 174.568C56.5077 175.048 55.6197 175.288 54.6597 175.288ZM54.6597 173.824C55.3477 173.824 55.9557 173.632 56.4837 173.248C57.0277 172.864 57.4517 172.32 57.7557 171.616C58.0597 170.912 58.2117 170.104 58.2117 169.192C58.2117 168.28 58.0597 167.472 57.7557 166.768C57.4517 166.064 57.0277 165.52 56.4837 165.136C55.9557 164.736 55.3477 164.536 54.6597 164.536C53.9717 164.536 53.3557 164.736 52.8117 165.136C52.2837 165.52 51.8677 166.064 51.5637 166.768C51.2757 167.472 51.1317 168.28 51.1317 169.192C51.1317 170.584 51.4597 171.704 52.1157 172.552C52.7717 173.4 53.6197 173.824 54.6597 173.824ZM66.8298 159.016C65.7098 159.016 65.1498 159.8 65.1498 161.368V163.36H67.6698V164.8H65.1498V175H63.3978V164.8H61.8138V163.48L63.3978 163.36V161.344C63.3978 160.144 63.6698 159.216 64.2138 158.56C64.7738 157.904 65.5978 157.576 66.6858 157.576C67.3098 157.576 67.9338 157.704 68.5578 157.96L68.1738 159.304C67.7258 159.112 67.2778 159.016 66.8298 159.016ZM78.1188 175.288C76.9188 175.288 76.0308 174.912 75.4548 174.16C74.8788 173.392 74.5908 172.256 74.5908 170.752V163.36H76.3188V170.536C76.3188 171.656 76.5028 172.48 76.8708 173.008C77.2388 173.52 77.8308 173.776 78.6468 173.776C79.2388 173.776 79.7748 173.616 80.2548 173.296C80.7508 172.976 81.3028 172.448 81.9108 171.712V163.36H83.6628V175H82.1988L82.0548 173.152H81.9828C81.3908 173.84 80.7828 174.368 80.1588 174.736C79.5508 175.104 78.8708 175.288 78.1188 175.288ZM90.6957 175.288C89.8957 175.288 89.1197 175.144 88.3677 174.856C87.6157 174.552 86.9517 174.16 86.3757 173.68L87.2637 172.504C87.8397 172.968 88.3997 173.32 88.9437 173.56C89.4877 173.8 90.0957 173.92 90.7677 173.92C91.5357 173.92 92.1277 173.736 92.5437 173.368C92.9597 173 93.1677 172.536 93.1677 171.976C93.1677 171.416 92.9277 170.968 92.4477 170.632C91.9837 170.296 91.3197 169.976 90.4557 169.672C89.3517 169.272 88.4877 168.84 87.8637 168.376C87.2397 167.896 86.9277 167.216 86.9277 166.336C86.9277 165.392 87.2797 164.616 87.9837 164.008C88.7037 163.384 89.6717 163.072 90.8877 163.072C91.5437 163.072 92.1757 163.192 92.7837 163.432C93.3917 163.672 93.9357 163.984 94.4157 164.368L93.5757 165.496C93.1117 165.16 92.6717 164.904 92.2557 164.728C91.8397 164.552 91.3837 164.464 90.8877 164.464C90.1517 164.464 89.5917 164.64 89.2077 164.992C88.8237 165.328 88.6317 165.744 88.6317 166.24C88.6317 166.592 88.7437 166.896 88.9677 167.152C89.2077 167.408 89.4957 167.616 89.8317 167.776C90.1677 167.92 90.6397 168.112 91.2477 168.352C92.0637 168.656 92.7037 168.928 93.1677 169.168C93.6317 169.408 94.0317 169.752 94.3677 170.2C94.7037 170.632 94.8717 171.192 94.8717 171.88C94.8717 172.504 94.7037 173.08 94.3677 173.608C94.0477 174.12 93.5677 174.528 92.9277 174.832C92.3037 175.136 91.5597 175.288 90.6957 175.288ZM106.584 168.52C106.584 168.936 106.56 169.288 106.512 169.576H98.4721C98.5521 170.936 98.9681 171.992 99.7201 172.744C100.488 173.496 101.424 173.872 102.528 173.872C103.552 173.872 104.536 173.56 105.48 172.936L106.128 174.088C105.552 174.456 104.96 174.752 104.352 174.976C103.744 175.184 103.064 175.288 102.312 175.288C101.288 175.288 100.352 175.048 99.5041 174.568C98.6721 174.072 98.0081 173.36 97.5121 172.432C97.0321 171.504 96.7921 170.424 96.7921 169.192C96.7921 167.976 97.0321 166.904 97.5121 165.976C98.0081 165.048 98.6561 164.336 99.4561 163.84C100.256 163.328 101.104 163.072 102 163.072C103.44 163.072 104.56 163.56 105.36 164.536C106.176 165.496 106.584 166.824 106.584 168.52ZM105.024 168.304C105.024 167.072 104.76 166.128 104.232 165.472C103.704 164.816 102.968 164.488 102.024 164.488C101.16 164.488 100.392 164.816 99.7201 165.472C99.0481 166.128 98.6481 167.072 98.5201 168.304H105.024ZM109.517 163.36H110.957L111.101 165.496H111.173C111.573 164.744 112.061 164.152 112.637 163.72C113.213 163.288 113.829 163.072 114.485 163.072C114.949 163.072 115.349 163.152 115.685 163.312L115.349 164.848C114.933 164.72 114.565 164.656 114.245 164.656C113.701 164.656 113.157 164.88 112.613 165.328C112.085 165.776 111.629 166.472 111.245 167.416V175H109.517V163.36ZM120.579 175.288C119.779 175.288 119.003 175.144 118.251 174.856C117.499 174.552 116.835 174.16 116.259 173.68L117.146 172.504C117.723 172.968 118.283 173.32 118.827 173.56C119.371 173.8 119.979 173.92 120.651 173.92C121.419 173.92 122.011 173.736 122.427 173.368C122.843 173 123.051 172.536 123.051 171.976C123.051 171.416 122.811 170.968 122.331 170.632C121.867 170.296 121.203 169.976 120.339 169.672C119.235 169.272 118.371 168.84 117.747 168.376C117.123 167.896 116.811 167.216 116.811 166.336C116.811 165.392 117.163 164.616 117.867 164.008C118.587 163.384 119.555 163.072 120.771 163.072C121.427 163.072 122.059 163.192 122.667 163.432C123.275 163.672 123.819 163.984 124.299 164.368L123.459 165.496C122.995 165.16 122.555 164.904 122.139 164.728C121.723 164.552 121.267 164.464 120.771 164.464C120.035 164.464 119.475 164.64 119.09 164.992C118.707 165.328 118.515 165.744 118.515 166.24C118.515 166.592 118.627 166.896 118.851 167.152C119.091 167.408 119.379 167.616 119.715 167.776C120.051 167.92 120.523 168.112 121.131 168.352C121.947 168.656 122.587 168.928 123.051 169.168C123.515 169.408 123.915 169.752 124.251 170.2C124.587 170.632 124.755 171.192 124.755 171.88C124.755 172.504 124.587 173.08 124.251 173.608C123.931 174.12 123.451 174.528 122.811 174.832C122.187 175.136 121.443 175.288 120.579 175.288ZM135.032 175.288C134.04 175.288 133.224 175 132.584 174.424C131.944 173.848 131.624 173.04 131.624 172C131.624 170.736 132.2 169.768 133.352 169.096C134.504 168.408 136.344 167.928 138.872 167.656C138.872 166.744 138.68 166 138.296 165.424C137.928 164.832 137.288 164.536 136.376 164.536C135.272 164.536 134.096 164.96 132.848 165.808L132.152 164.608C133.688 163.584 135.192 163.072 136.664 163.072C138.008 163.072 139 163.496 139.64 164.344C140.28 165.176 140.6 166.328 140.6 167.8V175H139.16L139.016 173.584H138.944C137.568 174.72 136.264 175.288 135.032 175.288ZM135.488 173.872C136.048 173.872 136.592 173.744 137.12 173.488C137.664 173.216 138.248 172.8 138.872 172.24V168.832C136.872 169.072 135.448 169.44 134.6 169.936C133.768 170.432 133.352 171.088 133.352 171.904C133.352 172.56 133.552 173.056 133.952 173.392C134.352 173.712 134.864 173.872 135.488 173.872ZM144.415 163.36H145.855L145.999 165.496H146.071C146.471 164.744 146.959 164.152 147.535 163.72C148.111 163.288 148.727 163.072 149.383 163.072C149.847 163.072 150.247 163.152 150.583 163.312L150.247 164.848C149.831 164.72 149.463 164.656 149.143 164.656C148.599 164.656 148.055 164.88 147.511 165.328C146.983 165.776 146.527 166.472 146.143 167.416V175H144.415V163.36ZM161.217 168.52C161.217 168.936 161.193 169.288 161.145 169.576H153.105C153.185 170.936 153.601 171.992 154.353 172.744C155.121 173.496 156.057 173.872 157.161 173.872C158.185 173.872 159.169 173.56 160.113 172.936L160.761 174.088C160.185 174.456 159.593 174.752 158.985 174.976C158.377 175.184 157.697 175.288 156.945 175.288C155.921 175.288 154.985 175.048 154.137 174.568C153.305 174.072 152.641 173.36 152.145 172.432C151.665 171.504 151.425 170.424 151.425 169.192C151.425 167.976 151.665 166.904 152.145 165.976C152.641 165.048 153.289 164.336 154.089 163.84C154.889 163.328 155.737 163.072 156.633 163.072C158.073 163.072 159.193 163.56 159.993 164.536C160.809 165.496 161.217 166.824 161.217 168.52ZM159.657 168.304C159.657 167.072 159.393 166.128 158.865 165.472C158.337 164.816 157.601 164.488 156.657 164.488C155.793 164.488 155.025 164.816 154.353 165.472C153.681 166.128 153.281 167.072 153.153 168.304H159.657ZM172.098 175.288C170.85 175.288 169.922 174.88 169.314 174.064C168.722 173.232 168.426 172.048 168.426 170.512V163.12H171.69V170.104C171.69 170.968 171.818 171.584 172.074 171.952C172.33 172.304 172.738 172.48 173.298 172.48C173.762 172.48 174.154 172.376 174.474 172.168C174.81 171.944 175.178 171.576 175.578 171.064V163.12H178.842V175H176.178L175.938 173.32H175.842C175.298 173.96 174.73 174.448 174.138 174.784C173.546 175.12 172.866 175.288 172.098 175.288ZM182.116 163.12H184.78L185.02 164.656H185.116C185.692 164.096 186.284 163.656 186.892 163.336C187.516 163 188.204 162.832 188.956 162.832C190.204 162.832 191.124 163.248 191.716 164.08C192.324 164.896 192.628 166.072 192.628 167.608V175H189.34V168.016C189.34 167.136 189.212 166.52 188.956 166.168C188.716 165.816 188.316 165.64 187.756 165.64C187.308 165.64 186.916 165.736 186.58 165.928C186.244 166.12 185.844 166.44 185.38 166.888V175H182.116V163.12ZM195.757 158.128H199.021V162.328L198.877 164.536C199.437 164.008 200.013 163.592 200.605 163.288C201.197 162.984 201.861 162.832 202.597 162.832C203.845 162.832 204.765 163.248 205.357 164.08C205.965 164.896 206.269 166.072 206.269 167.608V175H202.981V168.016C202.981 167.136 202.853 166.52 202.597 166.168C202.357 165.816 201.957 165.64 201.397 165.64C200.949 165.64 200.557 165.736 200.221 165.928C199.885 166.12 199.485 166.44 199.021 166.888V175H195.757V158.128ZM212.326 175.288C211.27 175.288 210.414 174.952 209.758 174.28C209.118 173.608 208.798 172.76 208.798 171.736C208.798 170.472 209.334 169.496 210.406 168.808C211.478 168.104 213.198 167.624 215.566 167.368C215.518 166.088 214.862 165.448 213.598 165.448C213.102 165.448 212.598 165.544 212.086 165.736C211.574 165.928 211.014 166.2 210.406 166.552L209.23 164.392C210.91 163.352 212.574 162.832 214.222 162.832C215.742 162.832 216.894 163.28 217.678 164.176C218.462 165.056 218.854 166.376 218.854 168.136V175H216.166L215.926 173.752H215.854C214.67 174.776 213.494 175.288 212.326 175.288ZM213.406 172.744C213.806 172.744 214.166 172.656 214.486 172.48C214.822 172.288 215.182 172.008 215.566 171.64V169.36C214.27 169.536 213.342 169.8 212.782 170.152C212.222 170.504 211.942 170.944 211.942 171.472C211.942 171.888 212.07 172.208 212.326 172.432C212.582 172.64 212.942 172.744 213.406 172.744ZM221.96 163.12H224.624L224.864 164.32H224.96C225.456 163.872 226 163.512 226.592 163.24C227.2 162.968 227.8 162.832 228.392 162.832C229.832 162.832 230.968 163.376 231.8 164.464C232.632 165.552 233.048 167.024 233.048 168.88C233.048 170.176 232.816 171.312 232.352 172.288C231.888 173.264 231.272 174.008 230.504 174.52C229.736 175.032 228.912 175.288 228.032 175.288C227.024 175.288 226.056 174.864 225.128 174.016L225.224 175.936V179.512H221.96V163.12ZM227.288 172.6C227.992 172.6 228.568 172.288 229.016 171.664C229.464 171.04 229.688 170.12 229.688 168.904C229.688 166.648 228.944 165.52 227.456 165.52C226.72 165.52 225.976 165.904 225.224 166.672V171.76C225.864 172.32 226.552 172.6 227.288 172.6ZM235.648 163.12H238.312L238.552 164.32H238.648C239.144 163.872 239.688 163.512 240.28 163.24C240.888 162.968 241.488 162.832 242.08 162.832C243.52 162.832 244.656 163.376 245.488 164.464C246.32 165.552 246.736 167.024 246.736 168.88C246.736 170.176 246.504 171.312 246.04 172.288C245.576 173.264 244.96 174.008 244.192 174.52C243.424 175.032 242.6 175.288 241.72 175.288C240.712 175.288 239.744 174.864 238.816 174.016L238.912 175.936V179.512H235.648V163.12ZM240.976 172.6C241.68 172.6 242.256 172.288 242.704 171.664C243.152 171.04 243.376 170.12 243.376 168.904C243.376 166.648 242.632 165.52 241.144 165.52C240.408 165.52 239.664 165.904 238.912 166.672V171.76C239.552 172.32 240.24 172.6 240.976 172.6ZM250.3 179.728C249.724 179.728 249.172 179.648 248.644 179.488L249.244 176.968C249.58 177.08 249.852 177.136 250.06 177.136C251.116 177.136 251.836 176.56 252.22 175.408L252.412 174.736L247.804 163.12H251.116L252.916 168.472C253.108 169.032 253.332 169.776 253.588 170.704C253.7 171.136 253.804 171.512 253.9 171.832H253.996C254.204 170.92 254.484 169.8 254.836 168.472L256.396 163.12H259.54L255.364 175.264C254.788 176.8 254.124 177.928 253.372 178.648C252.62 179.368 251.596 179.728 250.3 179.728ZM65.783 194.36H67.583L69.407 201.296L69.623 202.328C69.847 203.288 70.007 204.016 70.103 204.512H70.199C70.503 203.264 70.775 202.192 71.015 201.296L72.887 194.36H74.639L76.535 201.296L77.351 204.512H77.447L78.215 201.296L79.991 194.36H81.671L78.503 206H76.343L74.567 199.496L74.111 197.6C74.079 197.472 73.967 196.992 73.775 196.16H73.679C73.327 197.744 73.047 198.872 72.839 199.544L71.111 206H69.071L65.783 194.36ZM84.2861 194.36H86.0141V206H84.2861V194.36ZM85.1741 191.864C84.8221 191.864 84.5341 191.752 84.3101 191.528C84.0861 191.304 83.9741 191.008 83.9741 190.64C83.9741 190.288 84.0861 190.008 84.3101 189.8C84.5341 189.576 84.8221 189.464 85.1741 189.464C85.5261 189.464 85.8141 189.576 86.0381 189.8C86.2621 190.008 86.3741 190.288 86.3741 190.64C86.3741 191.008 86.2621 191.304 86.0381 191.528C85.8141 191.752 85.5261 191.864 85.1741 191.864ZM93.6266 206.288C92.4746 206.288 91.6506 205.96 91.1546 205.304C90.6586 204.648 90.4106 203.712 90.4106 202.496V195.8H88.6586V194.48L90.4826 194.36L90.6986 191.072H92.1626V194.36H95.3546V195.8H92.1626V202.544C92.1626 203.312 92.2986 203.888 92.5706 204.272C92.8586 204.656 93.3386 204.848 94.0106 204.848C94.3466 204.848 94.7946 204.744 95.3546 204.536L95.7146 205.856C94.8506 206.144 94.1546 206.288 93.6266 206.288ZM98.0439 188.864H99.7719V193.616L99.7239 196.064C100.364 195.424 100.988 194.936 101.596 194.6C102.204 194.248 102.876 194.072 103.612 194.072C104.828 194.072 105.724 194.456 106.3 195.224C106.876 195.976 107.164 197.104 107.164 198.608V206H105.412V198.824C105.412 197.704 105.228 196.888 104.86 196.376C104.508 195.864 103.924 195.608 103.108 195.608C102.532 195.608 101.996 195.76 101.5 196.064C101.004 196.352 100.428 196.824 99.7719 197.48V206H98.0439V188.864ZM119.338 206.288C118.186 206.288 117.362 205.96 116.866 205.304C116.37 204.648 116.122 203.712 116.122 202.496V195.8H114.37V194.48L116.194 194.36L116.41 191.072H117.874V194.36H121.066V195.8H117.874V202.544C117.874 203.312 118.01 203.888 118.282 204.272C118.57 204.656 119.05 204.848 119.722 204.848C120.058 204.848 120.506 204.744 121.066 204.536L121.426 205.856C120.562 206.144 119.866 206.288 119.338 206.288ZM123.755 188.864H125.483V193.616L125.435 196.064C126.075 195.424 126.699 194.936 127.307 194.6C127.915 194.248 128.587 194.072 129.323 194.072C130.539 194.072 131.435 194.456 132.011 195.224C132.587 195.976 132.875 197.104 132.875 198.608V206H131.123V198.824C131.123 197.704 130.939 196.888 130.571 196.376C130.219 195.864 129.635 195.608 128.819 195.608C128.243 195.608 127.707 195.76 127.211 196.064C126.715 196.352 126.139 196.824 125.483 197.48V206H123.755V188.864ZM145.596 199.52C145.596 199.936 145.572 200.288 145.524 200.576H137.484C137.564 201.936 137.98 202.992 138.732 203.744C139.5 204.496 140.436 204.872 141.54 204.872C142.564 204.872 143.548 204.56 144.492 203.936L145.14 205.088C144.564 205.456 143.972 205.752 143.364 205.976C142.756 206.184 142.076 206.288 141.324 206.288C140.3 206.288 139.364 206.048 138.516 205.568C137.684 205.072 137.02 204.36 136.524 203.432C136.044 202.504 135.804 201.424 135.804 200.192C135.804 198.976 136.044 197.904 136.524 196.976C137.02 196.048 137.668 195.336 138.468 194.84C139.268 194.328 140.116 194.072 141.012 194.072C142.452 194.072 143.572 194.56 144.372 195.536C145.188 196.496 145.596 197.824 145.596 199.52ZM144.036 199.304C144.036 198.072 143.772 197.128 143.244 196.472C142.716 195.816 141.98 195.488 141.036 195.488C140.172 195.488 139.404 195.816 138.732 196.472C138.06 197.128 137.66 198.072 137.532 199.304H144.036ZM148.528 194.36H150.256V206H148.528V194.36ZM149.416 191.864C149.064 191.864 148.776 191.752 148.552 191.528C148.328 191.304 148.216 191.008 148.216 190.64C148.216 190.288 148.328 190.008 148.552 189.8C148.776 189.576 149.064 189.464 149.416 189.464C149.768 189.464 150.056 189.576 150.28 189.8C150.504 190.008 150.616 190.288 150.616 190.64C150.616 191.008 150.504 191.304 150.28 191.528C150.056 191.752 149.768 191.864 149.416 191.864ZM154.341 194.36H155.781L155.925 196.496H155.997C156.397 195.744 156.885 195.152 157.461 194.72C158.037 194.288 158.653 194.072 159.309 194.072C159.773 194.072 160.173 194.152 160.509 194.312L160.173 195.848C159.757 195.72 159.389 195.656 159.069 195.656C158.525 195.656 157.981 195.88 157.437 196.328C156.909 196.776 156.453 197.472 156.069 198.416V206H154.341V194.36ZM171.814 206.288C170.79 206.288 169.862 206.048 169.03 205.568C168.214 205.072 167.566 204.368 167.086 203.456C166.622 202.544 166.39 201.456 166.39 200.192C166.39 198.944 166.638 197.856 167.134 196.928C167.646 196 168.326 195.296 169.174 194.816C170.022 194.32 170.942 194.072 171.934 194.072C173.198 194.072 174.326 194.536 175.318 195.464L174.406 196.616C174.022 196.264 173.638 196 173.254 195.824C172.87 195.632 172.454 195.536 172.006 195.536C171.286 195.536 170.638 195.736 170.062 196.136C169.486 196.52 169.03 197.064 168.694 197.768C168.374 198.472 168.214 199.28 168.214 200.192C168.214 201.584 168.558 202.704 169.246 203.552C169.934 204.4 170.838 204.824 171.958 204.824C172.966 204.824 173.91 204.424 174.79 203.624L175.558 204.8C175.03 205.264 174.446 205.632 173.806 205.904C173.166 206.16 172.502 206.288 171.814 206.288ZM181.56 206.288C180.36 206.288 179.472 205.912 178.896 205.16C178.32 204.392 178.032 203.256 178.032 201.752V194.36H179.76V201.536C179.76 202.656 179.944 203.48 180.312 204.008C180.68 204.52 181.272 204.776 182.088 204.776C182.68 204.776 183.216 204.616 183.696 204.296C184.192 203.976 184.744 203.448 185.352 202.712V194.36H187.104V206H185.64L185.496 204.152H185.424C184.832 204.84 184.224 205.368 183.6 205.736C182.992 206.104 182.312 206.288 181.56 206.288ZM191.161 194.36H192.601L192.745 196.496H192.817C193.217 195.744 193.705 195.152 194.281 194.72C194.857 194.288 195.473 194.072 196.129 194.072C196.593 194.072 196.993 194.152 197.329 194.312L196.993 195.848C196.577 195.72 196.209 195.656 195.889 195.656C195.345 195.656 194.801 195.88 194.257 196.328C193.729 196.776 193.273 197.472 192.889 198.416V206H191.161V194.36ZM199.317 194.36H200.757L200.901 196.496H200.973C201.373 195.744 201.861 195.152 202.437 194.72C203.013 194.288 203.629 194.072 204.285 194.072C204.749 194.072 205.149 194.152 205.485 194.312L205.149 195.848C204.733 195.72 204.365 195.656 204.045 195.656C203.501 195.656 202.957 195.88 202.413 196.328C201.885 196.776 201.429 197.472 201.045 198.416V206H199.317V194.36ZM216.119 199.52C216.119 199.936 216.095 200.288 216.047 200.576H208.007C208.087 201.936 208.503 202.992 209.255 203.744C210.023 204.496 210.959 204.872 212.063 204.872C213.087 204.872 214.071 204.56 215.015 203.936L215.663 205.088C215.087 205.456 214.495 205.752 213.887 205.976C213.279 206.184 212.599 206.288 211.847 206.288C210.823 206.288 209.887 206.048 209.039 205.568C208.207 205.072 207.543 204.36 207.047 203.432C206.567 202.504 206.327 201.424 206.327 200.192C206.327 198.976 206.567 197.904 207.047 196.976C207.543 196.048 208.191 195.336 208.991 194.84C209.791 194.328 210.639 194.072 211.535 194.072C212.975 194.072 214.095 194.56 214.895 195.536C215.711 196.496 216.119 197.824 216.119 199.52ZM214.559 199.304C214.559 198.072 214.295 197.128 213.767 196.472C213.239 195.816 212.503 195.488 211.559 195.488C210.695 195.488 209.927 195.816 209.255 196.472C208.583 197.128 208.183 198.072 208.055 199.304H214.559ZM219.052 194.36H220.492L220.636 196.088H220.708C221.348 195.448 221.972 194.952 222.58 194.6C223.204 194.248 223.884 194.072 224.62 194.072C225.836 194.072 226.732 194.456 227.308 195.224C227.884 195.976 228.172 197.104 228.172 198.608V206H226.42V198.824C226.42 197.704 226.236 196.888 225.868 196.376C225.516 195.864 224.932 195.608 224.116 195.608C223.54 195.608 223.004 195.76 222.508 196.064C222.012 196.352 221.436 196.824 220.78 197.48V206H219.052V194.36ZM235.611 206.288C234.459 206.288 233.635 205.96 233.139 205.304C232.643 204.648 232.395 203.712 232.395 202.496V195.8H230.643V194.48L232.467 194.36L232.683 191.072H234.147V194.36H237.339V195.8H234.147V202.544C234.147 203.312 234.283 203.888 234.555 204.272C234.843 204.656 235.323 204.848 235.995 204.848C236.331 204.848 236.779 204.744 237.339 204.536L237.699 205.856C236.835 206.144 236.139 206.288 235.611 206.288ZM124.164 237.288C123.364 237.288 122.588 237.144 121.836 236.856C121.084 236.552 120.42 236.16 119.844 235.68L120.732 234.504C121.308 234.968 121.868 235.32 122.412 235.56C122.956 235.8 123.564 235.92 124.236 235.92C125.004 235.92 125.596 235.736 126.012 235.368C126.428 235 126.636 234.536 126.636 233.976C126.636 233.416 126.396 232.968 125.916 232.632C125.452 232.296 124.788 231.976 123.924 231.672C122.82 231.272 121.956 230.84 121.332 230.376C120.708 229.896 120.396 229.216 120.396 228.336C120.396 227.392 120.748 226.616 121.452 226.008C122.172 225.384 123.14 225.072 124.356 225.072C125.012 225.072 125.644 225.192 126.252 225.432C126.86 225.672 127.404 225.984 127.884 226.368L127.044 227.496C126.58 227.16 126.14 226.904 125.724 226.728C125.308 226.552 124.852 226.464 124.356 226.464C123.62 226.464 123.06 226.64 122.676 226.992C122.292 227.328 122.1 227.744 122.1 228.24C122.1 228.592 122.212 228.896 122.436 229.152C122.676 229.408 122.964 229.616 123.3 229.776C123.636 229.92 124.108 230.112 124.716 230.352C125.532 230.656 126.172 230.928 126.636 231.168C127.1 231.408 127.5 231.752 127.836 232.2C128.172 232.632 128.34 233.192 128.34 233.88C128.34 234.504 128.172 235.08 127.836 235.608C127.516 236.12 127.036 236.528 126.396 236.832C125.772 237.136 125.028 237.288 124.164 237.288ZM140.053 230.52C140.053 230.936 140.029 231.288 139.981 231.576H131.941C132.021 232.936 132.437 233.992 133.189 234.744C133.957 235.496 134.893 235.872 135.997 235.872C137.021 235.872 138.005 235.56 138.949 234.936L139.597 236.088C139.021 236.456 138.429 236.752 137.821 236.976C137.213 237.184 136.533 237.288 135.781 237.288C134.757 237.288 133.821 237.048 132.973 236.568C132.141 236.072 131.477 235.36 130.981 234.432C130.501 233.504 130.261 232.424 130.261 231.192C130.261 229.976 130.501 228.904 130.981 227.976C131.477 227.048 132.125 226.336 132.925 225.84C133.725 225.328 134.573 225.072 135.469 225.072C136.909 225.072 138.029 225.56 138.829 226.536C139.645 227.496 140.053 228.824 140.053 230.52ZM138.493 230.304C138.493 229.072 138.229 228.128 137.701 227.472C137.173 226.816 136.437 226.488 135.493 226.488C134.629 226.488 133.861 226.816 133.189 227.472C132.517 228.128 132.117 229.072 131.989 230.304H138.493ZM142.985 225.36H144.425L144.569 227.496H144.641C145.041 226.744 145.529 226.152 146.105 225.72C146.681 225.288 147.297 225.072 147.953 225.072C148.417 225.072 148.817 225.152 149.153 225.312L148.817 226.848C148.401 226.72 148.033 226.656 147.713 226.656C147.169 226.656 146.625 226.88 146.081 227.328C145.553 227.776 145.097 228.472 144.713 229.416V237H142.985V225.36ZM150.069 225.36H151.869L154.173 232.152L155.277 235.56H155.373L156.477 232.152L158.781 225.36H160.509L156.333 237H154.317L150.069 225.36ZM162.837 225.36H164.565V237H162.837V225.36ZM163.725 222.864C163.373 222.864 163.085 222.752 162.861 222.528C162.637 222.304 162.525 222.008 162.525 221.64C162.525 221.288 162.637 221.008 162.861 220.8C163.085 220.576 163.373 220.464 163.725 220.464C164.077 220.464 164.365 220.576 164.589 220.8C164.813 221.008 164.925 221.288 164.925 221.64C164.925 222.008 164.813 222.304 164.589 222.528C164.365 222.752 164.077 222.864 163.725 222.864ZM173.161 237.288C172.137 237.288 171.209 237.048 170.377 236.568C169.561 236.072 168.913 235.368 168.433 234.456C167.969 233.544 167.737 232.456 167.737 231.192C167.737 229.944 167.985 228.856 168.481 227.928C168.993 227 169.673 226.296 170.521 225.816C171.369 225.32 172.289 225.072 173.281 225.072C174.545 225.072 175.673 225.536 176.665 226.464L175.753 227.616C175.369 227.264 174.985 227 174.601 226.824C174.217 226.632 173.801 226.536 173.353 226.536C172.633 226.536 171.985 226.736 171.409 227.136C170.833 227.52 170.377 228.064 170.041 228.768C169.721 229.472 169.561 230.28 169.561 231.192C169.561 232.584 169.905 233.704 170.593 234.552C171.281 235.4 172.185 235.824 173.305 235.824C174.313 235.824 175.257 235.424 176.137 234.624L176.905 235.8C176.377 236.264 175.793 236.632 175.153 236.904C174.513 237.16 173.849 237.288 173.161 237.288ZM187.959 230.52C187.959 230.936 187.935 231.288 187.887 231.576H179.847C179.927 232.936 180.343 233.992 181.095 234.744C181.863 235.496 182.799 235.872 183.903 235.872C184.927 235.872 185.911 235.56 186.855 234.936L187.503 236.088C186.927 236.456 186.335 236.752 185.727 236.976C185.119 237.184 184.439 237.288 183.687 237.288C182.663 237.288 181.727 237.048 180.879 236.568C180.047 236.072 179.383 235.36 178.887 234.432C178.407 233.504 178.167 232.424 178.167 231.192C178.167 229.976 178.407 228.904 178.887 227.976C179.383 227.048 180.031 226.336 180.831 225.84C181.631 225.328 182.479 225.072 183.375 225.072C184.815 225.072 185.935 225.56 186.735 226.536C187.551 227.496 187.959 228.824 187.959 230.52ZM186.399 230.304C186.399 229.072 186.135 228.128 185.607 227.472C185.079 226.816 184.343 226.488 183.399 226.488C182.535 226.488 181.767 226.816 181.095 227.472C180.423 228.128 180.023 229.072 179.895 230.304H186.399Z" fill="black"/>
<path d="M62.6231 125.032H76.4471V82.792H65.2151V76.648C70.6551 75.688 75.1991 74.088 78.8471 71.848H86.1431V125.032H98.4311V133H62.6231V125.032ZM136.629 134.152C130.293 134.152 125.333 131.368 121.749 125.8C118.165 120.232 116.373 112.36 116.373 102.184C116.373 92.008 118.165 84.232 121.749 78.856C125.333 73.416 130.293 70.696 136.629 70.696C142.965 70.696 147.925 73.416 151.509 78.856C155.093 84.296 156.885 92.072 156.885 102.184C156.885 112.36 155.093 120.232 151.509 125.8C147.925 131.368 142.965 134.152 136.629 134.152ZM136.629 126.472C140.021 126.472 142.677 124.52 144.597 120.616C146.581 116.712 147.573 110.568 147.573 102.184C147.573 86.312 143.925 78.376 136.629 78.376C129.333 78.376 125.685 86.312 125.685 102.184C125.685 110.568 126.645 116.712 128.565 120.616C130.549 124.52 133.237 126.472 136.629 126.472ZM188.263 107.752C183.847 107.752 180.295 105.992 177.607 102.472C174.919 98.952 173.575 94.056 173.575 87.784C173.575 81.576 174.919 76.744 177.607 73.288C180.295 69.768 183.847 68.008 188.263 68.008C192.679 68.008 196.231 69.768 198.919 73.288C201.607 76.744 202.951 81.576 202.951 87.784C202.951 94.056 201.607 98.952 198.919 102.472C196.231 105.992 192.679 107.752 188.263 107.752ZM224.359 68.968H230.503L196.039 134.152H189.895L224.359 68.968ZM188.263 101.992C190.567 101.992 192.391 100.808 193.735 98.44C195.143 96.008 195.847 92.456 195.847 87.784C195.847 83.112 195.143 79.624 193.735 77.32C192.391 74.952 190.567 73.768 188.263 73.768C185.959 73.768 184.103 74.952 182.695 77.32C181.351 79.624 180.679 83.112 180.679 87.784C180.679 92.456 181.351 96.008 182.695 98.44C184.103 100.808 185.959 101.992 188.263 101.992ZM232.327 134.152C227.911 134.152 224.359 132.392 221.671 128.872C218.983 125.352 217.639 120.456 217.639 114.184C217.639 107.976 218.983 103.144 221.671 99.688C224.359 96.168 227.911 94.408 232.327 94.408C236.743 94.408 240.295 96.168 242.983 99.688C245.671 103.144 247.015 107.976 247.015 114.184C247.015 120.456 245.671 125.352 242.983 128.872C240.295 132.392 236.743 134.152 232.327 134.152ZM232.327 128.392C234.631 128.392 236.455 127.208 237.799 124.84C239.207 122.408 239.911 118.856 239.911 114.184C239.911 109.512 239.207 106.024 237.799 103.72C236.455 101.352 234.631 100.168 232.327 100.168C230.023 100.168 228.167 101.352 226.759 103.72C225.415 106.024 224.743 109.512 224.743 114.184C224.743 118.856 225.415 122.408 226.759 124.84C228.167 127.208 230.023 128.392 232.327 128.392Z" fill="black"/>
</svg>
