<svg width="300" height="300" viewBox="0 0 300 300" fill="none" xmlns="http://www.w3.org/2000/svg">
<circle cx="150" cy="150" r="147.5" stroke="#489B9E" stroke-width="5"/>
<path d="M89.1152 175.288C88.1552 175.288 87.2672 175.048 86.4512 174.568C85.6352 174.072 84.9792 173.368 84.4832 172.456C84.0032 171.528 83.7632 170.44 83.7632 169.192C83.7632 167.944 84.0032 166.856 84.4832 165.928C84.9792 165 85.6352 164.296 86.4512 163.816C87.2672 163.32 88.1552 163.072 89.1152 163.072C90.0752 163.072 90.9632 163.32 91.7792 163.816C92.5952 164.296 93.2432 165 93.7232 165.928C94.2192 166.856 94.4672 167.944 94.4672 169.192C94.4672 170.44 94.2192 171.528 93.7232 172.456C93.2432 173.368 92.5952 174.072 91.7792 174.568C90.9632 175.048 90.0752 175.288 89.1152 175.288ZM89.1152 173.824C89.8032 173.824 90.4112 173.632 90.9392 173.248C91.4832 172.864 91.9072 172.32 92.2112 171.616C92.5152 170.912 92.6672 170.104 92.6672 169.192C92.6672 168.28 92.5152 167.472 92.2112 166.768C91.9072 166.064 91.4832 165.52 90.9392 165.136C90.4112 164.736 89.8032 164.536 89.1152 164.536C88.4272 164.536 87.8112 164.736 87.2672 165.136C86.7392 165.52 86.3232 166.064 86.0192 166.768C85.7312 167.472 85.5872 168.28 85.5872 169.192C85.5872 170.584 85.9152 171.704 86.5712 172.552C87.2272 173.4 88.0752 173.824 89.1152 173.824ZM103.685 159.016C102.565 159.016 102.005 159.8 102.005 161.368V163.36H104.525V164.8H102.005V175H100.253V164.8H98.6692V163.48L100.253 163.36V161.344C100.253 160.144 100.525 159.216 101.069 158.56C101.629 157.904 102.453 157.576 103.541 157.576C104.165 157.576 104.789 157.704 105.413 157.96L105.029 159.304C104.581 159.112 104.133 159.016 103.685 159.016ZM119.774 175.288C118.574 175.288 117.686 174.912 117.11 174.16C116.534 173.392 116.246 172.256 116.246 170.752V163.36H117.974V170.536C117.974 171.656 118.158 172.48 118.526 173.008C118.894 173.52 119.486 173.776 120.302 173.776C120.894 173.776 121.43 173.616 121.91 173.296C122.406 172.976 122.958 172.448 123.566 171.712V163.36H125.318V175H123.854L123.71 173.152H123.638C123.046 173.84 122.438 174.368 121.814 174.736C121.206 175.104 120.526 175.288 119.774 175.288ZM134.751 175.288C133.951 175.288 133.175 175.144 132.423 174.856C131.671 174.552 131.007 174.16 130.431 173.68L131.319 172.504C131.895 172.968 132.455 173.32 132.999 173.56C133.543 173.8 134.151 173.92 134.823 173.92C135.591 173.92 136.183 173.736 136.599 173.368C137.015 173 137.223 172.536 137.223 171.976C137.223 171.416 136.983 170.968 136.503 170.632C136.039 170.296 135.375 169.976 134.511 169.672C133.407 169.272 132.543 168.84 131.919 168.376C131.295 167.896 130.983 167.216 130.983 166.336C130.983 165.392 131.335 164.616 132.039 164.008C132.759 163.384 133.727 163.072 134.943 163.072C135.599 163.072 136.231 163.192 136.839 163.432C137.447 163.672 137.991 163.984 138.471 164.368L137.631 165.496C137.167 165.16 136.727 164.904 136.311 164.728C135.895 164.552 135.439 164.464 134.943 164.464C134.207 164.464 133.647 164.64 133.263 164.992C132.879 165.328 132.687 165.744 132.687 166.24C132.687 166.592 132.799 166.896 133.023 167.152C133.263 167.408 133.551 167.616 133.887 167.776C134.223 167.92 134.695 168.112 135.303 168.352C136.119 168.656 136.759 168.928 137.223 169.168C137.687 169.408 138.087 169.752 138.423 170.2C138.759 170.632 138.927 171.192 138.927 171.88C138.927 172.504 138.759 173.08 138.423 173.608C138.103 174.12 137.623 174.528 136.983 174.832C136.359 175.136 135.615 175.288 134.751 175.288ZM153.04 168.52C153.04 168.936 153.016 169.288 152.968 169.576H144.928C145.008 170.936 145.424 171.992 146.176 172.744C146.944 173.496 147.88 173.872 148.984 173.872C150.008 173.872 150.992 173.56 151.936 172.936L152.584 174.088C152.008 174.456 151.416 174.752 150.808 174.976C150.2 175.184 149.52 175.288 148.768 175.288C147.744 175.288 146.808 175.048 145.96 174.568C145.128 174.072 144.464 173.36 143.968 172.432C143.488 171.504 143.248 170.424 143.248 169.192C143.248 167.976 143.488 166.904 143.968 165.976C144.464 165.048 145.112 164.336 145.912 163.84C146.712 163.328 147.56 163.072 148.456 163.072C149.896 163.072 151.016 163.56 151.816 164.536C152.632 165.496 153.04 166.824 153.04 168.52ZM151.48 168.304C151.48 167.072 151.216 166.128 150.688 165.472C150.16 164.816 149.424 164.488 148.48 164.488C147.616 164.488 146.848 164.816 146.176 165.472C145.504 166.128 145.104 167.072 144.976 168.304H151.48ZM158.372 163.36H159.812L159.956 165.496H160.028C160.428 164.744 160.916 164.152 161.492 163.72C162.068 163.288 162.684 163.072 163.34 163.072C163.804 163.072 164.204 163.152 164.54 163.312L164.204 164.848C163.788 164.72 163.42 164.656 163.1 164.656C162.556 164.656 162.012 164.88 161.468 165.328C160.94 165.776 160.484 166.472 160.1 167.416V175H158.372V163.36ZM171.834 175.288C171.034 175.288 170.258 175.144 169.506 174.856C168.754 174.552 168.09 174.16 167.514 173.68L168.402 172.504C168.978 172.968 169.538 173.32 170.082 173.56C170.626 173.8 171.234 173.92 171.906 173.92C172.674 173.92 173.266 173.736 173.682 173.368C174.098 173 174.306 172.536 174.306 171.976C174.306 171.416 174.066 170.968 173.586 170.632C173.122 170.296 172.458 169.976 171.594 169.672C170.49 169.272 169.626 168.84 169.002 168.376C168.378 167.896 168.066 167.216 168.066 166.336C168.066 165.392 168.418 164.616 169.122 164.008C169.842 163.384 170.81 163.072 172.026 163.072C172.682 163.072 173.314 163.192 173.922 163.432C174.53 163.672 175.074 163.984 175.554 164.368L174.714 165.496C174.25 165.16 173.81 164.904 173.394 164.728C172.978 164.552 172.522 164.464 172.026 164.464C171.29 164.464 170.73 164.64 170.346 164.992C169.962 165.328 169.77 165.744 169.77 166.24C169.77 166.592 169.882 166.896 170.106 167.152C170.346 167.408 170.634 167.616 170.97 167.776C171.306 167.92 171.778 168.112 172.386 168.352C173.202 168.656 173.842 168.928 174.306 169.168C174.77 169.408 175.17 169.752 175.506 170.2C175.842 170.632 176.01 171.192 176.01 171.88C176.01 172.504 175.842 173.08 175.506 173.608C175.186 174.12 174.706 174.528 174.066 174.832C173.442 175.136 172.698 175.288 171.834 175.288ZM191.087 175.288C190.095 175.288 189.279 175 188.639 174.424C187.999 173.848 187.679 173.04 187.679 172C187.679 170.736 188.255 169.768 189.407 169.096C190.559 168.408 192.399 167.928 194.927 167.656C194.927 166.744 194.735 166 194.351 165.424C193.983 164.832 193.343 164.536 192.431 164.536C191.327 164.536 190.151 164.96 188.903 165.808L188.207 164.608C189.743 163.584 191.247 163.072 192.719 163.072C194.063 163.072 195.055 163.496 195.695 164.344C196.335 165.176 196.655 166.328 196.655 167.8V175H195.215L195.071 173.584H194.999C193.623 174.72 192.319 175.288 191.087 175.288ZM191.543 173.872C192.103 173.872 192.647 173.744 193.175 173.488C193.719 173.216 194.303 172.8 194.927 172.24V168.832C192.927 169.072 191.503 169.44 190.655 169.936C189.823 170.432 189.407 171.088 189.407 171.904C189.407 172.56 189.607 173.056 190.007 173.392C190.407 173.712 190.919 173.872 191.543 173.872ZM202.87 163.36H204.31L204.454 165.496H204.526C204.926 164.744 205.414 164.152 205.99 163.72C206.566 163.288 207.182 163.072 207.838 163.072C208.302 163.072 208.702 163.152 209.038 163.312L208.702 164.848C208.286 164.72 207.918 164.656 207.598 164.656C207.054 164.656 206.51 164.88 205.966 165.328C205.438 165.776 204.982 166.472 204.598 167.416V175H202.87V163.36ZM222.072 168.52C222.072 168.936 222.048 169.288 222 169.576H213.96C214.04 170.936 214.456 171.992 215.208 172.744C215.976 173.496 216.912 173.872 218.016 173.872C219.04 173.872 220.024 173.56 220.968 172.936L221.616 174.088C221.04 174.456 220.448 174.752 219.84 174.976C219.232 175.184 218.552 175.288 217.8 175.288C216.776 175.288 215.84 175.048 214.992 174.568C214.16 174.072 213.496 173.36 213 172.432C212.52 171.504 212.28 170.424 212.28 169.192C212.28 167.976 212.52 166.904 213 165.976C213.496 165.048 214.144 164.336 214.944 163.84C215.744 163.328 216.592 163.072 217.488 163.072C218.928 163.072 220.048 163.56 220.848 164.536C221.664 165.496 222.072 166.824 222.072 168.52ZM220.512 168.304C220.512 167.072 220.248 166.128 219.72 165.472C219.192 164.816 218.456 164.488 217.512 164.488C216.648 164.488 215.88 164.816 215.208 165.472C214.536 166.128 214.136 167.072 214.008 168.304H220.512ZM41.1035 206.288C39.8555 206.288 38.9275 205.88 38.3195 205.064C37.7275 204.232 37.4315 203.048 37.4315 201.512V194.12H40.6955V201.104C40.6955 201.968 40.8235 202.584 41.0795 202.952C41.3355 203.304 41.7435 203.48 42.3035 203.48C42.7675 203.48 43.1595 203.376 43.4795 203.168C43.8155 202.944 44.1835 202.576 44.5835 202.064V194.12H47.8475V206H45.1835L44.9435 204.32H44.8475C44.3035 204.96 43.7355 205.448 43.1435 205.784C42.5515 206.12 41.8715 206.288 41.1035 206.288ZM53.5218 194.12H56.1858L56.4258 195.656H56.5218C57.0978 195.096 57.6898 194.656 58.2978 194.336C58.9218 194 59.6098 193.832 60.3618 193.832C61.6098 193.832 62.5298 194.248 63.1218 195.08C63.7298 195.896 64.0338 197.072 64.0338 198.608V206H60.7458V199.016C60.7458 198.136 60.6178 197.52 60.3618 197.168C60.1218 196.816 59.7218 196.64 59.1618 196.64C58.7138 196.64 58.3218 196.736 57.9858 196.928C57.6498 197.12 57.2498 197.44 56.7858 197.888V206H53.5218V194.12ZM69.5625 189.128H72.8265V193.328L72.6825 195.536C73.2425 195.008 73.8185 194.592 74.4105 194.288C75.0025 193.984 75.6665 193.832 76.4025 193.832C77.6505 193.832 78.5705 194.248 79.1625 195.08C79.7705 195.896 80.0745 197.072 80.0745 198.608V206H76.7865V199.016C76.7865 198.136 76.6585 197.52 76.4025 197.168C76.1625 196.816 75.7625 196.64 75.2025 196.64C74.7545 196.64 74.3625 196.736 74.0265 196.928C73.6905 197.12 73.2905 197.44 72.8265 197.888V206H69.5625V189.128ZM88.5317 206.288C87.4757 206.288 86.6197 205.952 85.9637 205.28C85.3237 204.608 85.0037 203.76 85.0037 202.736C85.0037 201.472 85.5397 200.496 86.6117 199.808C87.6837 199.104 89.4037 198.624 91.7717 198.368C91.7237 197.088 91.0677 196.448 89.8037 196.448C89.3077 196.448 88.8037 196.544 88.2917 196.736C87.7797 196.928 87.2197 197.2 86.6117 197.552L85.4357 195.392C87.1157 194.352 88.7797 193.832 90.4277 193.832C91.9477 193.832 93.0997 194.28 93.8837 195.176C94.6677 196.056 95.0597 197.376 95.0597 199.136V206H92.3717L92.1317 204.752H92.0597C90.8757 205.776 89.6997 206.288 88.5317 206.288ZM89.6117 203.744C90.0117 203.744 90.3717 203.656 90.6917 203.48C91.0277 203.288 91.3877 203.008 91.7717 202.64V200.36C90.4757 200.536 89.5477 200.8 88.9877 201.152C88.4277 201.504 88.1477 201.944 88.1477 202.472C88.1477 202.888 88.2757 203.208 88.5317 203.432C88.7877 203.64 89.1477 203.744 89.6117 203.744ZM100.566 194.12H103.23L103.47 195.32H103.566C104.062 194.872 104.606 194.512 105.198 194.24C105.806 193.968 106.406 193.832 106.998 193.832C108.438 193.832 109.574 194.376 110.406 195.464C111.238 196.552 111.654 198.024 111.654 199.88C111.654 201.176 111.422 202.312 110.958 203.288C110.494 204.264 109.878 205.008 109.11 205.52C108.342 206.032 107.518 206.288 106.638 206.288C105.63 206.288 104.662 205.864 103.734 205.016L103.83 206.936V210.512H100.566V194.12ZM105.894 203.6C106.598 203.6 107.174 203.288 107.622 202.664C108.07 202.04 108.294 201.12 108.294 199.904C108.294 197.648 107.55 196.52 106.062 196.52C105.326 196.52 104.582 196.904 103.83 197.672V202.76C104.47 203.32 105.158 203.6 105.894 203.6ZM116.653 194.12H119.317L119.557 195.32H119.653C120.149 194.872 120.693 194.512 121.285 194.24C121.893 193.968 122.493 193.832 123.085 193.832C124.525 193.832 125.661 194.376 126.493 195.464C127.325 196.552 127.741 198.024 127.741 199.88C127.741 201.176 127.509 202.312 127.045 203.288C126.581 204.264 125.965 205.008 125.197 205.52C124.429 206.032 123.605 206.288 122.725 206.288C121.717 206.288 120.749 205.864 119.821 205.016L119.917 206.936V210.512H116.653V194.12ZM121.981 203.6C122.685 203.6 123.261 203.288 123.709 202.664C124.157 202.04 124.381 201.12 124.381 199.904C124.381 197.648 123.637 196.52 122.149 196.52C121.413 196.52 120.669 196.904 119.917 197.672V202.76C120.557 203.32 121.245 203.6 121.981 203.6ZM133.705 210.728C133.129 210.728 132.577 210.648 132.049 210.488L132.649 207.968C132.985 208.08 133.257 208.136 133.465 208.136C134.521 208.136 135.241 207.56 135.625 206.408L135.817 205.736L131.209 194.12H134.521L136.321 199.472C136.513 200.032 136.737 200.776 136.993 201.704C137.105 202.136 137.209 202.512 137.305 202.832H137.401C137.609 201.92 137.889 200.8 138.241 199.472L139.801 194.12H142.945L138.769 206.264C138.193 207.8 137.529 208.928 136.777 209.648C136.025 210.368 135.001 210.728 133.705 210.728ZM153.406 194.36H155.206L157.03 201.296L157.246 202.328C157.47 203.288 157.63 204.016 157.726 204.512H157.822C158.126 203.264 158.398 202.192 158.638 201.296L160.51 194.36H162.262L164.158 201.296L164.974 204.512H165.07L165.838 201.296L167.614 194.36H169.294L166.126 206H163.966L162.19 199.496L161.734 197.6C161.702 197.472 161.59 196.992 161.398 196.16H161.302C160.95 197.744 160.67 198.872 160.462 199.544L158.734 206H156.694L153.406 194.36ZM174.31 194.36H176.038V206H174.31V194.36ZM175.198 191.864C174.846 191.864 174.558 191.752 174.334 191.528C174.11 191.304 173.998 191.008 173.998 190.64C173.998 190.288 174.11 190.008 174.334 189.8C174.558 189.576 174.846 189.464 175.198 189.464C175.55 189.464 175.838 189.576 176.062 189.8C176.286 190.008 176.398 190.288 176.398 190.64C176.398 191.008 176.286 191.304 176.062 191.528C175.838 191.752 175.55 191.864 175.198 191.864ZM186.05 206.288C184.898 206.288 184.074 205.96 183.578 205.304C183.082 204.648 182.834 203.712 182.834 202.496V195.8H181.082V194.48L182.906 194.36L183.122 191.072H184.586V194.36H187.778V195.8H184.586V202.544C184.586 203.312 184.722 203.888 184.994 204.272C185.282 204.656 185.762 204.848 186.434 204.848C186.77 204.848 187.218 204.744 187.778 204.536L188.138 205.856C187.274 206.144 186.578 206.288 186.05 206.288ZM192.867 188.864H194.595V193.616L194.547 196.064C195.187 195.424 195.811 194.936 196.419 194.6C197.027 194.248 197.699 194.072 198.435 194.072C199.651 194.072 200.547 194.456 201.123 195.224C201.699 195.976 201.987 197.104 201.987 198.608V206H200.235V198.824C200.235 197.704 200.051 196.888 199.683 196.376C199.331 195.864 198.747 195.608 197.931 195.608C197.355 195.608 196.819 195.76 196.323 196.064C195.827 196.352 195.251 196.824 194.595 197.48V206H192.867V188.864ZM218.961 206.288C217.809 206.288 216.985 205.96 216.489 205.304C215.993 204.648 215.745 203.712 215.745 202.496V195.8H213.993V194.48L215.817 194.36L216.033 191.072H217.497V194.36H220.689V195.8H217.497V202.544C217.497 203.312 217.633 203.888 217.905 204.272C218.193 204.656 218.673 204.848 219.345 204.848C219.681 204.848 220.129 204.744 220.689 204.536L221.049 205.856C220.185 206.144 219.489 206.288 218.961 206.288ZM225.778 188.864H227.506V193.616L227.458 196.064C228.098 195.424 228.722 194.936 229.33 194.6C229.938 194.248 230.61 194.072 231.346 194.072C232.562 194.072 233.458 194.456 234.034 195.224C234.61 195.976 234.898 197.104 234.898 198.608V206H233.146V198.824C233.146 197.704 232.962 196.888 232.594 196.376C232.242 195.864 231.658 195.608 230.842 195.608C230.266 195.608 229.73 195.76 229.234 196.064C228.738 196.352 228.162 196.824 227.506 197.48V206H225.778V188.864ZM250.019 199.52C250.019 199.936 249.995 200.288 249.947 200.576H241.907C241.987 201.936 242.403 202.992 243.155 203.744C243.923 204.496 244.859 204.872 245.963 204.872C246.987 204.872 247.971 204.56 248.915 203.936L249.563 205.088C248.987 205.456 248.395 205.752 247.787 205.976C247.179 206.184 246.499 206.288 245.747 206.288C244.723 206.288 243.787 206.048 242.939 205.568C242.107 205.072 241.443 204.36 240.947 203.432C240.467 202.504 240.227 201.424 240.227 200.192C240.227 198.976 240.467 197.904 240.947 196.976C241.443 196.048 242.091 195.336 242.891 194.84C243.691 194.328 244.539 194.072 245.435 194.072C246.875 194.072 247.995 194.56 248.795 195.536C249.611 196.496 250.019 197.824 250.019 199.52ZM248.459 199.304C248.459 198.072 248.195 197.128 247.667 196.472C247.139 195.816 246.403 195.488 245.459 195.488C244.595 195.488 243.827 195.816 243.155 196.472C242.483 197.128 242.083 198.072 241.955 199.304H248.459ZM255.352 194.36H257.08V206H255.352V194.36ZM256.24 191.864C255.888 191.864 255.6 191.752 255.376 191.528C255.152 191.304 255.04 191.008 255.04 190.64C255.04 190.288 255.152 190.008 255.376 189.8C255.6 189.576 255.888 189.464 256.24 189.464C256.592 189.464 256.88 189.576 257.104 189.8C257.328 190.008 257.44 190.288 257.44 190.64C257.44 191.008 257.328 191.304 257.104 191.528C256.88 191.752 256.592 191.864 256.24 191.864ZM263.564 194.36H265.004L265.148 196.496H265.22C265.62 195.744 266.108 195.152 266.684 194.72C267.26 194.288 267.876 194.072 268.532 194.072C268.996 194.072 269.396 194.152 269.732 194.312L269.396 195.848C268.98 195.72 268.612 195.656 268.292 195.656C267.748 195.656 267.204 195.88 266.66 196.328C266.132 196.776 265.676 197.472 265.292 198.416V206H263.564V194.36ZM68.9348 237.288C67.9108 237.288 66.9828 237.048 66.1508 236.568C65.3348 236.072 64.6868 235.368 64.2068 234.456C63.7428 233.544 63.5108 232.456 63.5108 231.192C63.5108 229.944 63.7588 228.856 64.2548 227.928C64.7668 227 65.4468 226.296 66.2948 225.816C67.1428 225.32 68.0628 225.072 69.0548 225.072C70.3188 225.072 71.4468 225.536 72.4388 226.464L71.5268 227.616C71.1428 227.264 70.7588 227 70.3748 226.824C69.9908 226.632 69.5748 226.536 69.1268 226.536C68.4068 226.536 67.7588 226.736 67.1828 227.136C66.6068 227.52 66.1508 228.064 65.8148 228.768C65.4948 229.472 65.3348 230.28 65.3348 231.192C65.3348 232.584 65.6788 233.704 66.3668 234.552C67.0548 235.4 67.9588 235.824 69.0788 235.824C70.0868 235.824 71.0308 235.424 71.9108 234.624L72.6788 235.8C72.1508 236.264 71.5668 236.632 70.9268 236.904C70.2868 237.16 69.6228 237.288 68.9348 237.288ZM81.0813 237.288C79.8813 237.288 78.9933 236.912 78.4173 236.16C77.8413 235.392 77.5533 234.256 77.5533 232.752V225.36H79.2813V232.536C79.2813 233.656 79.4653 234.48 79.8333 235.008C80.2013 235.52 80.7933 235.776 81.6093 235.776C82.2013 235.776 82.7373 235.616 83.2173 235.296C83.7133 234.976 84.2653 234.448 84.8733 233.712V225.36H86.6253V237H85.1613L85.0173 235.152H84.9453C84.3533 235.84 83.7453 236.368 83.1213 236.736C82.5133 237.104 81.8333 237.288 81.0813 237.288ZM93.0822 225.36H94.5222L94.6662 227.496H94.7382C95.1382 226.744 95.6262 226.152 96.2022 225.72C96.7782 225.288 97.3942 225.072 98.0502 225.072C98.5142 225.072 98.9142 225.152 99.2502 225.312L98.9142 226.848C98.4982 226.72 98.1302 226.656 97.8102 226.656C97.2662 226.656 96.7222 226.88 96.1782 227.328C95.6502 227.776 95.1942 228.472 94.8102 229.416V237H93.0822V225.36ZM103.638 225.36H105.078L105.222 227.496H105.294C105.694 226.744 106.182 226.152 106.758 225.72C107.334 225.288 107.95 225.072 108.606 225.072C109.07 225.072 109.47 225.152 109.806 225.312L109.47 226.848C109.054 226.72 108.686 226.656 108.366 226.656C107.822 226.656 107.278 226.88 106.734 227.328C106.206 227.776 105.75 228.472 105.366 229.416V237H103.638V225.36ZM122.84 230.52C122.84 230.936 122.816 231.288 122.768 231.576H114.728C114.808 232.936 115.224 233.992 115.976 234.744C116.744 235.496 117.68 235.872 118.784 235.872C119.808 235.872 120.792 235.56 121.736 234.936L122.384 236.088C121.808 236.456 121.216 236.752 120.608 236.976C120 237.184 119.32 237.288 118.568 237.288C117.544 237.288 116.608 237.048 115.76 236.568C114.928 236.072 114.264 235.36 113.768 234.432C113.288 233.504 113.048 232.424 113.048 231.192C113.048 229.976 113.288 228.904 113.768 227.976C114.264 227.048 114.912 226.336 115.712 225.84C116.512 225.328 117.36 225.072 118.256 225.072C119.696 225.072 120.816 225.56 121.616 226.536C122.432 227.496 122.84 228.824 122.84 230.52ZM121.28 230.304C121.28 229.072 121.016 228.128 120.488 227.472C119.96 226.816 119.224 226.488 118.28 226.488C117.416 226.488 116.648 226.816 115.976 227.472C115.304 228.128 114.904 229.072 114.776 230.304H121.28ZM128.173 225.36H129.613L129.757 227.088H129.829C130.469 226.448 131.093 225.952 131.701 225.6C132.325 225.248 133.005 225.072 133.741 225.072C134.957 225.072 135.853 225.456 136.429 226.224C137.005 226.976 137.293 228.104 137.293 229.608V237H135.541V229.824C135.541 228.704 135.357 227.888 134.989 227.376C134.637 226.864 134.053 226.608 133.237 226.608C132.661 226.608 132.125 226.76 131.629 227.064C131.133 227.352 130.557 227.824 129.901 228.48V237H128.173V225.36ZM147.132 237.288C145.98 237.288 145.156 236.96 144.66 236.304C144.164 235.648 143.916 234.712 143.916 233.496V226.8H142.164V225.48L143.988 225.36L144.204 222.072H145.668V225.36H148.86V226.8H145.668V233.544C145.668 234.312 145.804 234.888 146.076 235.272C146.364 235.656 146.844 235.848 147.516 235.848C147.852 235.848 148.3 235.744 148.86 235.536L149.22 236.856C148.356 237.144 147.66 237.288 147.132 237.288ZM164.13 237.288C163.33 237.288 162.554 237.144 161.802 236.856C161.05 236.552 160.386 236.16 159.81 235.68L160.698 234.504C161.274 234.968 161.834 235.32 162.378 235.56C162.922 235.8 163.53 235.92 164.202 235.92C164.97 235.92 165.562 235.736 165.978 235.368C166.394 235 166.602 234.536 166.602 233.976C166.602 233.416 166.362 232.968 165.882 232.632C165.418 232.296 164.754 231.976 163.89 231.672C162.786 231.272 161.922 230.84 161.298 230.376C160.674 229.896 160.362 229.216 160.362 228.336C160.362 227.392 160.714 226.616 161.418 226.008C162.138 225.384 163.106 225.072 164.322 225.072C164.978 225.072 165.61 225.192 166.218 225.432C166.826 225.672 167.37 225.984 167.85 226.368L167.01 227.496C166.546 227.16 166.106 226.904 165.69 226.728C165.274 226.552 164.818 226.464 164.322 226.464C163.586 226.464 163.026 226.64 162.642 226.992C162.258 227.328 162.066 227.744 162.066 228.24C162.066 228.592 162.178 228.896 162.402 229.152C162.642 229.408 162.93 229.616 163.266 229.776C163.602 229.92 164.074 230.112 164.682 230.352C165.498 230.656 166.138 230.928 166.602 231.168C167.066 231.408 167.466 231.752 167.802 232.2C168.138 232.632 168.306 233.192 168.306 233.88C168.306 234.504 168.138 235.08 167.802 235.608C167.482 236.12 167.002 236.528 166.362 236.832C165.738 237.136 164.994 237.288 164.13 237.288ZM182.418 230.52C182.418 230.936 182.394 231.288 182.346 231.576H174.306C174.386 232.936 174.802 233.992 175.554 234.744C176.322 235.496 177.258 235.872 178.362 235.872C179.386 235.872 180.37 235.56 181.314 234.936L181.962 236.088C181.386 236.456 180.794 236.752 180.186 236.976C179.578 237.184 178.898 237.288 178.146 237.288C177.122 237.288 176.186 237.048 175.338 236.568C174.506 236.072 173.842 235.36 173.346 234.432C172.866 233.504 172.626 232.424 172.626 231.192C172.626 229.976 172.866 228.904 173.346 227.976C173.842 227.048 174.49 226.336 175.29 225.84C176.09 225.328 176.938 225.072 177.834 225.072C179.274 225.072 180.394 225.56 181.194 226.536C182.01 227.496 182.418 228.824 182.418 230.52ZM180.858 230.304C180.858 229.072 180.594 228.128 180.066 227.472C179.538 226.816 178.802 226.488 177.858 226.488C176.994 226.488 176.226 226.816 175.554 227.472C174.882 228.128 174.482 229.072 174.354 230.304H180.858ZM187.751 225.36H189.191L189.335 227.496H189.407C189.807 226.744 190.295 226.152 190.871 225.72C191.447 225.288 192.063 225.072 192.719 225.072C193.183 225.072 193.583 225.152 193.919 225.312L193.583 226.848C193.167 226.72 192.799 226.656 192.479 226.656C191.935 226.656 191.391 226.88 190.847 227.328C190.319 227.776 189.863 228.472 189.479 229.416V237H187.751V225.36ZM197.235 225.36H199.035L201.339 232.152L202.443 235.56H202.539L203.643 232.152L205.947 225.36H207.675L203.499 237H201.483L197.235 225.36ZM212.403 225.36H214.131V237H212.403V225.36ZM213.291 222.864C212.939 222.864 212.651 222.752 212.427 222.528C212.203 222.304 212.091 222.008 212.091 221.64C212.091 221.288 212.203 221.008 212.427 220.8C212.651 220.576 212.939 220.464 213.291 220.464C213.643 220.464 213.931 220.576 214.155 220.8C214.379 221.008 214.491 221.288 214.491 221.64C214.491 222.008 214.379 222.304 214.155 222.528C213.931 222.752 213.643 222.864 213.291 222.864ZM225.127 237.288C224.103 237.288 223.175 237.048 222.343 236.568C221.527 236.072 220.879 235.368 220.399 234.456C219.935 233.544 219.703 232.456 219.703 231.192C219.703 229.944 219.951 228.856 220.447 227.928C220.959 227 221.639 226.296 222.487 225.816C223.335 225.32 224.255 225.072 225.247 225.072C226.511 225.072 227.639 225.536 228.631 226.464L227.719 227.616C227.335 227.264 226.951 227 226.567 226.824C226.183 226.632 225.767 226.536 225.319 226.536C224.599 226.536 223.951 226.736 223.375 227.136C222.799 227.52 222.343 228.064 222.007 228.768C221.687 229.472 221.527 230.28 221.527 231.192C221.527 232.584 221.871 233.704 222.559 234.552C223.247 235.4 224.151 235.824 225.271 235.824C226.279 235.824 227.223 235.424 228.103 234.624L228.871 235.8C228.343 236.264 227.759 236.632 227.119 236.904C226.479 237.16 225.815 237.288 225.127 237.288ZM242.325 230.52C242.325 230.936 242.301 231.288 242.253 231.576H234.213C234.293 232.936 234.709 233.992 235.461 234.744C236.229 235.496 237.165 235.872 238.269 235.872C239.293 235.872 240.277 235.56 241.221 234.936L241.869 236.088C241.293 236.456 240.701 236.752 240.093 236.976C239.485 237.184 238.805 237.288 238.053 237.288C237.029 237.288 236.093 237.048 235.245 236.568C234.413 236.072 233.749 235.36 233.253 234.432C232.773 233.504 232.533 232.424 232.533 231.192C232.533 229.976 232.773 228.904 233.253 227.976C233.749 227.048 234.397 226.336 235.197 225.84C235.997 225.328 236.845 225.072 237.741 225.072C239.181 225.072 240.301 225.56 241.101 226.536C241.917 227.496 242.325 228.824 242.325 230.52ZM240.765 230.304C240.765 229.072 240.501 228.128 239.973 227.472C239.445 226.816 238.709 226.488 237.765 226.488C236.901 226.488 236.133 226.816 235.461 227.472C234.789 228.128 234.389 229.072 234.261 230.304H240.765Z" fill="black"/>
<path d="M62.6231 125.032H76.4471V82.792H65.2151V76.648C70.6551 75.688 75.1991 74.088 78.8471 71.848H86.1431V125.032H98.4311V133H62.6231V125.032ZM136.629 134.152C130.293 134.152 125.333 131.368 121.749 125.8C118.165 120.232 116.373 112.36 116.373 102.184C116.373 92.008 118.165 84.232 121.749 78.856C125.333 73.416 130.293 70.696 136.629 70.696C142.965 70.696 147.925 73.416 151.509 78.856C155.093 84.296 156.885 92.072 156.885 102.184C156.885 112.36 155.093 120.232 151.509 125.8C147.925 131.368 142.965 134.152 136.629 134.152ZM136.629 126.472C140.021 126.472 142.677 124.52 144.597 120.616C146.581 116.712 147.573 110.568 147.573 102.184C147.573 86.312 143.925 78.376 136.629 78.376C129.333 78.376 125.685 86.312 125.685 102.184C125.685 110.568 126.645 116.712 128.565 120.616C130.549 124.52 133.237 126.472 136.629 126.472ZM188.263 107.752C183.847 107.752 180.295 105.992 177.607 102.472C174.919 98.952 173.575 94.056 173.575 87.784C173.575 81.576 174.919 76.744 177.607 73.288C180.295 69.768 183.847 68.008 188.263 68.008C192.679 68.008 196.231 69.768 198.919 73.288C201.607 76.744 202.951 81.576 202.951 87.784C202.951 94.056 201.607 98.952 198.919 102.472C196.231 105.992 192.679 107.752 188.263 107.752ZM224.359 68.968H230.503L196.039 134.152H189.895L224.359 68.968ZM188.263 101.992C190.567 101.992 192.391 100.808 193.735 98.44C195.143 96.008 195.847 92.456 195.847 87.784C195.847 83.112 195.143 79.624 193.735 77.32C192.391 74.952 190.567 73.768 188.263 73.768C185.959 73.768 184.103 74.952 182.695 77.32C181.351 79.624 180.679 83.112 180.679 87.784C180.679 92.456 181.351 96.008 182.695 98.44C184.103 100.808 185.959 101.992 188.263 101.992ZM232.327 134.152C227.911 134.152 224.359 132.392 221.671 128.872C218.983 125.352 217.639 120.456 217.639 114.184C217.639 107.976 218.983 103.144 221.671 99.688C224.359 96.168 227.911 94.408 232.327 94.408C236.743 94.408 240.295 96.168 242.983 99.688C245.671 103.144 247.015 107.976 247.015 114.184C247.015 120.456 245.671 125.352 242.983 128.872C240.295 132.392 236.743 134.152 232.327 134.152ZM232.327 128.392C234.631 128.392 236.455 127.208 237.799 124.84C239.207 122.408 239.911 118.856 239.911 114.184C239.911 109.512 239.207 106.024 237.799 103.72C236.455 101.352 234.631 100.168 232.327 100.168C230.023 100.168 228.167 101.352 226.759 103.72C225.415 106.024 224.743 109.512 224.743 114.184C224.743 118.856 225.415 122.408 226.759 124.84C228.167 127.208 230.023 128.392 232.327 128.392Z" fill="black"/>
</svg>
