<svg width="300" height="300" viewBox="0 0 300 300" fill="none" xmlns="http://www.w3.org/2000/svg">
<circle cx="150" cy="150" r="147.5" stroke="#489B9E" stroke-width="5"/>
<path d="M48.273 175.288C47.313 175.288 46.425 175.048 45.609 174.568C44.793 174.072 44.137 173.368 43.641 172.456C43.161 171.528 42.921 170.44 42.921 169.192C42.921 167.944 43.161 166.856 43.641 165.928C44.137 165 44.793 164.296 45.609 163.816C46.425 163.32 47.313 163.072 48.273 163.072C49.233 163.072 50.121 163.32 50.937 163.816C51.753 164.296 52.401 165 52.881 165.928C53.377 166.856 53.625 167.944 53.625 169.192C53.625 170.44 53.377 171.528 52.881 172.456C52.401 173.368 51.753 174.072 50.937 174.568C50.121 175.048 49.233 175.288 48.273 175.288ZM48.273 173.824C48.961 173.824 49.569 173.632 50.097 173.248C50.641 172.864 51.065 172.32 51.369 171.616C51.673 170.912 51.825 170.104 51.825 169.192C51.825 168.28 51.673 167.472 51.369 166.768C51.065 166.064 50.641 165.52 50.097 165.136C49.569 164.736 48.961 164.536 48.273 164.536C47.585 164.536 46.969 164.736 46.425 165.136C45.897 165.52 45.481 166.064 45.177 166.768C44.889 167.472 44.745 168.28 44.745 169.192C44.745 170.584 45.073 171.704 45.729 172.552C46.385 173.4 47.233 173.824 48.273 173.824ZM60.443 159.016C59.323 159.016 58.763 159.8 58.763 161.368V163.36H61.283V164.8H58.763V175H57.011V164.8H55.427V163.48L57.011 163.36V161.344C57.011 160.144 57.283 159.216 57.827 158.56C58.387 157.904 59.211 157.576 60.299 157.576C60.923 157.576 61.547 157.704 62.171 157.96L61.787 159.304C61.339 159.112 60.891 159.016 60.443 159.016ZM71.732 175.288C70.532 175.288 69.644 174.912 69.068 174.16C68.492 173.392 68.204 172.256 68.204 170.752V163.36H69.932V170.536C69.932 171.656 70.116 172.48 70.484 173.008C70.852 173.52 71.444 173.776 72.26 173.776C72.852 173.776 73.388 173.616 73.868 173.296C74.364 172.976 74.916 172.448 75.524 171.712V163.36H77.276V175H75.812L75.668 173.152H75.596C75.004 173.84 74.396 174.368 73.772 174.736C73.164 175.104 72.484 175.288 71.732 175.288ZM84.309 175.288C83.509 175.288 82.733 175.144 81.981 174.856C81.229 174.552 80.565 174.16 79.989 173.68L80.877 172.504C81.453 172.968 82.013 173.32 82.557 173.56C83.101 173.8 83.709 173.92 84.381 173.92C85.149 173.92 85.741 173.736 86.157 173.368C86.573 173 86.781 172.536 86.781 171.976C86.781 171.416 86.541 170.968 86.061 170.632C85.597 170.296 84.933 169.976 84.069 169.672C82.965 169.272 82.101 168.84 81.477 168.376C80.853 167.896 80.541 167.216 80.541 166.336C80.541 165.392 80.893 164.616 81.597 164.008C82.317 163.384 83.285 163.072 84.501 163.072C85.157 163.072 85.789 163.192 86.397 163.432C87.005 163.672 87.549 163.984 88.029 164.368L87.189 165.496C86.725 165.16 86.285 164.904 85.869 164.728C85.453 164.552 84.997 164.464 84.501 164.464C83.765 164.464 83.205 164.64 82.821 164.992C82.437 165.328 82.245 165.744 82.245 166.24C82.245 166.592 82.357 166.896 82.581 167.152C82.821 167.408 83.109 167.616 83.445 167.776C83.781 167.92 84.253 168.112 84.861 168.352C85.677 168.656 86.317 168.928 86.781 169.168C87.245 169.408 87.645 169.752 87.981 170.2C88.317 170.632 88.485 171.192 88.485 171.88C88.485 172.504 88.317 173.08 87.981 173.608C87.661 174.12 87.181 174.528 86.541 174.832C85.917 175.136 85.173 175.288 84.309 175.288ZM100.197 168.52C100.197 168.936 100.173 169.288 100.125 169.576H92.0853C92.1653 170.936 92.5813 171.992 93.3333 172.744C94.1013 173.496 95.0373 173.872 96.1413 173.872C97.1653 173.872 98.1493 173.56 99.0933 172.936L99.7413 174.088C99.1653 174.456 98.5733 174.752 97.9653 174.976C97.3573 175.184 96.6773 175.288 95.9253 175.288C94.9013 175.288 93.9653 175.048 93.1173 174.568C92.2853 174.072 91.6213 173.36 91.1253 172.432C90.6453 171.504 90.4053 170.424 90.4053 169.192C90.4053 167.976 90.6453 166.904 91.1253 165.976C91.6213 165.048 92.2693 164.336 93.0693 163.84C93.8693 163.328 94.7173 163.072 95.6133 163.072C97.0533 163.072 98.1733 163.56 98.9733 164.536C99.7893 165.496 100.197 166.824 100.197 168.52ZM98.6373 168.304C98.6373 167.072 98.3733 166.128 97.8453 165.472C97.3173 164.816 96.5813 164.488 95.6373 164.488C94.7733 164.488 94.0053 164.816 93.3333 165.472C92.6613 166.128 92.2613 167.072 92.1333 168.304H98.6373ZM103.13 163.36H104.57L104.714 165.496H104.786C105.186 164.744 105.674 164.152 106.25 163.72C106.826 163.288 107.442 163.072 108.098 163.072C108.562 163.072 108.962 163.152 109.298 163.312L108.962 164.848C108.546 164.72 108.178 164.656 107.858 164.656C107.314 164.656 106.77 164.88 106.226 165.328C105.698 165.776 105.242 166.472 104.858 167.416V175H103.13V163.36ZM114.192 175.288C113.392 175.288 112.616 175.144 111.864 174.856C111.112 174.552 110.448 174.16 109.872 173.68L110.76 172.504C111.336 172.968 111.896 173.32 112.44 173.56C112.984 173.8 113.592 173.92 114.264 173.92C115.032 173.92 115.624 173.736 116.04 173.368C116.456 173 116.664 172.536 116.664 171.976C116.664 171.416 116.424 170.968 115.944 170.632C115.48 170.296 114.816 169.976 113.952 169.672C112.848 169.272 111.984 168.84 111.36 168.376C110.736 167.896 110.424 167.216 110.424 166.336C110.424 165.392 110.776 164.616 111.48 164.008C112.2 163.384 113.168 163.072 114.384 163.072C115.04 163.072 115.672 163.192 116.28 163.432C116.888 163.672 117.432 163.984 117.912 164.368L117.072 165.496C116.608 165.16 116.168 164.904 115.752 164.728C115.336 164.552 114.88 164.464 114.384 164.464C113.648 164.464 113.088 164.64 112.704 164.992C112.32 165.328 112.128 165.744 112.128 166.24C112.128 166.592 112.24 166.896 112.464 167.152C112.704 167.408 112.992 167.616 113.328 167.776C113.664 167.92 114.136 168.112 114.744 168.352C115.56 168.656 116.2 168.928 116.664 169.168C117.128 169.408 117.528 169.752 117.864 170.2C118.2 170.632 118.368 171.192 118.368 171.88C118.368 172.504 118.2 173.08 117.864 173.608C117.544 174.12 117.064 174.528 116.424 174.832C115.8 175.136 115.056 175.288 114.192 175.288ZM128.645 175.288C127.653 175.288 126.837 175 126.197 174.424C125.557 173.848 125.237 173.04 125.237 172C125.237 170.736 125.813 169.768 126.965 169.096C128.117 168.408 129.957 167.928 132.485 167.656C132.485 166.744 132.293 166 131.909 165.424C131.541 164.832 130.901 164.536 129.989 164.536C128.885 164.536 127.709 164.96 126.461 165.808L125.765 164.608C127.301 163.584 128.805 163.072 130.277 163.072C131.621 163.072 132.613 163.496 133.253 164.344C133.893 165.176 134.213 166.328 134.213 167.8V175H132.773L132.629 173.584H132.557C131.181 174.72 129.877 175.288 128.645 175.288ZM129.101 173.872C129.661 173.872 130.205 173.744 130.733 173.488C131.277 173.216 131.861 172.8 132.485 172.24V168.832C130.485 169.072 129.061 169.44 128.213 169.936C127.381 170.432 126.965 171.088 126.965 171.904C126.965 172.56 127.165 173.056 127.565 173.392C127.965 173.712 128.477 173.872 129.101 173.872ZM138.028 163.36H139.468L139.612 165.496H139.684C140.084 164.744 140.572 164.152 141.148 163.72C141.724 163.288 142.34 163.072 142.996 163.072C143.46 163.072 143.86 163.152 144.196 163.312L143.86 164.848C143.444 164.72 143.076 164.656 142.756 164.656C142.212 164.656 141.668 164.88 141.124 165.328C140.596 165.776 140.14 166.472 139.756 167.416V175H138.028V163.36ZM154.83 168.52C154.83 168.936 154.806 169.288 154.758 169.576H146.718C146.798 170.936 147.214 171.992 147.966 172.744C148.734 173.496 149.67 173.872 150.774 173.872C151.798 173.872 152.782 173.56 153.726 172.936L154.374 174.088C153.798 174.456 153.206 174.752 152.598 174.976C151.99 175.184 151.31 175.288 150.558 175.288C149.534 175.288 148.598 175.048 147.75 174.568C146.918 174.072 146.254 173.36 145.758 172.432C145.278 171.504 145.038 170.424 145.038 169.192C145.038 167.976 145.278 166.904 145.758 165.976C146.254 165.048 146.902 164.336 147.702 163.84C148.502 163.328 149.35 163.072 150.246 163.072C151.686 163.072 152.806 163.56 153.606 164.536C154.422 165.496 154.83 166.824 154.83 168.52ZM153.27 168.304C153.27 167.072 153.006 166.128 152.478 165.472C151.95 164.816 151.214 164.488 150.27 164.488C149.406 164.488 148.638 164.816 147.966 165.472C147.294 166.128 146.894 167.072 146.766 168.304H153.27ZM167.391 160.432C166.463 160.432 165.999 161.032 165.999 162.232V163.12H168.183V165.712H165.999V175H162.711V165.712H161.127V163.264L162.711 163.144V162.304C162.711 160.96 163.047 159.88 163.719 159.064C164.407 158.248 165.479 157.84 166.935 157.84C167.767 157.84 168.535 157.984 169.239 158.272L168.639 160.696C168.207 160.52 167.791 160.432 167.391 160.432ZM170.152 163.12H172.816L173.056 165.208H173.152C173.568 164.44 174.072 163.856 174.664 163.456C175.272 163.04 175.888 162.832 176.512 162.832C177.072 162.832 177.536 162.912 177.904 163.072L177.352 165.904C177.304 165.888 177.16 165.856 176.92 165.808C176.68 165.744 176.408 165.712 176.104 165.712C175.592 165.712 175.096 165.896 174.616 166.264C174.136 166.632 173.736 167.208 173.416 167.992V175H170.152V163.12ZM183.055 175.288C181.807 175.288 180.879 174.88 180.271 174.064C179.679 173.232 179.383 172.048 179.383 170.512V163.12H182.647V170.104C182.647 170.968 182.775 171.584 183.031 171.952C183.287 172.304 183.695 172.48 184.255 172.48C184.719 172.48 185.111 172.376 185.431 172.168C185.767 171.944 186.135 171.576 186.535 171.064V163.12H189.799V175H187.135L186.895 173.32H186.799C186.255 173.96 185.687 174.448 185.095 174.784C184.503 175.12 183.823 175.288 183.055 175.288ZM196.505 175.288C195.737 175.288 194.937 175.136 194.105 174.832C193.289 174.528 192.577 174.128 191.969 173.632L193.457 171.568C194.017 172 194.545 172.32 195.041 172.528C195.553 172.736 196.073 172.84 196.601 172.84C197.145 172.84 197.553 172.744 197.825 172.552C198.097 172.344 198.233 172.056 198.233 171.688C198.233 171.432 198.121 171.208 197.897 171.016C197.689 170.824 197.385 170.648 196.985 170.488C196.585 170.312 196.185 170.144 195.785 169.984C194.841 169.616 194.065 169.168 193.457 168.64C192.865 168.096 192.569 167.384 192.569 166.504C192.569 165.416 192.977 164.536 193.793 163.864C194.609 163.176 195.689 162.832 197.033 162.832C198.505 162.832 199.873 163.328 201.137 164.32L199.673 166.288C198.729 165.616 197.881 165.28 197.129 165.28C196.633 165.28 196.257 165.376 196.001 165.568C195.761 165.76 195.641 166.016 195.641 166.336C195.641 166.656 195.801 166.92 196.121 167.128C196.441 167.32 196.809 167.488 197.225 167.632C197.641 167.776 197.913 167.872 198.041 167.92C199.049 168.288 199.841 168.736 200.417 169.264C201.009 169.776 201.305 170.52 201.305 171.496C201.305 172.216 201.113 172.864 200.729 173.44C200.361 174 199.817 174.448 199.097 174.784C198.377 175.12 197.513 175.288 196.505 175.288ZM207.802 175.288C206.426 175.288 205.418 174.896 204.778 174.112C204.138 173.312 203.818 172.2 203.818 170.776V165.712H202.162V163.264L203.986 163.12L204.37 159.952H207.082V163.12H209.986V165.712H207.082V170.752C207.082 172.048 207.61 172.696 208.666 172.696C209.002 172.696 209.394 172.616 209.842 172.456L210.37 174.856C209.506 175.144 208.65 175.288 207.802 175.288ZM212.386 163.12H215.05L215.29 165.208H215.386C215.802 164.44 216.306 163.856 216.898 163.456C217.506 163.04 218.122 162.832 218.746 162.832C219.306 162.832 219.77 162.912 220.138 163.072L219.586 165.904C219.538 165.888 219.394 165.856 219.154 165.808C218.914 165.744 218.642 165.712 218.338 165.712C217.826 165.712 217.33 165.896 216.85 166.264C216.37 166.632 215.97 167.208 215.65 167.992V175H212.386V163.12ZM224.01 175.288C222.954 175.288 222.098 174.952 221.442 174.28C220.802 173.608 220.482 172.76 220.482 171.736C220.482 170.472 221.018 169.496 222.09 168.808C223.162 168.104 224.882 167.624 227.25 167.368C227.202 166.088 226.546 165.448 225.282 165.448C224.786 165.448 224.282 165.544 223.77 165.736C223.258 165.928 222.698 166.2 222.09 166.552L220.914 164.392C222.594 163.352 224.258 162.832 225.906 162.832C227.426 162.832 228.578 163.28 229.362 164.176C230.146 165.056 230.538 166.376 230.538 168.136V175H227.85L227.61 173.752H227.538C226.354 174.776 225.178 175.288 224.01 175.288ZM225.09 172.744C225.49 172.744 225.85 172.656 226.17 172.48C226.506 172.288 226.866 172.008 227.25 171.64V169.36C225.954 169.536 225.026 169.8 224.466 170.152C223.906 170.504 223.626 170.944 223.626 171.472C223.626 171.888 223.754 172.208 224.01 172.432C224.266 172.64 224.626 172.744 225.09 172.744ZM237.662 175.288C236.286 175.288 235.278 174.896 234.638 174.112C233.998 173.312 233.678 172.2 233.678 170.776V165.712H232.022V163.264L233.846 163.12L234.23 159.952H236.942V163.12H239.846V165.712H236.942V170.752C236.942 172.048 237.47 172.696 238.526 172.696C238.862 172.696 239.254 172.616 239.702 172.456L240.23 174.856C239.366 175.144 238.51 175.288 237.662 175.288ZM251.663 168.52C251.663 169.128 251.615 169.624 251.519 170.008H244.175C244.335 170.952 244.719 171.648 245.327 172.096C245.951 172.544 246.671 172.768 247.487 172.768C248.335 172.768 249.215 172.504 250.127 171.976L251.207 173.968C250.615 174.384 249.951 174.712 249.215 174.952C248.495 175.176 247.775 175.288 247.055 175.288C245.935 175.288 244.919 175.04 244.007 174.544C243.111 174.048 242.399 173.328 241.871 172.384C241.359 171.44 241.103 170.336 241.103 169.072C241.103 167.824 241.359 166.728 241.871 165.784C242.399 164.84 243.087 164.112 243.935 163.6C244.783 163.088 245.687 162.832 246.647 162.832C248.263 162.832 249.503 163.36 250.367 164.416C251.231 165.456 251.663 166.824 251.663 168.52ZM248.855 167.824C248.855 167.056 248.679 166.456 248.327 166.024C247.975 165.576 247.439 165.352 246.719 165.352C246.127 165.352 245.599 165.56 245.135 165.976C244.687 166.376 244.383 166.992 244.223 167.824H248.855ZM258.352 175.288C256.864 175.288 255.68 174.736 254.8 173.632C253.936 172.528 253.504 171.008 253.504 169.072C253.504 167.824 253.736 166.728 254.2 165.784C254.664 164.84 255.272 164.112 256.024 163.6C256.792 163.088 257.6 162.832 258.448 162.832C259.072 162.832 259.608 162.936 260.056 163.144C260.504 163.352 260.96 163.672 261.424 164.104L261.304 162.256V158.128H264.592V175H261.904L261.664 173.776H261.592C261.144 174.224 260.632 174.592 260.056 174.88C259.496 175.152 258.928 175.288 258.352 175.288ZM259.192 172.6C259.608 172.6 259.984 172.512 260.32 172.336C260.656 172.144 260.984 171.848 261.304 171.448V166.36C260.696 165.8 259.992 165.52 259.192 165.52C258.536 165.52 257.984 165.824 257.536 166.432C257.088 167.04 256.864 167.904 256.864 169.024C256.864 170.208 257.064 171.104 257.464 171.712C257.864 172.304 258.44 172.6 259.192 172.6ZM62.0916 194.12H65.3556L66.6036 199.832C66.6196 199.912 66.7396 200.648 66.9636 202.04C66.9956 202.328 67.0596 202.76 67.1556 203.336H67.2516C67.5236 201.784 67.7636 200.616 67.9716 199.832L69.3636 194.12H72.2436L73.6596 199.832C73.9156 200.92 74.1316 201.928 74.3076 202.856L74.4036 203.336H74.4996L74.7876 201.632C74.8196 201.44 74.8516 201.192 74.8836 200.888C74.9316 200.584 74.9956 200.232 75.0756 199.832L76.2996 194.12H79.3476L76.4436 206H72.6036L71.4036 200.984C71.0996 199.4 70.8836 198.248 70.7556 197.528H70.6596C70.4036 199.048 70.1876 200.208 70.0116 201.008L68.8836 206H65.1156L62.0916 194.12ZM81.5461 194.12H84.8101V206H81.5461V194.12ZM83.1781 192.272C82.6341 192.272 82.1861 192.112 81.8341 191.792C81.4981 191.456 81.3301 191.032 81.3301 190.52C81.3301 190.008 81.4981 189.592 81.8341 189.272C82.1861 188.936 82.6341 188.768 83.1781 188.768C83.7221 188.768 84.1621 188.936 84.4981 189.272C84.8501 189.592 85.0261 190.008 85.0261 190.52C85.0261 191.032 84.8501 191.456 84.4981 191.792C84.1621 192.112 83.7221 192.272 83.1781 192.272ZM92.5251 206.288C91.1491 206.288 90.1411 205.896 89.5011 205.112C88.8611 204.312 88.5411 203.2 88.5411 201.776V196.712H86.8851V194.264L88.7091 194.12L89.0931 190.952H91.8051V194.12H94.7091V196.712H91.8051V201.752C91.8051 203.048 92.3331 203.696 93.3891 203.696C93.7251 203.696 94.1171 203.616 94.5651 203.456L95.0931 205.856C94.2291 206.144 93.3731 206.288 92.5251 206.288ZM97.1086 189.128H100.373V193.328L100.229 195.536C100.789 195.008 101.365 194.592 101.957 194.288C102.549 193.984 103.213 193.832 103.949 193.832C105.197 193.832 106.117 194.248 106.709 195.08C107.317 195.896 107.621 197.072 107.621 198.608V206H104.333V199.016C104.333 198.136 104.205 197.52 103.949 197.168C103.709 196.816 103.309 196.64 102.749 196.64C102.301 196.64 101.909 196.736 101.573 196.928C101.237 197.12 100.837 197.44 100.373 197.888V206H97.1086V189.128ZM120.546 206.288C119.522 206.288 118.57 206.04 117.69 205.544C116.826 205.048 116.13 204.328 115.602 203.384C115.074 202.44 114.81 201.336 114.81 200.072C114.81 198.792 115.074 197.68 115.602 196.736C116.13 195.792 116.826 195.072 117.69 194.576C118.57 194.08 119.522 193.832 120.546 193.832C121.554 193.832 122.498 194.08 123.378 194.576C124.258 195.072 124.962 195.8 125.49 196.76C126.018 197.704 126.282 198.808 126.282 200.072C126.282 201.336 126.018 202.44 125.49 203.384C124.962 204.328 124.258 205.048 123.378 205.544C122.498 206.04 121.554 206.288 120.546 206.288ZM120.546 203.624C121.298 203.624 121.882 203.312 122.298 202.688C122.714 202.048 122.922 201.176 122.922 200.072C122.922 198.968 122.714 198.096 122.298 197.456C121.882 196.816 121.298 196.496 120.546 196.496C119.778 196.496 119.186 196.816 118.77 197.456C118.37 198.096 118.17 198.968 118.17 200.072C118.17 201.176 118.37 202.048 118.77 202.688C119.186 203.312 119.778 203.624 120.546 203.624ZM128.796 194.12H131.46L131.7 196.208H131.796C132.212 195.44 132.716 194.856 133.308 194.456C133.916 194.04 134.532 193.832 135.156 193.832C135.716 193.832 136.18 193.912 136.548 194.072L135.996 196.904C135.948 196.888 135.804 196.856 135.564 196.808C135.324 196.744 135.052 196.712 134.748 196.712C134.236 196.712 133.74 196.896 133.26 197.264C132.78 197.632 132.38 198.208 132.06 198.992V206H128.796V194.12ZM142.09 211.112C140.618 211.112 139.418 210.856 138.49 210.344C137.578 209.832 137.122 209.08 137.122 208.088C137.122 207.096 137.69 206.28 138.826 205.64V205.544C138.106 205.08 137.746 204.408 137.746 203.528C137.746 203.112 137.866 202.704 138.106 202.304C138.362 201.904 138.682 201.576 139.066 201.32V201.224C138.602 200.904 138.218 200.472 137.914 199.928C137.626 199.384 137.482 198.784 137.482 198.128C137.482 197.232 137.698 196.464 138.13 195.824C138.578 195.168 139.17 194.672 139.906 194.336C140.642 194 141.442 193.832 142.306 193.832C142.914 193.832 143.522 193.928 144.13 194.12H148.426V196.52H146.434C146.578 196.712 146.698 196.968 146.794 197.288C146.89 197.592 146.938 197.904 146.938 198.224C146.938 199.52 146.506 200.512 145.642 201.2C144.778 201.888 143.666 202.232 142.306 202.232C141.81 202.232 141.314 202.152 140.818 201.992C140.658 202.136 140.538 202.28 140.458 202.424C140.378 202.552 140.338 202.728 140.338 202.952C140.338 203.256 140.474 203.488 140.746 203.648C141.034 203.808 141.506 203.888 142.162 203.888H144.154C145.626 203.888 146.738 204.128 147.49 204.608C148.242 205.088 148.618 205.848 148.618 206.888C148.618 207.688 148.346 208.408 147.802 209.048C147.274 209.704 146.514 210.208 145.522 210.56C144.546 210.928 143.402 211.112 142.09 211.112ZM142.306 200.24C142.834 200.24 143.258 200.056 143.578 199.688C143.914 199.32 144.082 198.8 144.082 198.128C144.082 197.472 143.914 196.968 143.578 196.616C143.258 196.248 142.834 196.064 142.306 196.064C141.778 196.064 141.354 196.248 141.034 196.616C140.714 196.968 140.554 197.472 140.554 198.128C140.554 198.784 140.714 199.304 141.034 199.688C141.37 200.056 141.794 200.24 142.306 200.24ZM142.594 209.048C143.426 209.048 144.114 208.888 144.658 208.568C145.202 208.264 145.474 207.888 145.474 207.44C145.474 207.056 145.322 206.792 145.018 206.648C144.714 206.504 144.234 206.432 143.578 206.432H142.21C141.506 206.432 140.962 206.376 140.578 206.264C140.082 206.664 139.834 207.096 139.834 207.56C139.834 208.04 140.082 208.408 140.578 208.664C141.074 208.92 141.746 209.048 142.594 209.048ZM153.123 206.288C152.067 206.288 151.211 205.952 150.555 205.28C149.915 204.608 149.595 203.76 149.595 202.736C149.595 201.472 150.131 200.496 151.203 199.808C152.275 199.104 153.995 198.624 156.363 198.368C156.315 197.088 155.659 196.448 154.395 196.448C153.899 196.448 153.395 196.544 152.883 196.736C152.371 196.928 151.811 197.2 151.203 197.552L150.027 195.392C151.707 194.352 153.371 193.832 155.019 193.832C156.539 193.832 157.691 194.28 158.475 195.176C159.259 196.056 159.651 197.376 159.651 199.136V206H156.963L156.723 204.752H156.651C155.467 205.776 154.291 206.288 153.123 206.288ZM154.203 203.744C154.603 203.744 154.963 203.656 155.283 203.48C155.619 203.288 155.979 203.008 156.363 202.64V200.36C155.067 200.536 154.139 200.8 153.579 201.152C153.019 201.504 152.739 201.944 152.739 202.472C152.739 202.888 152.867 203.208 153.123 203.432C153.379 203.64 153.739 203.744 154.203 203.744ZM162.757 194.12H165.421L165.661 195.656H165.757C166.333 195.096 166.925 194.656 167.533 194.336C168.157 194 168.845 193.832 169.597 193.832C170.845 193.832 171.765 194.248 172.357 195.08C172.965 195.896 173.269 197.072 173.269 198.608V206H169.981V199.016C169.981 198.136 169.853 197.52 169.597 197.168C169.357 196.816 168.957 196.64 168.397 196.64C167.949 196.64 167.557 196.736 167.221 196.928C166.885 197.12 166.485 197.44 166.021 197.888V206H162.757V194.12ZM176.398 194.12H179.662V206H176.398V194.12ZM178.03 192.272C177.486 192.272 177.038 192.112 176.686 191.792C176.35 191.456 176.182 191.032 176.182 190.52C176.182 190.008 176.35 189.592 176.686 189.272C177.038 188.936 177.486 188.768 178.03 188.768C178.574 188.768 179.014 188.936 179.35 189.272C179.702 189.592 179.878 190.008 179.878 190.52C179.878 191.032 179.702 191.456 179.35 191.792C179.014 192.112 178.574 192.272 178.03 192.272ZM182.193 204.248L187.377 196.712H182.769V194.12H191.457V195.872L186.273 203.408H191.625V206H182.193V204.248ZM196.436 206.288C195.38 206.288 194.524 205.952 193.868 205.28C193.228 204.608 192.908 203.76 192.908 202.736C192.908 201.472 193.444 200.496 194.516 199.808C195.588 199.104 197.308 198.624 199.676 198.368C199.628 197.088 198.972 196.448 197.708 196.448C197.212 196.448 196.708 196.544 196.196 196.736C195.684 196.928 195.124 197.2 194.516 197.552L193.34 195.392C195.02 194.352 196.684 193.832 198.332 193.832C199.852 193.832 201.004 194.28 201.788 195.176C202.572 196.056 202.964 197.376 202.964 199.136V206H200.276L200.036 204.752H199.964C198.78 205.776 197.604 206.288 196.436 206.288ZM197.516 203.744C197.916 203.744 198.276 203.656 198.596 203.48C198.932 203.288 199.292 203.008 199.676 202.64V200.36C198.38 200.536 197.452 200.8 196.892 201.152C196.332 201.504 196.052 201.944 196.052 202.472C196.052 202.888 196.18 203.208 196.436 203.432C196.692 203.64 197.052 203.744 197.516 203.744ZM210.088 206.288C208.712 206.288 207.704 205.896 207.064 205.112C206.424 204.312 206.104 203.2 206.104 201.776V196.712H204.448V194.264L206.272 194.12L206.656 190.952H209.368V194.12H212.272V196.712H209.368V201.752C209.368 203.048 209.896 203.696 210.952 203.696C211.288 203.696 211.68 203.616 212.128 203.456L212.656 205.856C211.792 206.144 210.936 206.288 210.088 206.288ZM214.671 194.12H217.935V206H214.671V194.12ZM216.303 192.272C215.759 192.272 215.311 192.112 214.959 191.792C214.623 191.456 214.455 191.032 214.455 190.52C214.455 190.008 214.623 189.592 214.959 189.272C215.311 188.936 215.759 188.768 216.303 188.768C216.847 188.768 217.287 188.936 217.623 189.272C217.975 189.592 218.151 190.008 218.151 190.52C218.151 191.032 217.975 191.456 217.623 191.792C217.287 192.112 216.847 192.272 216.303 192.272ZM226.226 206.288C225.202 206.288 224.25 206.04 223.37 205.544C222.506 205.048 221.81 204.328 221.282 203.384C220.754 202.44 220.49 201.336 220.49 200.072C220.49 198.792 220.754 197.68 221.282 196.736C221.81 195.792 222.506 195.072 223.37 194.576C224.25 194.08 225.202 193.832 226.226 193.832C227.234 193.832 228.178 194.08 229.058 194.576C229.938 195.072 230.642 195.8 231.17 196.76C231.698 197.704 231.962 198.808 231.962 200.072C231.962 201.336 231.698 202.44 231.17 203.384C230.642 204.328 229.938 205.048 229.058 205.544C228.178 206.04 227.234 206.288 226.226 206.288ZM226.226 203.624C226.978 203.624 227.562 203.312 227.978 202.688C228.394 202.048 228.602 201.176 228.602 200.072C228.602 198.968 228.394 198.096 227.978 197.456C227.562 196.816 226.978 196.496 226.226 196.496C225.458 196.496 224.866 196.816 224.45 197.456C224.05 198.096 223.85 198.968 223.85 200.072C223.85 201.176 224.05 202.048 224.45 202.688C224.866 203.312 225.458 203.624 226.226 203.624ZM234.476 194.12H237.14L237.38 195.656H237.476C238.052 195.096 238.644 194.656 239.252 194.336C239.876 194 240.564 193.832 241.316 193.832C242.564 193.832 243.484 194.248 244.076 195.08C244.684 195.896 244.988 197.072 244.988 198.608V206H241.7V199.016C241.7 198.136 241.572 197.52 241.316 197.168C241.076 196.816 240.676 196.64 240.116 196.64C239.668 196.64 239.276 196.736 238.94 196.928C238.604 197.12 238.204 197.44 237.74 197.888V206H234.476V194.12Z" fill="black"/>
<path d="M102.225 116.776H94.2566V133H85.1366V116.776H57.9686V110.248L83.0246 71.848H94.2566V109.192H102.225V116.776ZM85.1366 109.192V93.64C85.1366 91.016 85.2966 86.92 85.6166 81.352H85.2326C84.9766 81.8 83.9206 83.752 82.0646 87.208C81.8086 87.592 81.5206 88.072 81.2006 88.648C80.9446 89.16 80.6246 89.768 80.2406 90.472L67.7606 109.192H85.1366ZM137.251 134.152C132.707 134.152 128.771 133.384 125.443 131.848C122.179 130.312 119.267 128.264 116.707 125.704L121.315 119.464C123.427 121.512 125.667 123.144 128.035 124.36C130.403 125.576 133.091 126.184 136.099 126.184C139.747 126.184 142.723 125.032 145.027 122.728C147.395 120.424 148.579 117.352 148.579 113.512C148.579 109.672 147.491 106.664 145.315 104.488C143.139 102.312 140.227 101.224 136.579 101.224C134.659 101.224 132.995 101.512 131.587 102.088C130.179 102.6 128.483 103.496 126.499 104.776L121.699 101.704L123.619 71.848H155.395V80.104H132.067L130.627 96.328C133.379 94.856 136.259 94.12 139.267 94.12C144.835 94.12 149.411 95.752 152.995 99.016C156.579 102.216 158.371 106.952 158.371 113.224C158.371 117.512 157.379 121.256 155.395 124.456C153.475 127.592 150.915 129.992 147.715 131.656C144.515 133.32 141.027 134.152 137.251 134.152ZM190.326 107.752C185.91 107.752 182.358 105.992 179.67 102.472C176.982 98.952 175.638 94.056 175.638 87.784C175.638 81.576 176.982 76.744 179.67 73.288C182.358 69.768 185.91 68.008 190.326 68.008C194.742 68.008 198.294 69.768 200.982 73.288C203.67 76.744 205.014 81.576 205.014 87.784C205.014 94.056 203.67 98.952 200.982 102.472C198.294 105.992 194.742 107.752 190.326 107.752ZM226.422 68.968H232.566L198.102 134.152H191.958L226.422 68.968ZM190.326 101.992C192.63 101.992 194.454 100.808 195.798 98.44C197.206 96.008 197.91 92.456 197.91 87.784C197.91 83.112 197.206 79.624 195.798 77.32C194.454 74.952 192.63 73.768 190.326 73.768C188.022 73.768 186.166 74.952 184.758 77.32C183.414 79.624 182.742 83.112 182.742 87.784C182.742 92.456 183.414 96.008 184.758 98.44C186.166 100.808 188.022 101.992 190.326 101.992ZM234.39 134.152C229.974 134.152 226.422 132.392 223.734 128.872C221.046 125.352 219.702 120.456 219.702 114.184C219.702 107.976 221.046 103.144 223.734 99.688C226.422 96.168 229.974 94.408 234.39 94.408C238.806 94.408 242.358 96.168 245.046 99.688C247.734 103.144 249.078 107.976 249.078 114.184C249.078 120.456 247.734 125.352 245.046 128.872C242.358 132.392 238.806 134.152 234.39 134.152ZM234.39 128.392C236.694 128.392 238.518 127.208 239.862 124.84C241.27 122.408 241.974 118.856 241.974 114.184C241.974 109.512 241.27 106.024 239.862 103.72C238.518 101.352 236.694 100.168 234.39 100.168C232.086 100.168 230.23 101.352 228.822 103.72C227.478 106.024 226.806 109.512 226.806 114.184C226.806 118.856 227.478 122.408 228.822 124.84C230.23 127.208 232.086 128.392 234.39 128.392Z" fill="black"/>
</svg>
