<svg fill="none" height="300" viewBox="0 0 300 300" width="300" xmlns="http://www.w3.org/2000/svg"><circle cx="150" cy="150" r="147.5" stroke="#489b9e" stroke-width="5"/><g fill="#000"><path d="m89.1152 175.288c-.96 0-1.848-.24-2.664-.72-.816-.496-1.472-1.2-1.968-2.112-.48-.928-.72-2.016-.72-3.264s.24-2.336.72-3.264c.496-.928 1.152-1.632 1.968-2.112.816-.496 1.704-.744 2.664-.744s1.848.248 2.664.744c.816.48 1.464 1.184 1.944 2.112.496.928.744 2.016.744 3.264s-.248 2.336-.744 3.264c-.48.912-1.128 1.616-1.944 2.112-.816.48-1.704.72-2.664.72zm0-1.464c.688 0 1.296-.192 1.824-.576.544-.384.968-.928 1.272-1.632s.456-1.512.456-2.424-.152-1.72-.456-2.424-.728-1.248-1.272-1.632c-.528-.4-1.136-.6-1.824-.6s-1.304.2-1.848.6c-.528.384-.944.928-1.248 1.632-.288.704-.432 1.512-.432 2.424 0 1.392.328 2.512.984 3.36s1.504 1.272 2.544 1.272zm14.5698-14.808c-1.12 0-1.68.784-1.68 2.352v1.992h2.52v1.44h-2.52v10.2h-1.752v-10.2h-1.5838v-1.32l1.5838-.12v-2.016c0-1.2.272-2.128.816-2.784.56-.656 1.384-.984 2.472-.984.624 0 1.248.128 1.872.384l-.384 1.344c-.448-.192-.896-.288-1.344-.288zm16.089 16.272c-1.2 0-2.088-.376-2.664-1.128-.576-.768-.864-1.904-.864-3.408v-7.392h1.728v7.176c0 1.12.184 1.944.552 2.472.368.512.96.768 1.776.768.592 0 1.128-.16 1.608-.48.496-.32 1.048-.848 1.656-1.584v-8.352h1.752v11.64h-1.464l-.144-1.848h-.072c-.592.688-1.2 1.216-1.824 1.584-.608.368-1.288.552-2.04.552zm14.977 0c-.8 0-1.576-.144-2.328-.432-.752-.304-1.416-.696-1.992-1.176l.888-1.176c.576.464 1.136.816 1.68 1.056s1.152.36 1.824.36c.768 0 1.36-.184 1.776-.552s.624-.832.624-1.392-.24-1.008-.72-1.344c-.464-.336-1.128-.656-1.992-.96-1.104-.4-1.968-.832-2.592-1.296-.624-.48-.936-1.16-.936-2.04 0-.944.352-1.72 1.056-2.328.72-.624 1.688-.936 2.904-.936.656 0 1.288.12 1.896.36s1.152.552 1.632.936l-.84 1.128c-.464-.336-.904-.592-1.32-.768s-.872-.264-1.368-.264c-.736 0-1.296.176-1.68.528-.384.336-.576.752-.576 1.248 0 .352.112.656.336.912.24.256.528.464.864.624.336.144.808.336 1.416.576.816.304 1.456.576 1.92.816s.864.584 1.2 1.032c.336.432.504.992.504 1.68 0 .624-.168 1.2-.504 1.728-.32.512-.8.92-1.44 1.224-.624.304-1.368.456-2.232.456zm18.289-6.768c0 .416-.024.768-.072 1.056h-8.04c.08 1.36.496 2.416 1.248 3.168.768.752 1.704 1.128 2.808 1.128 1.024 0 2.008-.312 2.952-.936l.648 1.152c-.576.368-1.168.664-1.776.888-.608.208-1.288.312-2.04.312-1.024 0-1.96-.24-2.808-.72-.832-.496-1.496-1.208-1.992-2.136-.48-.928-.72-2.008-.72-3.24 0-1.216.24-2.288.72-3.216.496-.928 1.144-1.64 1.944-2.136.8-.512 1.648-.768 2.544-.768 1.44 0 2.56.488 3.36 1.464.816.96 1.224 2.288 1.224 3.984zm-1.56-.216c0-1.232-.264-2.176-.792-2.832s-1.264-.984-2.208-.984c-.864 0-1.632.328-2.304.984s-1.072 1.6-1.2 2.832zm6.892-4.944h1.44l.144 2.136h.072c.4-.752.888-1.344 1.464-1.776s1.192-.648 1.848-.648c.464 0 .864.08 1.2.24l-.336 1.536c-.416-.128-.784-.192-1.104-.192-.544 0-1.088.224-1.632.672-.528.448-.984 1.144-1.368 2.088v7.584h-1.728zm13.462 11.928c-.8 0-1.576-.144-2.328-.432-.752-.304-1.416-.696-1.992-1.176l.888-1.176c.576.464 1.136.816 1.68 1.056s1.152.36 1.824.36c.768 0 1.36-.184 1.776-.552s.624-.832.624-1.392-.24-1.008-.72-1.344c-.464-.336-1.128-.656-1.992-.96-1.104-.4-1.968-.832-2.592-1.296-.624-.48-.936-1.16-.936-2.04 0-.944.352-1.72 1.056-2.328.72-.624 1.688-.936 2.904-.936.656 0 1.288.12 1.896.36s1.152.552 1.632.936l-.84 1.128c-.464-.336-.904-.592-1.32-.768s-.872-.264-1.368-.264c-.736 0-1.296.176-1.68.528-.384.336-.576.752-.576 1.248 0 .352.112.656.336.912.24.256.528.464.864.624.336.144.808.336 1.416.576.816.304 1.456.576 1.92.816s.864.584 1.2 1.032c.336.432.504.992.504 1.68 0 .624-.168 1.2-.504 1.728-.32.512-.8.92-1.44 1.224-.624.304-1.368.456-2.232.456zm19.253 0c-.992 0-1.808-.288-2.448-.864s-.96-1.384-.96-2.424c0-1.264.576-2.232 1.728-2.904 1.152-.688 2.992-1.168 5.52-1.44 0-.912-.192-1.656-.576-2.232-.368-.592-1.008-.888-1.92-.888-1.104 0-2.28.424-3.528 1.272l-.696-1.2c1.536-1.024 3.04-1.536 4.512-1.536 1.344 0 2.336.424 2.976 1.272.64.832.96 1.984.96 3.456v7.2h-1.44l-.144-1.416h-.072c-1.376 1.136-2.68 1.704-3.912 1.704zm.456-1.416c.56 0 1.104-.128 1.632-.384.544-.272 1.128-.688 1.752-1.248v-3.408c-2 .24-3.424.608-4.272 1.104-.832.496-1.248 1.152-1.248 1.968 0 .656.2 1.152.6 1.488.4.32.912.48 1.536.48zm11.327-10.512h1.44l.144 2.136h.072c.4-.752.888-1.344 1.464-1.776s1.192-.648 1.848-.648c.464 0 .864.08 1.2.24l-.336 1.536c-.416-.128-.784-.192-1.104-.192-.544 0-1.088.224-1.632.672-.528.448-.984 1.144-1.368 2.088v7.584h-1.728zm19.202 5.16c0 .416-.024.768-.072 1.056h-8.04c.08 1.36.496 2.416 1.248 3.168.768.752 1.704 1.128 2.808 1.128 1.024 0 2.008-.312 2.952-.936l.648 1.152c-.576.368-1.168.664-1.776.888-.608.208-1.288.312-2.04.312-1.024 0-1.96-.24-2.808-.72-.832-.496-1.496-1.208-1.992-2.136-.48-.928-.72-2.008-.72-3.24 0-1.216.24-2.288.72-3.216.496-.928 1.144-1.64 1.944-2.136.8-.512 1.648-.768 2.544-.768 1.44 0 2.56.488 3.36 1.464.816.96 1.224 2.288 1.224 3.984zm-1.56-.216c0-1.232-.264-2.176-.792-2.832s-1.264-.984-2.208-.984c-.864 0-1.632.328-2.304.984s-1.072 1.6-1.2 2.832zm-156.6792 23.128c-.928 0-1.392.6-1.392 1.8v.888h2.184v2.592h-2.184v9.288h-3.288v-9.288h-1.584v-2.448l1.584-.12v-.84c0-1.344.336-2.424 1.008-3.24.688-.816 1.76-1.224 3.216-1.224.832 0 1.6.144 2.304.432l-.6 2.424c-.432-.176-.848-.264-1.248-.264zm5.1601 2.688h2.664l.24 2.088h.096c.416-.768.92-1.352 1.512-1.752.608-.416 1.224-.624 1.848-.624.56 0 1.024.08 1.392.24l-.552 2.832c-.048-.016-.192-.048-.432-.096-.24-.064-.512-.096-.816-.096-.512 0-1.008.184-1.488.552s-.88.944-1.2 1.728v7.008h-3.264zm15.3036 12.168c-1.248 0-2.176-.408-2.784-1.224-.592-.832-.888-2.016-.888-3.552v-7.392h3.264v6.984c0 .864.128 1.48.384 1.848.256.352.664.528 1.224.528.464 0 .856-.104 1.176-.312.336-.224.704-.592 1.104-1.104v-7.944h3.264v11.88h-2.664l-.24-1.68h-.096c-.544.64-1.112 1.128-1.704 1.464s-1.272.504-2.04.504zm15.8505 0c-.7682 0-1.5682-.152-2.4002-.456-.816-.304-1.528-.704-2.136-1.2l1.488-2.064c.56.432 1.088.752 1.584.96.512.208 1.032.312 1.5602.312.544 0 .952-.096 1.224-.288.272-.208.408-.496.408-.864 0-.256-.112-.48-.336-.672-.208-.192-.512-.368-.912-.528-.4-.176-.8002-.344-1.2002-.504-.944-.368-1.72-.816-2.328-1.344-.592-.544-.888-1.256-.888-2.136 0-1.088.408-1.968 1.224-2.64.816-.688 1.896-1.032 3.2402-1.032 1.472 0 2.84.496 4.104 1.488l-1.464 1.968c-.944-.672-1.792-1.008-2.544-1.008-.496 0-.8722.096-1.1282.288-.24.192-.36.448-.36.768s.16.584.48.792c.3202.192.6882.36 1.1042.504s.688.24.816.288c1.008.368 1.8.816 2.376 1.344.592.512.888 1.256.888 2.232 0 .72-.192 1.368-.576 1.944-.368.56-.912 1.008-1.632 1.344s-1.584.504-2.592.504zm13.697 0c-1.376 0-2.384-.392-3.024-1.176-.64-.8-.96-1.912-.96-3.336v-5.064h-1.656v-2.448l1.824-.144.384-3.168h2.712v3.168h2.904v2.592h-2.904v5.04c0 1.296.528 1.944 1.584 1.944.336 0 .728-.08 1.176-.24l.528 2.4c-.864.288-1.72.432-2.568.432zm6.983-12.168h2.664l.24 2.088h.096c.416-.768.92-1.352 1.512-1.752.608-.416 1.224-.624 1.848-.624.56 0 1.024.08 1.392.24l-.552 2.832c-.048-.016-.192-.048-.432-.096-.24-.064-.512-.096-.816-.096-.512 0-1.008.184-1.488.552s-.88.944-1.2 1.728v7.008h-3.264zm14.024 12.168c-1.056 0-1.912-.336-2.568-1.008-.64-.672-.96-1.52-.96-2.544 0-1.264.536-2.24 1.608-2.928 1.072-.704 2.792-1.184 5.16-1.44-.048-1.28-.704-1.92-1.968-1.92-.496 0-1 .096-1.512.288s-1.072.464-1.68.816l-1.176-2.16c1.68-1.04 3.344-1.56 4.992-1.56 1.52 0 2.672.448 3.456 1.344.784.88 1.176 2.2 1.176 3.96v6.864h-2.688l-.24-1.248h-.072c-1.184 1.024-2.36 1.536-3.528 1.536zm1.08-2.544c.4 0 .76-.088 1.08-.264.336-.192.696-.472 1.08-.84v-2.28c-1.296.176-2.224.44-2.784.792s-.84.792-.84 1.32c0 .416.128.736.384.96.256.208.616.312 1.08.312zm14.972 2.544c-1.376 0-2.384-.392-3.024-1.176-.64-.8-.96-1.912-.96-3.336v-5.064h-1.656v-2.448l1.824-.144.384-3.168h2.712v3.168h2.904v2.592h-2.904v5.04c0 1.296.528 1.944 1.584 1.944.336 0 .728-.08 1.176-.24l.528 2.4c-.864.288-1.72.432-2.568.432zm16.402-6.768c0 .608-.048 1.104-.144 1.488h-7.344c.16.944.544 1.64 1.152 2.088.624.448 1.344.672 2.16.672.848 0 1.728-.264 2.64-.792l1.08 1.992c-.592.416-1.256.744-1.992.984-.72.224-1.44.336-2.16.336-1.12 0-2.136-.248-3.048-.744-.896-.496-1.608-1.216-2.136-2.16-.512-.944-.768-2.048-.768-3.312 0-1.248.256-2.344.768-3.288.528-.944 1.216-1.672 2.064-2.184s1.752-.768 2.712-.768c1.616 0 2.856.528 3.72 1.584.864 1.04 1.296 2.408 1.296 4.104zm-2.808-.696c0-.768-.176-1.368-.528-1.8-.352-.448-.888-.672-1.608-.672-.592 0-1.12.208-1.584.624-.448.4-.752 1.016-.912 1.848zm11.896 7.464c-1.488 0-2.672-.552-3.552-1.656-.864-1.104-1.296-2.624-1.296-4.56 0-1.248.232-2.344.696-3.288s1.072-1.672 1.824-2.184c.768-.512 1.576-.768 2.424-.768.624 0 1.16.104 1.608.312s.904.528 1.368.96l-.12-1.848v-4.128h3.288v16.872h-2.688l-.24-1.224h-.072c-.448.448-.96.816-1.536 1.104-.56.272-1.128.408-1.704.408zm.84-2.688c.416 0 .792-.088 1.128-.264.336-.192.664-.488.984-.888v-5.088c-.608-.56-1.312-.84-2.112-.84-.656 0-1.208.304-1.656.912s-.672 1.472-.672 2.592c0 1.184.2 2.08.6 2.688.4.592.976.888 1.728.888zm17.196-9.48h3.264l1.248 5.712c.016.08.136.816.36 2.208.032.288.096.72.192 1.296h.096c.272-1.552.512-2.72.72-3.504l1.392-5.712h2.88l1.416 5.712c.256 1.088.472 2.096.648 3.024l.096.48h.096l.288-1.704c.032-.192.064-.44.096-.744.048-.304.112-.656.192-1.056l1.224-5.712h3.048l-2.904 11.88h-3.84l-1.2-5.016c-.304-1.584-.52-2.736-.648-3.456h-.096c-.256 1.52-.472 2.68-.648 3.48l-1.128 4.992h-3.768zm21.855 0h3.264v11.88h-3.264zm1.632-1.848c-.544 0-.992-.16-1.344-.48-.336-.336-.504-.76-.504-1.272s.168-.928.504-1.248c.352-.336.8-.504 1.344-.504s.984.168 1.32.504c.352.32.528.736.528 1.248s-.176.936-.528 1.272c-.336.32-.776.48-1.32.48zm11.747 14.016c-1.376 0-2.384-.392-3.024-1.176-.64-.8-.96-1.912-.96-3.336v-5.064h-1.656v-2.448l1.824-.144.384-3.168h2.712v3.168h2.904v2.592h-2.904v5.04c0 1.296.528 1.944 1.584 1.944.336 0 .728-.08 1.176-.24l.528 2.4c-.864.288-1.72.432-2.568.432zm6.983-17.16h3.264v4.2l-.144 2.208c.56-.528 1.136-.944 1.728-1.248s1.256-.456 1.992-.456c1.248 0 2.168.416 2.76 1.248.608.816.912 1.992.912 3.528v7.392h-3.288v-6.984c0-.88-.128-1.496-.384-1.848-.24-.352-.64-.528-1.2-.528-.448 0-.84.096-1.176.288s-.736.512-1.2.96v8.112h-3.264zm-156.691 48.16c-1.024 0-1.976-.248-2.856-.744-.864-.496-1.56-1.216-2.088-2.16s-.792-2.048-.792-3.312c0-1.28.264-2.392.792-3.336s1.224-1.664 2.088-2.16c.88-.496 1.832-.744 2.856-.744 1.008 0 1.952.248 2.832.744s1.584 1.224 2.112 2.184c.528.944.792 2.048.792 3.312s-.264 2.368-.792 3.312-1.232 1.664-2.112 2.16-1.824.744-2.832.744zm0-2.664c.752 0 1.336-.312 1.752-.936.416-.64.624-1.512.624-2.616s-.208-1.976-.624-2.616-1-.96-1.752-.96c-.768 0-1.36.32-1.776.96-.4.64-.6 1.512-.6 2.616s.2 1.976.6 2.616c.416.624 1.008.936 1.776.936zm10.6497-9.504h2.664l.24 2.088h.096c.416-.768.92-1.352 1.512-1.752.608-.416 1.224-.624 1.848-.624.56 0 1.024.08 1.392.24l-.552 2.832c-.048-.016-.192-.048-.432-.096-.24-.064-.512-.096-.816-.096-.512 0-1.008.184-1.488.552s-.88.944-1.2 1.728v7.008h-3.264zm15.6933 16.992c-1.472 0-2.672-.256-3.6-.768-.912-.512-1.368-1.264-1.368-2.256s.568-1.808 1.704-2.448v-.096c-.72-.464-1.08-1.136-1.08-2.016 0-.416.12-.824.36-1.224.256-.4.576-.728.96-.984v-.096c-.464-.32-.848-.752-1.152-1.296-.288-.544-.432-1.144-.432-1.8 0-.896.216-1.664.648-2.304.448-.656 1.04-1.152 1.776-1.488s1.536-.504 2.4-.504c.608 0 1.216.096 1.824.288h4.296v2.4h-1.992c.144.192.264.448.36.768.096.304.144.616.144.936 0 1.296-.432 2.288-1.296 2.976s-1.976 1.032-3.336 1.032c-.496 0-.992-.08-1.488-.24-.16.144-.28.288-.36.432-.08.128-.12.304-.12.528 0 .304.136.536.408.696.288.16.76.24 1.416.24h1.992c1.472 0 2.584.24 3.336.72s1.128 1.24 1.128 2.28c0 .8-.272 1.52-.816 2.16-.528.656-1.288 1.16-2.28 1.512-.976.368-2.12.552-3.432.552zm.216-10.872c.528 0 .952-.184 1.272-.552.336-.368.504-.888.504-1.56 0-.656-.168-1.16-.504-1.512-.32-.368-.744-.552-1.272-.552s-.952.184-1.272.552c-.32.352-.48.856-.48 1.512s.16 1.176.48 1.56c.336.368.76.552 1.272.552zm.288 8.808c.832 0 1.52-.16 2.064-.48.544-.304.816-.68.816-1.128 0-.384-.152-.648-.456-.792s-.784-.216-1.44-.216h-1.368c-.704 0-1.248-.056-1.632-.168-.496.4-.744.832-.744 1.296 0 .48.248.848.744 1.104s1.168.384 2.016.384zm12.93-2.76c-1.056 0-1.912-.336-2.568-1.008-.64-.672-.96-1.52-.96-2.544 0-1.264.536-2.24 1.608-2.928 1.072-.704 2.792-1.184 5.16-1.44-.048-1.28-.704-1.92-1.968-1.92-.496 0-1 .096-1.512.288s-1.072.464-1.68.816l-1.176-2.16c1.68-1.04 3.344-1.56 4.992-1.56 1.52 0 2.672.448 3.456 1.344.784.88 1.176 2.2 1.176 3.96v6.864h-2.688l-.24-1.248h-.072c-1.184 1.024-2.36 1.536-3.528 1.536zm1.08-2.544c.4 0 .76-.088 1.08-.264.336-.192.696-.472 1.08-.84v-2.28c-1.296.176-2.224.44-2.784.792s-.84.792-.84 1.32c0 .416.128.736.384.96.256.208.616.312 1.08.312zm10.954-9.624h2.664l.24 1.536h.096c.576-.56 1.168-1 1.776-1.32.624-.336 1.312-.504 2.064-.504 1.248 0 2.168.416 2.76 1.248.608.816.912 1.992.912 3.528v7.392h-3.288v-6.984c0-.88-.128-1.496-.384-1.848-.24-.352-.64-.528-1.2-.528-.448 0-.84.096-1.176.288s-.736.512-1.2.96v8.112h-3.264zm16.04 0h3.264v11.88h-3.264zm1.632-1.848c-.544 0-.992-.16-1.344-.48-.336-.336-.504-.76-.504-1.272s.168-.928.504-1.248c.352-.336.8-.504 1.344-.504s.984.168 1.32.504c.352.32.528.736.528 1.248s-.176.936-.528 1.272c-.336.32-.776.48-1.32.48zm6.563 11.976 5.184-7.536h-4.608v-2.592h8.688v1.752l-5.184 7.536h5.352v2.592h-9.432zm16.643 2.04c-1.056 0-1.912-.336-2.568-1.008-.64-.672-.96-1.52-.96-2.544 0-1.264.536-2.24 1.608-2.928 1.072-.704 2.792-1.184 5.16-1.44-.048-1.28-.704-1.92-1.968-1.92-.496 0-1 .096-1.512.288s-1.072.464-1.68.816l-1.176-2.16c1.68-1.04 3.344-1.56 4.992-1.56 1.52 0 2.672.448 3.456 1.344.784.88 1.176 2.2 1.176 3.96v6.864h-2.688l-.24-1.248h-.072c-1.184 1.024-2.36 1.536-3.528 1.536zm1.08-2.544c.4 0 .76-.088 1.08-.264.336-.192.696-.472 1.08-.84v-2.28c-1.296.176-2.224.44-2.784.792s-.84.792-.84 1.32c0 .416.128.736.384.96.256.208.616.312 1.08.312zm14.972 2.544c-1.376 0-2.384-.392-3.024-1.176-.64-.8-.96-1.912-.96-3.336v-5.064h-1.656v-2.448l1.824-.144.384-3.168h2.712v3.168h2.904v2.592h-2.904v5.04c0 1.296.528 1.944 1.584 1.944.336 0 .728-.08 1.176-.24l.528 2.4c-.864.288-1.72.432-2.568.432zm6.984-12.168h3.264v11.88h-3.264zm1.632-1.848c-.544 0-.992-.16-1.344-.48-.336-.336-.504-.76-.504-1.272s.168-.928.504-1.248c.352-.336.8-.504 1.344-.504s.984.168 1.32.504c.352.32.528.736.528 1.248s-.176.936-.528 1.272c-.336.32-.776.48-1.32.48zm12.323 14.016c-1.024 0-1.976-.248-2.856-.744-.864-.496-1.56-1.216-2.088-2.16s-.792-2.048-.792-3.312c0-1.28.264-2.392.792-3.336s1.224-1.664 2.088-2.16c.88-.496 1.832-.744 2.856-.744 1.008 0 1.952.248 2.832.744s1.584 1.224 2.112 2.184c.528.944.792 2.048.792 3.312s-.264 2.368-.792 3.312-1.232 1.664-2.112 2.16-1.824.744-2.832.744zm0-2.664c.752 0 1.336-.312 1.752-.936.416-.64.624-1.512.624-2.616s-.208-1.976-.624-2.616-1-.96-1.752-.96c-.768 0-1.36.32-1.776.96-.4.64-.6 1.512-.6 2.616s.2 1.976.6 2.616c.416.624 1.008.936 1.776.936zm10.649-9.504h2.664l.24 1.536h.096c.576-.56 1.168-1 1.776-1.32.624-.336 1.312-.504 2.064-.504 1.248 0 2.168.416 2.76 1.248.608.816.912 1.992.912 3.528v7.392h-3.288v-6.984c0-.88-.128-1.496-.384-1.848-.24-.352-.64-.528-1.2-.528-.448 0-.84.096-1.176.288s-.736.512-1.2.96v8.112h-3.264z"/><path d="m102.225 116.776h-7.9684v16.224h-9.12v-16.224h-27.168v-6.528l25.056-38.4h11.232v37.344h7.9684zm-17.0884-7.584v-15.552c0-2.624.16-6.72.48-12.288h-.384c-.256.448-1.312 2.4-3.168 5.856-.256.384-.544.864-.864 1.44-.256.512-.576 1.12-.96 1.824l-12.48 18.72zm52.1144 24.96c-4.544 0-8.48-.768-11.808-2.304-3.264-1.536-6.176-3.584-8.736-6.144l4.608-6.24c2.112 2.048 4.352 3.68 6.72 4.896s5.056 1.824 8.064 1.824c3.648 0 6.624-1.152 8.928-3.456 2.368-2.304 3.552-5.376 3.552-9.216s-1.088-6.848-3.264-9.024-5.088-3.264-8.736-3.264c-1.92 0-3.584.288-4.992.864-1.408.512-3.104 1.408-5.088 2.688l-4.8-3.072 1.92-29.856h31.776v8.256h-23.328l-1.44 16.224c2.752-1.472 5.632-2.208 8.64-2.208 5.568 0 10.144 1.632 13.728 4.896 3.584 3.2 5.376 7.936 5.376 14.208 0 4.288-.992 8.032-2.976 11.232-1.92 3.136-4.48 5.536-7.68 7.2s-6.688 2.496-10.464 2.496zm53.075-26.4c-4.416 0-7.968-1.76-10.656-5.28s-4.032-8.416-4.032-14.688c0-6.208 1.344-11.04 4.032-14.496 2.688-3.52 6.24-5.28 10.656-5.28s7.968 1.76 10.656 5.28c2.688 3.456 4.032 8.288 4.032 14.496 0 6.272-1.344 11.168-4.032 14.688s-6.24 5.28-10.656 5.28zm36.096-38.784h6.144l-34.464 65.184h-6.144zm-36.096 33.024c2.304 0 4.128-1.184 5.472-3.552 1.408-2.432 2.112-5.984 2.112-10.656s-.704-8.16-2.112-10.464c-1.344-2.368-3.168-3.552-5.472-3.552s-4.16 1.184-5.568 3.552c-1.344 2.304-2.016 5.792-2.016 10.464s.672 8.224 2.016 10.656c1.408 2.368 3.264 3.552 5.568 3.552zm44.064 32.16c-4.416 0-7.968-1.76-10.656-5.28s-4.032-8.416-4.032-14.688c0-6.208 1.344-11.04 4.032-14.496 2.688-3.52 6.24-5.28 10.656-5.28s7.968 1.76 10.656 5.28c2.688 3.456 4.032 8.288 4.032 14.496 0 6.272-1.344 11.168-4.032 14.688s-6.24 5.28-10.656 5.28zm0-5.76c2.304 0 4.128-1.184 5.472-3.552 1.408-2.432 2.112-5.984 2.112-10.656s-.704-8.16-2.112-10.464c-1.344-2.368-3.168-3.552-5.472-3.552s-4.16 1.184-5.568 3.552c-1.344 2.304-2.016 5.792-2.016 10.464s.672 8.224 2.016 10.656c1.408 2.368 3.264 3.552 5.568 3.552z"/></g></svg>