<svg width="300" height="300" viewBox="0 0 300 300" fill="none" xmlns="http://www.w3.org/2000/svg">
<circle cx="150" cy="150" r="147.5" stroke="#489B9E" stroke-width="5"/>
<path d="M89.1152 175.288C88.1552 175.288 87.2672 175.048 86.4512 174.568C85.6352 174.072 84.9792 173.368 84.4832 172.456C84.0032 171.528 83.7632 170.44 83.7632 169.192C83.7632 167.944 84.0032 166.856 84.4832 165.928C84.9792 165 85.6352 164.296 86.4512 163.816C87.2672 163.32 88.1552 163.072 89.1152 163.072C90.0752 163.072 90.9632 163.32 91.7792 163.816C92.5952 164.296 93.2432 165 93.7232 165.928C94.2192 166.856 94.4672 167.944 94.4672 169.192C94.4672 170.44 94.2192 171.528 93.7232 172.456C93.2432 173.368 92.5952 174.072 91.7792 174.568C90.9632 175.048 90.0752 175.288 89.1152 175.288ZM89.1152 173.824C89.8032 173.824 90.4112 173.632 90.9392 173.248C91.4832 172.864 91.9072 172.32 92.2112 171.616C92.5152 170.912 92.6672 170.104 92.6672 169.192C92.6672 168.28 92.5152 167.472 92.2112 166.768C91.9072 166.064 91.4832 165.52 90.9392 165.136C90.4112 164.736 89.8032 164.536 89.1152 164.536C88.4272 164.536 87.8112 164.736 87.2672 165.136C86.7392 165.52 86.3232 166.064 86.0192 166.768C85.7312 167.472 85.5872 168.28 85.5872 169.192C85.5872 170.584 85.9152 171.704 86.5712 172.552C87.2272 173.4 88.0752 173.824 89.1152 173.824ZM103.685 159.016C102.565 159.016 102.005 159.8 102.005 161.368V163.36H104.525V164.8H102.005V175H100.253V164.8H98.6692V163.48L100.253 163.36V161.344C100.253 160.144 100.525 159.216 101.069 158.56C101.629 157.904 102.453 157.576 103.541 157.576C104.165 157.576 104.789 157.704 105.413 157.96L105.029 159.304C104.581 159.112 104.133 159.016 103.685 159.016ZM119.774 175.288C118.574 175.288 117.686 174.912 117.11 174.16C116.534 173.392 116.246 172.256 116.246 170.752V163.36H117.974V170.536C117.974 171.656 118.158 172.48 118.526 173.008C118.894 173.52 119.486 173.776 120.302 173.776C120.894 173.776 121.43 173.616 121.91 173.296C122.406 172.976 122.958 172.448 123.566 171.712V163.36H125.318V175H123.854L123.71 173.152H123.638C123.046 173.84 122.438 174.368 121.814 174.736C121.206 175.104 120.526 175.288 119.774 175.288ZM134.751 175.288C133.951 175.288 133.175 175.144 132.423 174.856C131.671 174.552 131.007 174.16 130.431 173.68L131.319 172.504C131.895 172.968 132.455 173.32 132.999 173.56C133.543 173.8 134.151 173.92 134.823 173.92C135.591 173.92 136.183 173.736 136.599 173.368C137.015 173 137.223 172.536 137.223 171.976C137.223 171.416 136.983 170.968 136.503 170.632C136.039 170.296 135.375 169.976 134.511 169.672C133.407 169.272 132.543 168.84 131.919 168.376C131.295 167.896 130.983 167.216 130.983 166.336C130.983 165.392 131.335 164.616 132.039 164.008C132.759 163.384 133.727 163.072 134.943 163.072C135.599 163.072 136.231 163.192 136.839 163.432C137.447 163.672 137.991 163.984 138.471 164.368L137.631 165.496C137.167 165.16 136.727 164.904 136.311 164.728C135.895 164.552 135.439 164.464 134.943 164.464C134.207 164.464 133.647 164.64 133.263 164.992C132.879 165.328 132.687 165.744 132.687 166.24C132.687 166.592 132.799 166.896 133.023 167.152C133.263 167.408 133.551 167.616 133.887 167.776C134.223 167.92 134.695 168.112 135.303 168.352C136.119 168.656 136.759 168.928 137.223 169.168C137.687 169.408 138.087 169.752 138.423 170.2C138.759 170.632 138.927 171.192 138.927 171.88C138.927 172.504 138.759 173.08 138.423 173.608C138.103 174.12 137.623 174.528 136.983 174.832C136.359 175.136 135.615 175.288 134.751 175.288ZM153.04 168.52C153.04 168.936 153.016 169.288 152.968 169.576H144.928C145.008 170.936 145.424 171.992 146.176 172.744C146.944 173.496 147.88 173.872 148.984 173.872C150.008 173.872 150.992 173.56 151.936 172.936L152.584 174.088C152.008 174.456 151.416 174.752 150.808 174.976C150.2 175.184 149.52 175.288 148.768 175.288C147.744 175.288 146.808 175.048 145.96 174.568C145.128 174.072 144.464 173.36 143.968 172.432C143.488 171.504 143.248 170.424 143.248 169.192C143.248 167.976 143.488 166.904 143.968 165.976C144.464 165.048 145.112 164.336 145.912 163.84C146.712 163.328 147.56 163.072 148.456 163.072C149.896 163.072 151.016 163.56 151.816 164.536C152.632 165.496 153.04 166.824 153.04 168.52ZM151.48 168.304C151.48 167.072 151.216 166.128 150.688 165.472C150.16 164.816 149.424 164.488 148.48 164.488C147.616 164.488 146.848 164.816 146.176 165.472C145.504 166.128 145.104 167.072 144.976 168.304H151.48ZM158.372 163.36H159.812L159.956 165.496H160.028C160.428 164.744 160.916 164.152 161.492 163.72C162.068 163.288 162.684 163.072 163.34 163.072C163.804 163.072 164.204 163.152 164.54 163.312L164.204 164.848C163.788 164.72 163.42 164.656 163.1 164.656C162.556 164.656 162.012 164.88 161.468 165.328C160.94 165.776 160.484 166.472 160.1 167.416V175H158.372V163.36ZM171.834 175.288C171.034 175.288 170.258 175.144 169.506 174.856C168.754 174.552 168.09 174.16 167.514 173.68L168.402 172.504C168.978 172.968 169.538 173.32 170.082 173.56C170.626 173.8 171.234 173.92 171.906 173.92C172.674 173.92 173.266 173.736 173.682 173.368C174.098 173 174.306 172.536 174.306 171.976C174.306 171.416 174.066 170.968 173.586 170.632C173.122 170.296 172.458 169.976 171.594 169.672C170.49 169.272 169.626 168.84 169.002 168.376C168.378 167.896 168.066 167.216 168.066 166.336C168.066 165.392 168.418 164.616 169.122 164.008C169.842 163.384 170.81 163.072 172.026 163.072C172.682 163.072 173.314 163.192 173.922 163.432C174.53 163.672 175.074 163.984 175.554 164.368L174.714 165.496C174.25 165.16 173.81 164.904 173.394 164.728C172.978 164.552 172.522 164.464 172.026 164.464C171.29 164.464 170.73 164.64 170.346 164.992C169.962 165.328 169.77 165.744 169.77 166.24C169.77 166.592 169.882 166.896 170.106 167.152C170.346 167.408 170.634 167.616 170.97 167.776C171.306 167.92 171.778 168.112 172.386 168.352C173.202 168.656 173.842 168.928 174.306 169.168C174.77 169.408 175.17 169.752 175.506 170.2C175.842 170.632 176.01 171.192 176.01 171.88C176.01 172.504 175.842 173.08 175.506 173.608C175.186 174.12 174.706 174.528 174.066 174.832C173.442 175.136 172.698 175.288 171.834 175.288ZM191.087 175.288C190.095 175.288 189.279 175 188.639 174.424C187.999 173.848 187.679 173.04 187.679 172C187.679 170.736 188.255 169.768 189.407 169.096C190.559 168.408 192.399 167.928 194.927 167.656C194.927 166.744 194.735 166 194.351 165.424C193.983 164.832 193.343 164.536 192.431 164.536C191.327 164.536 190.151 164.96 188.903 165.808L188.207 164.608C189.743 163.584 191.247 163.072 192.719 163.072C194.063 163.072 195.055 163.496 195.695 164.344C196.335 165.176 196.655 166.328 196.655 167.8V175H195.215L195.071 173.584H194.999C193.623 174.72 192.319 175.288 191.087 175.288ZM191.543 173.872C192.103 173.872 192.647 173.744 193.175 173.488C193.719 173.216 194.303 172.8 194.927 172.24V168.832C192.927 169.072 191.503 169.44 190.655 169.936C189.823 170.432 189.407 171.088 189.407 171.904C189.407 172.56 189.607 173.056 190.007 173.392C190.407 173.712 190.919 173.872 191.543 173.872ZM202.87 163.36H204.31L204.454 165.496H204.526C204.926 164.744 205.414 164.152 205.99 163.72C206.566 163.288 207.182 163.072 207.838 163.072C208.302 163.072 208.702 163.152 209.038 163.312L208.702 164.848C208.286 164.72 207.918 164.656 207.598 164.656C207.054 164.656 206.51 164.88 205.966 165.328C205.438 165.776 204.982 166.472 204.598 167.416V175H202.87V163.36ZM222.072 168.52C222.072 168.936 222.048 169.288 222 169.576H213.96C214.04 170.936 214.456 171.992 215.208 172.744C215.976 173.496 216.912 173.872 218.016 173.872C219.04 173.872 220.024 173.56 220.968 172.936L221.616 174.088C221.04 174.456 220.448 174.752 219.84 174.976C219.232 175.184 218.552 175.288 217.8 175.288C216.776 175.288 215.84 175.048 214.992 174.568C214.16 174.072 213.496 173.36 213 172.432C212.52 171.504 212.28 170.424 212.28 169.192C212.28 167.976 212.52 166.904 213 165.976C213.496 165.048 214.144 164.336 214.944 163.84C215.744 163.328 216.592 163.072 217.488 163.072C218.928 163.072 220.048 163.56 220.848 164.536C221.664 165.496 222.072 166.824 222.072 168.52ZM220.512 168.304C220.512 167.072 220.248 166.128 219.72 165.472C219.192 164.816 218.456 164.488 217.512 164.488C216.648 164.488 215.88 164.816 215.208 165.472C214.536 166.128 214.136 167.072 214.008 168.304H220.512ZM63.8328 191.432C62.9048 191.432 62.4408 192.032 62.4408 193.232V194.12H64.6248V196.712H62.4408V206H59.1528V196.712H57.5688V194.264L59.1528 194.144V193.304C59.1528 191.96 59.4888 190.88 60.1608 190.064C60.8488 189.248 61.9208 188.84 63.3768 188.84C64.2088 188.84 64.9768 188.984 65.6808 189.272L65.0808 191.696C64.6488 191.52 64.2328 191.432 63.8328 191.432ZM68.9929 194.12H71.6569L71.8969 196.208H71.9929C72.4089 195.44 72.9129 194.856 73.5049 194.456C74.1129 194.04 74.7289 193.832 75.3529 193.832C75.9129 193.832 76.3769 193.912 76.7449 194.072L76.1929 196.904C76.1449 196.888 76.0009 196.856 75.7609 196.808C75.5209 196.744 75.2489 196.712 74.9449 196.712C74.4329 196.712 73.9369 196.896 73.4569 197.264C72.9769 197.632 72.5769 198.208 72.2569 198.992V206H68.9929V194.12ZM84.2965 206.288C83.0485 206.288 82.1205 205.88 81.5125 205.064C80.9205 204.232 80.6245 203.048 80.6245 201.512V194.12H83.8885V201.104C83.8885 201.968 84.0165 202.584 84.2725 202.952C84.5285 203.304 84.9365 203.48 85.4965 203.48C85.9605 203.48 86.3525 203.376 86.6725 203.168C87.0085 202.944 87.3765 202.576 87.7765 202.064V194.12H91.0405V206H88.3765L88.1365 204.32H88.0405C87.4965 204.96 86.9285 205.448 86.3365 205.784C85.7445 206.12 85.0645 206.288 84.2965 206.288ZM100.147 206.288C99.3788 206.288 98.5788 206.136 97.7468 205.832C96.9308 205.528 96.2188 205.128 95.6108 204.632L97.0988 202.568C97.6588 203 98.1868 203.32 98.6828 203.528C99.1948 203.736 99.7148 203.84 100.243 203.84C100.787 203.84 101.195 203.744 101.467 203.552C101.739 203.344 101.875 203.056 101.875 202.688C101.875 202.432 101.763 202.208 101.539 202.016C101.331 201.824 101.027 201.648 100.627 201.488C100.227 201.312 99.8268 201.144 99.4268 200.984C98.4828 200.616 97.7068 200.168 97.0988 199.64C96.5068 199.096 96.2108 198.384 96.2108 197.504C96.2108 196.416 96.6188 195.536 97.4348 194.864C98.2508 194.176 99.3308 193.832 100.675 193.832C102.147 193.832 103.515 194.328 104.779 195.32L103.315 197.288C102.371 196.616 101.523 196.28 100.771 196.28C100.275 196.28 99.8988 196.376 99.6428 196.568C99.4028 196.76 99.2828 197.016 99.2828 197.336C99.2828 197.656 99.4428 197.92 99.7628 198.128C100.083 198.32 100.451 198.488 100.867 198.632C101.283 198.776 101.555 198.872 101.683 198.92C102.691 199.288 103.483 199.736 104.059 200.264C104.651 200.776 104.947 201.52 104.947 202.496C104.947 203.216 104.755 203.864 104.371 204.44C104.003 205 103.459 205.448 102.739 205.784C102.019 206.12 101.155 206.288 100.147 206.288ZM113.844 206.288C112.468 206.288 111.46 205.896 110.82 205.112C110.18 204.312 109.86 203.2 109.86 201.776V196.712H108.204V194.264L110.028 194.12L110.412 190.952H113.124V194.12H116.028V196.712H113.124V201.752C113.124 203.048 113.652 203.696 114.708 203.696C115.044 203.696 115.436 203.616 115.884 203.456L116.412 205.856C115.548 206.144 114.692 206.288 113.844 206.288ZM120.827 194.12H123.491L123.731 196.208H123.827C124.243 195.44 124.747 194.856 125.339 194.456C125.947 194.04 126.563 193.832 127.187 193.832C127.747 193.832 128.211 193.912 128.579 194.072L128.027 196.904C127.979 196.888 127.835 196.856 127.595 196.808C127.355 196.744 127.083 196.712 126.779 196.712C126.267 196.712 125.771 196.896 125.291 197.264C124.811 197.632 124.411 198.208 124.091 198.992V206H120.827V194.12ZM134.851 206.288C133.795 206.288 132.939 205.952 132.283 205.28C131.643 204.608 131.323 203.76 131.323 202.736C131.323 201.472 131.859 200.496 132.931 199.808C134.003 199.104 135.723 198.624 138.091 198.368C138.043 197.088 137.387 196.448 136.123 196.448C135.627 196.448 135.123 196.544 134.611 196.736C134.099 196.928 133.539 197.2 132.931 197.552L131.755 195.392C133.435 194.352 135.099 193.832 136.747 193.832C138.267 193.832 139.419 194.28 140.203 195.176C140.987 196.056 141.379 197.376 141.379 199.136V206H138.691L138.451 204.752H138.379C137.195 205.776 136.019 206.288 134.851 206.288ZM135.931 203.744C136.331 203.744 136.691 203.656 137.011 203.48C137.347 203.288 137.707 203.008 138.091 202.64V200.36C136.795 200.536 135.867 200.8 135.307 201.152C134.747 201.504 134.467 201.944 134.467 202.472C134.467 202.888 134.595 203.208 134.851 203.432C135.107 203.64 135.467 203.744 135.931 203.744ZM150.903 206.288C149.527 206.288 148.519 205.896 147.879 205.112C147.239 204.312 146.919 203.2 146.919 201.776V196.712H145.263V194.264L147.087 194.12L147.471 190.952H150.183V194.12H153.087V196.712H150.183V201.752C150.183 203.048 150.711 203.696 151.767 203.696C152.103 203.696 152.495 203.616 152.943 203.456L153.471 205.856C152.607 206.144 151.751 206.288 150.903 206.288ZM167.305 199.52C167.305 200.128 167.257 200.624 167.161 201.008H159.817C159.977 201.952 160.361 202.648 160.969 203.096C161.593 203.544 162.313 203.768 163.129 203.768C163.977 203.768 164.857 203.504 165.769 202.976L166.849 204.968C166.257 205.384 165.593 205.712 164.857 205.952C164.137 206.176 163.417 206.288 162.697 206.288C161.577 206.288 160.561 206.04 159.649 205.544C158.753 205.048 158.041 204.328 157.513 203.384C157.001 202.44 156.745 201.336 156.745 200.072C156.745 198.824 157.001 197.728 157.513 196.784C158.041 195.84 158.729 195.112 159.577 194.6C160.425 194.088 161.329 193.832 162.289 193.832C163.905 193.832 165.145 194.36 166.009 195.416C166.873 196.456 167.305 197.824 167.305 199.52ZM164.497 198.824C164.497 198.056 164.321 197.456 163.969 197.024C163.617 196.576 163.081 196.352 162.361 196.352C161.769 196.352 161.241 196.56 160.777 196.976C160.329 197.376 160.025 197.992 159.865 198.824H164.497ZM176.393 206.288C174.905 206.288 173.721 205.736 172.841 204.632C171.977 203.528 171.545 202.008 171.545 200.072C171.545 198.824 171.777 197.728 172.241 196.784C172.705 195.84 173.313 195.112 174.065 194.6C174.833 194.088 175.641 193.832 176.489 193.832C177.113 193.832 177.649 193.936 178.097 194.144C178.545 194.352 179.001 194.672 179.465 195.104L179.345 193.256V189.128H182.633V206H179.945L179.705 204.776H179.633C179.185 205.224 178.673 205.592 178.097 205.88C177.537 206.152 176.969 206.288 176.393 206.288ZM177.233 203.6C177.649 203.6 178.025 203.512 178.361 203.336C178.697 203.144 179.025 202.848 179.345 202.448V197.36C178.737 196.8 178.033 196.52 177.233 196.52C176.577 196.52 176.025 196.824 175.577 197.432C175.129 198.04 174.905 198.904 174.905 200.024C174.905 201.208 175.105 202.104 175.505 202.712C175.905 203.304 176.481 203.6 177.233 203.6ZM194.429 194.12H197.693L198.941 199.832C198.957 199.912 199.077 200.648 199.301 202.04C199.333 202.328 199.397 202.76 199.493 203.336H199.589C199.861 201.784 200.101 200.616 200.309 199.832L201.701 194.12H204.581L205.997 199.832C206.253 200.92 206.469 201.928 206.645 202.856L206.741 203.336H206.837L207.125 201.632C207.157 201.44 207.189 201.192 207.221 200.888C207.269 200.584 207.333 200.232 207.413 199.832L208.637 194.12H211.685L208.781 206H204.941L203.741 200.984C203.437 199.4 203.221 198.248 203.093 197.528H202.997C202.741 199.048 202.525 200.208 202.349 201.008L201.221 206H197.453L194.429 194.12ZM216.284 194.12H219.548V206H216.284V194.12ZM217.916 192.272C217.372 192.272 216.924 192.112 216.572 191.792C216.236 191.456 216.068 191.032 216.068 190.52C216.068 190.008 216.236 189.592 216.572 189.272C216.924 188.936 217.372 188.768 217.916 188.768C218.46 188.768 218.9 188.936 219.236 189.272C219.588 189.592 219.764 190.008 219.764 190.52C219.764 191.032 219.588 191.456 219.236 191.792C218.9 192.112 218.46 192.272 217.916 192.272ZM229.663 206.288C228.287 206.288 227.279 205.896 226.639 205.112C225.999 204.312 225.679 203.2 225.679 201.776V196.712H224.023V194.264L225.847 194.12L226.231 190.952H228.943V194.12H231.847V196.712H228.943V201.752C228.943 203.048 229.471 203.696 230.527 203.696C230.863 203.696 231.255 203.616 231.703 203.456L232.231 205.856C231.367 206.144 230.511 206.288 229.663 206.288ZM236.646 189.128H239.91V193.328L239.766 195.536C240.326 195.008 240.902 194.592 241.494 194.288C242.086 193.984 242.75 193.832 243.486 193.832C244.734 193.832 245.654 194.248 246.246 195.08C246.854 195.896 247.158 197.072 247.158 198.608V206H243.87V199.016C243.87 198.136 243.742 197.52 243.486 197.168C243.246 196.816 242.846 196.64 242.286 196.64C241.838 196.64 241.446 196.736 241.11 196.928C240.774 197.12 240.374 197.44 239.91 197.888V206H236.646V189.128ZM79.955 237.288C78.931 237.288 77.979 237.04 77.099 236.544C76.235 236.048 75.539 235.328 75.011 234.384C74.483 233.44 74.219 232.336 74.219 231.072C74.219 229.792 74.483 228.68 75.011 227.736C75.539 226.792 76.235 226.072 77.099 225.576C77.979 225.08 78.931 224.832 79.955 224.832C80.963 224.832 81.907 225.08 82.787 225.576C83.667 226.072 84.371 226.8 84.899 227.76C85.427 228.704 85.691 229.808 85.691 231.072C85.691 232.336 85.427 233.44 84.899 234.384C84.371 235.328 83.667 236.048 82.787 236.544C81.907 237.04 80.963 237.288 79.955 237.288ZM79.955 234.624C80.707 234.624 81.291 234.312 81.707 233.688C82.123 233.048 82.331 232.176 82.331 231.072C82.331 229.968 82.123 229.096 81.707 228.456C81.291 227.816 80.707 227.496 79.955 227.496C79.187 227.496 78.595 227.816 78.179 228.456C77.779 229.096 77.579 229.968 77.579 231.072C77.579 232.176 77.779 233.048 78.179 233.688C78.595 234.312 79.187 234.624 79.955 234.624ZM90.6047 225.12H93.2687L93.5087 227.208H93.6047C94.0207 226.44 94.5247 225.856 95.1167 225.456C95.7247 225.04 96.3407 224.832 96.9647 224.832C97.5247 224.832 97.9887 224.912 98.3567 225.072L97.8047 227.904C97.7567 227.888 97.6127 227.856 97.3727 227.808C97.1327 227.744 96.8607 227.712 96.5567 227.712C96.0447 227.712 95.5487 227.896 95.0687 228.264C94.5887 228.632 94.1887 229.208 93.8687 229.992V237H90.6047V225.12ZM106.298 242.112C104.826 242.112 103.626 241.856 102.698 241.344C101.786 240.832 101.33 240.08 101.33 239.088C101.33 238.096 101.898 237.28 103.034 236.64V236.544C102.314 236.08 101.954 235.408 101.954 234.528C101.954 234.112 102.074 233.704 102.314 233.304C102.57 232.904 102.89 232.576 103.274 232.32V232.224C102.81 231.904 102.426 231.472 102.122 230.928C101.834 230.384 101.69 229.784 101.69 229.128C101.69 228.232 101.906 227.464 102.338 226.824C102.786 226.168 103.378 225.672 104.114 225.336C104.85 225 105.65 224.832 106.514 224.832C107.122 224.832 107.73 224.928 108.338 225.12H112.634V227.52H110.642C110.786 227.712 110.906 227.968 111.002 228.288C111.098 228.592 111.146 228.904 111.146 229.224C111.146 230.52 110.714 231.512 109.85 232.2C108.986 232.888 107.874 233.232 106.514 233.232C106.018 233.232 105.522 233.152 105.026 232.992C104.866 233.136 104.746 233.28 104.666 233.424C104.586 233.552 104.546 233.728 104.546 233.952C104.546 234.256 104.682 234.488 104.954 234.648C105.242 234.808 105.714 234.888 106.37 234.888H108.362C109.834 234.888 110.946 235.128 111.698 235.608C112.45 236.088 112.826 236.848 112.826 237.888C112.826 238.688 112.554 239.408 112.01 240.048C111.482 240.704 110.722 241.208 109.73 241.56C108.754 241.928 107.61 242.112 106.298 242.112ZM106.514 231.24C107.042 231.24 107.466 231.056 107.786 230.688C108.122 230.32 108.29 229.8 108.29 229.128C108.29 228.472 108.122 227.968 107.786 227.616C107.466 227.248 107.042 227.064 106.514 227.064C105.986 227.064 105.562 227.248 105.242 227.616C104.922 227.968 104.762 228.472 104.762 229.128C104.762 229.784 104.922 230.304 105.242 230.688C105.578 231.056 106.002 231.24 106.514 231.24ZM106.802 240.048C107.634 240.048 108.322 239.888 108.866 239.568C109.41 239.264 109.682 238.888 109.682 238.44C109.682 238.056 109.53 237.792 109.226 237.648C108.922 237.504 108.442 237.432 107.786 237.432H106.418C105.714 237.432 105.17 237.376 104.786 237.264C104.29 237.664 104.042 238.096 104.042 238.56C104.042 239.04 104.29 239.408 104.786 239.664C105.282 239.92 105.954 240.048 106.802 240.048ZM119.732 237.288C118.676 237.288 117.82 236.952 117.164 236.28C116.524 235.608 116.204 234.76 116.204 233.736C116.204 232.472 116.74 231.496 117.812 230.808C118.884 230.104 120.604 229.624 122.972 229.368C122.924 228.088 122.268 227.448 121.004 227.448C120.508 227.448 120.004 227.544 119.492 227.736C118.98 227.928 118.42 228.2 117.812 228.552L116.636 226.392C118.316 225.352 119.98 224.832 121.628 224.832C123.148 224.832 124.3 225.28 125.084 226.176C125.868 227.056 126.26 228.376 126.26 230.136V237H123.572L123.332 235.752H123.26C122.076 236.776 120.9 237.288 119.732 237.288ZM120.812 234.744C121.212 234.744 121.572 234.656 121.892 234.48C122.228 234.288 122.588 234.008 122.972 233.64V231.36C121.676 231.536 120.748 231.8 120.188 232.152C119.628 232.504 119.348 232.944 119.348 233.472C119.348 233.888 119.476 234.208 119.732 234.432C119.988 234.64 120.348 234.744 120.812 234.744ZM131.766 225.12H134.43L134.67 226.656H134.766C135.342 226.096 135.934 225.656 136.542 225.336C137.166 225 137.854 224.832 138.606 224.832C139.854 224.832 140.774 225.248 141.366 226.08C141.974 226.896 142.278 228.072 142.278 229.608V237H138.99V230.016C138.99 229.136 138.862 228.52 138.606 228.168C138.366 227.816 137.966 227.64 137.406 227.64C136.958 227.64 136.566 227.736 136.23 227.928C135.894 228.12 135.494 228.44 135.03 228.888V237H131.766V225.12ZM147.806 225.12H151.07V237H147.806V225.12ZM149.438 223.272C148.894 223.272 148.446 223.112 148.094 222.792C147.758 222.456 147.59 222.032 147.59 221.52C147.59 221.008 147.758 220.592 148.094 220.272C148.446 219.936 148.894 219.768 149.438 219.768C149.982 219.768 150.422 219.936 150.758 220.272C151.11 220.592 151.286 221.008 151.286 221.52C151.286 222.032 151.11 222.456 150.758 222.792C150.422 223.112 149.982 223.272 149.438 223.272ZM156.001 235.248L161.185 227.712H156.577V225.12H165.265V226.872L160.081 234.408H165.433V237H156.001V235.248ZM172.644 237.288C171.588 237.288 170.732 236.952 170.076 236.28C169.436 235.608 169.116 234.76 169.116 233.736C169.116 232.472 169.652 231.496 170.724 230.808C171.796 230.104 173.516 229.624 175.884 229.368C175.836 228.088 175.18 227.448 173.916 227.448C173.42 227.448 172.916 227.544 172.404 227.736C171.892 227.928 171.332 228.2 170.724 228.552L169.548 226.392C171.228 225.352 172.892 224.832 174.54 224.832C176.06 224.832 177.212 225.28 177.996 226.176C178.78 227.056 179.172 228.376 179.172 230.136V237H176.484L176.244 235.752H176.172C174.988 236.776 173.812 237.288 172.644 237.288ZM173.724 234.744C174.124 234.744 174.484 234.656 174.804 234.48C175.14 234.288 175.5 234.008 175.884 233.64V231.36C174.588 231.536 173.66 231.8 173.1 232.152C172.54 232.504 172.26 232.944 172.26 233.472C172.26 233.888 172.388 234.208 172.644 234.432C172.9 234.64 173.26 234.744 173.724 234.744ZM188.696 237.288C187.32 237.288 186.312 236.896 185.672 236.112C185.032 235.312 184.712 234.2 184.712 232.776V227.712H183.056V225.264L184.88 225.12L185.264 221.952H187.976V225.12H190.88V227.712H187.976V232.752C187.976 234.048 188.504 234.696 189.56 234.696C189.896 234.696 190.288 234.616 190.736 234.456L191.264 236.856C190.4 237.144 189.544 237.288 188.696 237.288ZM195.68 225.12H198.944V237H195.68V225.12ZM197.312 223.272C196.768 223.272 196.32 223.112 195.968 222.792C195.632 222.456 195.464 222.032 195.464 221.52C195.464 221.008 195.632 220.592 195.968 220.272C196.32 219.936 196.768 219.768 197.312 219.768C197.856 219.768 198.296 219.936 198.632 220.272C198.984 220.592 199.16 221.008 199.16 221.52C199.16 222.032 198.984 222.456 198.632 222.792C198.296 223.112 197.856 223.272 197.312 223.272ZM209.635 237.288C208.611 237.288 207.659 237.04 206.779 236.544C205.915 236.048 205.219 235.328 204.691 234.384C204.163 233.44 203.899 232.336 203.899 231.072C203.899 229.792 204.163 228.68 204.691 227.736C205.219 226.792 205.915 226.072 206.779 225.576C207.659 225.08 208.611 224.832 209.635 224.832C210.643 224.832 211.587 225.08 212.467 225.576C213.347 226.072 214.051 226.8 214.579 227.76C215.107 228.704 215.371 229.808 215.371 231.072C215.371 232.336 215.107 233.44 214.579 234.384C214.051 235.328 213.347 236.048 212.467 236.544C211.587 237.04 210.643 237.288 209.635 237.288ZM209.635 234.624C210.387 234.624 210.971 234.312 211.387 233.688C211.803 233.048 212.011 232.176 212.011 231.072C212.011 229.968 211.803 229.096 211.387 228.456C210.971 227.816 210.387 227.496 209.635 227.496C208.867 227.496 208.275 227.816 207.859 228.456C207.459 229.096 207.259 229.968 207.259 231.072C207.259 232.176 207.459 233.048 207.859 233.688C208.275 234.312 208.867 234.624 209.635 234.624ZM220.284 225.12H222.948L223.188 226.656H223.284C223.86 226.096 224.452 225.656 225.06 225.336C225.684 225 226.372 224.832 227.124 224.832C228.372 224.832 229.292 225.248 229.884 226.08C230.492 226.896 230.796 228.072 230.796 229.608V237H227.508V230.016C227.508 229.136 227.38 228.52 227.124 228.168C226.884 227.816 226.484 227.64 225.924 227.64C225.476 227.64 225.084 227.736 224.748 227.928C224.412 228.12 224.012 228.44 223.548 228.888V237H220.284V225.12Z" fill="black"/>
<path d="M102.225 116.776H94.2566V133H85.1366V116.776H57.9686V110.248L83.0246 71.848H94.2566V109.192H102.225V116.776ZM85.1366 109.192V93.64C85.1366 91.016 85.2966 86.92 85.6166 81.352H85.2326C84.9766 81.8 83.9206 83.752 82.0646 87.208C81.8086 87.592 81.5206 88.072 81.2006 88.648C80.9446 89.16 80.6246 89.768 80.2406 90.472L67.7606 109.192H85.1366ZM137.251 134.152C132.707 134.152 128.771 133.384 125.443 131.848C122.179 130.312 119.267 128.264 116.707 125.704L121.315 119.464C123.427 121.512 125.667 123.144 128.035 124.36C130.403 125.576 133.091 126.184 136.099 126.184C139.747 126.184 142.723 125.032 145.027 122.728C147.395 120.424 148.579 117.352 148.579 113.512C148.579 109.672 147.491 106.664 145.315 104.488C143.139 102.312 140.227 101.224 136.579 101.224C134.659 101.224 132.995 101.512 131.587 102.088C130.179 102.6 128.483 103.496 126.499 104.776L121.699 101.704L123.619 71.848H155.395V80.104H132.067L130.627 96.328C133.379 94.856 136.259 94.12 139.267 94.12C144.835 94.12 149.411 95.752 152.995 99.016C156.579 102.216 158.371 106.952 158.371 113.224C158.371 117.512 157.379 121.256 155.395 124.456C153.475 127.592 150.915 129.992 147.715 131.656C144.515 133.32 141.027 134.152 137.251 134.152ZM190.326 107.752C185.91 107.752 182.358 105.992 179.67 102.472C176.982 98.952 175.638 94.056 175.638 87.784C175.638 81.576 176.982 76.744 179.67 73.288C182.358 69.768 185.91 68.008 190.326 68.008C194.742 68.008 198.294 69.768 200.982 73.288C203.67 76.744 205.014 81.576 205.014 87.784C205.014 94.056 203.67 98.952 200.982 102.472C198.294 105.992 194.742 107.752 190.326 107.752ZM226.422 68.968H232.566L198.102 134.152H191.958L226.422 68.968ZM190.326 101.992C192.63 101.992 194.454 100.808 195.798 98.44C197.206 96.008 197.91 92.456 197.91 87.784C197.91 83.112 197.206 79.624 195.798 77.32C194.454 74.952 192.63 73.768 190.326 73.768C188.022 73.768 186.166 74.952 184.758 77.32C183.414 79.624 182.742 83.112 182.742 87.784C182.742 92.456 183.414 96.008 184.758 98.44C186.166 100.808 188.022 101.992 190.326 101.992ZM234.39 134.152C229.974 134.152 226.422 132.392 223.734 128.872C221.046 125.352 219.702 120.456 219.702 114.184C219.702 107.976 221.046 103.144 223.734 99.688C226.422 96.168 229.974 94.408 234.39 94.408C238.806 94.408 242.358 96.168 245.046 99.688C247.734 103.144 249.078 107.976 249.078 114.184C249.078 120.456 247.734 125.352 245.046 128.872C242.358 132.392 238.806 134.152 234.39 134.152ZM234.39 128.392C236.694 128.392 238.518 127.208 239.862 124.84C241.27 122.408 241.974 118.856 241.974 114.184C241.974 109.512 241.27 106.024 239.862 103.72C238.518 101.352 236.694 100.168 234.39 100.168C232.086 100.168 230.23 101.352 228.822 103.72C227.478 106.024 226.806 109.512 226.806 114.184C226.806 118.856 227.478 122.408 228.822 124.84C230.23 127.208 232.086 128.392 234.39 128.392Z" fill="black"/>
</svg>
