<svg width="300" height="300" viewBox="0 0 300 300" fill="none" xmlns="http://www.w3.org/2000/svg">
<circle cx="150" cy="150" r="147.5" stroke="#ED7727" stroke-width="5"/>
<path d="M88.2573 175.288C87.2973 175.288 86.4093 175.048 85.5933 174.568C84.7773 174.072 84.1213 173.368 83.6253 172.456C83.1453 171.528 82.9053 170.44 82.9053 169.192C82.9053 167.944 83.1453 166.856 83.6253 165.928C84.1213 165 84.7773 164.296 85.5933 163.816C86.4093 163.32 87.2973 163.072 88.2573 163.072C89.2173 163.072 90.1053 163.32 90.9213 163.816C91.7373 164.296 92.3853 165 92.8653 165.928C93.3613 166.856 93.6093 167.944 93.6093 169.192C93.6093 170.44 93.3613 171.528 92.8653 172.456C92.3853 173.368 91.7373 174.072 90.9213 174.568C90.1053 175.048 89.2173 175.288 88.2573 175.288ZM88.2573 173.824C88.9453 173.824 89.5533 173.632 90.0813 173.248C90.6253 172.864 91.0493 172.32 91.3533 171.616C91.6573 170.912 91.8093 170.104 91.8093 169.192C91.8093 168.28 91.6573 167.472 91.3533 166.768C91.0493 166.064 90.6253 165.52 90.0813 165.136C89.5533 164.736 88.9453 164.536 88.2573 164.536C87.5693 164.536 86.9533 164.736 86.4093 165.136C85.8813 165.52 85.4653 166.064 85.1613 166.768C84.8733 167.472 84.7293 168.28 84.7293 169.192C84.7293 170.584 85.0573 171.704 85.7133 172.552C86.3693 173.4 87.2173 173.824 88.2573 173.824ZM100.427 159.016C99.3074 159.016 98.7474 159.8 98.7474 161.368V163.36H101.267V164.8H98.7474V175H96.9954V164.8H95.4114V163.48L96.9954 163.36V161.344C96.9954 160.144 97.2674 159.216 97.8114 158.56C98.3714 157.904 99.1954 157.576 100.283 157.576C100.907 157.576 101.531 157.704 102.155 157.96L101.771 159.304C101.323 159.112 100.875 159.016 100.427 159.016ZM111.716 175.288C110.516 175.288 109.628 174.912 109.052 174.16C108.476 173.392 108.188 172.256 108.188 170.752V163.36H109.916V170.536C109.916 171.656 110.1 172.48 110.468 173.008C110.836 173.52 111.428 173.776 112.244 173.776C112.836 173.776 113.372 173.616 113.852 173.296C114.348 172.976 114.9 172.448 115.508 171.712V163.36H117.26V175H115.796L115.652 173.152H115.58C114.988 173.84 114.38 174.368 113.756 174.736C113.148 175.104 112.468 175.288 111.716 175.288ZM124.293 175.288C123.493 175.288 122.717 175.144 121.965 174.856C121.213 174.552 120.549 174.16 119.973 173.68L120.861 172.504C121.437 172.968 121.997 173.32 122.541 173.56C123.085 173.8 123.693 173.92 124.365 173.92C125.133 173.92 125.725 173.736 126.141 173.368C126.557 173 126.765 172.536 126.765 171.976C126.765 171.416 126.525 170.968 126.045 170.632C125.581 170.296 124.917 169.976 124.053 169.672C122.949 169.272 122.085 168.84 121.461 168.376C120.837 167.896 120.525 167.216 120.525 166.336C120.525 165.392 120.877 164.616 121.581 164.008C122.301 163.384 123.269 163.072 124.485 163.072C125.141 163.072 125.773 163.192 126.381 163.432C126.989 163.672 127.533 163.984 128.013 164.368L127.173 165.496C126.709 165.16 126.269 164.904 125.853 164.728C125.437 164.552 124.981 164.464 124.485 164.464C123.749 164.464 123.189 164.64 122.805 164.992C122.421 165.328 122.229 165.744 122.229 166.24C122.229 166.592 122.341 166.896 122.565 167.152C122.805 167.408 123.093 167.616 123.429 167.776C123.765 167.92 124.237 168.112 124.845 168.352C125.661 168.656 126.301 168.928 126.765 169.168C127.229 169.408 127.629 169.752 127.965 170.2C128.301 170.632 128.469 171.192 128.469 171.88C128.469 172.504 128.301 173.08 127.965 173.608C127.645 174.12 127.165 174.528 126.525 174.832C125.901 175.136 125.157 175.288 124.293 175.288ZM140.182 168.52C140.182 168.936 140.158 169.288 140.11 169.576H132.07C132.15 170.936 132.566 171.992 133.318 172.744C134.086 173.496 135.022 173.872 136.126 173.872C137.15 173.872 138.134 173.56 139.078 172.936L139.726 174.088C139.15 174.456 138.558 174.752 137.95 174.976C137.342 175.184 136.662 175.288 135.91 175.288C134.886 175.288 133.95 175.048 133.102 174.568C132.27 174.072 131.606 173.36 131.11 172.432C130.63 171.504 130.39 170.424 130.39 169.192C130.39 167.976 130.63 166.904 131.11 165.976C131.606 165.048 132.254 164.336 133.054 163.84C133.854 163.328 134.702 163.072 135.598 163.072C137.038 163.072 138.158 163.56 138.958 164.536C139.774 165.496 140.182 166.824 140.182 168.52ZM138.622 168.304C138.622 167.072 138.358 166.128 137.83 165.472C137.302 164.816 136.566 164.488 135.622 164.488C134.758 164.488 133.99 164.816 133.318 165.472C132.646 166.128 132.246 167.072 132.118 168.304H138.622ZM143.114 163.36H144.554L144.698 165.496H144.77C145.17 164.744 145.658 164.152 146.234 163.72C146.81 163.288 147.426 163.072 148.082 163.072C148.546 163.072 148.946 163.152 149.282 163.312L148.946 164.848C148.53 164.72 148.162 164.656 147.842 164.656C147.298 164.656 146.754 164.88 146.21 165.328C145.682 165.776 145.226 166.472 144.842 167.416V175H143.114V163.36ZM154.176 175.288C153.376 175.288 152.6 175.144 151.848 174.856C151.096 174.552 150.432 174.16 149.856 173.68L150.744 172.504C151.32 172.968 151.88 173.32 152.424 173.56C152.968 173.8 153.576 173.92 154.248 173.92C155.016 173.92 155.608 173.736 156.024 173.368C156.44 173 156.648 172.536 156.648 171.976C156.648 171.416 156.408 170.968 155.928 170.632C155.464 170.296 154.8 169.976 153.936 169.672C152.832 169.272 151.968 168.84 151.344 168.376C150.72 167.896 150.408 167.216 150.408 166.336C150.408 165.392 150.76 164.616 151.464 164.008C152.184 163.384 153.152 163.072 154.368 163.072C155.024 163.072 155.656 163.192 156.264 163.432C156.872 163.672 157.416 163.984 157.896 164.368L157.056 165.496C156.592 165.16 156.152 164.904 155.736 164.728C155.32 164.552 154.864 164.464 154.368 164.464C153.632 164.464 153.072 164.64 152.688 164.992C152.304 165.328 152.112 165.744 152.112 166.24C152.112 166.592 152.224 166.896 152.448 167.152C152.688 167.408 152.976 167.616 153.312 167.776C153.648 167.92 154.12 168.112 154.728 168.352C155.544 168.656 156.184 168.928 156.648 169.168C157.112 169.408 157.512 169.752 157.848 170.2C158.184 170.632 158.352 171.192 158.352 171.88C158.352 172.504 158.184 173.08 157.848 173.608C157.528 174.12 157.048 174.528 156.408 174.832C155.784 175.136 155.04 175.288 154.176 175.288ZM169.685 159.016C168.565 159.016 168.005 159.8 168.005 161.368V163.36H170.525V164.8H168.005V175H166.253V164.8H164.669V163.48L166.253 163.36V161.344C166.253 160.144 166.525 159.216 167.069 158.56C167.629 157.904 168.453 157.576 169.541 157.576C170.165 157.576 170.789 157.704 171.413 157.96L171.029 159.304C170.581 159.112 170.133 159.016 169.685 159.016ZM172.805 163.36H174.533V175H172.805V163.36ZM173.693 160.864C173.341 160.864 173.053 160.752 172.829 160.528C172.605 160.304 172.493 160.008 172.493 159.64C172.493 159.288 172.605 159.008 172.829 158.8C173.053 158.576 173.341 158.464 173.693 158.464C174.045 158.464 174.333 158.576 174.557 158.8C174.781 159.008 174.893 159.288 174.893 159.64C174.893 160.008 174.781 160.304 174.557 160.528C174.333 160.752 174.045 160.864 173.693 160.864ZM178.622 163.36H180.062L180.206 165.088H180.278C180.918 164.448 181.542 163.952 182.15 163.6C182.774 163.248 183.454 163.072 184.19 163.072C185.406 163.072 186.302 163.456 186.878 164.224C187.454 164.976 187.742 166.104 187.742 167.608V175H185.99V167.824C185.99 166.704 185.806 165.888 185.438 165.376C185.086 164.864 184.502 164.608 183.686 164.608C183.11 164.608 182.574 164.76 182.078 165.064C181.582 165.352 181.006 165.824 180.35 166.48V175H178.622V163.36ZM195.565 175.288C194.093 175.288 192.925 174.752 192.061 173.68C191.213 172.608 190.789 171.112 190.789 169.192C190.789 167.976 191.021 166.904 191.485 165.976C191.949 165.048 192.565 164.336 193.333 163.84C194.117 163.328 194.957 163.072 195.853 163.072C196.477 163.072 197.037 163.184 197.533 163.408C198.029 163.632 198.573 163.976 199.165 164.44L199.093 162.424V157.864H200.821V175H199.381L199.237 173.584H199.165C198.669 174.096 198.109 174.512 197.485 174.832C196.877 175.136 196.237 175.288 195.565 175.288ZM195.949 173.8C196.509 173.8 197.037 173.664 197.533 173.392C198.045 173.12 198.565 172.704 199.093 172.144V165.832C198.581 165.384 198.085 165.064 197.605 164.872C197.125 164.664 196.629 164.56 196.117 164.56C195.461 164.56 194.861 164.76 194.317 165.16C193.789 165.56 193.365 166.112 193.045 166.816C192.741 167.52 192.589 168.312 192.589 169.192C192.589 170.632 192.877 171.76 193.453 172.576C194.045 173.392 194.877 173.8 195.949 173.8ZM209.7 163.36H211.428V175H209.7V163.36ZM210.588 160.864C210.236 160.864 209.948 160.752 209.724 160.528C209.5 160.304 209.388 160.008 209.388 159.64C209.388 159.288 209.5 159.008 209.724 158.8C209.948 158.576 210.236 158.464 210.588 158.464C210.94 158.464 211.228 158.576 211.452 158.8C211.676 159.008 211.788 159.288 211.788 159.64C211.788 160.008 211.676 160.304 211.452 160.528C211.228 160.752 210.94 160.864 210.588 160.864ZM219.041 175.288C217.889 175.288 217.065 174.96 216.569 174.304C216.073 173.648 215.825 172.712 215.825 171.496V164.8H214.073V163.48L215.897 163.36L216.113 160.072H217.577V163.36H220.769V164.8H217.577V171.544C217.577 172.312 217.713 172.888 217.985 173.272C218.273 173.656 218.753 173.848 219.425 173.848C219.761 173.848 220.209 173.744 220.769 173.536L221.129 174.856C220.265 175.144 219.569 175.288 219.041 175.288ZM86.9564 199.52C86.9564 200.128 86.9084 200.624 86.8124 201.008H79.4684C79.6284 201.952 80.0124 202.648 80.6204 203.096C81.2444 203.544 81.9644 203.768 82.7804 203.768C83.6284 203.768 84.5084 203.504 85.4204 202.976L86.5004 204.968C85.9084 205.384 85.2444 205.712 84.5084 205.952C83.7884 206.176 83.0684 206.288 82.3484 206.288C81.2284 206.288 80.2124 206.04 79.3004 205.544C78.4044 205.048 77.6924 204.328 77.1644 203.384C76.6524 202.44 76.3964 201.336 76.3964 200.072C76.3964 198.824 76.6524 197.728 77.1644 196.784C77.6924 195.84 78.3804 195.112 79.2284 194.6C80.0764 194.088 80.9804 193.832 81.9404 193.832C83.5564 193.832 84.7964 194.36 85.6604 195.416C86.5244 196.456 86.9564 197.824 86.9564 199.52ZM84.1484 198.824C84.1484 198.056 83.9724 197.456 83.6204 197.024C83.2684 196.576 82.7324 196.352 82.0124 196.352C81.4204 196.352 80.8924 196.56 80.4284 196.976C79.9804 197.376 79.6764 197.992 79.5164 198.824H84.1484ZM92.1153 206.288C91.0593 206.288 90.2033 205.952 89.5473 205.28C88.9073 204.608 88.5873 203.76 88.5873 202.736C88.5873 201.472 89.1233 200.496 90.1953 199.808C91.2673 199.104 92.9873 198.624 95.3553 198.368C95.3073 197.088 94.6513 196.448 93.3873 196.448C92.8913 196.448 92.3873 196.544 91.8753 196.736C91.3633 196.928 90.8033 197.2 90.1953 197.552L89.0193 195.392C90.6993 194.352 92.3633 193.832 94.0113 193.832C95.5313 193.832 96.6833 194.28 97.4673 195.176C98.2513 196.056 98.6433 197.376 98.6433 199.136V206H95.9553L95.7153 204.752H95.6433C94.4593 205.776 93.2833 206.288 92.1153 206.288ZM93.1953 203.744C93.5953 203.744 93.9553 203.656 94.2753 203.48C94.6113 203.288 94.9713 203.008 95.3553 202.64V200.36C94.0593 200.536 93.1313 200.8 92.5713 201.152C92.0113 201.504 91.7313 201.944 91.7313 202.472C91.7313 202.888 91.8593 203.208 92.1153 203.432C92.3713 203.64 92.7313 203.744 93.1953 203.744ZM105.181 206.288C104.413 206.288 103.613 206.136 102.781 205.832C101.965 205.528 101.253 205.128 100.645 204.632L102.133 202.568C102.693 203 103.221 203.32 103.717 203.528C104.229 203.736 104.749 203.84 105.277 203.84C105.821 203.84 106.229 203.744 106.501 203.552C106.773 203.344 106.909 203.056 106.909 202.688C106.909 202.432 106.797 202.208 106.573 202.016C106.365 201.824 106.061 201.648 105.661 201.488C105.261 201.312 104.861 201.144 104.461 200.984C103.517 200.616 102.741 200.168 102.133 199.64C101.541 199.096 101.245 198.384 101.245 197.504C101.245 196.416 101.653 195.536 102.469 194.864C103.285 194.176 104.365 193.832 105.709 193.832C107.181 193.832 108.549 194.328 109.813 195.32L108.349 197.288C107.405 196.616 106.557 196.28 105.805 196.28C105.309 196.28 104.933 196.376 104.677 196.568C104.437 196.76 104.317 197.016 104.317 197.336C104.317 197.656 104.477 197.92 104.797 198.128C105.117 198.32 105.485 198.488 105.901 198.632C106.317 198.776 106.589 198.872 106.717 198.92C107.725 199.288 108.517 199.736 109.093 200.264C109.685 200.776 109.981 201.52 109.981 202.496C109.981 203.216 109.789 203.864 109.405 204.44C109.037 205 108.493 205.448 107.773 205.784C107.053 206.12 106.189 206.288 105.181 206.288ZM113.448 210.728C112.872 210.728 112.32 210.648 111.792 210.488L112.392 207.968C112.728 208.08 113 208.136 113.208 208.136C114.264 208.136 114.984 207.56 115.368 206.408L115.56 205.736L110.952 194.12H114.264L116.064 199.472C116.256 200.032 116.48 200.776 116.736 201.704C116.848 202.136 116.952 202.512 117.048 202.832H117.144C117.352 201.92 117.632 200.8 117.984 199.472L119.544 194.12H122.688L118.512 206.264C117.936 207.8 117.272 208.928 116.52 209.648C115.768 210.368 114.744 210.728 113.448 210.728ZM138.65 206.288C137.274 206.288 136.266 205.896 135.626 205.112C134.986 204.312 134.666 203.2 134.666 201.776V196.712H133.01V194.264L134.834 194.12L135.218 190.952H137.93V194.12H140.834V196.712H137.93V201.752C137.93 203.048 138.458 203.696 139.514 203.696C139.85 203.696 140.242 203.616 140.69 203.456L141.218 205.856C140.354 206.144 139.498 206.288 138.65 206.288ZM147.828 206.288C146.804 206.288 145.852 206.04 144.972 205.544C144.108 205.048 143.412 204.328 142.884 203.384C142.356 202.44 142.092 201.336 142.092 200.072C142.092 198.792 142.356 197.68 142.884 196.736C143.412 195.792 144.108 195.072 144.972 194.576C145.852 194.08 146.804 193.832 147.828 193.832C148.836 193.832 149.78 194.08 150.66 194.576C151.54 195.072 152.244 195.8 152.772 196.76C153.3 197.704 153.564 198.808 153.564 200.072C153.564 201.336 153.3 202.44 152.772 203.384C152.244 204.328 151.54 205.048 150.66 205.544C149.78 206.04 148.836 206.288 147.828 206.288ZM147.828 203.624C148.58 203.624 149.164 203.312 149.58 202.688C149.996 202.048 150.204 201.176 150.204 200.072C150.204 198.968 149.996 198.096 149.58 197.456C149.164 196.816 148.58 196.496 147.828 196.496C147.06 196.496 146.468 196.816 146.052 197.456C145.652 198.096 145.452 198.968 145.452 200.072C145.452 201.176 145.652 202.048 146.052 202.688C146.468 203.312 147.06 203.624 147.828 203.624ZM164.434 206.288C163.186 206.288 162.258 205.88 161.65 205.064C161.058 204.232 160.762 203.048 160.762 201.512V194.12H164.026V201.104C164.026 201.968 164.154 202.584 164.41 202.952C164.666 203.304 165.074 203.48 165.634 203.48C166.098 203.48 166.49 203.376 166.81 203.168C167.146 202.944 167.514 202.576 167.914 202.064V194.12H171.178V206H168.514L168.274 204.32H168.178C167.634 204.96 167.066 205.448 166.474 205.784C165.882 206.12 165.202 206.288 164.434 206.288ZM174.452 194.12H177.116L177.356 195.32H177.452C177.948 194.872 178.492 194.512 179.084 194.24C179.692 193.968 180.292 193.832 180.884 193.832C182.324 193.832 183.46 194.376 184.292 195.464C185.124 196.552 185.54 198.024 185.54 199.88C185.54 201.176 185.308 202.312 184.844 203.288C184.38 204.264 183.764 205.008 182.996 205.52C182.228 206.032 181.404 206.288 180.524 206.288C179.516 206.288 178.548 205.864 177.62 205.016L177.716 206.936V210.512H174.452V194.12ZM179.78 203.6C180.484 203.6 181.06 203.288 181.508 202.664C181.956 202.04 182.18 201.12 182.18 199.904C182.18 197.648 181.436 196.52 179.948 196.52C179.212 196.52 178.468 196.904 177.716 197.672V202.76C178.356 203.32 179.044 203.6 179.78 203.6ZM191.188 206.288C190.116 206.288 189.34 205.96 188.86 205.304C188.38 204.648 188.14 203.72 188.14 202.52V189.128H191.404V202.664C191.404 203 191.468 203.248 191.596 203.408C191.724 203.552 191.868 203.624 192.028 203.624C192.188 203.624 192.332 203.608 192.46 203.576L192.868 206.024C192.404 206.2 191.844 206.288 191.188 206.288ZM199.906 206.288C198.882 206.288 197.93 206.04 197.05 205.544C196.186 205.048 195.49 204.328 194.962 203.384C194.434 202.44 194.17 201.336 194.17 200.072C194.17 198.792 194.434 197.68 194.962 196.736C195.49 195.792 196.186 195.072 197.05 194.576C197.93 194.08 198.882 193.832 199.906 193.832C200.914 193.832 201.858 194.08 202.738 194.576C203.618 195.072 204.322 195.8 204.85 196.76C205.378 197.704 205.642 198.808 205.642 200.072C205.642 201.336 205.378 202.44 204.85 203.384C204.322 204.328 203.618 205.048 202.738 205.544C201.858 206.04 200.914 206.288 199.906 206.288ZM199.906 203.624C200.658 203.624 201.242 203.312 201.658 202.688C202.074 202.048 202.282 201.176 202.282 200.072C202.282 198.968 202.074 198.096 201.658 197.456C201.242 196.816 200.658 196.496 199.906 196.496C199.138 196.496 198.546 196.816 198.13 197.456C197.73 198.096 197.53 198.968 197.53 200.072C197.53 201.176 197.73 202.048 198.13 202.688C198.546 203.312 199.138 203.624 199.906 203.624ZM210.826 206.288C209.77 206.288 208.914 205.952 208.258 205.28C207.618 204.608 207.298 203.76 207.298 202.736C207.298 201.472 207.834 200.496 208.906 199.808C209.978 199.104 211.698 198.624 214.066 198.368C214.018 197.088 213.362 196.448 212.098 196.448C211.602 196.448 211.098 196.544 210.586 196.736C210.074 196.928 209.514 197.2 208.906 197.552L207.73 195.392C209.41 194.352 211.074 193.832 212.722 193.832C214.242 193.832 215.394 194.28 216.178 195.176C216.962 196.056 217.354 197.376 217.354 199.136V206H214.666L214.426 204.752H214.354C213.17 205.776 211.994 206.288 210.826 206.288ZM211.906 203.744C212.306 203.744 212.666 203.656 212.986 203.48C213.322 203.288 213.682 203.008 214.066 202.64V200.36C212.77 200.536 211.842 200.8 211.282 201.152C210.722 201.504 210.442 201.944 210.442 202.472C210.442 202.888 210.57 203.208 210.826 203.432C211.082 203.64 211.442 203.744 211.906 203.744ZM224.66 206.288C223.172 206.288 221.988 205.736 221.108 204.632C220.244 203.528 219.812 202.008 219.812 200.072C219.812 198.824 220.044 197.728 220.508 196.784C220.972 195.84 221.58 195.112 222.332 194.6C223.1 194.088 223.908 193.832 224.756 193.832C225.38 193.832 225.916 193.936 226.364 194.144C226.812 194.352 227.268 194.672 227.732 195.104L227.612 193.256V189.128H230.9V206H228.212L227.972 204.776H227.9C227.452 205.224 226.94 205.592 226.364 205.88C225.804 206.152 225.236 206.288 224.66 206.288ZM225.5 203.6C225.916 203.6 226.292 203.512 226.628 203.336C226.964 203.144 227.292 202.848 227.612 202.448V197.36C227.004 196.8 226.3 196.52 225.5 196.52C224.844 196.52 224.292 196.824 223.844 197.432C223.396 198.04 223.172 198.904 223.172 200.024C223.172 201.208 223.372 202.104 223.772 202.712C224.172 203.304 224.748 203.6 225.5 203.6ZM111.838 237.288C110.782 237.288 109.926 236.952 109.27 236.28C108.63 235.608 108.31 234.76 108.31 233.736C108.31 232.472 108.846 231.496 109.918 230.808C110.99 230.104 112.71 229.624 115.078 229.368C115.03 228.088 114.374 227.448 113.11 227.448C112.614 227.448 112.11 227.544 111.598 227.736C111.086 227.928 110.526 228.2 109.918 228.552L108.742 226.392C110.422 225.352 112.086 224.832 113.734 224.832C115.254 224.832 116.406 225.28 117.19 226.176C117.974 227.056 118.366 228.376 118.366 230.136V237H115.678L115.438 235.752H115.366C114.182 236.776 113.006 237.288 111.838 237.288ZM112.918 234.744C113.318 234.744 113.678 234.656 113.998 234.48C114.334 234.288 114.694 234.008 115.078 233.64V231.36C113.782 231.536 112.854 231.8 112.294 232.152C111.734 232.504 111.454 232.944 111.454 233.472C111.454 233.888 111.582 234.208 111.838 234.432C112.094 234.64 112.454 234.744 112.918 234.744ZM121.472 225.12H124.136L124.376 226.656H124.472C125.048 226.096 125.64 225.656 126.248 225.336C126.872 225 127.56 224.832 128.312 224.832C129.56 224.832 130.48 225.248 131.072 226.08C131.68 226.896 131.984 228.072 131.984 229.608V237H128.696V230.016C128.696 229.136 128.568 228.52 128.312 228.168C128.072 227.816 127.672 227.64 127.112 227.64C126.664 227.64 126.272 227.736 125.936 227.928C125.6 228.12 125.2 228.44 124.736 228.888V237H121.472V225.12ZM139.312 237.288C137.824 237.288 136.64 236.736 135.76 235.632C134.896 234.528 134.464 233.008 134.464 231.072C134.464 229.824 134.696 228.728 135.16 227.784C135.624 226.84 136.232 226.112 136.984 225.6C137.752 225.088 138.56 224.832 139.408 224.832C140.032 224.832 140.568 224.936 141.016 225.144C141.464 225.352 141.92 225.672 142.384 226.104L142.264 224.256V220.128H145.552V237H142.864L142.624 235.776H142.552C142.104 236.224 141.592 236.592 141.016 236.88C140.456 237.152 139.888 237.288 139.312 237.288ZM140.152 234.6C140.568 234.6 140.944 234.512 141.28 234.336C141.616 234.144 141.944 233.848 142.264 233.448V228.36C141.656 227.8 140.952 227.52 140.152 227.52C139.496 227.52 138.944 227.824 138.496 228.432C138.048 229.04 137.824 229.904 137.824 231.024C137.824 232.208 138.024 233.104 138.424 233.712C138.824 234.304 139.4 234.6 140.152 234.6ZM157.037 237.288C156.269 237.288 155.469 237.136 154.637 236.832C153.821 236.528 153.109 236.128 152.501 235.632L153.989 233.568C154.549 234 155.077 234.32 155.573 234.528C156.085 234.736 156.605 234.84 157.133 234.84C157.677 234.84 158.085 234.744 158.357 234.552C158.629 234.344 158.765 234.056 158.765 233.688C158.765 233.432 158.653 233.208 158.429 233.016C158.221 232.824 157.917 232.648 157.517 232.488C157.117 232.312 156.717 232.144 156.317 231.984C155.373 231.616 154.597 231.168 153.989 230.64C153.397 230.096 153.101 229.384 153.101 228.504C153.101 227.416 153.509 226.536 154.325 225.864C155.141 225.176 156.221 224.832 157.565 224.832C159.037 224.832 160.405 225.328 161.669 226.32L160.205 228.288C159.261 227.616 158.413 227.28 157.661 227.28C157.165 227.28 156.789 227.376 156.533 227.568C156.293 227.76 156.173 228.016 156.173 228.336C156.173 228.656 156.333 228.92 156.653 229.128C156.973 229.32 157.341 229.488 157.757 229.632C158.173 229.776 158.445 229.872 158.573 229.92C159.581 230.288 160.373 230.736 160.949 231.264C161.541 231.776 161.837 232.52 161.837 233.496C161.837 234.216 161.645 234.864 161.261 235.44C160.893 236 160.349 236.448 159.629 236.784C158.909 237.12 158.045 237.288 157.037 237.288ZM168.334 237.288C166.958 237.288 165.95 236.896 165.31 236.112C164.67 235.312 164.35 234.2 164.35 232.776V227.712H162.694V225.264L164.518 225.12L164.902 221.952H167.614V225.12H170.518V227.712H167.614V232.752C167.614 234.048 168.142 234.696 169.198 234.696C169.534 234.696 169.926 234.616 170.374 234.456L170.902 236.856C170.038 237.144 169.182 237.288 168.334 237.288ZM177.511 237.288C176.487 237.288 175.535 237.04 174.655 236.544C173.791 236.048 173.095 235.328 172.567 234.384C172.039 233.44 171.775 232.336 171.775 231.072C171.775 229.792 172.039 228.68 172.567 227.736C173.095 226.792 173.791 226.072 174.655 225.576C175.535 225.08 176.487 224.832 177.511 224.832C178.519 224.832 179.463 225.08 180.343 225.576C181.223 226.072 181.927 226.8 182.455 227.76C182.983 228.704 183.247 229.808 183.247 231.072C183.247 232.336 182.983 233.44 182.455 234.384C181.927 235.328 181.223 236.048 180.343 236.544C179.463 237.04 178.519 237.288 177.511 237.288ZM177.511 234.624C178.263 234.624 178.847 234.312 179.263 233.688C179.679 233.048 179.887 232.176 179.887 231.072C179.887 229.968 179.679 229.096 179.263 228.456C178.847 227.816 178.263 227.496 177.511 227.496C176.743 227.496 176.151 227.816 175.735 228.456C175.335 229.096 175.135 229.968 175.135 231.072C175.135 232.176 175.335 233.048 175.735 233.688C176.151 234.312 176.743 234.624 177.511 234.624ZM185.761 225.12H188.425L188.665 227.208H188.761C189.177 226.44 189.681 225.856 190.273 225.456C190.881 225.04 191.497 224.832 192.121 224.832C192.681 224.832 193.145 224.912 193.513 225.072L192.961 227.904C192.913 227.888 192.769 227.856 192.529 227.808C192.289 227.744 192.017 227.712 191.713 227.712C191.201 227.712 190.705 227.896 190.225 228.264C189.745 228.632 189.345 229.208 189.025 229.992V237H185.761V225.12ZM204.695 230.52C204.695 231.128 204.647 231.624 204.551 232.008H197.207C197.367 232.952 197.751 233.648 198.359 234.096C198.983 234.544 199.703 234.768 200.519 234.768C201.367 234.768 202.247 234.504 203.159 233.976L204.239 235.968C203.647 236.384 202.983 236.712 202.247 236.952C201.527 237.176 200.807 237.288 200.087 237.288C198.967 237.288 197.951 237.04 197.039 236.544C196.143 236.048 195.431 235.328 194.903 234.384C194.391 233.44 194.135 232.336 194.135 231.072C194.135 229.824 194.391 228.728 194.903 227.784C195.431 226.84 196.119 226.112 196.967 225.6C197.815 225.088 198.719 224.832 199.679 224.832C201.295 224.832 202.535 225.36 203.399 226.416C204.263 227.456 204.695 228.824 204.695 230.52ZM201.887 229.824C201.887 229.056 201.711 228.456 201.359 228.024C201.007 227.576 200.471 227.352 199.751 227.352C199.159 227.352 198.631 227.56 198.167 227.976C197.719 228.376 197.415 228.992 197.255 229.824H201.887Z" fill="black"/>
<path d="M80.6246 134.152C76.7846 134.152 73.2966 133.448 70.1606 132.04C67.0246 130.568 64.5606 128.552 62.7686 125.992C61.0406 123.432 60.1766 120.552 60.1766 117.352C60.1766 113.768 61.2326 110.632 63.3446 107.944C65.4566 105.256 68.1446 103.048 71.4086 101.32V100.936C65.7766 96.968 62.9606 92.232 62.9606 86.728C62.9606 83.528 63.7286 80.744 65.2646 78.376C66.8646 75.944 69.0086 74.056 71.6966 72.712C74.4486 71.368 77.5206 70.696 80.9126 70.696C86.2886 70.696 90.5766 72.232 93.7766 75.304C96.9766 78.312 98.5766 82.248 98.5766 87.112C98.5766 89.992 97.7446 92.712 96.0806 95.272C94.4806 97.768 92.5606 99.816 90.3206 101.416V101.8C93.5846 103.72 96.1446 105.928 98.0006 108.424C99.9206 110.856 100.881 113.928 100.881 117.64C100.881 120.712 100.017 123.528 98.2886 126.088C96.6246 128.584 94.2566 130.568 91.1846 132.04C88.1126 133.448 84.5926 134.152 80.6246 134.152ZM84.7526 99.016C88.5286 95.432 90.4166 91.656 90.4166 87.688C90.4166 84.744 89.5526 82.344 87.8246 80.488C86.0966 78.632 83.7286 77.704 80.7206 77.704C78.0966 77.704 75.9206 78.536 74.1926 80.2C72.5286 81.8 71.6966 83.976 71.6966 86.728C71.6966 89.736 72.7846 92.104 74.9606 93.832C77.2006 95.56 80.4646 97.288 84.7526 99.016ZM80.8166 127.144C84.0806 127.144 86.7046 126.248 88.6886 124.456C90.7366 122.664 91.7606 120.296 91.7606 117.352C91.7606 115.112 91.0886 113.224 89.7446 111.688C88.4646 110.152 86.8326 108.904 84.8486 107.944C82.9286 106.92 80.0486 105.64 76.2086 104.104C73.9686 105.704 72.1766 107.56 70.8326 109.672C69.4886 111.72 68.8166 113.96 68.8166 116.392C68.8166 119.528 69.9366 122.12 72.1766 124.168C74.4806 126.152 77.3606 127.144 80.8166 127.144ZM138.691 134.152C132.355 134.152 127.395 131.368 123.811 125.8C120.227 120.232 118.435 112.36 118.435 102.184C118.435 92.008 120.227 84.232 123.811 78.856C127.395 73.416 132.355 70.696 138.691 70.696C145.027 70.696 149.987 73.416 153.571 78.856C157.155 84.296 158.947 92.072 158.947 102.184C158.947 112.36 157.155 120.232 153.571 125.8C149.987 131.368 145.027 134.152 138.691 134.152ZM138.691 126.472C142.083 126.472 144.739 124.52 146.659 120.616C148.643 116.712 149.635 110.568 149.635 102.184C149.635 86.312 145.987 78.376 138.691 78.376C131.395 78.376 127.747 86.312 127.747 102.184C127.747 110.568 128.707 116.712 130.627 120.616C132.611 124.52 135.299 126.472 138.691 126.472ZM190.326 107.752C185.91 107.752 182.358 105.992 179.67 102.472C176.982 98.952 175.638 94.056 175.638 87.784C175.638 81.576 176.982 76.744 179.67 73.288C182.358 69.768 185.91 68.008 190.326 68.008C194.742 68.008 198.294 69.768 200.982 73.288C203.67 76.744 205.014 81.576 205.014 87.784C205.014 94.056 203.67 98.952 200.982 102.472C198.294 105.992 194.742 107.752 190.326 107.752ZM226.422 68.968H232.566L198.102 134.152H191.958L226.422 68.968ZM190.326 101.992C192.63 101.992 194.454 100.808 195.798 98.44C197.206 96.008 197.91 92.456 197.91 87.784C197.91 83.112 197.206 79.624 195.798 77.32C194.454 74.952 192.63 73.768 190.326 73.768C188.022 73.768 186.166 74.952 184.758 77.32C183.414 79.624 182.742 83.112 182.742 87.784C182.742 92.456 183.414 96.008 184.758 98.44C186.166 100.808 188.022 101.992 190.326 101.992ZM234.39 134.152C229.974 134.152 226.422 132.392 223.734 128.872C221.046 125.352 219.702 120.456 219.702 114.184C219.702 107.976 221.046 103.144 223.734 99.688C226.422 96.168 229.974 94.408 234.39 94.408C238.806 94.408 242.358 96.168 245.046 99.688C247.734 103.144 249.078 107.976 249.078 114.184C249.078 120.456 247.734 125.352 245.046 128.872C242.358 132.392 238.806 134.152 234.39 134.152ZM234.39 128.392C236.694 128.392 238.518 127.208 239.862 124.84C241.27 122.408 241.974 118.856 241.974 114.184C241.974 109.512 241.27 106.024 239.862 103.72C238.518 101.352 236.694 100.168 234.39 100.168C232.086 100.168 230.23 101.352 228.822 103.72C227.478 106.024 226.806 109.512 226.806 114.184C226.806 118.856 227.478 122.408 228.822 124.84C230.23 127.208 232.086 128.392 234.39 128.392Z" fill="black"/>
</svg>
