<svg width="300" height="300" viewBox="0 0 300 300" fill="none" xmlns="http://www.w3.org/2000/svg">
<circle cx="150" cy="150" r="147.5" stroke="#ED7727" stroke-width="5"/>
<path d="M69.0573 175.288C68.0973 175.288 67.2093 175.048 66.3933 174.568C65.5773 174.072 64.9213 173.368 64.4253 172.456C63.9453 171.528 63.7053 170.44 63.7053 169.192C63.7053 167.944 63.9453 166.856 64.4253 165.928C64.9213 165 65.5773 164.296 66.3933 163.816C67.2093 163.32 68.0973 163.072 69.0573 163.072C70.0173 163.072 70.9053 163.32 71.7213 163.816C72.5373 164.296 73.1853 165 73.6653 165.928C74.1613 166.856 74.4093 167.944 74.4093 169.192C74.4093 170.44 74.1613 171.528 73.6653 172.456C73.1853 173.368 72.5373 174.072 71.7213 174.568C70.9053 175.048 70.0173 175.288 69.0573 175.288ZM69.0573 173.824C69.7453 173.824 70.3533 173.632 70.8813 173.248C71.4253 172.864 71.8493 172.32 72.1533 171.616C72.4573 170.912 72.6093 170.104 72.6093 169.192C72.6093 168.28 72.4573 167.472 72.1533 166.768C71.8493 166.064 71.4253 165.52 70.8813 165.136C70.3533 164.736 69.7453 164.536 69.0573 164.536C68.3693 164.536 67.7533 164.736 67.2093 165.136C66.6813 165.52 66.2653 166.064 65.9613 166.768C65.6733 167.472 65.5293 168.28 65.5293 169.192C65.5293 170.584 65.8573 171.704 66.5133 172.552C67.1693 173.4 68.0173 173.824 69.0573 173.824ZM83.6274 159.016C82.5074 159.016 81.9474 159.8 81.9474 161.368V163.36H84.4674V164.8H81.9474V175H80.1954V164.8H78.6114V163.48L80.1954 163.36V161.344C80.1954 160.144 80.4674 159.216 81.0114 158.56C81.5714 157.904 82.3954 157.576 83.4834 157.576C84.1074 157.576 84.7314 157.704 85.3554 157.96L84.9714 159.304C84.5234 159.112 84.0754 159.016 83.6274 159.016ZM99.7164 175.288C98.5164 175.288 97.6284 174.912 97.0524 174.16C96.4764 173.392 96.1884 172.256 96.1884 170.752V163.36H97.9164V170.536C97.9164 171.656 98.1004 172.48 98.4684 173.008C98.8364 173.52 99.4284 173.776 100.244 173.776C100.836 173.776 101.372 173.616 101.852 173.296C102.348 172.976 102.9 172.448 103.508 171.712V163.36H105.26V175H103.796L103.652 173.152H103.58C102.988 173.84 102.38 174.368 101.756 174.736C101.148 175.104 100.468 175.288 99.7164 175.288ZM114.693 175.288C113.893 175.288 113.117 175.144 112.365 174.856C111.613 174.552 110.949 174.16 110.373 173.68L111.261 172.504C111.837 172.968 112.397 173.32 112.941 173.56C113.485 173.8 114.093 173.92 114.765 173.92C115.533 173.92 116.125 173.736 116.541 173.368C116.957 173 117.165 172.536 117.165 171.976C117.165 171.416 116.925 170.968 116.445 170.632C115.981 170.296 115.317 169.976 114.453 169.672C113.349 169.272 112.485 168.84 111.861 168.376C111.237 167.896 110.925 167.216 110.925 166.336C110.925 165.392 111.277 164.616 111.981 164.008C112.701 163.384 113.669 163.072 114.885 163.072C115.541 163.072 116.173 163.192 116.781 163.432C117.389 163.672 117.933 163.984 118.413 164.368L117.573 165.496C117.109 165.16 116.669 164.904 116.253 164.728C115.837 164.552 115.381 164.464 114.885 164.464C114.149 164.464 113.589 164.64 113.205 164.992C112.821 165.328 112.629 165.744 112.629 166.24C112.629 166.592 112.741 166.896 112.965 167.152C113.205 167.408 113.493 167.616 113.829 167.776C114.165 167.92 114.637 168.112 115.245 168.352C116.061 168.656 116.701 168.928 117.165 169.168C117.629 169.408 118.029 169.752 118.365 170.2C118.701 170.632 118.869 171.192 118.869 171.88C118.869 172.504 118.701 173.08 118.365 173.608C118.045 174.12 117.565 174.528 116.925 174.832C116.301 175.136 115.557 175.288 114.693 175.288ZM132.982 168.52C132.982 168.936 132.958 169.288 132.91 169.576H124.87C124.95 170.936 125.366 171.992 126.118 172.744C126.886 173.496 127.822 173.872 128.926 173.872C129.95 173.872 130.934 173.56 131.878 172.936L132.526 174.088C131.95 174.456 131.358 174.752 130.75 174.976C130.142 175.184 129.462 175.288 128.71 175.288C127.686 175.288 126.75 175.048 125.902 174.568C125.07 174.072 124.406 173.36 123.91 172.432C123.43 171.504 123.19 170.424 123.19 169.192C123.19 167.976 123.43 166.904 123.91 165.976C124.406 165.048 125.054 164.336 125.854 163.84C126.654 163.328 127.502 163.072 128.398 163.072C129.838 163.072 130.958 163.56 131.758 164.536C132.574 165.496 132.982 166.824 132.982 168.52ZM131.422 168.304C131.422 167.072 131.158 166.128 130.63 165.472C130.102 164.816 129.366 164.488 128.422 164.488C127.558 164.488 126.79 164.816 126.118 165.472C125.446 166.128 125.046 167.072 124.918 168.304H131.422ZM138.314 163.36H139.754L139.898 165.496H139.97C140.37 164.744 140.858 164.152 141.434 163.72C142.01 163.288 142.626 163.072 143.282 163.072C143.746 163.072 144.146 163.152 144.482 163.312L144.146 164.848C143.73 164.72 143.362 164.656 143.042 164.656C142.498 164.656 141.954 164.88 141.41 165.328C140.882 165.776 140.426 166.472 140.042 167.416V175H138.314V163.36ZM151.776 175.288C150.976 175.288 150.2 175.144 149.448 174.856C148.696 174.552 148.032 174.16 147.456 173.68L148.344 172.504C148.92 172.968 149.48 173.32 150.024 173.56C150.568 173.8 151.176 173.92 151.848 173.92C152.616 173.92 153.208 173.736 153.624 173.368C154.04 173 154.248 172.536 154.248 171.976C154.248 171.416 154.008 170.968 153.528 170.632C153.064 170.296 152.4 169.976 151.536 169.672C150.432 169.272 149.568 168.84 148.944 168.376C148.32 167.896 148.008 167.216 148.008 166.336C148.008 165.392 148.36 164.616 149.064 164.008C149.784 163.384 150.752 163.072 151.968 163.072C152.624 163.072 153.256 163.192 153.864 163.432C154.472 163.672 155.016 163.984 155.496 164.368L154.656 165.496C154.192 165.16 153.752 164.904 153.336 164.728C152.92 164.552 152.464 164.464 151.968 164.464C151.232 164.464 150.672 164.64 150.288 164.992C149.904 165.328 149.712 165.744 149.712 166.24C149.712 166.592 149.824 166.896 150.048 167.152C150.288 167.408 150.576 167.616 150.912 167.776C151.248 167.92 151.72 168.112 152.328 168.352C153.144 168.656 153.784 168.928 154.248 169.168C154.712 169.408 155.112 169.752 155.448 170.2C155.784 170.632 155.952 171.192 155.952 171.88C155.952 172.504 155.784 173.08 155.448 173.608C155.128 174.12 154.648 174.528 154.008 174.832C153.384 175.136 152.64 175.288 151.776 175.288ZM172.085 159.016C170.965 159.016 170.405 159.8 170.405 161.368V163.36H172.925V164.8H170.405V175H168.653V164.8H167.069V163.48L168.653 163.36V161.344C168.653 160.144 168.925 159.216 169.469 158.56C170.029 157.904 170.853 157.576 171.941 157.576C172.565 157.576 173.189 157.704 173.813 157.96L173.429 159.304C172.981 159.112 172.533 159.016 172.085 159.016ZM175.205 163.36H176.933V175H175.205V163.36ZM176.093 160.864C175.741 160.864 175.453 160.752 175.229 160.528C175.005 160.304 174.893 160.008 174.893 159.64C174.893 159.288 175.005 159.008 175.229 158.8C175.453 158.576 175.741 158.464 176.093 158.464C176.445 158.464 176.733 158.576 176.957 158.8C177.181 159.008 177.293 159.288 177.293 159.64C177.293 160.008 177.181 160.304 176.957 160.528C176.733 160.752 176.445 160.864 176.093 160.864ZM183.422 163.36H184.862L185.006 165.088H185.078C185.718 164.448 186.342 163.952 186.95 163.6C187.574 163.248 188.254 163.072 188.99 163.072C190.206 163.072 191.102 163.456 191.678 164.224C192.254 164.976 192.542 166.104 192.542 167.608V175H190.79V167.824C190.79 166.704 190.606 165.888 190.238 165.376C189.886 164.864 189.302 164.608 188.486 164.608C187.91 164.608 187.374 164.76 186.878 165.064C186.382 165.352 185.806 165.824 185.15 166.48V175H183.422V163.36ZM202.765 175.288C201.293 175.288 200.125 174.752 199.261 173.68C198.413 172.608 197.989 171.112 197.989 169.192C197.989 167.976 198.221 166.904 198.685 165.976C199.149 165.048 199.765 164.336 200.533 163.84C201.317 163.328 202.157 163.072 203.053 163.072C203.677 163.072 204.237 163.184 204.733 163.408C205.229 163.632 205.773 163.976 206.365 164.44L206.293 162.424V157.864H208.021V175H206.581L206.437 173.584H206.365C205.869 174.096 205.309 174.512 204.685 174.832C204.077 175.136 203.437 175.288 202.765 175.288ZM203.149 173.8C203.709 173.8 204.237 173.664 204.733 173.392C205.245 173.12 205.765 172.704 206.293 172.144V165.832C205.781 165.384 205.285 165.064 204.805 164.872C204.325 164.664 203.829 164.56 203.317 164.56C202.661 164.56 202.061 164.76 201.517 165.16C200.989 165.56 200.565 166.112 200.245 166.816C199.941 167.52 199.789 168.312 199.789 169.192C199.789 170.632 200.077 171.76 200.653 172.576C201.245 173.392 202.077 173.8 203.149 173.8ZM221.7 163.36H223.428V175H221.7V163.36ZM222.588 160.864C222.236 160.864 221.948 160.752 221.724 160.528C221.5 160.304 221.388 160.008 221.388 159.64C221.388 159.288 221.5 159.008 221.724 158.8C221.948 158.576 222.236 158.464 222.588 158.464C222.94 158.464 223.228 158.576 223.452 158.8C223.676 159.008 223.788 159.288 223.788 159.64C223.788 160.008 223.676 160.304 223.452 160.528C223.228 160.752 222.94 160.864 222.588 160.864ZM233.441 175.288C232.289 175.288 231.465 174.96 230.969 174.304C230.473 173.648 230.225 172.712 230.225 171.496V164.8H228.473V163.48L230.297 163.36L230.513 160.072H231.977V163.36H235.169V164.8H231.977V171.544C231.977 172.312 232.113 172.888 232.385 173.272C232.673 173.656 233.153 173.848 233.825 173.848C234.161 173.848 234.609 173.744 235.169 173.536L235.529 174.856C234.665 175.144 233.969 175.288 233.441 175.288ZM68.9564 199.52C68.9564 200.128 68.9084 200.624 68.8124 201.008H61.4684C61.6284 201.952 62.0124 202.648 62.6204 203.096C63.2444 203.544 63.9644 203.768 64.7804 203.768C65.6284 203.768 66.5084 203.504 67.4204 202.976L68.5004 204.968C67.9084 205.384 67.2444 205.712 66.5084 205.952C65.7884 206.176 65.0684 206.288 64.3484 206.288C63.2284 206.288 62.2124 206.04 61.3004 205.544C60.4044 205.048 59.6924 204.328 59.1644 203.384C58.6524 202.44 58.3964 201.336 58.3964 200.072C58.3964 198.824 58.6524 197.728 59.1644 196.784C59.6924 195.84 60.3804 195.112 61.2284 194.6C62.0764 194.088 62.9804 193.832 63.9404 193.832C65.5564 193.832 66.7964 194.36 67.6604 195.416C68.5244 196.456 68.9564 197.824 68.9564 199.52ZM66.1484 198.824C66.1484 198.056 65.9724 197.456 65.6204 197.024C65.2684 196.576 64.7324 196.352 64.0124 196.352C63.4204 196.352 62.8924 196.56 62.4284 196.976C61.9804 197.376 61.6764 197.992 61.5164 198.824H66.1484ZM76.5153 206.288C75.4593 206.288 74.6033 205.952 73.9473 205.28C73.3073 204.608 72.9873 203.76 72.9873 202.736C72.9873 201.472 73.5233 200.496 74.5953 199.808C75.6673 199.104 77.3873 198.624 79.7553 198.368C79.7073 197.088 79.0513 196.448 77.7873 196.448C77.2913 196.448 76.7873 196.544 76.2753 196.736C75.7633 196.928 75.2033 197.2 74.5953 197.552L73.4193 195.392C75.0993 194.352 76.7633 193.832 78.4113 193.832C79.9313 193.832 81.0833 194.28 81.8673 195.176C82.6513 196.056 83.0433 197.376 83.0433 199.136V206H80.3553L80.1153 204.752H80.0433C78.8593 205.776 77.6833 206.288 76.5153 206.288ZM77.5953 203.744C77.9953 203.744 78.3553 203.656 78.6753 203.48C79.0113 203.288 79.3713 203.008 79.7553 202.64V200.36C78.4593 200.536 77.5313 200.8 76.9713 201.152C76.4113 201.504 76.1313 201.944 76.1313 202.472C76.1313 202.888 76.2593 203.208 76.5153 203.432C76.7713 203.64 77.1313 203.744 77.5953 203.744ZM91.9812 206.288C91.2132 206.288 90.4132 206.136 89.5812 205.832C88.7652 205.528 88.0532 205.128 87.4452 204.632L88.9332 202.568C89.4932 203 90.0212 203.32 90.5172 203.528C91.0292 203.736 91.5492 203.84 92.0772 203.84C92.6212 203.84 93.0292 203.744 93.3012 203.552C93.5732 203.344 93.7092 203.056 93.7092 202.688C93.7092 202.432 93.5972 202.208 93.3732 202.016C93.1652 201.824 92.8612 201.648 92.4612 201.488C92.0612 201.312 91.6612 201.144 91.2612 200.984C90.3172 200.616 89.5412 200.168 88.9332 199.64C88.3412 199.096 88.0452 198.384 88.0452 197.504C88.0452 196.416 88.4532 195.536 89.2692 194.864C90.0852 194.176 91.1652 193.832 92.5092 193.832C93.9812 193.832 95.3492 194.328 96.6132 195.32L95.1492 197.288C94.2052 196.616 93.3572 196.28 92.6052 196.28C92.1092 196.28 91.7332 196.376 91.4772 196.568C91.2372 196.76 91.1172 197.016 91.1172 197.336C91.1172 197.656 91.2772 197.92 91.5972 198.128C91.9172 198.32 92.2852 198.488 92.7012 198.632C93.1172 198.776 93.3892 198.872 93.5172 198.92C94.5252 199.288 95.3172 199.736 95.8932 200.264C96.4852 200.776 96.7812 201.52 96.7812 202.496C96.7812 203.216 96.5892 203.864 96.2052 204.44C95.8372 205 95.2932 205.448 94.5732 205.784C93.8532 206.12 92.9892 206.288 91.9812 206.288ZM102.648 210.728C102.072 210.728 101.52 210.648 100.992 210.488L101.592 207.968C101.928 208.08 102.2 208.136 102.408 208.136C103.464 208.136 104.184 207.56 104.568 206.408L104.76 205.736L100.152 194.12H103.464L105.264 199.472C105.456 200.032 105.68 200.776 105.936 201.704C106.048 202.136 106.152 202.512 106.248 202.832H106.344C106.552 201.92 106.832 200.8 107.184 199.472L108.744 194.12H111.888L107.712 206.264C107.136 207.8 106.472 208.928 105.72 209.648C104.968 210.368 103.944 210.728 102.648 210.728ZM135.05 206.288C133.674 206.288 132.666 205.896 132.026 205.112C131.386 204.312 131.066 203.2 131.066 201.776V196.712H129.41V194.264L131.234 194.12L131.618 190.952H134.33V194.12H137.234V196.712H134.33V201.752C134.33 203.048 134.858 203.696 135.914 203.696C136.25 203.696 136.642 203.616 137.09 203.456L137.618 205.856C136.754 206.144 135.898 206.288 135.05 206.288ZM146.628 206.288C145.604 206.288 144.652 206.04 143.772 205.544C142.908 205.048 142.212 204.328 141.684 203.384C141.156 202.44 140.892 201.336 140.892 200.072C140.892 198.792 141.156 197.68 141.684 196.736C142.212 195.792 142.908 195.072 143.772 194.576C144.652 194.08 145.604 193.832 146.628 193.832C147.636 193.832 148.58 194.08 149.46 194.576C150.34 195.072 151.044 195.8 151.572 196.76C152.1 197.704 152.364 198.808 152.364 200.072C152.364 201.336 152.1 202.44 151.572 203.384C151.044 204.328 150.34 205.048 149.46 205.544C148.58 206.04 147.636 206.288 146.628 206.288ZM146.628 203.624C147.38 203.624 147.964 203.312 148.38 202.688C148.796 202.048 149.004 201.176 149.004 200.072C149.004 198.968 148.796 198.096 148.38 197.456C147.964 196.816 147.38 196.496 146.628 196.496C145.86 196.496 145.268 196.816 144.852 197.456C144.452 198.096 144.252 198.968 144.252 200.072C144.252 201.176 144.452 202.048 144.852 202.688C145.268 203.312 145.86 203.624 146.628 203.624ZM168.034 206.288C166.786 206.288 165.858 205.88 165.25 205.064C164.658 204.232 164.362 203.048 164.362 201.512V194.12H167.626V201.104C167.626 201.968 167.754 202.584 168.01 202.952C168.266 203.304 168.674 203.48 169.234 203.48C169.698 203.48 170.09 203.376 170.41 203.168C170.746 202.944 171.114 202.576 171.514 202.064V194.12H174.778V206H172.114L171.874 204.32H171.778C171.234 204.96 170.666 205.448 170.074 205.784C169.482 206.12 168.802 206.288 168.034 206.288ZM180.452 194.12H183.116L183.356 195.32H183.452C183.948 194.872 184.492 194.512 185.084 194.24C185.692 193.968 186.292 193.832 186.884 193.832C188.324 193.832 189.46 194.376 190.292 195.464C191.124 196.552 191.54 198.024 191.54 199.88C191.54 201.176 191.308 202.312 190.844 203.288C190.38 204.264 189.764 205.008 188.996 205.52C188.228 206.032 187.404 206.288 186.524 206.288C185.516 206.288 184.548 205.864 183.62 205.016L183.716 206.936V210.512H180.452V194.12ZM185.78 203.6C186.484 203.6 187.06 203.288 187.508 202.664C187.956 202.04 188.18 201.12 188.18 199.904C188.18 197.648 187.436 196.52 185.948 196.52C185.212 196.52 184.468 196.904 183.716 197.672V202.76C184.356 203.32 185.044 203.6 185.78 203.6ZM199.588 206.288C198.516 206.288 197.74 205.96 197.26 205.304C196.78 204.648 196.54 203.72 196.54 202.52V189.128H199.804V202.664C199.804 203 199.868 203.248 199.996 203.408C200.124 203.552 200.268 203.624 200.428 203.624C200.588 203.624 200.732 203.608 200.86 203.576L201.268 206.024C200.804 206.2 200.244 206.288 199.588 206.288ZM210.706 206.288C209.682 206.288 208.73 206.04 207.85 205.544C206.986 205.048 206.29 204.328 205.762 203.384C205.234 202.44 204.97 201.336 204.97 200.072C204.97 198.792 205.234 197.68 205.762 196.736C206.29 195.792 206.986 195.072 207.85 194.576C208.73 194.08 209.682 193.832 210.706 193.832C211.714 193.832 212.658 194.08 213.538 194.576C214.418 195.072 215.122 195.8 215.65 196.76C216.178 197.704 216.442 198.808 216.442 200.072C216.442 201.336 216.178 202.44 215.65 203.384C215.122 204.328 214.418 205.048 213.538 205.544C212.658 206.04 211.714 206.288 210.706 206.288ZM210.706 203.624C211.458 203.624 212.042 203.312 212.458 202.688C212.874 202.048 213.082 201.176 213.082 200.072C213.082 198.968 212.874 198.096 212.458 197.456C212.042 196.816 211.458 196.496 210.706 196.496C209.938 196.496 209.346 196.816 208.93 197.456C208.53 198.096 208.33 198.968 208.33 200.072C208.33 201.176 208.53 202.048 208.93 202.688C209.346 203.312 209.938 203.624 210.706 203.624ZM224.026 206.288C222.97 206.288 222.114 205.952 221.458 205.28C220.818 204.608 220.498 203.76 220.498 202.736C220.498 201.472 221.034 200.496 222.106 199.808C223.178 199.104 224.898 198.624 227.266 198.368C227.218 197.088 226.562 196.448 225.298 196.448C224.802 196.448 224.298 196.544 223.786 196.736C223.274 196.928 222.714 197.2 222.106 197.552L220.93 195.392C222.61 194.352 224.274 193.832 225.922 193.832C227.442 193.832 228.594 194.28 229.378 195.176C230.162 196.056 230.554 197.376 230.554 199.136V206H227.866L227.626 204.752H227.554C226.37 205.776 225.194 206.288 224.026 206.288ZM225.106 203.744C225.506 203.744 225.866 203.656 226.186 203.48C226.522 203.288 226.882 203.008 227.266 202.64V200.36C225.97 200.536 225.042 200.8 224.482 201.152C223.922 201.504 223.642 201.944 223.642 202.472C223.642 202.888 223.77 203.208 224.026 203.432C224.282 203.64 224.642 203.744 225.106 203.744ZM240.26 206.288C238.772 206.288 237.588 205.736 236.708 204.632C235.844 203.528 235.412 202.008 235.412 200.072C235.412 198.824 235.644 197.728 236.108 196.784C236.572 195.84 237.18 195.112 237.932 194.6C238.7 194.088 239.508 193.832 240.356 193.832C240.98 193.832 241.516 193.936 241.964 194.144C242.412 194.352 242.868 194.672 243.332 195.104L243.212 193.256V189.128H246.5V206H243.812L243.572 204.776H243.5C243.052 205.224 242.54 205.592 241.964 205.88C241.404 206.152 240.836 206.288 240.26 206.288ZM241.1 203.6C241.516 203.6 241.892 203.512 242.228 203.336C242.564 203.144 242.892 202.848 243.212 202.448V197.36C242.604 196.8 241.9 196.52 241.1 196.52C240.444 196.52 239.892 196.824 239.444 197.432C238.996 198.04 238.772 198.904 238.772 200.024C238.772 201.208 238.972 202.104 239.372 202.712C239.772 203.304 240.348 203.6 241.1 203.6ZM102.238 237.288C101.182 237.288 100.326 236.952 99.6699 236.28C99.0299 235.608 98.7099 234.76 98.7099 233.736C98.7099 232.472 99.2459 231.496 100.318 230.808C101.39 230.104 103.11 229.624 105.478 229.368C105.43 228.088 104.774 227.448 103.51 227.448C103.014 227.448 102.51 227.544 101.998 227.736C101.486 227.928 100.926 228.2 100.318 228.552L99.1419 226.392C100.822 225.352 102.486 224.832 104.134 224.832C105.654 224.832 106.806 225.28 107.59 226.176C108.374 227.056 108.766 228.376 108.766 230.136V237H106.078L105.838 235.752H105.766C104.582 236.776 103.406 237.288 102.238 237.288ZM103.318 234.744C103.718 234.744 104.078 234.656 104.398 234.48C104.734 234.288 105.094 234.008 105.478 233.64V231.36C104.182 231.536 103.254 231.8 102.694 232.152C102.134 232.504 101.854 232.944 101.854 233.472C101.854 233.888 101.982 234.208 102.238 234.432C102.494 234.64 102.854 234.744 103.318 234.744ZM114.272 225.12H116.936L117.176 226.656H117.272C117.848 226.096 118.44 225.656 119.048 225.336C119.672 225 120.36 224.832 121.112 224.832C122.36 224.832 123.28 225.248 123.872 226.08C124.48 226.896 124.784 228.072 124.784 229.608V237H121.496V230.016C121.496 229.136 121.368 228.52 121.112 228.168C120.872 227.816 120.472 227.64 119.912 227.64C119.464 227.64 119.072 227.736 118.736 227.928C118.4 228.12 118 228.44 117.536 228.888V237H114.272V225.12ZM134.512 237.288C133.024 237.288 131.84 236.736 130.96 235.632C130.096 234.528 129.664 233.008 129.664 231.072C129.664 229.824 129.896 228.728 130.36 227.784C130.824 226.84 131.432 226.112 132.184 225.6C132.952 225.088 133.76 224.832 134.608 224.832C135.232 224.832 135.768 224.936 136.216 225.144C136.664 225.352 137.12 225.672 137.584 226.104L137.464 224.256V220.128H140.752V237H138.064L137.824 235.776H137.752C137.304 236.224 136.792 236.592 136.216 236.88C135.656 237.152 135.088 237.288 134.512 237.288ZM135.352 234.6C135.768 234.6 136.144 234.512 136.48 234.336C136.816 234.144 137.144 233.848 137.464 233.448V228.36C136.856 227.8 136.152 227.52 135.352 227.52C134.696 227.52 134.144 227.824 133.696 228.432C133.248 229.04 133.024 229.904 133.024 231.024C133.024 232.208 133.224 233.104 133.624 233.712C134.024 234.304 134.6 234.6 135.352 234.6ZM157.037 237.288C156.269 237.288 155.469 237.136 154.637 236.832C153.821 236.528 153.109 236.128 152.501 235.632L153.989 233.568C154.549 234 155.077 234.32 155.573 234.528C156.085 234.736 156.605 234.84 157.133 234.84C157.677 234.84 158.085 234.744 158.357 234.552C158.629 234.344 158.765 234.056 158.765 233.688C158.765 233.432 158.653 233.208 158.429 233.016C158.221 232.824 157.917 232.648 157.517 232.488C157.117 232.312 156.717 232.144 156.317 231.984C155.373 231.616 154.597 231.168 153.989 230.64C153.397 230.096 153.101 229.384 153.101 228.504C153.101 227.416 153.509 226.536 154.325 225.864C155.141 225.176 156.221 224.832 157.565 224.832C159.037 224.832 160.405 225.328 161.669 226.32L160.205 228.288C159.261 227.616 158.413 227.28 157.661 227.28C157.165 227.28 156.789 227.376 156.533 227.568C156.293 227.76 156.173 228.016 156.173 228.336C156.173 228.656 156.333 228.92 156.653 229.128C156.973 229.32 157.341 229.488 157.757 229.632C158.173 229.776 158.445 229.872 158.573 229.92C159.581 230.288 160.373 230.736 160.949 231.264C161.541 231.776 161.837 232.52 161.837 233.496C161.837 234.216 161.645 234.864 161.261 235.44C160.893 236 160.349 236.448 159.629 236.784C158.909 237.12 158.045 237.288 157.037 237.288ZM170.734 237.288C169.358 237.288 168.35 236.896 167.71 236.112C167.07 235.312 166.75 234.2 166.75 232.776V227.712H165.094V225.264L166.918 225.12L167.302 221.952H170.014V225.12H172.918V227.712H170.014V232.752C170.014 234.048 170.542 234.696 171.598 234.696C171.934 234.696 172.326 234.616 172.774 234.456L173.302 236.856C172.438 237.144 171.582 237.288 170.734 237.288ZM182.311 237.288C181.287 237.288 180.335 237.04 179.455 236.544C178.591 236.048 177.895 235.328 177.367 234.384C176.839 233.44 176.575 232.336 176.575 231.072C176.575 229.792 176.839 228.68 177.367 227.736C177.895 226.792 178.591 226.072 179.455 225.576C180.335 225.08 181.287 224.832 182.311 224.832C183.319 224.832 184.263 225.08 185.143 225.576C186.023 226.072 186.727 226.8 187.255 227.76C187.783 228.704 188.047 229.808 188.047 231.072C188.047 232.336 187.783 233.44 187.255 234.384C186.727 235.328 186.023 236.048 185.143 236.544C184.263 237.04 183.319 237.288 182.311 237.288ZM182.311 234.624C183.063 234.624 183.647 234.312 184.063 233.688C184.479 233.048 184.687 232.176 184.687 231.072C184.687 229.968 184.479 229.096 184.063 228.456C183.647 227.816 183.063 227.496 182.311 227.496C181.543 227.496 180.951 227.816 180.535 228.456C180.135 229.096 179.935 229.968 179.935 231.072C179.935 232.176 180.135 233.048 180.535 233.688C180.951 234.312 181.543 234.624 182.311 234.624ZM192.961 225.12H195.625L195.865 227.208H195.961C196.377 226.44 196.881 225.856 197.473 225.456C198.081 225.04 198.697 224.832 199.321 224.832C199.881 224.832 200.345 224.912 200.713 225.072L200.161 227.904C200.113 227.888 199.969 227.856 199.729 227.808C199.489 227.744 199.217 227.712 198.913 227.712C198.401 227.712 197.905 227.896 197.425 228.264C196.945 228.632 196.545 229.208 196.225 229.992V237H192.961V225.12ZM214.295 230.52C214.295 231.128 214.247 231.624 214.151 232.008H206.807C206.967 232.952 207.351 233.648 207.959 234.096C208.583 234.544 209.303 234.768 210.119 234.768C210.967 234.768 211.847 234.504 212.759 233.976L213.839 235.968C213.247 236.384 212.583 236.712 211.847 236.952C211.127 237.176 210.407 237.288 209.687 237.288C208.567 237.288 207.551 237.04 206.639 236.544C205.743 236.048 205.031 235.328 204.503 234.384C203.991 233.44 203.735 232.336 203.735 231.072C203.735 229.824 203.991 228.728 204.503 227.784C205.031 226.84 205.719 226.112 206.567 225.6C207.415 225.088 208.319 224.832 209.279 224.832C210.895 224.832 212.135 225.36 212.999 226.416C213.863 227.456 214.295 228.824 214.295 230.52ZM211.487 229.824C211.487 229.056 211.311 228.456 210.959 228.024C210.607 227.576 210.071 227.352 209.351 227.352C208.759 227.352 208.231 227.56 207.767 227.976C207.319 228.376 207.015 228.992 206.855 229.824H211.487Z" fill="black"/>
<path d="M80.6246 134.152C76.7846 134.152 73.2966 133.448 70.1606 132.04C67.0246 130.568 64.5606 128.552 62.7686 125.992C61.0406 123.432 60.1766 120.552 60.1766 117.352C60.1766 113.768 61.2326 110.632 63.3446 107.944C65.4566 105.256 68.1446 103.048 71.4086 101.32V100.936C65.7766 96.968 62.9606 92.232 62.9606 86.728C62.9606 83.528 63.7286 80.744 65.2646 78.376C66.8646 75.944 69.0086 74.056 71.6966 72.712C74.4486 71.368 77.5206 70.696 80.9126 70.696C86.2886 70.696 90.5766 72.232 93.7766 75.304C96.9766 78.312 98.5766 82.248 98.5766 87.112C98.5766 89.992 97.7446 92.712 96.0806 95.272C94.4806 97.768 92.5606 99.816 90.3206 101.416V101.8C93.5846 103.72 96.1446 105.928 98.0006 108.424C99.9206 110.856 100.881 113.928 100.881 117.64C100.881 120.712 100.017 123.528 98.2886 126.088C96.6246 128.584 94.2566 130.568 91.1846 132.04C88.1126 133.448 84.5926 134.152 80.6246 134.152ZM84.7526 99.016C88.5286 95.432 90.4166 91.656 90.4166 87.688C90.4166 84.744 89.5526 82.344 87.8246 80.488C86.0966 78.632 83.7286 77.704 80.7206 77.704C78.0966 77.704 75.9206 78.536 74.1926 80.2C72.5286 81.8 71.6966 83.976 71.6966 86.728C71.6966 89.736 72.7846 92.104 74.9606 93.832C77.2006 95.56 80.4646 97.288 84.7526 99.016ZM80.8166 127.144C84.0806 127.144 86.7046 126.248 88.6886 124.456C90.7366 122.664 91.7606 120.296 91.7606 117.352C91.7606 115.112 91.0886 113.224 89.7446 111.688C88.4646 110.152 86.8326 108.904 84.8486 107.944C82.9286 106.92 80.0486 105.64 76.2086 104.104C73.9686 105.704 72.1766 107.56 70.8326 109.672C69.4886 111.72 68.8166 113.96 68.8166 116.392C68.8166 119.528 69.9366 122.12 72.1766 124.168C74.4806 126.152 77.3606 127.144 80.8166 127.144ZM138.691 134.152C132.355 134.152 127.395 131.368 123.811 125.8C120.227 120.232 118.435 112.36 118.435 102.184C118.435 92.008 120.227 84.232 123.811 78.856C127.395 73.416 132.355 70.696 138.691 70.696C145.027 70.696 149.987 73.416 153.571 78.856C157.155 84.296 158.947 92.072 158.947 102.184C158.947 112.36 157.155 120.232 153.571 125.8C149.987 131.368 145.027 134.152 138.691 134.152ZM138.691 126.472C142.083 126.472 144.739 124.52 146.659 120.616C148.643 116.712 149.635 110.568 149.635 102.184C149.635 86.312 145.987 78.376 138.691 78.376C131.395 78.376 127.747 86.312 127.747 102.184C127.747 110.568 128.707 116.712 130.627 120.616C132.611 124.52 135.299 126.472 138.691 126.472ZM190.326 107.752C185.91 107.752 182.358 105.992 179.67 102.472C176.982 98.952 175.638 94.056 175.638 87.784C175.638 81.576 176.982 76.744 179.67 73.288C182.358 69.768 185.91 68.008 190.326 68.008C194.742 68.008 198.294 69.768 200.982 73.288C203.67 76.744 205.014 81.576 205.014 87.784C205.014 94.056 203.67 98.952 200.982 102.472C198.294 105.992 194.742 107.752 190.326 107.752ZM226.422 68.968H232.566L198.102 134.152H191.958L226.422 68.968ZM190.326 101.992C192.63 101.992 194.454 100.808 195.798 98.44C197.206 96.008 197.91 92.456 197.91 87.784C197.91 83.112 197.206 79.624 195.798 77.32C194.454 74.952 192.63 73.768 190.326 73.768C188.022 73.768 186.166 74.952 184.758 77.32C183.414 79.624 182.742 83.112 182.742 87.784C182.742 92.456 183.414 96.008 184.758 98.44C186.166 100.808 188.022 101.992 190.326 101.992ZM234.39 134.152C229.974 134.152 226.422 132.392 223.734 128.872C221.046 125.352 219.702 120.456 219.702 114.184C219.702 107.976 221.046 103.144 223.734 99.688C226.422 96.168 229.974 94.408 234.39 94.408C238.806 94.408 242.358 96.168 245.046 99.688C247.734 103.144 249.078 107.976 249.078 114.184C249.078 120.456 247.734 125.352 245.046 128.872C242.358 132.392 238.806 134.152 234.39 134.152ZM234.39 128.392C236.694 128.392 238.518 127.208 239.862 124.84C241.27 122.408 241.974 118.856 241.974 114.184C241.974 109.512 241.27 106.024 239.862 103.72C238.518 101.352 236.694 100.168 234.39 100.168C232.086 100.168 230.23 101.352 228.822 103.72C227.478 106.024 226.806 109.512 226.806 114.184C226.806 118.856 227.478 122.408 228.822 124.84C230.23 127.208 232.086 128.392 234.39 128.392Z" fill="black"/>
</svg>
