<svg fill="none" height="300" viewBox="0 0 300 300" width="300" xmlns="http://www.w3.org/2000/svg"><circle cx="150" cy="150" r="147.5" stroke="#ed7727" stroke-width="5"/><g fill="#000"><path d="m88.2573 175.288c-.96 0-1.848-.24-2.664-.72-.816-.496-1.472-1.2-1.968-2.112-.48-.928-.72-2.016-.72-3.264s.24-2.336.72-3.264c.496-.928 1.152-1.632 1.968-2.112.816-.496 1.704-.744 2.664-.744s1.848.248 2.664.744c.816.48 1.464 1.184 1.944 2.112.496.928.744 2.016.744 3.264s-.248 2.336-.744 3.264c-.48.912-1.128 1.616-1.944 2.112-.816.48-1.704.72-2.664.72zm0-1.464c.688 0 1.296-.192 1.824-.576.544-.384.968-.928 1.272-1.632s.456-1.512.456-2.424-.152-1.72-.456-2.424-.728-1.248-1.272-1.632c-.528-.4-1.136-.6-1.824-.6s-1.304.2-1.848.6c-.528.384-.944.928-1.248 1.632-.288.704-.432 1.512-.432 2.424 0 1.392.328 2.512.984 3.36s1.504 1.272 2.544 1.272zm12.1697-14.808c-1.1196 0-1.6796.784-1.6796 2.352v1.992h2.5196v1.44h-2.5196v10.2h-1.752v-10.2h-1.584v-1.32l1.584-.12v-2.016c0-1.2.272-2.128.816-2.784.56-.656 1.384-.984 2.4716-.984.624 0 1.248.128 1.872.384l-.384 1.344c-.448-.192-.896-.288-1.344-.288zm11.289 16.272c-1.2 0-2.088-.376-2.664-1.128-.576-.768-.864-1.904-.864-3.408v-7.392h1.728v7.176c0 1.12.184 1.944.552 2.472.368.512.96.768 1.776.768.592 0 1.128-.16 1.608-.48.496-.32 1.048-.848 1.656-1.584v-8.352h1.752v11.64h-1.464l-.144-1.848h-.072c-.592.688-1.2 1.216-1.824 1.584-.608.368-1.288.552-2.04.552zm12.577 0c-.8 0-1.576-.144-2.328-.432-.752-.304-1.416-.696-1.992-1.176l.888-1.176c.576.464 1.136.816 1.68 1.056s1.152.36 1.824.36c.768 0 1.36-.184 1.776-.552s.624-.832.624-1.392-.24-1.008-.72-1.344c-.464-.336-1.128-.656-1.992-.96-1.104-.4-1.968-.832-2.592-1.296-.624-.48-.936-1.16-.936-2.04 0-.944.352-1.72 1.056-2.328.72-.624 1.688-.936 2.904-.936.656 0 1.288.12 1.896.36s1.152.552 1.632.936l-.84 1.128c-.464-.336-.904-.592-1.32-.768s-.872-.264-1.368-.264c-.736 0-1.296.176-1.68.528-.384.336-.576.752-.576 1.248 0 .352.112.656.336.912.24.256.528.464.864.624.336.144.808.336 1.416.576.816.304 1.456.576 1.92.816s.864.584 1.2 1.032c.336.432.504.992.504 1.68 0 .624-.168 1.2-.504 1.728-.32.512-.8.92-1.44 1.224-.624.304-1.368.456-2.232.456zm15.889-6.768c0 .416-.024.768-.072 1.056h-8.04c.08 1.36.496 2.416 1.248 3.168.768.752 1.704 1.128 2.808 1.128 1.024 0 2.008-.312 2.952-.936l.648 1.152c-.576.368-1.168.664-1.776.888-.608.208-1.288.312-2.04.312-1.024 0-1.96-.24-2.808-.72-.832-.496-1.496-1.208-1.992-2.136-.48-.928-.72-2.008-.72-3.24 0-1.216.24-2.288.72-3.216.496-.928 1.144-1.64 1.944-2.136.8-.512 1.648-.768 2.544-.768 1.44 0 2.56.488 3.36 1.464.816.96 1.224 2.288 1.224 3.984zm-1.56-.216c0-1.232-.264-2.176-.792-2.832s-1.264-.984-2.208-.984c-.864 0-1.632.328-2.304.984s-1.072 1.6-1.2 2.832zm4.492-4.944h1.44l.144 2.136h.072c.4-.752.888-1.344 1.464-1.776s1.192-.648 1.848-.648c.464 0 .864.08 1.2.24l-.336 1.536c-.416-.128-.784-.192-1.104-.192-.544 0-1.088.224-1.632.672-.528.448-.984 1.144-1.368 2.088v7.584h-1.728zm11.062 11.928c-.8 0-1.576-.144-2.328-.432-.752-.304-1.416-.696-1.992-1.176l.888-1.176c.576.464 1.136.816 1.68 1.056s1.152.36 1.824.36c.768 0 1.36-.184 1.776-.552s.624-.832.624-1.392-.24-1.008-.72-1.344c-.464-.336-1.128-.656-1.992-.96-1.104-.4-1.968-.832-2.592-1.296-.624-.48-.936-1.16-.936-2.04 0-.944.352-1.72 1.056-2.328.72-.624 1.688-.936 2.904-.936.656 0 1.288.12 1.896.36s1.152.552 1.632.936l-.84 1.128c-.464-.336-.904-.592-1.32-.768s-.872-.264-1.368-.264c-.736 0-1.296.176-1.68.528-.384.336-.576.752-.576 1.248 0 .352.112.656.336.912.24.256.528.464.864.624.336.144.808.336 1.416.576.816.304 1.456.576 1.92.816s.864.584 1.2 1.032c.336.432.504.992.504 1.68 0 .624-.168 1.2-.504 1.728-.32.512-.8.92-1.44 1.224-.624.304-1.368.456-2.232.456zm15.509-16.272c-1.12 0-1.68.784-1.68 2.352v1.992h2.52v1.44h-2.52v10.2h-1.752v-10.2h-1.584v-1.32l1.584-.12v-2.016c0-1.2.272-2.128.816-2.784.56-.656 1.384-.984 2.472-.984.624 0 1.248.128 1.872.384l-.384 1.344c-.448-.192-.896-.288-1.344-.288zm3.12 4.344h1.728v11.64h-1.728zm.888-2.496c-.352 0-.64-.112-.864-.336s-.336-.52-.336-.888c0-.352.112-.632.336-.84.224-.224.512-.336.864-.336s.64.112.864.336c.224.208.336.488.336.84 0 .368-.112.664-.336.888s-.512.336-.864.336zm4.929 2.496h1.44l.144 1.728h.072c.64-.64 1.264-1.136 1.872-1.488.624-.352 1.304-.528 2.04-.528 1.216 0 2.112.384 2.688 1.152.576.752.864 1.88.864 3.384v7.392h-1.752v-7.176c0-1.12-.184-1.936-.552-2.448-.352-.512-.936-.768-1.752-.768-.576 0-1.112.152-1.608.456-.496.288-1.072.76-1.728 1.416v8.52h-1.728zm16.943 11.928c-1.472 0-2.64-.536-3.504-1.608-.848-1.072-1.272-2.568-1.272-4.488 0-1.216.232-2.288.696-3.216s1.08-1.64 1.848-2.136c.784-.512 1.624-.768 2.52-.768.624 0 1.184.112 1.68.336s1.04.568 1.632 1.032l-.072-2.016v-4.56h1.728v17.136h-1.44l-.144-1.416h-.072c-.496.512-1.056.928-1.68 1.248-.608.304-1.248.456-1.92.456zm.384-1.488c.56 0 1.088-.136 1.584-.408.512-.272 1.032-.688 1.56-1.248v-6.312c-.512-.448-1.008-.768-1.488-.96-.48-.208-.976-.312-1.488-.312-.656 0-1.256.2-1.8.6-.528.4-.952.952-1.272 1.656-.304.704-.456 1.496-.456 2.376 0 1.44.288 2.568.864 3.384.592.816 1.424 1.224 2.496 1.224zm13.751-10.44h1.728v11.64h-1.728zm.888-2.496c-.352 0-.64-.112-.864-.336s-.336-.52-.336-.888c0-.352.112-.632.336-.84.224-.224.512-.336.864-.336s.64.112.864.336c.224.208.336.488.336.84 0 .368-.112.664-.336.888s-.512.336-.864.336zm8.453 14.424c-1.152 0-1.976-.328-2.472-.984s-.744-1.592-.744-2.808v-6.696h-1.752v-1.32l1.824-.12.216-3.288h1.464v3.288h3.192v1.44h-3.192v6.744c0 .768.136 1.344.408 1.728.288.384.768.576 1.44.576.336 0 .784-.104 1.344-.312l.36 1.32c-.864.288-1.56.432-2.088.432zm-132.0846 24.232c0 .608-.048 1.104-.144 1.488h-7.344c.16.944.544 1.64 1.152 2.088.624.448 1.344.672 2.16.672.848 0 1.728-.264 2.64-.792l1.08 1.992c-.592.416-1.256.744-1.992.984-.72.224-1.44.336-2.16.336-1.12 0-2.136-.248-3.048-.744-.896-.496-1.608-1.216-2.136-2.16-.512-.944-.768-2.048-.768-3.312 0-1.248.256-2.344.768-3.288.528-.944 1.216-1.672 2.064-2.184s1.752-.768 2.712-.768c1.616 0 2.856.528 3.72 1.584.864 1.04 1.296 2.408 1.296 4.104zm-2.808-.696c0-.768-.176-1.368-.528-1.8-.352-.448-.888-.672-1.608-.672-.592 0-1.12.208-1.584.624-.448.4-.752 1.016-.912 1.848zm7.9669 7.464c-1.056 0-1.912-.336-2.568-1.008-.64-.672-.96-1.52-.96-2.544 0-1.264.536-2.24 1.608-2.928 1.072-.704 2.792-1.184 5.16-1.44-.048-1.28-.704-1.92-1.968-1.92-.496 0-1 .096-1.512.288s-1.072.464-1.68.816l-1.176-2.16c1.68-1.04 3.344-1.56 4.992-1.56 1.52 0 2.672.448 3.456 1.344.784.88 1.176 2.2 1.176 3.96v6.864h-2.688l-.24-1.248h-.072c-1.184 1.024-2.36 1.536-3.528 1.536zm1.08-2.544c.4 0 .76-.088 1.08-.264.336-.192.696-.472 1.08-.84v-2.28c-1.296.176-2.224.44-2.784.792s-.84.792-.84 1.32c0 .416.128.736.384.96.256.208.616.312 1.08.312zm11.9857 2.544c-.768 0-1.568-.152-2.4-.456-.816-.304-1.528-.704-2.136-1.2l1.488-2.064c.56.432 1.088.752 1.584.96.512.208 1.032.312 1.56.312.544 0 .952-.096 1.224-.288.272-.208.408-.496.408-.864 0-.256-.112-.48-.336-.672-.208-.192-.512-.368-.912-.528-.4-.176-.8-.344-1.2-.504-.944-.368-1.72-.816-2.328-1.344-.592-.544-.888-1.256-.888-2.136 0-1.088.408-1.968 1.224-2.64.816-.688 1.896-1.032 3.24-1.032 1.472 0 2.84.496 4.104 1.488l-1.464 1.968c-.944-.672-1.792-1.008-2.544-1.008-.496 0-.872.096-1.128.288-.24.192-.36.448-.36.768s.16.584.48.792c.32.192.688.36 1.104.504s.688.24.816.288c1.008.368 1.8.816 2.376 1.344.592.512.888 1.256.888 2.232 0 .72-.192 1.368-.576 1.944-.368.56-.912 1.008-1.632 1.344s-1.584.504-2.592.504zm8.267 4.44c-.576 0-1.128-.08-1.656-.24l.6-2.52c.336.112.608.168.816.168 1.056 0 1.776-.576 2.16-1.728l.192-.672-4.608-11.616h3.312l1.8 5.352c.192.56.416 1.304.672 2.232.112.432.216.808.312 1.128h.096c.208-.912.488-2.032.84-3.36l1.56-5.352h3.144l-4.176 12.144c-.576 1.536-1.24 2.664-1.992 3.384s-1.776 1.08-3.072 1.08zm25.202-4.44c-1.376 0-2.384-.392-3.024-1.176-.64-.8-.96-1.912-.96-3.336v-5.064h-1.656v-2.448l1.824-.144.384-3.168h2.712v3.168h2.904v2.592h-2.904v5.04c0 1.296.528 1.944 1.584 1.944.336 0 .728-.08 1.176-.24l.528 2.4c-.864.288-1.72.432-2.568.432zm9.178 0c-1.024 0-1.976-.248-2.856-.744-.864-.496-1.56-1.216-2.088-2.16s-.792-2.048-.792-3.312c0-1.28.264-2.392.792-3.336s1.224-1.664 2.088-2.16c.88-.496 1.832-.744 2.856-.744 1.008 0 1.952.248 2.832.744s1.584 1.224 2.112 2.184c.528.944.792 2.048.792 3.312s-.264 2.368-.792 3.312-1.232 1.664-2.112 2.16-1.824.744-2.832.744zm0-2.664c.752 0 1.336-.312 1.752-.936.416-.64.624-1.512.624-2.616s-.208-1.976-.624-2.616-1-.96-1.752-.96c-.768 0-1.36.32-1.776.96-.4.64-.6 1.512-.6 2.616s.2 1.976.6 2.616c.416.624 1.008.936 1.776.936zm16.606 2.664c-1.248 0-2.176-.408-2.784-1.224-.592-.832-.888-2.016-.888-3.552v-7.392h3.264v6.984c0 .864.128 1.48.384 1.848.256.352.664.528 1.224.528.464 0 .856-.104 1.176-.312.336-.224.704-.592 1.104-1.104v-7.944h3.264v11.88h-2.664l-.24-1.68h-.096c-.544.64-1.112 1.128-1.704 1.464s-1.272.504-2.04.504zm10.018-12.168h2.664l.24 1.2h.096c.496-.448 1.04-.808 1.632-1.08.608-.272 1.208-.408 1.8-.408 1.44 0 2.576.544 3.408 1.632s1.248 2.56 1.248 4.416c0 1.296-.232 2.432-.696 3.408s-1.08 1.72-1.848 2.232-1.592.768-2.472.768c-1.008 0-1.976-.424-2.904-1.272l.096 1.92v3.576h-3.264zm5.328 9.48c.704 0 1.28-.312 1.728-.936s.672-1.544.672-2.76c0-2.256-.744-3.384-2.232-3.384-.736 0-1.48.384-2.232 1.152v5.088c.64.56 1.328.84 2.064.84zm11.408 2.688c-1.072 0-1.848-.328-2.328-.984s-.72-1.584-.72-2.784v-13.392h3.264v13.536c0 .336.064.584.192.744.128.144.272.216.432.216s.304-.016.432-.048l.408 2.448c-.464.176-1.024.264-1.68.264zm8.718 0c-1.024 0-1.976-.248-2.856-.744-.864-.496-1.56-1.216-2.088-2.16s-.792-2.048-.792-3.312c0-1.28.264-2.392.792-3.336s1.224-1.664 2.088-2.16c.88-.496 1.832-.744 2.856-.744 1.008 0 1.952.248 2.832.744s1.584 1.224 2.112 2.184c.528.944.792 2.048.792 3.312s-.264 2.368-.792 3.312-1.232 1.664-2.112 2.16-1.824.744-2.832.744zm0-2.664c.752 0 1.336-.312 1.752-.936.416-.64.624-1.512.624-2.616s-.208-1.976-.624-2.616-1-.96-1.752-.96c-.768 0-1.36.32-1.776.96-.4.64-.6 1.512-.6 2.616s.2 1.976.6 2.616c.416.624 1.008.936 1.776.936zm10.92 2.664c-1.056 0-1.912-.336-2.568-1.008-.64-.672-.96-1.52-.96-2.544 0-1.264.536-2.24 1.608-2.928 1.072-.704 2.792-1.184 5.16-1.44-.048-1.28-.704-1.92-1.968-1.92-.496 0-1 .096-1.512.288s-1.072.464-1.68.816l-1.176-2.16c1.68-1.04 3.344-1.56 4.992-1.56 1.52 0 2.672.448 3.456 1.344.784.88 1.176 2.2 1.176 3.96v6.864h-2.688l-.24-1.248h-.072c-1.184 1.024-2.36 1.536-3.528 1.536zm1.08-2.544c.4 0 .76-.088 1.08-.264.336-.192.696-.472 1.08-.84v-2.28c-1.296.176-2.224.44-2.784.792s-.84.792-.84 1.32c0 .416.128.736.384.96.256.208.616.312 1.08.312zm12.754 2.544c-1.488 0-2.672-.552-3.552-1.656-.864-1.104-1.296-2.624-1.296-4.56 0-1.248.232-2.344.696-3.288s1.072-1.672 1.824-2.184c.768-.512 1.576-.768 2.424-.768.624 0 1.16.104 1.608.312s.904.528 1.368.96l-.12-1.848v-4.128h3.288v16.872h-2.688l-.24-1.224h-.072c-.448.448-.96.816-1.536 1.104-.56.272-1.128.408-1.704.408zm.84-2.688c.416 0 .792-.088 1.128-.264.336-.192.664-.488.984-.888v-5.088c-.608-.56-1.312-.84-2.112-.84-.656 0-1.208.304-1.656.912s-.672 1.472-.672 2.592c0 1.184.2 2.08.6 2.688.4.592.976.888 1.728.888zm-113.662 33.688c-1.056 0-1.912-.336-2.568-1.008-.64-.672-.96-1.52-.96-2.544 0-1.264.536-2.24 1.608-2.928 1.072-.704 2.792-1.184 5.16-1.44-.048-1.28-.704-1.92-1.968-1.92-.496 0-1 .096-1.512.288s-1.072.464-1.68.816l-1.176-2.16c1.68-1.04 3.344-1.56 4.992-1.56 1.52 0 2.672.448 3.456 1.344.784.88 1.176 2.2 1.176 3.96v6.864h-2.688l-.24-1.248h-.072c-1.184 1.024-2.36 1.536-3.528 1.536zm1.08-2.544c.4 0 .76-.088 1.08-.264.336-.192.696-.472 1.08-.84v-2.28c-1.296.176-2.224.44-2.784.792s-.84.792-.84 1.32c0 .416.128.736.384.96.256.208.616.312 1.08.312zm8.554-9.624h2.664l.24 1.536h.096c.576-.56 1.168-1 1.776-1.32.624-.336 1.312-.504 2.064-.504 1.248 0 2.168.416 2.76 1.248.608.816.912 1.992.912 3.528v7.392h-3.288v-6.984c0-.88-.128-1.496-.384-1.848-.24-.352-.64-.528-1.2-.528-.448 0-.84.096-1.176.288s-.736.512-1.2.96v8.112h-3.264zm17.84 12.168c-1.488 0-2.672-.552-3.552-1.656-.864-1.104-1.296-2.624-1.296-4.56 0-1.248.232-2.344.696-3.288s1.072-1.672 1.824-2.184c.768-.512 1.576-.768 2.424-.768.624 0 1.16.104 1.608.312s.904.528 1.368.96l-.12-1.848v-4.128h3.288v16.872h-2.688l-.24-1.224h-.072c-.448.448-.96.816-1.536 1.104-.56.272-1.128.408-1.704.408zm.84-2.688c.416 0 .792-.088 1.128-.264.336-.192.664-.488.984-.888v-5.088c-.608-.56-1.312-.84-2.112-.84-.656 0-1.208.304-1.656.912s-.672 1.472-.672 2.592c0 1.184.2 2.08.6 2.688.4.592.976.888 1.728.888zm16.885 2.688c-.768 0-1.568-.152-2.4-.456-.816-.304-1.528-.704-2.136-1.2l1.488-2.064c.56.432 1.088.752 1.584.96.512.208 1.032.312 1.56.312.544 0 .952-.096 1.224-.288.272-.208.408-.496.408-.864 0-.256-.112-.48-.336-.672-.208-.192-.512-.368-.912-.528-.4-.176-.8-.344-1.2-.504-.944-.368-1.72-.816-2.328-1.344-.592-.544-.888-1.256-.888-2.136 0-1.088.408-1.968 1.224-2.64.816-.688 1.896-1.032 3.24-1.032 1.472 0 2.84.496 4.104 1.488l-1.464 1.968c-.944-.672-1.792-1.008-2.544-1.008-.496 0-.872.096-1.128.288-.24.192-.36.448-.36.768s.16.584.48.792c.32.192.688.36 1.104.504s.688.24.816.288c1.008.368 1.8.816 2.376 1.344.592.512.888 1.256.888 2.232 0 .72-.192 1.368-.576 1.944-.368.56-.912 1.008-1.632 1.344s-1.584.504-2.592.504zm11.297 0c-1.376 0-2.384-.392-3.024-1.176-.64-.8-.96-1.912-.96-3.336v-5.064h-1.656v-2.448l1.824-.144.384-3.168h2.712v3.168h2.904v2.592h-2.904v5.04c0 1.296.528 1.944 1.584 1.944.336 0 .728-.08 1.176-.24l.528 2.4c-.864.288-1.72.432-2.568.432zm9.177 0c-1.024 0-1.976-.248-2.856-.744-.864-.496-1.56-1.216-2.088-2.16s-.792-2.048-.792-3.312c0-1.28.264-2.392.792-3.336s1.224-1.664 2.088-2.16c.88-.496 1.832-.744 2.856-.744 1.008 0 1.952.248 2.832.744s1.584 1.224 2.112 2.184c.528.944.792 2.048.792 3.312s-.264 2.368-.792 3.312-1.232 1.664-2.112 2.16-1.824.744-2.832.744zm0-2.664c.752 0 1.336-.312 1.752-.936.416-.64.624-1.512.624-2.616s-.208-1.976-.624-2.616-1-.96-1.752-.96c-.768 0-1.36.32-1.776.96-.4.64-.6 1.512-.6 2.616s.2 1.976.6 2.616c.416.624 1.008.936 1.776.936zm8.25-9.504h2.664l.24 2.088h.096c.416-.768.92-1.352 1.512-1.752.608-.416 1.224-.624 1.848-.624.56 0 1.024.08 1.392.24l-.552 2.832c-.048-.016-.192-.048-.432-.096-.24-.064-.512-.096-.816-.096-.512 0-1.008.184-1.488.552s-.88.944-1.2 1.728v7.008h-3.264zm18.934 5.4c0 .608-.048 1.104-.144 1.488h-7.344c.16.944.544 1.64 1.152 2.088.624.448 1.344.672 2.16.672.848 0 1.728-.264 2.64-.792l1.08 1.992c-.592.416-1.256.744-1.992.984-.72.224-1.44.336-2.16.336-1.12 0-2.136-.248-3.048-.744-.896-.496-1.608-1.216-2.136-2.16-.512-.944-.768-2.048-.768-3.312 0-1.248.256-2.344.768-3.288.528-.944 1.216-1.672 2.064-2.184s1.752-.768 2.712-.768c1.616 0 2.856.528 3.72 1.584.864 1.04 1.296 2.408 1.296 4.104zm-2.808-.696c0-.768-.176-1.368-.528-1.8-.352-.448-.888-.672-1.608-.672-.592 0-1.12.208-1.584.624-.448.4-.752 1.016-.912 1.848z"/><path d="m80.6246 134.152c-3.84 0-7.328-.704-10.464-2.112-3.136-1.472-5.6-3.488-7.392-6.048-1.728-2.56-2.592-5.44-2.592-8.64 0-3.584 1.056-6.72 3.168-9.408s4.8-4.896 8.064-6.624v-.384c-5.632-3.968-8.448-8.704-8.448-14.208 0-3.2.768-5.984 2.304-8.352 1.6-2.432 3.744-4.32 6.432-5.664 2.752-1.344 5.824-2.016 9.216-2.016 5.376 0 9.664 1.536 12.864 4.608 3.2 3.008 4.8 6.944 4.8 11.808 0 2.88-.832 5.6-2.496 8.16-1.6 2.496-3.52 4.544-5.76 6.144v.384c3.264 1.92 5.824 4.128 7.68 6.624 1.92 2.432 2.8804 5.504 2.8804 9.216 0 3.072-.864 5.888-2.5924 8.448-1.664 2.496-4.032 4.48-7.104 5.952-3.072 1.408-6.592 2.112-10.56 2.112zm4.128-35.136c3.776-3.584 5.664-7.36 5.664-11.328 0-2.944-.864-5.344-2.592-7.2s-4.096-2.784-7.104-2.784c-2.624 0-4.8.832-6.528 2.496-1.664 1.6-2.496 3.776-2.496 6.528 0 3.008 1.088 5.376 3.264 7.104 2.24 1.728 5.504 3.456 9.792 5.184zm-3.936 28.128c3.264 0 5.888-.896 7.872-2.688 2.048-1.792 3.072-4.16 3.072-7.104 0-2.24-.672-4.128-2.016-5.664-1.28-1.536-2.912-2.784-4.896-3.744-1.92-1.024-4.8-2.304-8.64-3.84-2.24 1.6-4.032 3.456-5.376 5.568-1.344 2.048-2.016 4.288-2.016 6.72 0 3.136 1.12 5.728 3.36 7.776 2.304 1.984 5.184 2.976 8.64 2.976zm57.8744 7.008c-6.336 0-11.296-2.784-14.88-8.352s-5.376-13.44-5.376-23.616 1.792-17.952 5.376-23.328c3.584-5.44 8.544-8.16 14.88-8.16s11.296 2.72 14.88 8.16 5.376 13.216 5.376 23.328c0 10.176-1.792 18.048-5.376 23.616s-8.544 8.352-14.88 8.352zm0-7.68c3.392 0 6.048-1.952 7.968-5.856 1.984-3.904 2.976-10.048 2.976-18.432 0-15.872-3.648-23.808-10.944-23.808s-10.944 7.936-10.944 23.808c0 8.384.96 14.528 2.88 18.432 1.984 3.904 4.672 5.856 8.064 5.856zm51.635-18.72c-4.416 0-7.968-1.76-10.656-5.28s-4.032-8.416-4.032-14.688c0-6.208 1.344-11.04 4.032-14.496 2.688-3.52 6.24-5.28 10.656-5.28s7.968 1.76 10.656 5.28c2.688 3.456 4.032 8.288 4.032 14.496 0 6.272-1.344 11.168-4.032 14.688s-6.24 5.28-10.656 5.28zm36.096-38.784h6.144l-34.464 65.184h-6.144zm-36.096 33.024c2.304 0 4.128-1.184 5.472-3.552 1.408-2.432 2.112-5.984 2.112-10.656s-.704-8.16-2.112-10.464c-1.344-2.368-3.168-3.552-5.472-3.552s-4.16 1.184-5.568 3.552c-1.344 2.304-2.016 5.792-2.016 10.464s.672 8.224 2.016 10.656c1.408 2.368 3.264 3.552 5.568 3.552zm44.064 32.16c-4.416 0-7.968-1.76-10.656-5.28s-4.032-8.416-4.032-14.688c0-6.208 1.344-11.04 4.032-14.496 2.688-3.52 6.24-5.28 10.656-5.28s7.968 1.76 10.656 5.28c2.688 3.456 4.032 8.288 4.032 14.496 0 6.272-1.344 11.168-4.032 14.688s-6.24 5.28-10.656 5.28zm0-5.76c2.304 0 4.128-1.184 5.472-3.552 1.408-2.432 2.112-5.984 2.112-10.656s-.704-8.16-2.112-10.464c-1.344-2.368-3.168-3.552-5.472-3.552s-4.16 1.184-5.568 3.552c-1.344 2.304-2.016 5.792-2.016 10.464s.672 8.224 2.016 10.656c1.408 2.368 3.264 3.552 5.568 3.552z"/></g></svg>