<svg fill="none" height="300" viewBox="0 0 300 300" width="300" xmlns="http://www.w3.org/2000/svg"><circle cx="150" cy="150" r="147.5" stroke="#ee701b" stroke-width="5"/><g fill="#000"><path d="m46.6652 175.288c-.96 0-1.848-.24-2.664-.72-.816-.496-1.472-1.2-1.968-2.112-.48-.928-.72-2.016-.72-3.264s.24-2.336.72-3.264c.496-.928 1.152-1.632 1.968-2.112.816-.496 1.704-.744 2.664-.744s1.848.248 2.664.744c.816.48 1.464 1.184 1.944 2.112.496.928.744 2.016.744 3.264s-.248 2.336-.744 3.264c-.48.912-1.128 1.616-1.944 2.112-.816.48-1.704.72-2.664.72zm0-1.464c.688 0 1.296-.192 1.824-.576.544-.384.968-.928 1.272-1.632s.456-1.512.456-2.424-.152-1.72-.456-2.424-.728-1.248-1.272-1.632c-.528-.4-1.136-.6-1.824-.6s-1.304.2-1.848.6c-.528.384-.944.928-1.248 1.632-.288.704-.432 1.512-.432 2.424 0 1.392.328 2.512.984 3.36s1.504 1.272 2.544 1.272zm14.57-14.808c-1.12 0-1.68.784-1.68 2.352v1.992h2.52v1.44h-2.52v10.2h-1.752v-10.2h-1.584v-1.32l1.584-.12v-2.016c0-1.2.272-2.128.816-2.784.56-.656 1.384-.984 2.472-.984.624 0 1.248.128 1.872.384l-.384 1.344c-.448-.192-.896-.288-1.344-.288zm16.089 16.272c-1.2 0-2.088-.376-2.664-1.128-.576-.768-.864-1.904-.864-3.408v-7.392h1.728v7.176c0 1.12.184 1.944.552 2.472.368.512.96.768 1.776.768.592 0 1.128-.16 1.608-.48.496-.32 1.048-.848 1.656-1.584v-8.352h1.752v11.64h-1.464l-.144-1.848h-.072c-.592.688-1.2 1.216-1.824 1.584-.608.368-1.288.552-2.04.552zm14.977 0c-.8 0-1.576-.144-2.328-.432-.752-.304-1.416-.696-1.992-1.176l.888-1.176c.576.464 1.136.816 1.68 1.056s1.152.36 1.824.36c.768 0 1.36-.184 1.776-.552s.624-.832.624-1.392-.24-1.008-.72-1.344c-.464-.336-1.128-.656-1.992-.96-1.104-.4-1.968-.832-2.592-1.296-.624-.48-.936-1.16-.936-2.04 0-.944.352-1.72 1.056-2.328.72-.624 1.688-.936 2.904-.936.656 0 1.288.12 1.896.36s1.152.552 1.632.936l-.84 1.128c-.464-.336-.904-.592-1.32-.768s-.872-.264-1.368-.264c-.736 0-1.296.176-1.68.528-.384.336-.576.752-.576 1.248 0 .352.112.656.336.912.24.256.528.464.864.624.336.144.808.336 1.416.576.816.304 1.456.576 1.92.816s.864.584 1.2 1.032c.336.432.504.992.504 1.68 0 .624-.168 1.2-.504 1.728-.32.512-.8.92-1.44 1.224-.624.304-1.368.456-2.232.456zm18.2888-6.768c0 .416-.024.768-.072 1.056h-8.04c.08 1.36.496 2.416 1.248 3.168.768.752 1.704 1.128 2.808 1.128 1.024 0 2.008-.312 2.952-.936l.648 1.152c-.576.368-1.168.664-1.776.888-.608.208-1.288.312-2.04.312-1.024 0-1.96-.24-2.808-.72-.832-.496-1.496-1.208-1.992-2.136-.48-.928-.72-2.008-.72-3.24 0-1.216.24-2.288.72-3.216.496-.928 1.144-1.64 1.944-2.136.8-.512 1.648-.768 2.544-.768 1.44 0 2.56.488 3.36 1.464.816.96 1.224 2.288 1.224 3.984zm-1.56-.216c0-1.232-.264-2.176-.792-2.832s-1.264-.984-2.208-.984c-.864 0-1.632.328-2.304.984s-1.072 1.6-1.2 2.832zm6.892-4.944h1.44l.144 2.136h.072c.4-.752.888-1.344 1.464-1.776s1.192-.648 1.848-.648c.464 0 .864.08 1.2.24l-.336 1.536c-.416-.128-.784-.192-1.104-.192-.544 0-1.088.224-1.632.672-.528.448-.984 1.144-1.368 2.088v7.584h-1.728zm13.462 11.928c-.8 0-1.576-.144-2.328-.432-.752-.304-1.416-.696-1.992-1.176l.888-1.176c.576.464 1.136.816 1.68 1.056s1.152.36 1.824.36c.768 0 1.36-.184 1.776-.552s.624-.832.624-1.392-.24-1.008-.72-1.344c-.464-.336-1.128-.656-1.992-.96-1.104-.4-1.968-.832-2.592-1.296-.624-.48-.936-1.16-.936-2.04 0-.944.352-1.72 1.056-2.328.72-.624 1.688-.936 2.904-.936.656 0 1.288.12 1.896.36s1.152.552 1.632.936l-.84 1.128c-.464-.336-.904-.592-1.32-.768s-.872-.264-1.368-.264c-.736 0-1.296.176-1.68.528-.384.336-.576.752-.576 1.248 0 .352.112.656.336.912.24.256.528.464.864.624.336.144.808.336 1.416.576.816.304 1.456.576 1.92.816s.864.584 1.2 1.032c.336.432.504.992.504 1.68 0 .624-.168 1.2-.504 1.728-.32.512-.8.92-1.44 1.224-.624.304-1.368.456-2.232.456zm19.253 0c-.992 0-1.808-.288-2.448-.864s-.96-1.384-.96-2.424c0-1.264.576-2.232 1.728-2.904 1.152-.688 2.992-1.168 5.52-1.44 0-.912-.192-1.656-.576-2.232-.368-.592-1.008-.888-1.92-.888-1.104 0-2.28.424-3.528 1.272l-.696-1.2c1.536-1.024 3.04-1.536 4.512-1.536 1.344 0 2.336.424 2.976 1.272.64.832.96 1.984.96 3.456v7.2h-1.44l-.144-1.416h-.072c-1.376 1.136-2.68 1.704-3.912 1.704zm.456-1.416c.56 0 1.104-.128 1.632-.384.544-.272 1.128-.688 1.752-1.248v-3.408c-2 .24-3.424.608-4.272 1.104-.832.496-1.248 1.152-1.248 1.968 0 .656.2 1.152.6 1.488.4.32.912.48 1.536.48zm11.327-10.512h1.44l.144 2.136h.072c.4-.752.888-1.344 1.464-1.776s1.192-.648 1.848-.648c.464 0 .864.08 1.2.24l-.336 1.536c-.416-.128-.784-.192-1.104-.192-.544 0-1.088.224-1.632.672-.528.448-.984 1.144-1.368 2.088v7.584h-1.728zm19.202 5.16c0 .416-.024.768-.072 1.056h-8.04c.08 1.36.496 2.416 1.248 3.168.768.752 1.704 1.128 2.808 1.128 1.024 0 2.008-.312 2.952-.936l.648 1.152c-.576.368-1.168.664-1.776.888-.608.208-1.288.312-2.04.312-1.024 0-1.96-.24-2.808-.72-.832-.496-1.496-1.208-1.992-2.136-.48-.928-.72-2.008-.72-3.24 0-1.216.24-2.288.72-3.216.496-.928 1.144-1.64 1.944-2.136.8-.512 1.648-.768 2.544-.768 1.44 0 2.56.488 3.36 1.464.816.96 1.224 2.288 1.224 3.984zm-1.56-.216c0-1.232-.264-2.176-.792-2.832s-1.264-.984-2.208-.984c-.864 0-1.632.328-2.304.984s-1.072 1.6-1.2 2.832zm13.69-10.176h3.264v4.2l-.144 2.208c.56-.528 1.136-.944 1.728-1.248s1.256-.456 1.992-.456c1.248 0 2.168.416 2.76 1.248.608.816.912 1.992.912 3.528v7.392h-3.288v-6.984c0-.88-.128-1.496-.384-1.848-.24-.352-.64-.528-1.2-.528-.448 0-.84.096-1.176.288s-.736.512-1.2.96v8.112h-3.264zm18.969 17.16c-1.056 0-1.912-.336-2.568-1.008-.64-.672-.96-1.52-.96-2.544 0-1.264.536-2.24 1.608-2.928 1.072-.704 2.792-1.184 5.16-1.44-.048-1.28-.704-1.92-1.968-1.92-.496 0-1 .096-1.512.288s-1.072.464-1.68.816l-1.176-2.16c1.68-1.04 3.344-1.56 4.992-1.56 1.52 0 2.672.448 3.456 1.344.784.88 1.176 2.2 1.176 3.96v6.864h-2.688l-.24-1.248h-.072c-1.184 1.024-2.36 1.536-3.528 1.536zm1.08-2.544c.4 0 .76-.088 1.08-.264.336-.192.696-.472 1.08-.84v-2.28c-1.296.176-2.224.44-2.784.792s-.84.792-.84 1.32c0 .416.128.736.384.96.256.208.616.312 1.08.312zm10.954-9.624h2.664l.24 1.2h.096c.496-.448 1.04-.808 1.632-1.08.608-.272 1.208-.408 1.8-.408 1.44 0 2.576.544 3.408 1.632s1.248 2.56 1.248 4.416c0 1.296-.232 2.432-.696 3.408s-1.08 1.72-1.848 2.232-1.592.768-2.472.768c-1.008 0-1.976-.424-2.904-1.272l.096 1.92v3.576h-3.264zm5.328 9.48c.704 0 1.28-.312 1.728-.936s.672-1.544.672-2.76c0-2.256-.744-3.384-2.232-3.384-.736 0-1.48.384-2.232 1.152v5.088c.64.56 1.328.84 2.064.84zm10.759-9.48h2.664l.24 1.2h.096c.496-.448 1.04-.808 1.632-1.08.608-.272 1.208-.408 1.8-.408 1.44 0 2.576.544 3.408 1.632s1.248 2.56 1.248 4.416c0 1.296-.232 2.432-.696 3.408s-1.08 1.72-1.848 2.232-1.592.768-2.472.768c-1.008 0-1.976-.424-2.904-1.272l.096 1.92v3.576h-3.264zm5.328 9.48c.704 0 1.28-.312 1.728-.936s.672-1.544.672-2.76c0-2.256-.744-3.384-2.232-3.384-.736 0-1.48.384-2.232 1.152v5.088c.64.56 1.328.84 2.064.84zm11.724 7.128c-.576 0-1.128-.08-1.656-.24l.6-2.52c.336.112.608.168.816.168 1.056 0 1.776-.576 2.16-1.728l.192-.672-4.608-11.616h3.312l1.8 5.352c.192.56.416 1.304.672 2.232.112.432.216.808.312 1.128h.096c.208-.912.488-2.032.84-3.36l1.56-5.352h3.144l-4.176 12.144c-.576 1.536-1.24 2.664-1.992 3.384s-1.776 1.08-3.072 1.08zm-209.3086 14.632h1.8l1.824 6.936.216 1.032c.224.96.384 1.688.48 2.184h.096c.304-1.248.576-2.32.816-3.216l1.872-6.936h1.752l1.896 6.936.816 3.216h.096l.768-3.216 1.776-6.936h1.68l-3.168 11.64h-2.16l-1.776-6.504-.456-1.896c-.032-.128-.144-.608-.336-1.44h-.096c-.352 1.584-.632 2.712-.84 3.384l-1.728 6.456h-2.04zm20.903 0h1.728v11.64h-1.728zm.888-2.496c-.352 0-.64-.112-.864-.336s-.336-.52-.336-.888c0-.352.112-.632.336-.84.224-.224.512-.336.864-.336s.64.112.864.336c.224.208.336.488.336.84 0 .368-.112.664-.336.888s-.512.336-.864.336zm10.8525 14.424c-1.152 0-1.976-.328-2.472-.984s-.744-1.592-.744-2.808v-6.696h-1.752v-1.32l1.824-.12.216-3.288h1.464v3.288h3.192v1.44h-3.192v6.744c0 .768.136 1.344.408 1.728.288.384.768.576 1.44.576.336 0 .784-.104 1.344-.312l.36 1.32c-.864.288-1.56.432-2.088.432zm6.8173-17.424h1.728v4.752l-.048 2.448c.64-.64 1.264-1.128 1.872-1.464.608-.352 1.28-.528 2.016-.528 1.216 0 2.112.384 2.688 1.152.576.752.864 1.88.864 3.384v7.392h-1.752v-7.176c0-1.12-.184-1.936-.552-2.448-.352-.512-.936-.768-1.752-.768-.576 0-1.112.152-1.608.456-.496.288-1.072.76-1.728 1.416v8.52h-1.728zm26.0938 17.424c-1.152 0-1.976-.328-2.472-.984s-.744-1.592-.744-2.808v-6.696h-1.752v-1.32l1.824-.12.216-3.288h1.464v3.288h3.192v1.44h-3.192v6.744c0 .768.136 1.344.408 1.728.288.384.768.576 1.44.576.336 0 .784-.104 1.344-.312l.36 1.32c-.864.288-1.56.432-2.088.432zm6.817-17.424h1.728v4.752l-.048 2.448c.64-.64 1.264-1.128 1.872-1.464.608-.352 1.28-.528 2.016-.528 1.216 0 2.112.384 2.688 1.152.576.752.864 1.88.864 3.384v7.392h-1.752v-7.176c0-1.12-.184-1.936-.552-2.448-.352-.512-.936-.768-1.752-.768-.576 0-1.112.152-1.608.456-.496.288-1.072.76-1.728 1.416v8.52h-1.728zm24.241 10.656c0 .416-.024.768-.072 1.056h-8.04c.08 1.36.496 2.416 1.248 3.168.768.752 1.704 1.128 2.808 1.128 1.024 0 2.008-.312 2.952-.936l.648 1.152c-.576.368-1.168.664-1.776.888-.608.208-1.288.312-2.04.312-1.024 0-1.96-.24-2.808-.72-.832-.496-1.496-1.208-1.992-2.136-.48-.928-.72-2.008-.72-3.24 0-1.216.24-2.288.72-3.216.496-.928 1.144-1.64 1.944-2.136.8-.512 1.648-.768 2.544-.768 1.44 0 2.56.488 3.36 1.464.816.96 1.224 2.288 1.224 3.984zm-1.56-.216c0-1.232-.264-2.176-.792-2.832s-1.264-.984-2.208-.984c-.864 0-1.632.328-2.304.984s-1.072 1.6-1.2 2.832zm6.893-4.944h1.728v11.64h-1.728zm.888-2.496c-.352 0-.64-.112-.864-.336s-.336-.52-.336-.888c0-.352.112-.632.336-.84.224-.224.512-.336.864-.336s.64.112.864.336c.224.208.336.488.336.84 0 .368-.112.664-.336.888s-.512.336-.864.336zm7.324 2.496h1.44l.144 2.136h.072c.4-.752.888-1.344 1.464-1.776s1.192-.648 1.848-.648c.464 0 .864.08 1.2.24l-.336 1.536c-.416-.128-.784-.192-1.104-.192-.544 0-1.088.224-1.632.672-.528.448-.984 1.144-1.368 2.088v7.584h-1.728zm22.273 11.928c-1.024 0-1.952-.24-2.784-.72-.816-.496-1.464-1.2-1.944-2.112-.464-.912-.696-2-.696-3.264 0-1.248.248-2.336.744-3.264.512-.928 1.192-1.632 2.04-2.112.848-.496 1.768-.744 2.76-.744 1.264 0 2.392.464 3.384 1.392l-.912 1.152c-.384-.352-.768-.616-1.152-.792-.384-.192-.8-.288-1.248-.288-.72 0-1.368.2-1.944.6-.576.384-1.032.928-1.368 1.632-.32.704-.48 1.512-.48 2.424 0 1.392.344 2.512 1.032 3.36s1.592 1.272 2.712 1.272c1.008 0 1.952-.4 2.832-1.2l.768 1.176c-.528.464-1.112.832-1.752 1.104-.64.256-1.304.384-1.992.384zm12.147 0c-1.2 0-2.088-.376-2.664-1.128-.576-.768-.864-1.904-.864-3.408v-7.392h1.728v7.176c0 1.12.184 1.944.552 2.472.368.512.96.768 1.776.768.592 0 1.128-.16 1.608-.48.496-.32 1.048-.848 1.656-1.584v-8.352h1.752v11.64h-1.464l-.144-1.848h-.072c-.592.688-1.2 1.216-1.824 1.584-.608.368-1.288.552-2.04.552zm12-11.928h1.44l.144 2.136h.072c.4-.752.888-1.344 1.464-1.776s1.192-.648 1.848-.648c.464 0 .864.08 1.2.24l-.336 1.536c-.416-.128-.784-.192-1.104-.192-.544 0-1.088.224-1.632.672-.528.448-.984 1.144-1.368 2.088v7.584h-1.728zm10.557 0h1.44l.144 2.136h.072c.4-.752.888-1.344 1.464-1.776s1.192-.648 1.848-.648c.464 0 .864.08 1.2.24l-.336 1.536c-.416-.128-.784-.192-1.104-.192-.544 0-1.088.224-1.632.672-.528.448-.984 1.144-1.368 2.088v7.584h-1.728zm19.202 5.16c0 .416-.024.768-.072 1.056h-8.04c.08 1.36.496 2.416 1.248 3.168.768.752 1.704 1.128 2.808 1.128 1.024 0 2.008-.312 2.952-.936l.648 1.152c-.576.368-1.168.664-1.776.888-.608.208-1.288.312-2.04.312-1.024 0-1.96-.24-2.808-.72-.832-.496-1.496-1.208-1.992-2.136-.48-.928-.72-2.008-.72-3.24 0-1.216.24-2.288.72-3.216.496-.928 1.144-1.64 1.944-2.136.8-.512 1.648-.768 2.544-.768 1.44 0 2.56.488 3.36 1.464.816.96 1.224 2.288 1.224 3.984zm-1.56-.216c0-1.232-.264-2.176-.792-2.832s-1.264-.984-2.208-.984c-.864 0-1.632.328-2.304.984s-1.072 1.6-1.2 2.832zm6.892-4.944h1.44l.144 1.728h.072c.64-.64 1.264-1.136 1.872-1.488.624-.352 1.304-.528 2.04-.528 1.216 0 2.112.384 2.688 1.152.576.752.864 1.88.864 3.384v7.392h-1.752v-7.176c0-1.12-.184-1.936-.552-2.448-.352-.512-.936-.768-1.752-.768-.576 0-1.112.152-1.608.456-.496.288-1.072.76-1.728 1.416v8.52h-1.728zm18.959 11.928c-1.152 0-1.976-.328-2.472-.984s-.744-1.592-.744-2.808v-6.696h-1.752v-1.32l1.824-.12.216-3.288h1.464v3.288h3.192v1.44h-3.192v6.744c0 .768.136 1.344.408 1.728.288.384.768.576 1.44.576.336 0 .784-.104 1.344-.312l.36 1.32c-.864.288-1.56.432-2.088.432zm-141.449 31c-.8 0-1.576-.144-2.328-.432-.752-.304-1.416-.696-1.992-1.176l.888-1.176c.576.464 1.136.816 1.68 1.056s1.152.36 1.824.36c.768 0 1.36-.184 1.776-.552s.624-.832.624-1.392-.24-1.008-.72-1.344c-.464-.336-1.128-.656-1.992-.96-1.104-.4-1.968-.832-2.592-1.296-.624-.48-.936-1.16-.936-2.04 0-.944.352-1.72 1.056-2.328.72-.624 1.688-.936 2.904-.936.656 0 1.288.12 1.896.36s1.152.552 1.632.936l-.84 1.128c-.464-.336-.904-.592-1.32-.768s-.872-.264-1.368-.264c-.736 0-1.296.176-1.68.528-.384.336-.576.752-.576 1.248 0 .352.112.656.336.912.24.256.528.464.864.624.336.144.808.336 1.416.576.816.304 1.456.576 1.92.816s.864.584 1.2 1.032c.336.432.504.992.504 1.68 0 .624-.168 1.2-.504 1.728-.32.512-.8.92-1.44 1.224-.624.304-1.368.456-2.232.456zm18.289-6.768c0 .416-.024.768-.072 1.056h-8.04c.08 1.36.496 2.416 1.248 3.168.768.752 1.704 1.128 2.808 1.128 1.024 0 2.008-.312 2.952-.936l.648 1.152c-.576.368-1.168.664-1.776.888-.608.208-1.288.312-2.04.312-1.024 0-1.96-.24-2.808-.72-.832-.496-1.496-1.208-1.992-2.136-.48-.928-.72-2.008-.72-3.24 0-1.216.24-2.288.72-3.216.496-.928 1.144-1.64 1.944-2.136.8-.512 1.648-.768 2.544-.768 1.44 0 2.56.488 3.36 1.464.816.96 1.224 2.288 1.224 3.984zm-1.56-.216c0-1.232-.264-2.176-.792-2.832s-1.264-.984-2.208-.984c-.864 0-1.632.328-2.304.984s-1.072 1.6-1.2 2.832zm6.892-4.944h1.44l.144 2.136h.072c.4-.752.888-1.344 1.464-1.776s1.192-.648 1.848-.648c.464 0 .864.08 1.2.24l-.336 1.536c-.416-.128-.784-.192-1.104-.192-.544 0-1.088.224-1.632.672-.528.448-.984 1.144-1.368 2.088v7.584h-1.728zm9.484 0h1.8l2.304 6.792 1.104 3.408h.096l1.104-3.408 2.304-6.792h1.728l-4.176 11.64h-2.016zm15.168 0h1.728v11.64h-1.728zm.888-2.496c-.352 0-.64-.112-.864-.336s-.336-.52-.336-.888c0-.352.112-.632.336-.84.224-.224.512-.336.864-.336s.64.112.864.336c.224.208.336.488.336.84 0 .368-.112.664-.336.888s-.512.336-.864.336zm11.836 14.424c-1.024 0-1.952-.24-2.784-.72-.816-.496-1.464-1.2-1.944-2.112-.464-.912-.696-2-.696-3.264 0-1.248.248-2.336.744-3.264.512-.928 1.192-1.632 2.04-2.112.848-.496 1.768-.744 2.76-.744 1.264 0 2.392.464 3.384 1.392l-.912 1.152c-.384-.352-.768-.616-1.152-.792-.384-.192-.8-.288-1.248-.288-.72 0-1.368.2-1.944.6-.576.384-1.032.928-1.368 1.632-.32.704-.48 1.512-.48 2.424 0 1.392.344 2.512 1.032 3.36s1.592 1.272 2.712 1.272c1.008 0 1.952-.4 2.832-1.2l.768 1.176c-.528.464-1.112.832-1.752 1.104-.64.256-1.304.384-1.992.384zm17.198-6.768c0 .416-.024.768-.072 1.056h-8.04c.08 1.36.496 2.416 1.248 3.168.768.752 1.704 1.128 2.808 1.128 1.024 0 2.008-.312 2.952-.936l.648 1.152c-.576.368-1.168.664-1.776.888-.608.208-1.288.312-2.04.312-1.024 0-1.96-.24-2.808-.72-.832-.496-1.496-1.208-1.992-2.136-.48-.928-.72-2.008-.72-3.24 0-1.216.24-2.288.72-3.216.496-.928 1.144-1.64 1.944-2.136.8-.512 1.648-.768 2.544-.768 1.44 0 2.56.488 3.36 1.464.816.96 1.224 2.288 1.224 3.984zm-1.56-.216c0-1.232-.264-2.176-.792-2.832s-1.264-.984-2.208-.984c-.864 0-1.632.328-2.304.984s-1.072 1.6-1.2 2.832z"/><path d="m80.6246 134.152c-3.84 0-7.328-.704-10.464-2.112-3.136-1.472-5.6-3.488-7.392-6.048-1.728-2.56-2.592-5.44-2.592-8.64 0-3.584 1.056-6.72 3.168-9.408s4.8-4.896 8.064-6.624v-.384c-5.632-3.968-8.448-8.704-8.448-14.208 0-3.2.768-5.984 2.304-8.352 1.6-2.432 3.744-4.32 6.432-5.664 2.752-1.344 5.824-2.016 9.216-2.016 5.376 0 9.664 1.536 12.864 4.608 3.2 3.008 4.8 6.944 4.8 11.808 0 2.88-.832 5.6-2.496 8.16-1.6 2.496-3.52 4.544-5.76 6.144v.384c3.264 1.92 5.824 4.128 7.68 6.624 1.92 2.432 2.8804 5.504 2.8804 9.216 0 3.072-.864 5.888-2.5924 8.448-1.664 2.496-4.032 4.48-7.104 5.952-3.072 1.408-6.592 2.112-10.56 2.112zm4.128-35.136c3.776-3.584 5.664-7.36 5.664-11.328 0-2.944-.864-5.344-2.592-7.2s-4.096-2.784-7.104-2.784c-2.624 0-4.8.832-6.528 2.496-1.664 1.6-2.496 3.776-2.496 6.528 0 3.008 1.088 5.376 3.264 7.104 2.24 1.728 5.504 3.456 9.792 5.184zm-3.936 28.128c3.264 0 5.888-.896 7.872-2.688 2.048-1.792 3.072-4.16 3.072-7.104 0-2.24-.672-4.128-2.016-5.664-1.28-1.536-2.912-2.784-4.896-3.744-1.92-1.024-4.8-2.304-8.64-3.84-2.24 1.6-4.032 3.456-5.376 5.568-1.344 2.048-2.016 4.288-2.016 6.72 0 3.136 1.12 5.728 3.36 7.776 2.304 1.984 5.184 2.976 8.64 2.976zm57.8744 7.008c-6.336 0-11.296-2.784-14.88-8.352s-5.376-13.44-5.376-23.616 1.792-17.952 5.376-23.328c3.584-5.44 8.544-8.16 14.88-8.16s11.296 2.72 14.88 8.16 5.376 13.216 5.376 23.328c0 10.176-1.792 18.048-5.376 23.616s-8.544 8.352-14.88 8.352zm0-7.68c3.392 0 6.048-1.952 7.968-5.856 1.984-3.904 2.976-10.048 2.976-18.432 0-15.872-3.648-23.808-10.944-23.808s-10.944 7.936-10.944 23.808c0 8.384.96 14.528 2.88 18.432 1.984 3.904 4.672 5.856 8.064 5.856zm51.635-18.72c-4.416 0-7.968-1.76-10.656-5.28s-4.032-8.416-4.032-14.688c0-6.208 1.344-11.04 4.032-14.496 2.688-3.52 6.24-5.28 10.656-5.28s7.968 1.76 10.656 5.28c2.688 3.456 4.032 8.288 4.032 14.496 0 6.272-1.344 11.168-4.032 14.688s-6.24 5.28-10.656 5.28zm36.096-38.784h6.144l-34.464 65.184h-6.144zm-36.096 33.024c2.304 0 4.128-1.184 5.472-3.552 1.408-2.432 2.112-5.984 2.112-10.656s-.704-8.16-2.112-10.464c-1.344-2.368-3.168-3.552-5.472-3.552s-4.16 1.184-5.568 3.552c-1.344 2.304-2.016 5.792-2.016 10.464s.672 8.224 2.016 10.656c1.408 2.368 3.264 3.552 5.568 3.552zm44.064 32.16c-4.416 0-7.968-1.76-10.656-5.28s-4.032-8.416-4.032-14.688c0-6.208 1.344-11.04 4.032-14.496 2.688-3.52 6.24-5.28 10.656-5.28s7.968 1.76 10.656 5.28c2.688 3.456 4.032 8.288 4.032 14.496 0 6.272-1.344 11.168-4.032 14.688s-6.24 5.28-10.656 5.28zm0-5.76c2.304 0 4.128-1.184 5.472-3.552 1.408-2.432 2.112-5.984 2.112-10.656s-.704-8.16-2.112-10.464c-1.344-2.368-3.168-3.552-5.472-3.552s-4.16 1.184-5.568 3.552c-1.344 2.304-2.016 5.792-2.016 10.464s.672 8.224 2.016 10.656c1.408 2.368 3.264 3.552 5.568 3.552z"/></g></svg>