<svg width="300" height="300" viewBox="0 0 300 300" fill="none" xmlns="http://www.w3.org/2000/svg">
<circle cx="150" cy="150" r="147.5" stroke="#EE701B" stroke-width="5"/>
<path d="M46.6652 175.288C45.7052 175.288 44.8172 175.048 44.0012 174.568C43.1852 174.072 42.5292 173.368 42.0332 172.456C41.5532 171.528 41.3132 170.44 41.3132 169.192C41.3132 167.944 41.5532 166.856 42.0332 165.928C42.5292 165 43.1852 164.296 44.0012 163.816C44.8172 163.32 45.7052 163.072 46.6652 163.072C47.6252 163.072 48.5132 163.32 49.3292 163.816C50.1452 164.296 50.7932 165 51.2732 165.928C51.7692 166.856 52.0172 167.944 52.0172 169.192C52.0172 170.44 51.7692 171.528 51.2732 172.456C50.7932 173.368 50.1452 174.072 49.3292 174.568C48.5132 175.048 47.6252 175.288 46.6652 175.288ZM46.6652 173.824C47.3532 173.824 47.9612 173.632 48.4892 173.248C49.0332 172.864 49.4572 172.32 49.7612 171.616C50.0652 170.912 50.2172 170.104 50.2172 169.192C50.2172 168.28 50.0652 167.472 49.7612 166.768C49.4572 166.064 49.0332 165.52 48.4892 165.136C47.9612 164.736 47.3532 164.536 46.6652 164.536C45.9772 164.536 45.3612 164.736 44.8172 165.136C44.2892 165.52 43.8732 166.064 43.5692 166.768C43.2812 167.472 43.1372 168.28 43.1372 169.192C43.1372 170.584 43.4652 171.704 44.1212 172.552C44.7772 173.4 45.6252 173.824 46.6652 173.824ZM61.2352 159.016C60.1152 159.016 59.5552 159.8 59.5552 161.368V163.36H62.0752V164.8H59.5552V175H57.8032V164.8H56.2192V163.48L57.8032 163.36V161.344C57.8032 160.144 58.0752 159.216 58.6192 158.56C59.1792 157.904 60.0032 157.576 61.0912 157.576C61.7152 157.576 62.3392 157.704 62.9632 157.96L62.5792 159.304C62.1312 159.112 61.6832 159.016 61.2352 159.016ZM77.3242 175.288C76.1242 175.288 75.2362 174.912 74.6602 174.16C74.0842 173.392 73.7962 172.256 73.7962 170.752V163.36H75.5242V170.536C75.5242 171.656 75.7082 172.48 76.0762 173.008C76.4442 173.52 77.0362 173.776 77.8522 173.776C78.4442 173.776 78.9802 173.616 79.4602 173.296C79.9562 172.976 80.5082 172.448 81.1162 171.712V163.36H82.8682V175H81.4042L81.2602 173.152H81.1882C80.5962 173.84 79.9882 174.368 79.3642 174.736C78.7562 175.104 78.0762 175.288 77.3242 175.288ZM92.3012 175.288C91.5012 175.288 90.7252 175.144 89.9732 174.856C89.2212 174.552 88.5572 174.16 87.9812 173.68L88.8692 172.504C89.4452 172.968 90.0052 173.32 90.5492 173.56C91.0932 173.8 91.7012 173.92 92.3732 173.92C93.1412 173.92 93.7332 173.736 94.1492 173.368C94.5652 173 94.7732 172.536 94.7732 171.976C94.7732 171.416 94.5332 170.968 94.0532 170.632C93.5892 170.296 92.9252 169.976 92.0612 169.672C90.9572 169.272 90.0932 168.84 89.4692 168.376C88.8452 167.896 88.5332 167.216 88.5332 166.336C88.5332 165.392 88.8852 164.616 89.5892 164.008C90.3092 163.384 91.2772 163.072 92.4932 163.072C93.1492 163.072 93.7812 163.192 94.3892 163.432C94.9972 163.672 95.5412 163.984 96.0212 164.368L95.1812 165.496C94.7172 165.16 94.2772 164.904 93.8612 164.728C93.4452 164.552 92.9892 164.464 92.4932 164.464C91.7572 164.464 91.1972 164.64 90.8132 164.992C90.4292 165.328 90.2372 165.744 90.2372 166.24C90.2372 166.592 90.3492 166.896 90.5732 167.152C90.8132 167.408 91.1012 167.616 91.4372 167.776C91.7732 167.92 92.2452 168.112 92.8532 168.352C93.6692 168.656 94.3092 168.928 94.7732 169.168C95.2372 169.408 95.6372 169.752 95.9732 170.2C96.3092 170.632 96.4772 171.192 96.4772 171.88C96.4772 172.504 96.3092 173.08 95.9732 173.608C95.6532 174.12 95.1732 174.528 94.5332 174.832C93.9092 175.136 93.1652 175.288 92.3012 175.288ZM110.59 168.52C110.59 168.936 110.566 169.288 110.518 169.576H102.478C102.558 170.936 102.974 171.992 103.726 172.744C104.494 173.496 105.43 173.872 106.534 173.872C107.558 173.872 108.542 173.56 109.486 172.936L110.134 174.088C109.558 174.456 108.966 174.752 108.358 174.976C107.75 175.184 107.07 175.288 106.318 175.288C105.294 175.288 104.358 175.048 103.51 174.568C102.678 174.072 102.014 173.36 101.518 172.432C101.038 171.504 100.798 170.424 100.798 169.192C100.798 167.976 101.038 166.904 101.518 165.976C102.014 165.048 102.662 164.336 103.462 163.84C104.262 163.328 105.11 163.072 106.006 163.072C107.446 163.072 108.566 163.56 109.366 164.536C110.182 165.496 110.59 166.824 110.59 168.52ZM109.03 168.304C109.03 167.072 108.766 166.128 108.238 165.472C107.71 164.816 106.974 164.488 106.03 164.488C105.166 164.488 104.398 164.816 103.726 165.472C103.054 166.128 102.654 167.072 102.526 168.304H109.03ZM115.922 163.36H117.362L117.506 165.496H117.578C117.978 164.744 118.466 164.152 119.042 163.72C119.618 163.288 120.234 163.072 120.89 163.072C121.354 163.072 121.754 163.152 122.09 163.312L121.754 164.848C121.338 164.72 120.97 164.656 120.65 164.656C120.106 164.656 119.562 164.88 119.018 165.328C118.49 165.776 118.034 166.472 117.65 167.416V175H115.922V163.36ZM129.384 175.288C128.584 175.288 127.808 175.144 127.056 174.856C126.304 174.552 125.64 174.16 125.064 173.68L125.952 172.504C126.528 172.968 127.088 173.32 127.632 173.56C128.176 173.8 128.784 173.92 129.456 173.92C130.224 173.92 130.816 173.736 131.232 173.368C131.648 173 131.856 172.536 131.856 171.976C131.856 171.416 131.616 170.968 131.136 170.632C130.672 170.296 130.008 169.976 129.144 169.672C128.04 169.272 127.176 168.84 126.552 168.376C125.928 167.896 125.616 167.216 125.616 166.336C125.616 165.392 125.968 164.616 126.672 164.008C127.392 163.384 128.36 163.072 129.576 163.072C130.232 163.072 130.864 163.192 131.472 163.432C132.08 163.672 132.624 163.984 133.104 164.368L132.264 165.496C131.8 165.16 131.36 164.904 130.944 164.728C130.528 164.552 130.072 164.464 129.576 164.464C128.84 164.464 128.28 164.64 127.896 164.992C127.512 165.328 127.32 165.744 127.32 166.24C127.32 166.592 127.432 166.896 127.656 167.152C127.896 167.408 128.184 167.616 128.52 167.776C128.856 167.92 129.328 168.112 129.936 168.352C130.752 168.656 131.392 168.928 131.856 169.168C132.32 169.408 132.72 169.752 133.056 170.2C133.392 170.632 133.56 171.192 133.56 171.88C133.56 172.504 133.392 173.08 133.056 173.608C132.736 174.12 132.256 174.528 131.616 174.832C130.992 175.136 130.248 175.288 129.384 175.288ZM148.637 175.288C147.645 175.288 146.829 175 146.189 174.424C145.549 173.848 145.229 173.04 145.229 172C145.229 170.736 145.805 169.768 146.957 169.096C148.109 168.408 149.949 167.928 152.477 167.656C152.477 166.744 152.285 166 151.901 165.424C151.533 164.832 150.893 164.536 149.981 164.536C148.877 164.536 147.701 164.96 146.453 165.808L145.757 164.608C147.293 163.584 148.797 163.072 150.269 163.072C151.613 163.072 152.605 163.496 153.245 164.344C153.885 165.176 154.205 166.328 154.205 167.8V175H152.765L152.621 173.584H152.549C151.173 174.72 149.869 175.288 148.637 175.288ZM149.093 173.872C149.653 173.872 150.197 173.744 150.725 173.488C151.269 173.216 151.853 172.8 152.477 172.24V168.832C150.477 169.072 149.053 169.44 148.205 169.936C147.373 170.432 146.957 171.088 146.957 171.904C146.957 172.56 147.157 173.056 147.557 173.392C147.957 173.712 148.469 173.872 149.093 173.872ZM160.42 163.36H161.86L162.004 165.496H162.076C162.476 164.744 162.964 164.152 163.54 163.72C164.116 163.288 164.732 163.072 165.388 163.072C165.852 163.072 166.252 163.152 166.588 163.312L166.252 164.848C165.836 164.72 165.468 164.656 165.148 164.656C164.604 164.656 164.06 164.88 163.516 165.328C162.988 165.776 162.532 166.472 162.148 167.416V175H160.42V163.36ZM179.622 168.52C179.622 168.936 179.598 169.288 179.55 169.576H171.51C171.59 170.936 172.006 171.992 172.758 172.744C173.526 173.496 174.462 173.872 175.566 173.872C176.59 173.872 177.574 173.56 178.518 172.936L179.166 174.088C178.59 174.456 177.998 174.752 177.39 174.976C176.782 175.184 176.102 175.288 175.35 175.288C174.326 175.288 173.39 175.048 172.542 174.568C171.71 174.072 171.046 173.36 170.55 172.432C170.07 171.504 169.83 170.424 169.83 169.192C169.83 167.976 170.07 166.904 170.55 165.976C171.046 165.048 171.694 164.336 172.494 163.84C173.294 163.328 174.142 163.072 175.038 163.072C176.478 163.072 177.598 163.56 178.398 164.536C179.214 165.496 179.622 166.824 179.622 168.52ZM178.062 168.304C178.062 167.072 177.798 166.128 177.27 165.472C176.742 164.816 176.006 164.488 175.062 164.488C174.198 164.488 173.43 164.816 172.758 165.472C172.086 166.128 171.686 167.072 171.558 168.304H178.062ZM191.752 158.128H195.016V162.328L194.872 164.536C195.432 164.008 196.008 163.592 196.6 163.288C197.192 162.984 197.856 162.832 198.592 162.832C199.84 162.832 200.76 163.248 201.352 164.08C201.96 164.896 202.264 166.072 202.264 167.608V175H198.976V168.016C198.976 167.136 198.848 166.52 198.592 166.168C198.352 165.816 197.952 165.64 197.392 165.64C196.944 165.64 196.552 165.736 196.216 165.928C195.88 166.12 195.48 166.44 195.016 166.888V175H191.752V158.128ZM210.721 175.288C209.665 175.288 208.809 174.952 208.153 174.28C207.513 173.608 207.193 172.76 207.193 171.736C207.193 170.472 207.729 169.496 208.801 168.808C209.873 168.104 211.593 167.624 213.961 167.368C213.913 166.088 213.257 165.448 211.993 165.448C211.497 165.448 210.993 165.544 210.481 165.736C209.969 165.928 209.409 166.2 208.801 166.552L207.625 164.392C209.305 163.352 210.969 162.832 212.617 162.832C214.137 162.832 215.289 163.28 216.073 164.176C216.857 165.056 217.249 166.376 217.249 168.136V175H214.561L214.321 173.752H214.249C213.065 174.776 211.889 175.288 210.721 175.288ZM211.801 172.744C212.201 172.744 212.561 172.656 212.881 172.48C213.217 172.288 213.577 172.008 213.961 171.64V169.36C212.665 169.536 211.737 169.8 211.177 170.152C210.617 170.504 210.337 170.944 210.337 171.472C210.337 171.888 210.465 172.208 210.721 172.432C210.977 172.64 211.337 172.744 211.801 172.744ZM222.755 163.12H225.419L225.659 164.32H225.755C226.251 163.872 226.795 163.512 227.387 163.24C227.995 162.968 228.595 162.832 229.187 162.832C230.627 162.832 231.763 163.376 232.595 164.464C233.427 165.552 233.843 167.024 233.843 168.88C233.843 170.176 233.611 171.312 233.147 172.288C232.683 173.264 232.067 174.008 231.299 174.52C230.531 175.032 229.707 175.288 228.827 175.288C227.819 175.288 226.851 174.864 225.923 174.016L226.019 175.936V179.512H222.755V163.12ZM228.083 172.6C228.787 172.6 229.363 172.288 229.811 171.664C230.259 171.04 230.483 170.12 230.483 168.904C230.483 166.648 229.739 165.52 228.251 165.52C227.515 165.52 226.771 165.904 226.019 166.672V171.76C226.659 172.32 227.347 172.6 228.083 172.6ZM238.842 163.12H241.506L241.746 164.32H241.842C242.338 163.872 242.882 163.512 243.474 163.24C244.082 162.968 244.682 162.832 245.274 162.832C246.714 162.832 247.85 163.376 248.682 164.464C249.514 165.552 249.93 167.024 249.93 168.88C249.93 170.176 249.698 171.312 249.234 172.288C248.77 173.264 248.154 174.008 247.386 174.52C246.618 175.032 245.794 175.288 244.914 175.288C243.906 175.288 242.938 174.864 242.01 174.016L242.106 175.936V179.512H238.842V163.12ZM244.17 172.6C244.874 172.6 245.45 172.288 245.898 171.664C246.346 171.04 246.57 170.12 246.57 168.904C246.57 166.648 245.826 165.52 244.338 165.52C243.602 165.52 242.858 165.904 242.106 166.672V171.76C242.746 172.32 243.434 172.6 244.17 172.6ZM255.894 179.728C255.318 179.728 254.766 179.648 254.238 179.488L254.838 176.968C255.174 177.08 255.446 177.136 255.654 177.136C256.71 177.136 257.43 176.56 257.814 175.408L258.006 174.736L253.398 163.12H256.71L258.51 168.472C258.702 169.032 258.926 169.776 259.182 170.704C259.294 171.136 259.398 171.512 259.494 171.832H259.59C259.798 170.92 260.078 169.8 260.43 168.472L261.99 163.12H265.134L260.958 175.264C260.382 176.8 259.718 177.928 258.966 178.648C258.214 179.368 257.19 179.728 255.894 179.728ZM46.5854 194.36H48.3854L50.2094 201.296L50.4254 202.328C50.6494 203.288 50.8094 204.016 50.9054 204.512H51.0014C51.3054 203.264 51.5774 202.192 51.8174 201.296L53.6894 194.36H55.4414L57.3374 201.296L58.1534 204.512H58.2494L59.0174 201.296L60.7934 194.36H62.4734L59.3054 206H57.1454L55.3694 199.496L54.9134 197.6C54.8814 197.472 54.7694 196.992 54.5774 196.16H54.4814C54.1294 197.744 53.8494 198.872 53.6414 199.544L51.9134 206H49.8734L46.5854 194.36ZM67.4884 194.36H69.2164V206H67.4884V194.36ZM68.3764 191.864C68.0244 191.864 67.7364 191.752 67.5124 191.528C67.2884 191.304 67.1764 191.008 67.1764 190.64C67.1764 190.288 67.2884 190.008 67.5124 189.8C67.7364 189.576 68.0244 189.464 68.3764 189.464C68.7284 189.464 69.0164 189.576 69.2404 189.8C69.4644 190.008 69.5764 190.288 69.5764 190.64C69.5764 191.008 69.4644 191.304 69.2404 191.528C69.0164 191.752 68.7284 191.864 68.3764 191.864ZM79.2289 206.288C78.0769 206.288 77.2529 205.96 76.7569 205.304C76.2609 204.648 76.0129 203.712 76.0129 202.496V195.8H74.2609V194.48L76.0849 194.36L76.3009 191.072H77.7649V194.36H80.9569V195.8H77.7649V202.544C77.7649 203.312 77.9009 203.888 78.1729 204.272C78.4609 204.656 78.9409 204.848 79.6129 204.848C79.9489 204.848 80.3969 204.744 80.9569 204.536L81.3169 205.856C80.4529 206.144 79.7569 206.288 79.2289 206.288ZM86.0462 188.864H87.7742V193.616L87.7262 196.064C88.3662 195.424 88.9902 194.936 89.5982 194.6C90.2062 194.248 90.8782 194.072 91.6142 194.072C92.8302 194.072 93.7262 194.456 94.3022 195.224C94.8782 195.976 95.1662 197.104 95.1662 198.608V206H93.4142V198.824C93.4142 197.704 93.2302 196.888 92.8622 196.376C92.5102 195.864 91.9262 195.608 91.1102 195.608C90.5342 195.608 89.9982 195.76 89.5022 196.064C89.0062 196.352 88.4302 196.824 87.7742 197.48V206H86.0462V188.864ZM112.14 206.288C110.988 206.288 110.164 205.96 109.668 205.304C109.172 204.648 108.924 203.712 108.924 202.496V195.8H107.172V194.48L108.996 194.36L109.212 191.072H110.676V194.36H113.868V195.8H110.676V202.544C110.676 203.312 110.812 203.888 111.084 204.272C111.372 204.656 111.852 204.848 112.524 204.848C112.86 204.848 113.308 204.744 113.868 204.536L114.228 205.856C113.364 206.144 112.668 206.288 112.14 206.288ZM118.957 188.864H120.685V193.616L120.637 196.064C121.277 195.424 121.901 194.936 122.509 194.6C123.117 194.248 123.789 194.072 124.525 194.072C125.741 194.072 126.637 194.456 127.213 195.224C127.789 195.976 128.077 197.104 128.077 198.608V206H126.325V198.824C126.325 197.704 126.141 196.888 125.773 196.376C125.421 195.864 124.837 195.608 124.021 195.608C123.445 195.608 122.909 195.76 122.413 196.064C121.917 196.352 121.341 196.824 120.685 197.48V206H118.957V188.864ZM143.198 199.52C143.198 199.936 143.174 200.288 143.126 200.576H135.086C135.166 201.936 135.582 202.992 136.334 203.744C137.102 204.496 138.038 204.872 139.142 204.872C140.166 204.872 141.15 204.56 142.094 203.936L142.742 205.088C142.166 205.456 141.574 205.752 140.966 205.976C140.358 206.184 139.678 206.288 138.926 206.288C137.902 206.288 136.966 206.048 136.118 205.568C135.286 205.072 134.622 204.36 134.126 203.432C133.646 202.504 133.406 201.424 133.406 200.192C133.406 198.976 133.646 197.904 134.126 196.976C134.622 196.048 135.27 195.336 136.07 194.84C136.87 194.328 137.718 194.072 138.614 194.072C140.054 194.072 141.174 194.56 141.974 195.536C142.79 196.496 143.198 197.824 143.198 199.52ZM141.638 199.304C141.638 198.072 141.374 197.128 140.846 196.472C140.318 195.816 139.582 195.488 138.638 195.488C137.774 195.488 137.006 195.816 136.334 196.472C135.662 197.128 135.262 198.072 135.134 199.304H141.638ZM148.531 194.36H150.259V206H148.531V194.36ZM149.419 191.864C149.067 191.864 148.779 191.752 148.555 191.528C148.331 191.304 148.219 191.008 148.219 190.64C148.219 190.288 148.331 190.008 148.555 189.8C148.779 189.576 149.067 189.464 149.419 189.464C149.771 189.464 150.059 189.576 150.283 189.8C150.507 190.008 150.619 190.288 150.619 190.64C150.619 191.008 150.507 191.304 150.283 191.528C150.059 191.752 149.771 191.864 149.419 191.864ZM156.743 194.36H158.183L158.327 196.496H158.399C158.799 195.744 159.287 195.152 159.863 194.72C160.439 194.288 161.055 194.072 161.711 194.072C162.175 194.072 162.575 194.152 162.911 194.312L162.575 195.848C162.159 195.72 161.791 195.656 161.471 195.656C160.927 195.656 160.383 195.88 159.839 196.328C159.311 196.776 158.855 197.472 158.471 198.416V206H156.743V194.36ZM179.016 206.288C177.992 206.288 177.064 206.048 176.232 205.568C175.416 205.072 174.768 204.368 174.288 203.456C173.824 202.544 173.592 201.456 173.592 200.192C173.592 198.944 173.84 197.856 174.336 196.928C174.848 196 175.528 195.296 176.376 194.816C177.224 194.32 178.144 194.072 179.136 194.072C180.4 194.072 181.528 194.536 182.52 195.464L181.608 196.616C181.224 196.264 180.84 196 180.456 195.824C180.072 195.632 179.656 195.536 179.208 195.536C178.488 195.536 177.84 195.736 177.264 196.136C176.688 196.52 176.232 197.064 175.896 197.768C175.576 198.472 175.416 199.28 175.416 200.192C175.416 201.584 175.76 202.704 176.448 203.552C177.136 204.4 178.04 204.824 179.16 204.824C180.168 204.824 181.112 204.424 181.992 203.624L182.76 204.8C182.232 205.264 181.648 205.632 181.008 205.904C180.368 206.16 179.704 206.288 179.016 206.288ZM191.163 206.288C189.963 206.288 189.075 205.912 188.499 205.16C187.923 204.392 187.635 203.256 187.635 201.752V194.36H189.363V201.536C189.363 202.656 189.547 203.48 189.915 204.008C190.283 204.52 190.875 204.776 191.691 204.776C192.283 204.776 192.819 204.616 193.299 204.296C193.795 203.976 194.347 203.448 194.955 202.712V194.36H196.707V206H195.243L195.099 204.152H195.027C194.435 204.84 193.827 205.368 193.203 205.736C192.595 206.104 191.915 206.288 191.163 206.288ZM203.163 194.36H204.603L204.747 196.496H204.819C205.219 195.744 205.707 195.152 206.283 194.72C206.859 194.288 207.475 194.072 208.131 194.072C208.595 194.072 208.995 194.152 209.331 194.312L208.995 195.848C208.579 195.72 208.211 195.656 207.891 195.656C207.347 195.656 206.803 195.88 206.259 196.328C205.731 196.776 205.275 197.472 204.891 198.416V206H203.163V194.36ZM213.72 194.36H215.16L215.304 196.496H215.376C215.776 195.744 216.264 195.152 216.84 194.72C217.416 194.288 218.032 194.072 218.688 194.072C219.152 194.072 219.552 194.152 219.888 194.312L219.552 195.848C219.136 195.72 218.768 195.656 218.448 195.656C217.904 195.656 217.36 195.88 216.816 196.328C216.288 196.776 215.832 197.472 215.448 198.416V206H213.72V194.36ZM232.922 199.52C232.922 199.936 232.898 200.288 232.85 200.576H224.81C224.89 201.936 225.306 202.992 226.058 203.744C226.826 204.496 227.762 204.872 228.866 204.872C229.89 204.872 230.874 204.56 231.818 203.936L232.466 205.088C231.89 205.456 231.298 205.752 230.69 205.976C230.082 206.184 229.402 206.288 228.65 206.288C227.626 206.288 226.69 206.048 225.842 205.568C225.01 205.072 224.346 204.36 223.85 203.432C223.37 202.504 223.13 201.424 223.13 200.192C223.13 198.976 223.37 197.904 223.85 196.976C224.346 196.048 224.994 195.336 225.794 194.84C226.594 194.328 227.442 194.072 228.338 194.072C229.778 194.072 230.898 194.56 231.698 195.536C232.514 196.496 232.922 197.824 232.922 199.52ZM231.362 199.304C231.362 198.072 231.098 197.128 230.57 196.472C230.042 195.816 229.306 195.488 228.362 195.488C227.498 195.488 226.73 195.816 226.058 196.472C225.386 197.128 224.986 198.072 224.858 199.304H231.362ZM238.254 194.36H239.694L239.838 196.088H239.91C240.55 195.448 241.174 194.952 241.782 194.6C242.406 194.248 243.086 194.072 243.822 194.072C245.038 194.072 245.934 194.456 246.51 195.224C247.086 195.976 247.374 197.104 247.374 198.608V206H245.622V198.824C245.622 197.704 245.438 196.888 245.07 196.376C244.718 195.864 244.134 195.608 243.318 195.608C242.742 195.608 242.206 195.76 241.71 196.064C241.214 196.352 240.638 196.824 239.982 197.48V206H238.254V194.36ZM257.213 206.288C256.061 206.288 255.237 205.96 254.741 205.304C254.245 204.648 253.997 203.712 253.997 202.496V195.8H252.245V194.48L254.069 194.36L254.285 191.072H255.749V194.36H258.941V195.8H255.749V202.544C255.749 203.312 255.885 203.888 256.157 204.272C256.445 204.656 256.925 204.848 257.597 204.848C257.933 204.848 258.381 204.744 258.941 204.536L259.301 205.856C258.437 206.144 257.741 206.288 257.213 206.288ZM115.764 237.288C114.964 237.288 114.188 237.144 113.436 236.856C112.684 236.552 112.02 236.16 111.444 235.68L112.332 234.504C112.908 234.968 113.468 235.32 114.012 235.56C114.556 235.8 115.164 235.92 115.836 235.92C116.604 235.92 117.196 235.736 117.612 235.368C118.028 235 118.236 234.536 118.236 233.976C118.236 233.416 117.996 232.968 117.516 232.632C117.052 232.296 116.388 231.976 115.524 231.672C114.42 231.272 113.556 230.84 112.932 230.376C112.308 229.896 111.996 229.216 111.996 228.336C111.996 227.392 112.348 226.616 113.052 226.008C113.772 225.384 114.74 225.072 115.956 225.072C116.612 225.072 117.244 225.192 117.852 225.432C118.46 225.672 119.004 225.984 119.484 226.368L118.644 227.496C118.18 227.16 117.74 226.904 117.324 226.728C116.908 226.552 116.452 226.464 115.956 226.464C115.22 226.464 114.66 226.64 114.276 226.992C113.892 227.328 113.7 227.744 113.7 228.24C113.7 228.592 113.812 228.896 114.036 229.152C114.276 229.408 114.564 229.616 114.9 229.776C115.236 229.92 115.708 230.112 116.316 230.352C117.132 230.656 117.772 230.928 118.236 231.168C118.7 231.408 119.1 231.752 119.436 232.2C119.772 232.632 119.94 233.192 119.94 233.88C119.94 234.504 119.772 235.08 119.436 235.608C119.116 236.12 118.636 236.528 117.996 236.832C117.372 237.136 116.628 237.288 115.764 237.288ZM134.053 230.52C134.053 230.936 134.029 231.288 133.981 231.576H125.941C126.021 232.936 126.437 233.992 127.189 234.744C127.957 235.496 128.893 235.872 129.997 235.872C131.021 235.872 132.005 235.56 132.949 234.936L133.597 236.088C133.021 236.456 132.429 236.752 131.821 236.976C131.213 237.184 130.533 237.288 129.781 237.288C128.757 237.288 127.821 237.048 126.973 236.568C126.141 236.072 125.477 235.36 124.981 234.432C124.501 233.504 124.261 232.424 124.261 231.192C124.261 229.976 124.501 228.904 124.981 227.976C125.477 227.048 126.125 226.336 126.925 225.84C127.725 225.328 128.573 225.072 129.469 225.072C130.909 225.072 132.029 225.56 132.829 226.536C133.645 227.496 134.053 228.824 134.053 230.52ZM132.493 230.304C132.493 229.072 132.229 228.128 131.701 227.472C131.173 226.816 130.437 226.488 129.493 226.488C128.629 226.488 127.861 226.816 127.189 227.472C126.517 228.128 126.117 229.072 125.989 230.304H132.493ZM139.385 225.36H140.825L140.969 227.496H141.041C141.441 226.744 141.929 226.152 142.505 225.72C143.081 225.288 143.697 225.072 144.353 225.072C144.817 225.072 145.217 225.152 145.553 225.312L145.217 226.848C144.801 226.72 144.433 226.656 144.113 226.656C143.569 226.656 143.025 226.88 142.481 227.328C141.953 227.776 141.497 228.472 141.113 229.416V237H139.385V225.36ZM148.869 225.36H150.669L152.973 232.152L154.077 235.56H154.173L155.277 232.152L157.581 225.36H159.309L155.133 237H153.117L148.869 225.36ZM164.037 225.36H165.765V237H164.037V225.36ZM164.925 222.864C164.573 222.864 164.285 222.752 164.061 222.528C163.837 222.304 163.725 222.008 163.725 221.64C163.725 221.288 163.837 221.008 164.061 220.8C164.285 220.576 164.573 220.464 164.925 220.464C165.277 220.464 165.565 220.576 165.789 220.8C166.013 221.008 166.125 221.288 166.125 221.64C166.125 222.008 166.013 222.304 165.789 222.528C165.565 222.752 165.277 222.864 164.925 222.864ZM176.761 237.288C175.737 237.288 174.809 237.048 173.977 236.568C173.161 236.072 172.513 235.368 172.033 234.456C171.569 233.544 171.337 232.456 171.337 231.192C171.337 229.944 171.585 228.856 172.081 227.928C172.593 227 173.273 226.296 174.121 225.816C174.969 225.32 175.889 225.072 176.881 225.072C178.145 225.072 179.273 225.536 180.265 226.464L179.353 227.616C178.969 227.264 178.585 227 178.201 226.824C177.817 226.632 177.401 226.536 176.953 226.536C176.233 226.536 175.585 226.736 175.009 227.136C174.433 227.52 173.977 228.064 173.641 228.768C173.321 229.472 173.161 230.28 173.161 231.192C173.161 232.584 173.505 233.704 174.193 234.552C174.881 235.4 175.785 235.824 176.905 235.824C177.913 235.824 178.857 235.424 179.737 234.624L180.505 235.8C179.977 236.264 179.393 236.632 178.753 236.904C178.113 237.16 177.449 237.288 176.761 237.288ZM193.959 230.52C193.959 230.936 193.935 231.288 193.887 231.576H185.847C185.927 232.936 186.343 233.992 187.095 234.744C187.863 235.496 188.799 235.872 189.903 235.872C190.927 235.872 191.911 235.56 192.855 234.936L193.503 236.088C192.927 236.456 192.335 236.752 191.727 236.976C191.119 237.184 190.439 237.288 189.687 237.288C188.663 237.288 187.727 237.048 186.879 236.568C186.047 236.072 185.383 235.36 184.887 234.432C184.407 233.504 184.167 232.424 184.167 231.192C184.167 229.976 184.407 228.904 184.887 227.976C185.383 227.048 186.031 226.336 186.831 225.84C187.631 225.328 188.479 225.072 189.375 225.072C190.815 225.072 191.935 225.56 192.735 226.536C193.551 227.496 193.959 228.824 193.959 230.52ZM192.399 230.304C192.399 229.072 192.135 228.128 191.607 227.472C191.079 226.816 190.343 226.488 189.399 226.488C188.535 226.488 187.767 226.816 187.095 227.472C186.423 228.128 186.023 229.072 185.895 230.304H192.399Z" fill="black"/>
<path d="M80.6246 134.152C76.7846 134.152 73.2966 133.448 70.1606 132.04C67.0246 130.568 64.5606 128.552 62.7686 125.992C61.0406 123.432 60.1766 120.552 60.1766 117.352C60.1766 113.768 61.2326 110.632 63.3446 107.944C65.4566 105.256 68.1446 103.048 71.4086 101.32V100.936C65.7766 96.968 62.9606 92.232 62.9606 86.728C62.9606 83.528 63.7286 80.744 65.2646 78.376C66.8646 75.944 69.0086 74.056 71.6966 72.712C74.4486 71.368 77.5206 70.696 80.9126 70.696C86.2886 70.696 90.5766 72.232 93.7766 75.304C96.9766 78.312 98.5766 82.248 98.5766 87.112C98.5766 89.992 97.7446 92.712 96.0806 95.272C94.4806 97.768 92.5606 99.816 90.3206 101.416V101.8C93.5846 103.72 96.1446 105.928 98.0006 108.424C99.9206 110.856 100.881 113.928 100.881 117.64C100.881 120.712 100.017 123.528 98.2886 126.088C96.6246 128.584 94.2566 130.568 91.1846 132.04C88.1126 133.448 84.5926 134.152 80.6246 134.152ZM84.7526 99.016C88.5286 95.432 90.4166 91.656 90.4166 87.688C90.4166 84.744 89.5526 82.344 87.8246 80.488C86.0966 78.632 83.7286 77.704 80.7206 77.704C78.0966 77.704 75.9206 78.536 74.1926 80.2C72.5286 81.8 71.6966 83.976 71.6966 86.728C71.6966 89.736 72.7846 92.104 74.9606 93.832C77.2006 95.56 80.4646 97.288 84.7526 99.016ZM80.8166 127.144C84.0806 127.144 86.7046 126.248 88.6886 124.456C90.7366 122.664 91.7606 120.296 91.7606 117.352C91.7606 115.112 91.0886 113.224 89.7446 111.688C88.4646 110.152 86.8326 108.904 84.8486 107.944C82.9286 106.92 80.0486 105.64 76.2086 104.104C73.9686 105.704 72.1766 107.56 70.8326 109.672C69.4886 111.72 68.8166 113.96 68.8166 116.392C68.8166 119.528 69.9366 122.12 72.1766 124.168C74.4806 126.152 77.3606 127.144 80.8166 127.144ZM138.691 134.152C132.355 134.152 127.395 131.368 123.811 125.8C120.227 120.232 118.435 112.36 118.435 102.184C118.435 92.008 120.227 84.232 123.811 78.856C127.395 73.416 132.355 70.696 138.691 70.696C145.027 70.696 149.987 73.416 153.571 78.856C157.155 84.296 158.947 92.072 158.947 102.184C158.947 112.36 157.155 120.232 153.571 125.8C149.987 131.368 145.027 134.152 138.691 134.152ZM138.691 126.472C142.083 126.472 144.739 124.52 146.659 120.616C148.643 116.712 149.635 110.568 149.635 102.184C149.635 86.312 145.987 78.376 138.691 78.376C131.395 78.376 127.747 86.312 127.747 102.184C127.747 110.568 128.707 116.712 130.627 120.616C132.611 124.52 135.299 126.472 138.691 126.472ZM190.326 107.752C185.91 107.752 182.358 105.992 179.67 102.472C176.982 98.952 175.638 94.056 175.638 87.784C175.638 81.576 176.982 76.744 179.67 73.288C182.358 69.768 185.91 68.008 190.326 68.008C194.742 68.008 198.294 69.768 200.982 73.288C203.67 76.744 205.014 81.576 205.014 87.784C205.014 94.056 203.67 98.952 200.982 102.472C198.294 105.992 194.742 107.752 190.326 107.752ZM226.422 68.968H232.566L198.102 134.152H191.958L226.422 68.968ZM190.326 101.992C192.63 101.992 194.454 100.808 195.798 98.44C197.206 96.008 197.91 92.456 197.91 87.784C197.91 83.112 197.206 79.624 195.798 77.32C194.454 74.952 192.63 73.768 190.326 73.768C188.022 73.768 186.166 74.952 184.758 77.32C183.414 79.624 182.742 83.112 182.742 87.784C182.742 92.456 183.414 96.008 184.758 98.44C186.166 100.808 188.022 101.992 190.326 101.992ZM234.39 134.152C229.974 134.152 226.422 132.392 223.734 128.872C221.046 125.352 219.702 120.456 219.702 114.184C219.702 107.976 221.046 103.144 223.734 99.688C226.422 96.168 229.974 94.408 234.39 94.408C238.806 94.408 242.358 96.168 245.046 99.688C247.734 103.144 249.078 107.976 249.078 114.184C249.078 120.456 247.734 125.352 245.046 128.872C242.358 132.392 238.806 134.152 234.39 134.152ZM234.39 128.392C236.694 128.392 238.518 127.208 239.862 124.84C241.27 122.408 241.974 118.856 241.974 114.184C241.974 109.512 241.27 106.024 239.862 103.72C238.518 101.352 236.694 100.168 234.39 100.168C232.086 100.168 230.23 101.352 228.822 103.72C227.478 106.024 226.806 109.512 226.806 114.184C226.806 118.856 227.478 122.408 228.822 124.84C230.23 127.208 232.086 128.392 234.39 128.392Z" fill="black"/>
</svg>
