<svg width="300" height="300" viewBox="0 0 300 300" fill="none" xmlns="http://www.w3.org/2000/svg">
<circle cx="150" cy="150" r="147.5" stroke="#EE701B" stroke-width="5"/>
<path d="M65.8628 175.288C64.9028 175.288 64.0148 175.048 63.1988 174.568C62.3828 174.072 61.7268 173.368 61.2308 172.456C60.7508 171.528 60.5108 170.44 60.5108 169.192C60.5108 167.944 60.7508 166.856 61.2308 165.928C61.7268 165 62.3828 164.296 63.1988 163.816C64.0148 163.32 64.9028 163.072 65.8628 163.072C66.8228 163.072 67.7108 163.32 68.5268 163.816C69.3428 164.296 69.9908 165 70.4708 165.928C70.9668 166.856 71.2148 167.944 71.2148 169.192C71.2148 170.44 70.9668 171.528 70.4708 172.456C69.9908 173.368 69.3428 174.072 68.5268 174.568C67.7108 175.048 66.8228 175.288 65.8628 175.288ZM65.8628 173.824C66.5508 173.824 67.1588 173.632 67.6868 173.248C68.2308 172.864 68.6548 172.32 68.9588 171.616C69.2628 170.912 69.4148 170.104 69.4148 169.192C69.4148 168.28 69.2628 167.472 68.9588 166.768C68.6548 166.064 68.2308 165.52 67.6868 165.136C67.1588 164.736 66.5508 164.536 65.8628 164.536C65.1748 164.536 64.5588 164.736 64.0148 165.136C63.4868 165.52 63.0708 166.064 62.7668 166.768C62.4788 167.472 62.3348 168.28 62.3348 169.192C62.3348 170.584 62.6628 171.704 63.3188 172.552C63.9748 173.4 64.8228 173.824 65.8628 173.824ZM78.0329 159.016C76.9129 159.016 76.3529 159.8 76.3529 161.368V163.36H78.8729V164.8H76.3529V175H74.6009V164.8H73.0169V163.48L74.6009 163.36V161.344C74.6009 160.144 74.8729 159.216 75.4169 158.56C75.9769 157.904 76.8009 157.576 77.8889 157.576C78.5129 157.576 79.1369 157.704 79.7609 157.96L79.3769 159.304C78.9289 159.112 78.4809 159.016 78.0329 159.016ZM89.3219 175.288C88.1219 175.288 87.2339 174.912 86.6579 174.16C86.0819 173.392 85.7939 172.256 85.7939 170.752V163.36H87.5219V170.536C87.5219 171.656 87.7059 172.48 88.0739 173.008C88.4419 173.52 89.0339 173.776 89.8499 173.776C90.4419 173.776 90.9779 173.616 91.4579 173.296C91.9539 172.976 92.5059 172.448 93.1139 171.712V163.36H94.8659V175H93.4019L93.2579 173.152H93.1859C92.5939 173.84 91.9859 174.368 91.3619 174.736C90.7539 175.104 90.0739 175.288 89.3219 175.288ZM101.899 175.288C101.099 175.288 100.323 175.144 99.5708 174.856C98.8188 174.552 98.1548 174.16 97.5788 173.68L98.4668 172.504C99.0428 172.968 99.6028 173.32 100.147 173.56C100.691 173.8 101.299 173.92 101.971 173.92C102.739 173.92 103.331 173.736 103.747 173.368C104.163 173 104.371 172.536 104.371 171.976C104.371 171.416 104.131 170.968 103.651 170.632C103.187 170.296 102.523 169.976 101.659 169.672C100.555 169.272 99.6908 168.84 99.0668 168.376C98.4428 167.896 98.1308 167.216 98.1308 166.336C98.1308 165.392 98.4828 164.616 99.1868 164.008C99.9068 163.384 100.875 163.072 102.091 163.072C102.747 163.072 103.379 163.192 103.987 163.432C104.595 163.672 105.139 163.984 105.619 164.368L104.779 165.496C104.315 165.16 103.875 164.904 103.459 164.728C103.043 164.552 102.587 164.464 102.091 164.464C101.355 164.464 100.795 164.64 100.411 164.992C100.027 165.328 99.8348 165.744 99.8348 166.24C99.8348 166.592 99.9468 166.896 100.171 167.152C100.411 167.408 100.699 167.616 101.035 167.776C101.371 167.92 101.843 168.112 102.451 168.352C103.267 168.656 103.907 168.928 104.371 169.168C104.835 169.408 105.235 169.752 105.571 170.2C105.907 170.632 106.075 171.192 106.075 171.88C106.075 172.504 105.907 173.08 105.571 173.608C105.251 174.12 104.771 174.528 104.131 174.832C103.507 175.136 102.763 175.288 101.899 175.288ZM117.787 168.52C117.787 168.936 117.763 169.288 117.715 169.576H109.675C109.755 170.936 110.171 171.992 110.923 172.744C111.691 173.496 112.627 173.872 113.731 173.872C114.755 173.872 115.739 173.56 116.683 172.936L117.331 174.088C116.755 174.456 116.163 174.752 115.555 174.976C114.947 175.184 114.267 175.288 113.515 175.288C112.491 175.288 111.555 175.048 110.707 174.568C109.875 174.072 109.211 173.36 108.715 172.432C108.235 171.504 107.995 170.424 107.995 169.192C107.995 167.976 108.235 166.904 108.715 165.976C109.211 165.048 109.859 164.336 110.659 163.84C111.459 163.328 112.307 163.072 113.203 163.072C114.643 163.072 115.763 163.56 116.563 164.536C117.379 165.496 117.787 166.824 117.787 168.52ZM116.227 168.304C116.227 167.072 115.963 166.128 115.435 165.472C114.907 164.816 114.171 164.488 113.227 164.488C112.363 164.488 111.595 164.816 110.923 165.472C110.251 166.128 109.851 167.072 109.723 168.304H116.227ZM120.72 163.36H122.16L122.304 165.496H122.376C122.776 164.744 123.264 164.152 123.84 163.72C124.416 163.288 125.032 163.072 125.688 163.072C126.152 163.072 126.552 163.152 126.888 163.312L126.552 164.848C126.136 164.72 125.768 164.656 125.448 164.656C124.904 164.656 124.36 164.88 123.816 165.328C123.288 165.776 122.832 166.472 122.448 167.416V175H120.72V163.36ZM131.782 175.288C130.982 175.288 130.206 175.144 129.454 174.856C128.702 174.552 128.038 174.16 127.462 173.68L128.35 172.504C128.926 172.968 129.486 173.32 130.03 173.56C130.574 173.8 131.182 173.92 131.854 173.92C132.622 173.92 133.214 173.736 133.63 173.368C134.046 173 134.254 172.536 134.254 171.976C134.254 171.416 134.014 170.968 133.534 170.632C133.07 170.296 132.406 169.976 131.542 169.672C130.438 169.272 129.574 168.84 128.95 168.376C128.326 167.896 128.014 167.216 128.014 166.336C128.014 165.392 128.366 164.616 129.07 164.008C129.79 163.384 130.758 163.072 131.974 163.072C132.63 163.072 133.262 163.192 133.87 163.432C134.478 163.672 135.022 163.984 135.502 164.368L134.662 165.496C134.198 165.16 133.758 164.904 133.342 164.728C132.926 164.552 132.47 164.464 131.974 164.464C131.238 164.464 130.678 164.64 130.294 164.992C129.91 165.328 129.718 165.744 129.718 166.24C129.718 166.592 129.83 166.896 130.054 167.152C130.294 167.408 130.582 167.616 130.918 167.776C131.254 167.92 131.726 168.112 132.334 168.352C133.15 168.656 133.79 168.928 134.254 169.168C134.718 169.408 135.118 169.752 135.454 170.2C135.79 170.632 135.958 171.192 135.958 171.88C135.958 172.504 135.79 173.08 135.454 173.608C135.134 174.12 134.654 174.528 134.014 174.832C133.39 175.136 132.646 175.288 131.782 175.288ZM146.235 175.288C145.243 175.288 144.427 175 143.787 174.424C143.147 173.848 142.827 173.04 142.827 172C142.827 170.736 143.403 169.768 144.555 169.096C145.707 168.408 147.547 167.928 150.075 167.656C150.075 166.744 149.883 166 149.499 165.424C149.131 164.832 148.491 164.536 147.579 164.536C146.475 164.536 145.299 164.96 144.051 165.808L143.355 164.608C144.891 163.584 146.395 163.072 147.867 163.072C149.211 163.072 150.203 163.496 150.843 164.344C151.483 165.176 151.803 166.328 151.803 167.8V175H150.363L150.219 173.584H150.147C148.771 174.72 147.467 175.288 146.235 175.288ZM146.691 173.872C147.251 173.872 147.795 173.744 148.323 173.488C148.867 173.216 149.451 172.8 150.075 172.24V168.832C148.075 169.072 146.651 169.44 145.803 169.936C144.971 170.432 144.555 171.088 144.555 171.904C144.555 172.56 144.755 173.056 145.155 173.392C145.555 173.712 146.067 173.872 146.691 173.872ZM155.618 163.36H157.058L157.202 165.496H157.274C157.674 164.744 158.162 164.152 158.738 163.72C159.314 163.288 159.93 163.072 160.586 163.072C161.05 163.072 161.45 163.152 161.786 163.312L161.45 164.848C161.034 164.72 160.666 164.656 160.346 164.656C159.802 164.656 159.258 164.88 158.714 165.328C158.186 165.776 157.73 166.472 157.346 167.416V175H155.618V163.36ZM172.42 168.52C172.42 168.936 172.396 169.288 172.348 169.576H164.308C164.388 170.936 164.804 171.992 165.556 172.744C166.324 173.496 167.26 173.872 168.364 173.872C169.388 173.872 170.372 173.56 171.316 172.936L171.964 174.088C171.388 174.456 170.796 174.752 170.188 174.976C169.58 175.184 168.9 175.288 168.148 175.288C167.124 175.288 166.188 175.048 165.34 174.568C164.508 174.072 163.844 173.36 163.348 172.432C162.868 171.504 162.628 170.424 162.628 169.192C162.628 167.976 162.868 166.904 163.348 165.976C163.844 165.048 164.492 164.336 165.292 163.84C166.092 163.328 166.94 163.072 167.836 163.072C169.276 163.072 170.396 163.56 171.196 164.536C172.012 165.496 172.42 166.824 172.42 168.52ZM170.86 168.304C170.86 167.072 170.596 166.128 170.068 165.472C169.54 164.816 168.804 164.488 167.86 164.488C166.996 164.488 166.228 164.816 165.556 165.472C164.884 166.128 164.484 167.072 164.356 168.304H170.86ZM179.749 158.128H183.013V162.328L182.869 164.536C183.429 164.008 184.005 163.592 184.597 163.288C185.189 162.984 185.853 162.832 186.589 162.832C187.837 162.832 188.757 163.248 189.349 164.08C189.957 164.896 190.261 166.072 190.261 167.608V175H186.973V168.016C186.973 167.136 186.845 166.52 186.589 166.168C186.349 165.816 185.949 165.64 185.389 165.64C184.941 165.64 184.549 165.736 184.213 165.928C183.877 166.12 183.477 166.44 183.013 166.888V175H179.749V158.128ZM196.318 175.288C195.262 175.288 194.406 174.952 193.75 174.28C193.11 173.608 192.79 172.76 192.79 171.736C192.79 170.472 193.326 169.496 194.398 168.808C195.47 168.104 197.19 167.624 199.558 167.368C199.51 166.088 198.854 165.448 197.59 165.448C197.094 165.448 196.59 165.544 196.078 165.736C195.566 165.928 195.006 166.2 194.398 166.552L193.222 164.392C194.902 163.352 196.566 162.832 198.214 162.832C199.734 162.832 200.886 163.28 201.67 164.176C202.454 165.056 202.846 166.376 202.846 168.136V175H200.158L199.918 173.752H199.846C198.662 174.776 197.486 175.288 196.318 175.288ZM197.398 172.744C197.798 172.744 198.158 172.656 198.478 172.48C198.814 172.288 199.174 172.008 199.558 171.64V169.36C198.262 169.536 197.334 169.8 196.774 170.152C196.214 170.504 195.934 170.944 195.934 171.472C195.934 171.888 196.062 172.208 196.318 172.432C196.574 172.64 196.934 172.744 197.398 172.744ZM205.952 163.12H208.616L208.856 164.32H208.952C209.448 163.872 209.992 163.512 210.584 163.24C211.192 162.968 211.792 162.832 212.384 162.832C213.824 162.832 214.96 163.376 215.792 164.464C216.624 165.552 217.04 167.024 217.04 168.88C217.04 170.176 216.808 171.312 216.344 172.288C215.88 173.264 215.264 174.008 214.496 174.52C213.728 175.032 212.904 175.288 212.024 175.288C211.016 175.288 210.048 174.864 209.12 174.016L209.216 175.936V179.512H205.952V163.12ZM211.28 172.6C211.984 172.6 212.56 172.288 213.008 171.664C213.456 171.04 213.68 170.12 213.68 168.904C213.68 166.648 212.936 165.52 211.448 165.52C210.712 165.52 209.968 165.904 209.216 166.672V171.76C209.856 172.32 210.544 172.6 211.28 172.6ZM219.64 163.12H222.304L222.544 164.32H222.64C223.136 163.872 223.68 163.512 224.272 163.24C224.88 162.968 225.48 162.832 226.072 162.832C227.512 162.832 228.648 163.376 229.48 164.464C230.312 165.552 230.728 167.024 230.728 168.88C230.728 170.176 230.496 171.312 230.032 172.288C229.568 173.264 228.952 174.008 228.184 174.52C227.416 175.032 226.592 175.288 225.712 175.288C224.704 175.288 223.736 174.864 222.808 174.016L222.904 175.936V179.512H219.64V163.12ZM224.968 172.6C225.672 172.6 226.248 172.288 226.696 171.664C227.144 171.04 227.368 170.12 227.368 168.904C227.368 166.648 226.624 165.52 225.136 165.52C224.4 165.52 223.656 165.904 222.904 166.672V171.76C223.544 172.32 224.232 172.6 224.968 172.6ZM234.292 179.728C233.716 179.728 233.164 179.648 232.636 179.488L233.236 176.968C233.572 177.08 233.844 177.136 234.052 177.136C235.108 177.136 235.828 176.56 236.212 175.408L236.404 174.736L231.796 163.12H235.108L236.908 168.472C237.1 169.032 237.324 169.776 237.58 170.704C237.692 171.136 237.796 171.512 237.892 171.832H237.988C238.196 170.92 238.476 169.8 238.828 168.472L240.388 163.12H243.532L239.356 175.264C238.78 176.8 238.116 177.928 237.364 178.648C236.612 179.368 235.588 179.728 234.292 179.728ZM65.783 194.36H67.583L69.407 201.296L69.623 202.328C69.847 203.288 70.007 204.016 70.103 204.512H70.199C70.503 203.264 70.775 202.192 71.015 201.296L72.887 194.36H74.639L76.535 201.296L77.351 204.512H77.447L78.215 201.296L79.991 194.36H81.671L78.503 206H76.343L74.567 199.496L74.111 197.6C74.079 197.472 73.967 196.992 73.775 196.16H73.679C73.327 197.744 73.047 198.872 72.839 199.544L71.111 206H69.071L65.783 194.36ZM84.2861 194.36H86.0141V206H84.2861V194.36ZM85.1741 191.864C84.8221 191.864 84.5341 191.752 84.3101 191.528C84.0861 191.304 83.9741 191.008 83.9741 190.64C83.9741 190.288 84.0861 190.008 84.3101 189.8C84.5341 189.576 84.8221 189.464 85.1741 189.464C85.5261 189.464 85.8141 189.576 86.0381 189.8C86.2621 190.008 86.3741 190.288 86.3741 190.64C86.3741 191.008 86.2621 191.304 86.0381 191.528C85.8141 191.752 85.5261 191.864 85.1741 191.864ZM93.6266 206.288C92.4746 206.288 91.6506 205.96 91.1546 205.304C90.6586 204.648 90.4106 203.712 90.4106 202.496V195.8H88.6586V194.48L90.4826 194.36L90.6986 191.072H92.1626V194.36H95.3546V195.8H92.1626V202.544C92.1626 203.312 92.2986 203.888 92.5706 204.272C92.8586 204.656 93.3386 204.848 94.0106 204.848C94.3466 204.848 94.7946 204.744 95.3546 204.536L95.7146 205.856C94.8506 206.144 94.1546 206.288 93.6266 206.288ZM98.0439 188.864H99.7719V193.616L99.7239 196.064C100.364 195.424 100.988 194.936 101.596 194.6C102.204 194.248 102.876 194.072 103.612 194.072C104.828 194.072 105.724 194.456 106.3 195.224C106.876 195.976 107.164 197.104 107.164 198.608V206H105.412V198.824C105.412 197.704 105.228 196.888 104.86 196.376C104.508 195.864 103.924 195.608 103.108 195.608C102.532 195.608 101.996 195.76 101.5 196.064C101.004 196.352 100.428 196.824 99.7719 197.48V206H98.0439V188.864ZM119.338 206.288C118.186 206.288 117.362 205.96 116.866 205.304C116.37 204.648 116.122 203.712 116.122 202.496V195.8H114.37V194.48L116.194 194.36L116.41 191.072H117.874V194.36H121.066V195.8H117.874V202.544C117.874 203.312 118.01 203.888 118.282 204.272C118.57 204.656 119.05 204.848 119.722 204.848C120.058 204.848 120.506 204.744 121.066 204.536L121.426 205.856C120.562 206.144 119.866 206.288 119.338 206.288ZM123.755 188.864H125.483V193.616L125.435 196.064C126.075 195.424 126.699 194.936 127.307 194.6C127.915 194.248 128.587 194.072 129.323 194.072C130.539 194.072 131.435 194.456 132.011 195.224C132.587 195.976 132.875 197.104 132.875 198.608V206H131.123V198.824C131.123 197.704 130.939 196.888 130.571 196.376C130.219 195.864 129.635 195.608 128.819 195.608C128.243 195.608 127.707 195.76 127.211 196.064C126.715 196.352 126.139 196.824 125.483 197.48V206H123.755V188.864ZM145.596 199.52C145.596 199.936 145.572 200.288 145.524 200.576H137.484C137.564 201.936 137.98 202.992 138.732 203.744C139.5 204.496 140.436 204.872 141.54 204.872C142.564 204.872 143.548 204.56 144.492 203.936L145.14 205.088C144.564 205.456 143.972 205.752 143.364 205.976C142.756 206.184 142.076 206.288 141.324 206.288C140.3 206.288 139.364 206.048 138.516 205.568C137.684 205.072 137.02 204.36 136.524 203.432C136.044 202.504 135.804 201.424 135.804 200.192C135.804 198.976 136.044 197.904 136.524 196.976C137.02 196.048 137.668 195.336 138.468 194.84C139.268 194.328 140.116 194.072 141.012 194.072C142.452 194.072 143.572 194.56 144.372 195.536C145.188 196.496 145.596 197.824 145.596 199.52ZM144.036 199.304C144.036 198.072 143.772 197.128 143.244 196.472C142.716 195.816 141.98 195.488 141.036 195.488C140.172 195.488 139.404 195.816 138.732 196.472C138.06 197.128 137.66 198.072 137.532 199.304H144.036ZM148.528 194.36H150.256V206H148.528V194.36ZM149.416 191.864C149.064 191.864 148.776 191.752 148.552 191.528C148.328 191.304 148.216 191.008 148.216 190.64C148.216 190.288 148.328 190.008 148.552 189.8C148.776 189.576 149.064 189.464 149.416 189.464C149.768 189.464 150.056 189.576 150.28 189.8C150.504 190.008 150.616 190.288 150.616 190.64C150.616 191.008 150.504 191.304 150.28 191.528C150.056 191.752 149.768 191.864 149.416 191.864ZM154.341 194.36H155.781L155.925 196.496H155.997C156.397 195.744 156.885 195.152 157.461 194.72C158.037 194.288 158.653 194.072 159.309 194.072C159.773 194.072 160.173 194.152 160.509 194.312L160.173 195.848C159.757 195.72 159.389 195.656 159.069 195.656C158.525 195.656 157.981 195.88 157.437 196.328C156.909 196.776 156.453 197.472 156.069 198.416V206H154.341V194.36ZM171.814 206.288C170.79 206.288 169.862 206.048 169.03 205.568C168.214 205.072 167.566 204.368 167.086 203.456C166.622 202.544 166.39 201.456 166.39 200.192C166.39 198.944 166.638 197.856 167.134 196.928C167.646 196 168.326 195.296 169.174 194.816C170.022 194.32 170.942 194.072 171.934 194.072C173.198 194.072 174.326 194.536 175.318 195.464L174.406 196.616C174.022 196.264 173.638 196 173.254 195.824C172.87 195.632 172.454 195.536 172.006 195.536C171.286 195.536 170.638 195.736 170.062 196.136C169.486 196.52 169.03 197.064 168.694 197.768C168.374 198.472 168.214 199.28 168.214 200.192C168.214 201.584 168.558 202.704 169.246 203.552C169.934 204.4 170.838 204.824 171.958 204.824C172.966 204.824 173.91 204.424 174.79 203.624L175.558 204.8C175.03 205.264 174.446 205.632 173.806 205.904C173.166 206.16 172.502 206.288 171.814 206.288ZM181.56 206.288C180.36 206.288 179.472 205.912 178.896 205.16C178.32 204.392 178.032 203.256 178.032 201.752V194.36H179.76V201.536C179.76 202.656 179.944 203.48 180.312 204.008C180.68 204.52 181.272 204.776 182.088 204.776C182.68 204.776 183.216 204.616 183.696 204.296C184.192 203.976 184.744 203.448 185.352 202.712V194.36H187.104V206H185.64L185.496 204.152H185.424C184.832 204.84 184.224 205.368 183.6 205.736C182.992 206.104 182.312 206.288 181.56 206.288ZM191.161 194.36H192.601L192.745 196.496H192.817C193.217 195.744 193.705 195.152 194.281 194.72C194.857 194.288 195.473 194.072 196.129 194.072C196.593 194.072 196.993 194.152 197.329 194.312L196.993 195.848C196.577 195.72 196.209 195.656 195.889 195.656C195.345 195.656 194.801 195.88 194.257 196.328C193.729 196.776 193.273 197.472 192.889 198.416V206H191.161V194.36ZM199.317 194.36H200.757L200.901 196.496H200.973C201.373 195.744 201.861 195.152 202.437 194.72C203.013 194.288 203.629 194.072 204.285 194.072C204.749 194.072 205.149 194.152 205.485 194.312L205.149 195.848C204.733 195.72 204.365 195.656 204.045 195.656C203.501 195.656 202.957 195.88 202.413 196.328C201.885 196.776 201.429 197.472 201.045 198.416V206H199.317V194.36ZM216.119 199.52C216.119 199.936 216.095 200.288 216.047 200.576H208.007C208.087 201.936 208.503 202.992 209.255 203.744C210.023 204.496 210.959 204.872 212.063 204.872C213.087 204.872 214.071 204.56 215.015 203.936L215.663 205.088C215.087 205.456 214.495 205.752 213.887 205.976C213.279 206.184 212.599 206.288 211.847 206.288C210.823 206.288 209.887 206.048 209.039 205.568C208.207 205.072 207.543 204.36 207.047 203.432C206.567 202.504 206.327 201.424 206.327 200.192C206.327 198.976 206.567 197.904 207.047 196.976C207.543 196.048 208.191 195.336 208.991 194.84C209.791 194.328 210.639 194.072 211.535 194.072C212.975 194.072 214.095 194.56 214.895 195.536C215.711 196.496 216.119 197.824 216.119 199.52ZM214.559 199.304C214.559 198.072 214.295 197.128 213.767 196.472C213.239 195.816 212.503 195.488 211.559 195.488C210.695 195.488 209.927 195.816 209.255 196.472C208.583 197.128 208.183 198.072 208.055 199.304H214.559ZM219.052 194.36H220.492L220.636 196.088H220.708C221.348 195.448 221.972 194.952 222.58 194.6C223.204 194.248 223.884 194.072 224.62 194.072C225.836 194.072 226.732 194.456 227.308 195.224C227.884 195.976 228.172 197.104 228.172 198.608V206H226.42V198.824C226.42 197.704 226.236 196.888 225.868 196.376C225.516 195.864 224.932 195.608 224.116 195.608C223.54 195.608 223.004 195.76 222.508 196.064C222.012 196.352 221.436 196.824 220.78 197.48V206H219.052V194.36ZM235.611 206.288C234.459 206.288 233.635 205.96 233.139 205.304C232.643 204.648 232.395 203.712 232.395 202.496V195.8H230.643V194.48L232.467 194.36L232.683 191.072H234.147V194.36H237.339V195.8H234.147V202.544C234.147 203.312 234.283 203.888 234.555 204.272C234.843 204.656 235.323 204.848 235.995 204.848C236.331 204.848 236.779 204.744 237.339 204.536L237.699 205.856C236.835 206.144 236.139 206.288 235.611 206.288ZM124.164 237.288C123.364 237.288 122.588 237.144 121.836 236.856C121.084 236.552 120.42 236.16 119.844 235.68L120.732 234.504C121.308 234.968 121.868 235.32 122.412 235.56C122.956 235.8 123.564 235.92 124.236 235.92C125.004 235.92 125.596 235.736 126.012 235.368C126.428 235 126.636 234.536 126.636 233.976C126.636 233.416 126.396 232.968 125.916 232.632C125.452 232.296 124.788 231.976 123.924 231.672C122.82 231.272 121.956 230.84 121.332 230.376C120.708 229.896 120.396 229.216 120.396 228.336C120.396 227.392 120.748 226.616 121.452 226.008C122.172 225.384 123.14 225.072 124.356 225.072C125.012 225.072 125.644 225.192 126.252 225.432C126.86 225.672 127.404 225.984 127.884 226.368L127.044 227.496C126.58 227.16 126.14 226.904 125.724 226.728C125.308 226.552 124.852 226.464 124.356 226.464C123.62 226.464 123.06 226.64 122.676 226.992C122.292 227.328 122.1 227.744 122.1 228.24C122.1 228.592 122.212 228.896 122.436 229.152C122.676 229.408 122.964 229.616 123.3 229.776C123.636 229.92 124.108 230.112 124.716 230.352C125.532 230.656 126.172 230.928 126.636 231.168C127.1 231.408 127.5 231.752 127.836 232.2C128.172 232.632 128.34 233.192 128.34 233.88C128.34 234.504 128.172 235.08 127.836 235.608C127.516 236.12 127.036 236.528 126.396 236.832C125.772 237.136 125.028 237.288 124.164 237.288ZM140.053 230.52C140.053 230.936 140.029 231.288 139.981 231.576H131.941C132.021 232.936 132.437 233.992 133.189 234.744C133.957 235.496 134.893 235.872 135.997 235.872C137.021 235.872 138.005 235.56 138.949 234.936L139.597 236.088C139.021 236.456 138.429 236.752 137.821 236.976C137.213 237.184 136.533 237.288 135.781 237.288C134.757 237.288 133.821 237.048 132.973 236.568C132.141 236.072 131.477 235.36 130.981 234.432C130.501 233.504 130.261 232.424 130.261 231.192C130.261 229.976 130.501 228.904 130.981 227.976C131.477 227.048 132.125 226.336 132.925 225.84C133.725 225.328 134.573 225.072 135.469 225.072C136.909 225.072 138.029 225.56 138.829 226.536C139.645 227.496 140.053 228.824 140.053 230.52ZM138.493 230.304C138.493 229.072 138.229 228.128 137.701 227.472C137.173 226.816 136.437 226.488 135.493 226.488C134.629 226.488 133.861 226.816 133.189 227.472C132.517 228.128 132.117 229.072 131.989 230.304H138.493ZM142.985 225.36H144.425L144.569 227.496H144.641C145.041 226.744 145.529 226.152 146.105 225.72C146.681 225.288 147.297 225.072 147.953 225.072C148.417 225.072 148.817 225.152 149.153 225.312L148.817 226.848C148.401 226.72 148.033 226.656 147.713 226.656C147.169 226.656 146.625 226.88 146.081 227.328C145.553 227.776 145.097 228.472 144.713 229.416V237H142.985V225.36ZM150.069 225.36H151.869L154.173 232.152L155.277 235.56H155.373L156.477 232.152L158.781 225.36H160.509L156.333 237H154.317L150.069 225.36ZM162.837 225.36H164.565V237H162.837V225.36ZM163.725 222.864C163.373 222.864 163.085 222.752 162.861 222.528C162.637 222.304 162.525 222.008 162.525 221.64C162.525 221.288 162.637 221.008 162.861 220.8C163.085 220.576 163.373 220.464 163.725 220.464C164.077 220.464 164.365 220.576 164.589 220.8C164.813 221.008 164.925 221.288 164.925 221.64C164.925 222.008 164.813 222.304 164.589 222.528C164.365 222.752 164.077 222.864 163.725 222.864ZM173.161 237.288C172.137 237.288 171.209 237.048 170.377 236.568C169.561 236.072 168.913 235.368 168.433 234.456C167.969 233.544 167.737 232.456 167.737 231.192C167.737 229.944 167.985 228.856 168.481 227.928C168.993 227 169.673 226.296 170.521 225.816C171.369 225.32 172.289 225.072 173.281 225.072C174.545 225.072 175.673 225.536 176.665 226.464L175.753 227.616C175.369 227.264 174.985 227 174.601 226.824C174.217 226.632 173.801 226.536 173.353 226.536C172.633 226.536 171.985 226.736 171.409 227.136C170.833 227.52 170.377 228.064 170.041 228.768C169.721 229.472 169.561 230.28 169.561 231.192C169.561 232.584 169.905 233.704 170.593 234.552C171.281 235.4 172.185 235.824 173.305 235.824C174.313 235.824 175.257 235.424 176.137 234.624L176.905 235.8C176.377 236.264 175.793 236.632 175.153 236.904C174.513 237.16 173.849 237.288 173.161 237.288ZM187.959 230.52C187.959 230.936 187.935 231.288 187.887 231.576H179.847C179.927 232.936 180.343 233.992 181.095 234.744C181.863 235.496 182.799 235.872 183.903 235.872C184.927 235.872 185.911 235.56 186.855 234.936L187.503 236.088C186.927 236.456 186.335 236.752 185.727 236.976C185.119 237.184 184.439 237.288 183.687 237.288C182.663 237.288 181.727 237.048 180.879 236.568C180.047 236.072 179.383 235.36 178.887 234.432C178.407 233.504 178.167 232.424 178.167 231.192C178.167 229.976 178.407 228.904 178.887 227.976C179.383 227.048 180.031 226.336 180.831 225.84C181.631 225.328 182.479 225.072 183.375 225.072C184.815 225.072 185.935 225.56 186.735 226.536C187.551 227.496 187.959 228.824 187.959 230.52ZM186.399 230.304C186.399 229.072 186.135 228.128 185.607 227.472C185.079 226.816 184.343 226.488 183.399 226.488C182.535 226.488 181.767 226.816 181.095 227.472C180.423 228.128 180.023 229.072 179.895 230.304H186.399Z" fill="black"/>
<path d="M80.6246 134.152C76.7846 134.152 73.2966 133.448 70.1606 132.04C67.0246 130.568 64.5606 128.552 62.7686 125.992C61.0406 123.432 60.1766 120.552 60.1766 117.352C60.1766 113.768 61.2326 110.632 63.3446 107.944C65.4566 105.256 68.1446 103.048 71.4086 101.32V100.936C65.7766 96.968 62.9606 92.232 62.9606 86.728C62.9606 83.528 63.7286 80.744 65.2646 78.376C66.8646 75.944 69.0086 74.056 71.6966 72.712C74.4486 71.368 77.5206 70.696 80.9126 70.696C86.2886 70.696 90.5766 72.232 93.7766 75.304C96.9766 78.312 98.5766 82.248 98.5766 87.112C98.5766 89.992 97.7446 92.712 96.0806 95.272C94.4806 97.768 92.5606 99.816 90.3206 101.416V101.8C93.5846 103.72 96.1446 105.928 98.0006 108.424C99.9206 110.856 100.881 113.928 100.881 117.64C100.881 120.712 100.017 123.528 98.2886 126.088C96.6246 128.584 94.2566 130.568 91.1846 132.04C88.1126 133.448 84.5926 134.152 80.6246 134.152ZM84.7526 99.016C88.5286 95.432 90.4166 91.656 90.4166 87.688C90.4166 84.744 89.5526 82.344 87.8246 80.488C86.0966 78.632 83.7286 77.704 80.7206 77.704C78.0966 77.704 75.9206 78.536 74.1926 80.2C72.5286 81.8 71.6966 83.976 71.6966 86.728C71.6966 89.736 72.7846 92.104 74.9606 93.832C77.2006 95.56 80.4646 97.288 84.7526 99.016ZM80.8166 127.144C84.0806 127.144 86.7046 126.248 88.6886 124.456C90.7366 122.664 91.7606 120.296 91.7606 117.352C91.7606 115.112 91.0886 113.224 89.7446 111.688C88.4646 110.152 86.8326 108.904 84.8486 107.944C82.9286 106.92 80.0486 105.64 76.2086 104.104C73.9686 105.704 72.1766 107.56 70.8326 109.672C69.4886 111.72 68.8166 113.96 68.8166 116.392C68.8166 119.528 69.9366 122.12 72.1766 124.168C74.4806 126.152 77.3606 127.144 80.8166 127.144ZM138.691 134.152C132.355 134.152 127.395 131.368 123.811 125.8C120.227 120.232 118.435 112.36 118.435 102.184C118.435 92.008 120.227 84.232 123.811 78.856C127.395 73.416 132.355 70.696 138.691 70.696C145.027 70.696 149.987 73.416 153.571 78.856C157.155 84.296 158.947 92.072 158.947 102.184C158.947 112.36 157.155 120.232 153.571 125.8C149.987 131.368 145.027 134.152 138.691 134.152ZM138.691 126.472C142.083 126.472 144.739 124.52 146.659 120.616C148.643 116.712 149.635 110.568 149.635 102.184C149.635 86.312 145.987 78.376 138.691 78.376C131.395 78.376 127.747 86.312 127.747 102.184C127.747 110.568 128.707 116.712 130.627 120.616C132.611 124.52 135.299 126.472 138.691 126.472ZM190.326 107.752C185.91 107.752 182.358 105.992 179.67 102.472C176.982 98.952 175.638 94.056 175.638 87.784C175.638 81.576 176.982 76.744 179.67 73.288C182.358 69.768 185.91 68.008 190.326 68.008C194.742 68.008 198.294 69.768 200.982 73.288C203.67 76.744 205.014 81.576 205.014 87.784C205.014 94.056 203.67 98.952 200.982 102.472C198.294 105.992 194.742 107.752 190.326 107.752ZM226.422 68.968H232.566L198.102 134.152H191.958L226.422 68.968ZM190.326 101.992C192.63 101.992 194.454 100.808 195.798 98.44C197.206 96.008 197.91 92.456 197.91 87.784C197.91 83.112 197.206 79.624 195.798 77.32C194.454 74.952 192.63 73.768 190.326 73.768C188.022 73.768 186.166 74.952 184.758 77.32C183.414 79.624 182.742 83.112 182.742 87.784C182.742 92.456 183.414 96.008 184.758 98.44C186.166 100.808 188.022 101.992 190.326 101.992ZM234.39 134.152C229.974 134.152 226.422 132.392 223.734 128.872C221.046 125.352 219.702 120.456 219.702 114.184C219.702 107.976 221.046 103.144 223.734 99.688C226.422 96.168 229.974 94.408 234.39 94.408C238.806 94.408 242.358 96.168 245.046 99.688C247.734 103.144 249.078 107.976 249.078 114.184C249.078 120.456 247.734 125.352 245.046 128.872C242.358 132.392 238.806 134.152 234.39 134.152ZM234.39 128.392C236.694 128.392 238.518 127.208 239.862 124.84C241.27 122.408 241.974 118.856 241.974 114.184C241.974 109.512 241.27 106.024 239.862 103.72C238.518 101.352 236.694 100.168 234.39 100.168C232.086 100.168 230.23 101.352 228.822 103.72C227.478 106.024 226.806 109.512 226.806 114.184C226.806 118.856 227.478 122.408 228.822 124.84C230.23 127.208 232.086 128.392 234.39 128.392Z" fill="black"/>
</svg>
